<svg width="24" height="24" viewBox="0 0 24 24" fill="none" xmlns="http://www.w3.org/2000/svg">
<path d="M13.9319 15.7113H10.1039C10.1039 11.9718 12.1455 10.7253 13.5491 9.97746C14.0595 9.72816 14.4423 9.47887 14.6975 9.22957C15.3355 8.60633 15.0803 7.7338 14.9527 7.4845C14.5699 6.61197 13.6767 5.73943 12.0179 5.73943C9.33835 5.73943 8.82796 8.10774 8.82796 8.60633L5 8.10774C5.2552 5.98873 7.16918 2 12.0179 2C14.9527 2 17.5047 3.62042 18.5255 5.98873C19.4186 8.10774 19.0358 10.3514 17.5047 11.8472C16.8667 12.4704 16.1011 12.8444 15.4631 13.2183C14.3147 13.8415 13.9319 14.4648 13.9319 15.7113ZM14.5699 19.4507C14.5776 19.7827 14.5173 20.1128 14.3926 20.4217C14.2678 20.7306 14.0812 21.0121 13.8436 21.2496C13.606 21.487 13.3222 21.6758 13.0089 21.8046C12.6956 21.9335 12.3591 21.9999 12.0192 22C11.6793 22.0001 11.3428 21.9338 11.0294 21.8051C10.716 21.6764 10.4322 21.4878 10.1944 21.2505C9.95672 21.0131 9.76993 20.7317 9.64505 20.4229C9.52017 20.114 9.45971 19.7839 9.46723 19.4519C9.48197 18.8006 9.75716 18.1807 10.2339 17.7251C10.7106 17.2695 11.351 17.0143 12.0179 17.0141C12.6849 17.0139 13.3254 17.2688 13.8024 17.7242C14.2793 18.1796 14.5548 18.7993 14.5699 19.4507Z" fill="#2D2D2D"/>
</svg>
