<svg width="24" height="24" viewBox="0 0 24 24" fill="none" xmlns="http://www.w3.org/2000/svg">
<path d="M6.5 5.001C6.49974 5.53143 6.28877 6.04004 5.91351 6.41492C5.53825 6.78981 5.02943 7.00027 4.499 7C3.96857 6.99974 3.45996 6.78877 3.08508 6.41351C2.71019 6.03825 2.49974 5.52943 2.5 4.999C2.50027 4.46857 2.71123 3.95996 3.08649 3.58508C3.46175 3.21019 3.97057 2.99974 4.501 3C5.03143 3.00027 5.54004 3.21123 5.91492 3.58649C6.28981 3.96175 6.50027 4.47057 6.5 5.001ZM6.56 8.481H2.56V21.001H6.56V8.481ZM12.88 8.481H8.9V21.001H12.84V14.431C12.84 10.771 17.61 10.431 17.61 14.431V21.001H21.56V13.071C21.56 6.901 14.5 7.131 12.84 10.161L12.88 8.481Z" fill="#2D2D2D"/>
</svg>
