<svg width="24" height="24" viewBox="0 0 24 24" fill="none" xmlns="http://www.w3.org/2000/svg">
<path fill-rule="evenodd" clip-rule="evenodd" d="M12 4.99998C15.3137 4.99998 18 7.6863 18 11C18 13.2208 16.7934 15.1599 15 16.1973V20L14 21H13C13 21.5523 12.5523 22 12 22C11.4477 22 11 21.5523 11 21H10L8.99998 20V16.1973C7.20655 15.1599 5.99998 13.2208 5.99998 11C5.99998 7.6863 8.6863 4.99998 12 4.99998ZM13.0001 16.917C12.6696 16.9723 12.3351 17.0001 12 17C11.6593 17 11.3252 16.9716 11 16.917L11 19H13L13.0001 16.917ZM6.51992 15.4194L7.58056 16.4801L5.45928 18.6014L4.39859 17.5407L6.51992 15.4194ZM17.4801 15.4194L19.6014 17.5407L18.5407 18.6014L16.4194 16.4801L17.4801 15.4194ZM22 10.25V11.75H19V10.25H22ZM5 10.25V11.75H2V10.25H5ZM18.5408 3.39859L19.6014 4.45928L17.4801 6.58056L16.4194 5.51992L18.5408 3.39859ZM5.45928 3.39859L7.58056 5.51992L6.51992 6.58056L4.39859 4.45928L5.45928 3.39859ZM12.75 1V4H11.25V1H12.75Z" fill="#2D2D2D"/>
</svg>
