<svg width="24" height="24" viewBox="0 0 24 24" fill="none" xmlns="http://www.w3.org/2000/svg">
<path d="M11.3333 11.9949C11.3333 11.2726 11.0729 10.6559 10.5521 10.1448C10.0312 9.63373 9.40278 9.37819 8.66667 9.37819C7.93056 9.37819 7.30208 9.63373 6.78125 10.1448C6.26042 10.6559 6 11.2726 6 11.9949C6 12.7172 6.26042 13.3339 6.78125 13.845C7.30208 14.356 7.93056 14.6116 8.66667 14.6116C9.40278 14.6116 10.0312 14.356 10.5521 13.845C11.0729 13.3339 11.3333 12.7172 11.3333 11.9949ZM19.3333 17.2283C19.3333 16.8739 19.2014 16.5673 18.9375 16.3083C18.6736 16.0494 18.3611 15.9199 18 15.9199C17.6389 15.9199 17.3264 16.0494 17.0625 16.3083C16.7986 16.5673 16.6667 16.8739 16.6667 17.2283C16.6667 17.5894 16.7969 17.8978 17.0573 18.1533C17.3177 18.4089 17.6319 18.5366 18 18.5366C18.3681 18.5366 18.6823 18.4089 18.9427 18.1533C19.2031 17.8978 19.3333 17.5894 19.3333 17.2283ZM19.3333 6.7615C19.3333 6.40716 19.2014 6.10051 18.9375 5.84157C18.6736 5.58262 18.3611 5.45315 18 5.45315C17.6389 5.45315 17.3264 5.58262 17.0625 5.84157C16.7986 6.10051 16.6667 6.40716 16.6667 6.7615C16.6667 7.12266 16.7969 7.43101 17.0573 7.68654C17.3177 7.94208 17.6319 8.06985 18 8.06985C18.3681 8.06985 18.6823 7.94208 18.9427 7.68654C19.2031 7.43101 19.3333 7.12266 19.3333 6.7615ZM15.3333 11.0647V12.9557C15.3333 13.0239 15.309 13.0903 15.2604 13.155C15.2118 13.2198 15.1562 13.2555 15.0938 13.2624L13.4792 13.5077C13.4028 13.7462 13.2917 14.0051 13.1458 14.2845C13.3819 14.6116 13.6944 15.0034 14.0833 15.46C14.1319 15.5349 14.1562 15.6031 14.1562 15.6644C14.1562 15.7462 14.1319 15.8109 14.0833 15.8586C13.9236 16.063 13.6372 16.368 13.224 16.7734C12.8108 17.1789 12.5382 17.3816 12.4062 17.3816C12.3299 17.3816 12.2569 17.3578 12.1875 17.3101L10.9896 16.3901C10.7326 16.5196 10.4653 16.6252 10.1875 16.707C10.1111 17.4429 10.0312 17.971 9.94792 18.2913C9.89931 18.4549 9.79514 18.5366 9.63542 18.5366H7.69792C7.62153 18.5366 7.55208 18.5111 7.48958 18.46C7.42708 18.4089 7.39236 18.3492 7.38542 18.2811L7.14583 16.7172C6.90972 16.6491 6.64931 16.5434 6.36458 16.4003L5.13542 17.3101C5.08681 17.3578 5.01736 17.3816 4.92708 17.3816C4.85069 17.3816 4.77778 17.3543 4.70833 17.2998C3.70833 16.3935 3.20833 15.8484 3.20833 15.6644C3.20833 15.6031 3.23264 15.5383 3.28125 15.4702C3.35069 15.3748 3.49306 15.1942 3.70833 14.9285C3.92361 14.6627 4.08681 14.4549 4.19792 14.3049C4.03819 14.0051 3.91667 13.7257 3.83333 13.4668L2.25 13.2215C2.18056 13.2147 2.12153 13.1823 2.07292 13.1244C2.02431 13.0664 2 13 2 12.925V11.0341C2 10.9659 2.02431 10.8995 2.07292 10.8348C2.12153 10.77 2.17708 10.7342 2.23958 10.7274L3.85417 10.4821C3.93056 10.2436 4.04167 9.98467 4.1875 9.70528C3.95139 9.37819 3.63889 8.98637 3.25 8.52981C3.20139 8.45486 3.17708 8.38671 3.17708 8.32538C3.17708 8.24361 3.20139 8.17547 3.25 8.12095C3.40278 7.91652 3.6875 7.61329 4.10417 7.21124C4.52083 6.8092 4.79514 6.60818 4.92708 6.60818C5.00347 6.60818 5.07639 6.63203 5.14583 6.67973L6.34375 7.59966C6.57986 7.477 6.84722 7.36797 7.14583 7.27257C7.22222 6.53663 7.30208 6.01193 7.38542 5.69847C7.43403 5.53492 7.53819 5.45315 7.69792 5.45315H9.63542C9.71181 5.45315 9.78125 5.47871 9.84375 5.52981C9.90625 5.58092 9.94097 5.64055 9.94792 5.70869L10.1875 7.27257C10.4236 7.34072 10.684 7.44634 10.9688 7.58944L12.1979 6.67973C12.2535 6.63203 12.3229 6.60818 12.4062 6.60818C12.4826 6.60818 12.5556 6.63543 12.625 6.68995C13.625 7.59625 14.125 8.1414 14.125 8.32538C14.125 8.3799 14.1007 8.44463 14.0521 8.51959C13.9688 8.62862 13.8229 8.81261 13.6146 9.07155C13.4062 9.33049 13.25 9.53492 13.1458 9.68484C13.3056 10.0119 13.4236 10.2913 13.5 10.523L15.0833 10.7581C15.1528 10.7717 15.2118 10.8075 15.2604 10.8654C15.309 10.9233 15.3333 10.9898 15.3333 11.0647ZM22 16.5128V17.9438C22 18.0528 21.4826 18.1584 20.4479 18.2606C20.3646 18.4446 20.2604 18.6218 20.1354 18.7922C20.4896 19.5622 20.6667 20.0324 20.6667 20.2027C20.6667 20.23 20.6528 20.2538 20.625 20.2743C19.7778 20.7581 19.3472 21 19.3333 21C19.2778 21 19.1181 20.8399 18.8542 20.5196C18.5903 20.1993 18.4097 19.9676 18.3125 19.8245C18.1736 19.8382 18.0694 19.845 18 19.845C17.9306 19.845 17.8264 19.8382 17.6875 19.8245C17.5903 19.9676 17.4097 20.1993 17.1458 20.5196C16.8819 20.8399 16.7222 21 16.6667 21C16.6528 21 16.2222 20.7581 15.375 20.2743C15.3472 20.2538 15.3333 20.23 15.3333 20.2027C15.3333 20.0324 15.5104 19.5622 15.8646 18.7922C15.7396 18.6218 15.6354 18.4446 15.5521 18.2606C14.5174 18.1584 14 18.0528 14 17.9438V16.5128C14 16.4037 14.5174 16.2981 15.5521 16.1959C15.6424 15.9983 15.7465 15.8211 15.8646 15.6644C15.5104 14.8944 15.3333 14.4242 15.3333 14.2538C15.3333 14.2266 15.3472 14.2027 15.375 14.1823C15.4028 14.1687 15.5243 14.1005 15.7396 13.9779C15.9549 13.8552 16.1597 13.7394 16.3542 13.6303C16.5486 13.5213 16.6528 13.4668 16.6667 13.4668C16.7222 13.4668 16.8819 13.6252 17.1458 13.9421C17.4097 14.2589 17.5903 14.4889 17.6875 14.632C17.8264 14.6184 17.9306 14.6116 18 14.6116C18.0694 14.6116 18.1736 14.6184 18.3125 14.632C18.6667 14.1482 18.9861 13.7666 19.2708 13.4872L19.3333 13.4668C19.3611 13.4668 19.7917 13.7053 20.625 14.1823C20.6528 14.2027 20.6667 14.2266 20.6667 14.2538C20.6667 14.4242 20.4896 14.8944 20.1354 15.6644C20.2535 15.8211 20.3576 15.9983 20.4479 16.1959C21.4826 16.2981 22 16.4037 22 16.5128ZM22 6.046V7.477C22 7.58603 21.4826 7.69165 20.4479 7.79387C20.3646 7.97785 20.2604 8.15503 20.1354 8.32538C20.4896 9.0954 20.6667 9.56559 20.6667 9.73595C20.6667 9.7632 20.6528 9.78705 20.625 9.8075C19.7778 10.2913 19.3472 10.5332 19.3333 10.5332C19.2778 10.5332 19.1181 10.3731 18.8542 10.0528C18.5903 9.73254 18.4097 9.50085 18.3125 9.35775C18.1736 9.37138 18.0694 9.37819 18 9.37819C17.9306 9.37819 17.8264 9.37138 17.6875 9.35775C17.5903 9.50085 17.4097 9.73254 17.1458 10.0528C16.8819 10.3731 16.7222 10.5332 16.6667 10.5332C16.6528 10.5332 16.2222 10.2913 15.375 9.8075C15.3472 9.78705 15.3333 9.7632 15.3333 9.73595C15.3333 9.56559 15.5104 9.0954 15.8646 8.32538C15.7396 8.15503 15.6354 7.97785 15.5521 7.79387C14.5174 7.69165 14 7.58603 14 7.477V6.046C14 5.93697 14.5174 5.83135 15.5521 5.72913C15.6424 5.53152 15.7465 5.35434 15.8646 5.19762C15.5104 4.4276 15.3333 3.95741 15.3333 3.78705C15.3333 3.7598 15.3472 3.73595 15.375 3.7155C15.4028 3.70187 15.5243 3.63373 15.7396 3.51107C15.9549 3.38842 16.1597 3.27257 16.3542 3.16354C16.5486 3.05451 16.6528 3 16.6667 3C16.7222 3 16.8819 3.15843 17.1458 3.4753C17.4097 3.79216 17.5903 4.02215 17.6875 4.16525C17.8264 4.15162 17.9306 4.1448 18 4.1448C18.0694 4.1448 18.1736 4.15162 18.3125 4.16525C18.6667 3.68143 18.9861 3.29983 19.2708 3.02044L19.3333 3C19.3611 3 19.7917 3.2385 20.625 3.7155C20.6528 3.73595 20.6667 3.7598 20.6667 3.78705C20.6667 3.95741 20.4896 4.4276 20.1354 5.19762C20.2535 5.35434 20.3576 5.53152 20.4479 5.72913C21.4826 5.83135 22 5.93697 22 6.046Z" fill="#2D2D2D"/>
</svg>
