<svg width="24" height="24" viewBox="0 0 24 24" fill="none" xmlns="http://www.w3.org/2000/svg">
<path fill-rule="evenodd" clip-rule="evenodd" d="M7 16C6.80225 16 6.60895 15.9413 6.44454 15.8314C6.28013 15.7215 6.15199 15.5654 6.07632 15.3827C6.00065 15.2 5.98085 14.9989 6.01942 14.805C6.05798 14.611 6.15319 14.4329 6.293 14.293L11.293 9.293C11.4805 9.10553 11.7348 9.00021 12 9.00021C12.2652 9.00021 12.5195 9.10553 12.707 9.293L17.707 14.293C17.8468 14.4329 17.942 14.611 17.9806 14.805C18.0192 14.9989 17.9993 15.2 17.9237 15.3827C17.848 15.5654 17.7199 15.7215 17.5555 15.8314C17.391 15.9413 17.1978 16 17 16H7Z" fill="#2D2D2D"/>
</svg>
