<svg width="24" height="24" viewBox="0 0 24 24" fill="none" xmlns="http://www.w3.org/2000/svg">
<path fill-rule="evenodd" clip-rule="evenodd" d="M8.49988 17.0002C8.49992 17.198 8.55859 17.3913 8.66848 17.5557C8.77836 17.7201 8.93452 17.8482 9.11722 17.9239C9.29992 17.9996 9.50096 18.0194 9.69491 17.9808C9.88886 17.9422 10.067 17.847 10.2069 17.7072L15.2069 12.7072C15.3943 12.5197 15.4997 12.2654 15.4997 12.0002C15.4997 11.735 15.3943 11.4807 15.2069 11.2932L10.2069 6.29321C10.067 6.1534 9.88886 6.0582 9.69491 6.01963C9.50096 5.98106 9.29992 6.00086 9.11722 6.07654C8.93452 6.15221 8.77836 6.28034 8.66848 6.44475C8.55859 6.60916 8.49992 6.80246 8.49988 7.00021L8.49988 17.0002Z" fill="#2D2D2D"/>
</svg>
