<svg width="24" height="24" viewBox="0 0 24 24" fill="none" xmlns="http://www.w3.org/2000/svg">
<path d="M19.6471 2L2 19.6471L4.35294 22L22 4.35294M6.11765 2.58824C5.18159 2.58824 4.28387 2.96008 3.62198 3.62198C2.96008 4.28387 2.58824 5.18159 2.58824 6.11765C2.58824 7.05371 2.96008 7.95143 3.62198 8.61332C4.28387 9.27521 5.18159 9.64706 6.11765 9.64706C7.05371 9.64706 7.95143 9.27521 8.61332 8.61332C9.27521 7.95143 9.64706 7.05371 9.64706 6.11765C9.64706 5.18159 9.27521 4.28387 8.61332 3.62198C7.95143 2.96008 7.05371 2.58824 6.11765 2.58824ZM17.8824 14.3529C16.9463 14.3529 16.0486 14.7248 15.3867 15.3867C14.7248 16.0486 14.3529 16.9463 14.3529 17.8824C14.3529 18.8184 14.7248 19.7161 15.3867 20.378C16.0486 21.0399 16.9463 21.4118 17.8824 21.4118C18.8184 21.4118 19.7161 21.0399 20.378 20.378C21.0399 19.7161 21.4118 18.8184 21.4118 17.8824C21.4118 16.9463 21.0399 16.0486 20.378 15.3867C19.7161 14.7248 18.8184 14.3529 17.8824 14.3529Z" fill="#2D2D2D"/>
</svg>
