<svg width="45" height="45" viewBox="0 0 45 45" fill="none" xmlns="http://www.w3.org/2000/svg">
<g opacity="0.75" clip-path="url(#clip0_3368_27419)">
<path d="M44.9996 0H0V44.9996H44.9996V0Z" fill="#00008F"/>
<path d="M25.3008 22.2232H27.885L44.9994 0H42.4717L25.3008 22.2232Z" fill="#FF1721"/>
<path d="M34.3845 32.1403C35.1689 34.3347 36.7851 40.0452 37.4276 40.5002H33.1845C33.1717 39.9953 33.105 39.4933 32.9853 39.0026C32.8024 38.3499 31.2676 33.4123 31.2676 33.4123H24.5278L23.4681 34.9145C23.4681 34.9145 24.7409 38.8987 24.82 39.094C24.9572 39.446 25.5649 40.5002 25.5649 40.5002H21.4985C21.4985 40.5002 21.3931 39.8917 21.3536 39.6382C21.3218 39.4336 20.9683 38.3128 20.9683 38.3128C20.9683 38.3128 20.0467 39.3227 19.7956 39.7909C19.542 40.2583 19.4296 40.5002 19.4296 40.5002H16.2485C16.2485 40.5002 16.1423 39.8917 16.1027 39.6382C16.0718 39.4336 15.6826 38.2228 15.6826 38.2228C15.6826 38.2228 14.792 39.3041 14.5385 39.7715C14.2866 40.2397 14.1781 40.5002 14.1781 40.5002H11.0318C11.0318 40.5002 11.9209 39.6537 12.2317 39.2902C12.7557 38.6739 14.7083 36.1222 14.7083 36.1222L13.9254 33.4123H7.23672C7.23672 33.4123 3.42302 38.4236 3.27268 38.5786C3.12076 38.7313 2.0092 40.3266 1.98436 40.5002H0V39.2383C0.0246121 39.2115 0.0507428 39.1861 0.0782631 39.1623C0.13954 39.1173 2.96955 35.6043 5.56938 32.1403C7.90568 29.1195 10.0978 26.1817 10.29 25.9019C10.7559 25.2253 11.4271 23.7642 11.4271 23.7642H14.885C14.885 23.7642 14.992 25.1082 15.0928 25.4345C15.1826 25.7229 17.2895 32.6356 17.3391 32.71L18.5041 31.2202L16.5128 25.0903C16.5128 25.0903 16.0462 23.937 15.8942 23.7642H19.9335C19.9193 24.1349 19.9637 24.5056 20.0653 24.8625C20.2296 25.3679 21.0955 28.4925 21.0955 28.4925C21.0955 28.4925 23.8503 25.0392 24.0115 24.7912C24.2072 24.4818 24.3241 24.1292 24.3518 23.7642H27.7174C27.7174 23.7642 27.1013 24.2145 26.0214 25.5802C25.6587 26.0399 22.1046 30.5567 22.1046 30.5567C22.1046 30.5567 22.4148 31.614 22.5659 32.1403C22.607 32.2914 22.6357 32.3937 22.6357 32.4046C22.6357 32.4093 22.7139 32.3132 22.8488 32.1403C23.7658 30.9783 27.9368 25.509 28.1896 25.0407C28.3934 24.6625 28.6933 24.2323 28.8693 23.7642H32.1528C32.1528 23.7642 32.2288 24.7447 32.3288 25.016L34.3845 32.1403ZM29.3879 26.9631C28.9057 28.0003 26.068 31.4551 26.068 31.4551H30.5622C30.5622 31.4551 29.691 28.7723 29.5391 28.1677C29.4614 27.7811 29.4317 27.3864 29.4507 26.9926C29.4506 26.9375 29.4406 26.8484 29.3879 26.9631ZM12.1201 26.9631C11.6379 28.0003 8.80015 31.4551 8.80015 31.4551H13.2944C13.2944 31.4551 12.424 28.7723 12.2721 28.1677C12.1944 27.7811 12.1647 27.3864 12.1836 26.9926C12.1836 26.9375 12.1728 26.8484 12.1201 26.9631ZM18.8863 37.4384L20.1235 35.7393C20.0095 35.6168 19.3126 33.5038 19.3126 33.5038L18.1166 35.0556L18.8863 37.4384Z" fill="white"/>
</g>
<defs>
<clipPath id="clip0_3368_27419">
<rect width="45" height="45" fill="white"/>
</clipPath>
</defs>
</svg>
