<svg width="132" height="25" viewBox="0 0 132 25" fill="none" xmlns="http://www.w3.org/2000/svg">
<g opacity="0.75" clip-path="url(#clip0_3368_27624)">
<path fill-rule="evenodd" clip-rule="evenodd" d="M48.2064 9.19022C48.2064 8.9723 48.3534 8.85585 48.5381 8.85585C48.8504 8.85585 49.3221 9.19022 49.5881 9.85897C49.4927 9.85897 49.3492 9.88808 49.2529 9.88808C48.6842 9.88808 48.2064 9.61547 48.2064 9.19022ZM13.7961 9.19022C13.7961 8.9723 13.9369 8.85585 14.1294 8.85585C14.4339 8.85585 14.8863 9.19022 15.1488 9.85897C14.2703 9.85897 13.7961 9.66752 13.7961 9.19022ZM20.433 5.73442C20.433 2.15688 21.1242 1.60723 21.3386 1.60723C21.7201 1.60723 21.7656 1.8472 21.7656 3.21911C21.7656 4.62896 21.1697 6.47375 20.433 7.48658V5.73442ZM44.5927 9.26168C44.1832 9.83691 43.8515 10.6539 43.8515 11.7064C43.8515 13.7224 44.9917 15.6466 47.2072 15.6466C49.3492 15.6466 50.8498 13.9403 50.8498 11.5608C50.8498 10.87 50.8236 10.7748 50.7789 10.488C51.2768 10.2692 51.7065 9.93484 52.0407 9.66752C52.3251 9.45137 52.5377 9.3305 52.7075 9.3305C52.921 9.3305 53.0146 9.49901 53.0146 9.81045V14.5182C53.0146 15.2848 53.2552 15.6466 53.8476 15.6466C54.3936 15.6466 54.7777 15.2601 54.9903 14.8049C55.7778 13.1489 56.918 10.9415 57.4159 10.1034C57.5357 9.91102 57.6329 9.76369 57.7011 9.76369C57.7965 9.76369 57.8455 9.83691 57.8455 10.1475V13.8953C57.8455 14.9496 58.3232 15.6466 59.3662 15.6466C60.4635 15.6466 61.0077 14.587 61.9667 12.9557C62.0122 12.8578 62.0324 12.7881 62.0324 12.7184C62.0324 12.5022 61.8469 12.3796 61.6552 12.3796C61.4391 12.3796 61.3201 12.5975 60.6079 13.3871C60.4635 13.5371 60.3235 13.7453 60.0592 13.7453C59.9647 13.7453 59.8921 13.6297 59.8921 13.4833V9.28197C59.8921 8.15357 59.3916 7.69833 58.7494 7.69833C58.227 7.69833 57.7965 7.91448 57.345 8.58676C56.5356 9.78927 55.7026 11.4947 55.252 12.354C55.2012 12.4546 55.133 12.5975 55.0866 12.5975C55.0367 12.5975 55.0157 12.5234 55.0157 12.354V9.28197C55.0157 8.39619 54.7777 7.69833 53.8476 7.69833C52.8711 7.69833 52.3723 8.37149 51.6583 8.87437C51.206 9.21404 50.8026 9.45137 50.4946 9.59518C50.0159 8.37149 49.1366 7.75126 48.3989 7.76979C47.6587 7.79537 47.1354 8.25415 47.1354 9.02259C47.1354 9.81045 47.6141 10.3592 48.2537 10.6036C48.6089 10.7474 48.9432 10.7748 49.4218 10.7748C49.5653 10.7748 49.7071 10.7748 49.7989 10.7474C49.8497 10.9865 49.8269 11.3271 49.8269 11.59C49.8269 12.7678 49.1366 13.9403 47.8529 13.9403C46.5168 13.9403 45.7346 12.6443 45.7346 11.1577C45.7346 10.0284 46.0662 9.09406 46.6096 8.44825C46.8292 8.20651 46.9928 8.06006 46.9928 7.83861C46.9928 7.72656 46.8292 7.69833 46.6848 7.69833C45.7783 7.69833 44.7817 8.1077 44.093 8.46589C43.1839 8.94672 42.1155 9.74164 41.2335 10.533C40.8057 9.57048 40.2824 8.73057 40.019 8.08035C39.9245 7.81655 39.8554 7.51041 39.6646 7.51041C39.4958 7.51041 39.4223 7.67804 39.3059 8.00888C38.8789 9.28198 36.5925 13.0051 36.0929 13.5089C36.0456 13.5777 35.9765 13.6536 35.9538 13.6536C35.9021 13.6536 35.875 13.6297 35.875 13.4833V9.28198C35.875 8.15358 35.4235 7.69833 34.8093 7.69833C34.2834 7.69833 33.8328 7.91448 33.4049 8.58676C32.6209 9.78928 31.6645 11.5414 31.2139 12.4034C31.1412 12.5516 31.0695 12.5975 31.045 12.5975C31.0214 12.5975 31.0021 12.5022 31.0021 12.354V9.28198C31.0021 8.15358 30.548 7.69833 29.9285 7.69833C29.4035 7.69833 28.9065 7.89507 28.4996 8.58676C27.5021 10.293 25.837 12.9089 25.5272 13.3377C25.4791 13.4118 25.431 13.4603 25.3837 13.4833C25.3365 13.4833 25.3093 13.4365 25.3093 13.3174V9.28198C25.3093 8.15358 24.8578 7.69833 24.2427 7.69833C23.3843 7.69833 22.911 8.49413 22.5986 8.99525C22.1681 9.69135 21.5993 10.6292 21.1487 11.4947C20.8381 12.0734 20.5747 12.5975 20.4785 12.5975C20.433 12.5975 20.433 12.3796 20.433 11.9729V8.75792C21.9301 7.07458 22.8593 5.01274 22.8593 2.75682C22.8593 1.45814 22.2906 0.741744 21.4121 0.741744C19.7662 0.741744 18.5079 3.33469 18.5079 6.40406V8.89996C17.7449 9.38079 17.0301 9.61547 16.1481 9.78928C15.6974 8.44825 14.7437 7.75127 13.9851 7.76979C13.2492 7.79538 12.7233 8.25415 12.7233 9.0226C12.7233 10.293 13.9614 10.8206 15.0534 10.8206H15.3632C15.4096 11.0624 15.4096 11.3271 15.4096 11.59C15.4096 12.7678 14.7201 13.9403 13.4382 13.9403C12.1064 13.9403 11.3189 12.6443 11.3189 11.1577C11.3189 10.0284 11.6488 9.09406 12.1965 8.44825C12.4127 8.20651 12.5807 7.99036 12.5807 7.83861C12.5807 7.72656 12.4127 7.69833 12.2683 7.69833C11.3644 7.69833 9.36766 8.92731 6.9859 11.327C6.77502 9.40637 6.53527 7.53246 6.53527 5.70796C6.53527 3.66906 6.93515 1.93719 7.03052 1.43784C7.07865 1.12817 7.1084 0.933188 7.1084 0.792027C7.1084 0.598813 7.0069 0.5 6.75052 0.5C4.82026 0.5 0.583496 3.5976 0.583496 8.22944C0.583496 11.5141 1.77613 13.0995 3.84288 15.1393C2.58813 17.1799 1.58188 19.6026 1.58188 21.7632C1.58188 23.3204 1.94238 24.5 3.08163 24.5C5.46252 24.5 7.24577 19.5108 7.24577 15.8124C7.24577 14.7096 7.20202 13.6041 7.1084 12.5022C7.98603 11.5608 9.34316 10.293 9.67391 10.1731C9.53216 10.6777 9.43678 11.2071 9.43678 11.7064C9.43678 13.7224 10.5813 15.6466 12.7924 15.6466C14.8662 15.6466 16.4342 13.9403 16.4342 11.5608C16.4342 11.2538 16.4097 10.9865 16.3887 10.6998C17.1464 10.556 17.8438 10.3592 18.5079 9.95778V14.7811C18.5079 15.4022 18.9332 15.6466 19.3383 15.6466C19.8887 15.6466 20.1739 15.2601 20.5747 14.377C20.9116 13.6536 21.8128 11.9993 22.3597 11.0121C22.7911 10.2419 23.0291 9.74163 23.2207 9.74163C23.2653 9.74163 23.3161 9.85897 23.3161 10.1475V14.2526C23.3161 15.3572 23.8875 15.6466 24.3818 15.6466C24.8578 15.6466 25.1693 15.3828 25.4791 14.9496C26.7181 13.1718 28.0288 11.0624 28.5486 10.1475C28.6449 9.98337 28.763 9.85897 28.8592 9.85897C28.952 9.85897 29.0001 9.91102 29.0001 10.2189V14.5182C29.0001 15.2848 29.2381 15.6466 29.8357 15.6466C30.38 15.6466 30.7361 15.2601 30.9487 14.8049C31.7397 13.1489 32.9026 10.9636 33.4049 10.1034C33.5212 9.91102 33.6411 9.74163 33.712 9.74163C33.8109 9.74163 33.8327 9.85897 33.8327 10.1731V14.2526C33.8327 15.3572 34.4041 15.6466 34.9072 15.6466C35.5679 15.6466 36.001 15.164 36.4289 14.6143C37.2094 13.5777 38.353 11.7373 39.0443 10.556C39.284 10.9415 39.543 11.3985 39.7609 11.9014C39.1886 12.5975 38.6164 13.3871 38.6164 14.2261C38.6164 15.1154 39.235 15.6466 39.8782 15.6466C40.971 15.6466 41.9694 14.587 41.9694 13.126C41.9694 12.5516 41.8058 11.9499 41.5932 11.3756C42.5635 10.413 43.7317 9.47695 44.5927 9.26168ZM5.38902 14.4935C5.58152 15.7639 5.74864 17.0149 5.74864 17.9969C5.74864 20.2969 4.98914 22.9861 3.67926 22.964C3.17351 22.964 2.74826 22.4541 2.72726 21.5709C2.67913 18.6939 4.03539 16.2447 5.38902 14.4935ZM40.138 12.8578C40.2824 13.2707 40.355 13.6041 40.355 13.9403C40.355 14.3249 40.2115 14.7096 39.9482 14.7096C39.7609 14.7096 39.5702 14.4935 39.5702 14.1564C39.5702 13.7956 39.8782 13.2195 40.138 12.8578ZM6.24827 1.41225C6.24827 1.55871 5.91489 2.22834 5.48789 3.42997C5.03551 4.67572 4.60414 6.44993 4.60414 8.58676C4.60414 9.85897 4.91651 11.5414 5.17989 13.2442L4.41776 14.28C3.20238 12.7881 2.442 11.1109 2.442 8.22944C2.442 4.15077 4.89289 1.32138 6.15202 1.32138C6.22727 1.32138 6.24827 1.34255 6.24827 1.41225Z" fill="#D51900"/>
<path fill-rule="evenodd" clip-rule="evenodd" d="M118.01 9.19022C118.01 8.9723 118.149 8.85585 118.341 8.85585C118.648 8.85585 119.125 9.19022 119.386 9.85897C119.293 9.85897 119.151 9.88808 119.051 9.88808C118.485 9.88808 118.01 9.61547 118.01 9.19022ZM83.5921 9.19022C83.5921 8.9723 83.7374 8.85585 83.9255 8.85585C84.2352 8.85585 84.692 9.19022 84.9484 9.85897C84.0681 9.85897 83.5921 9.66752 83.5921 9.19022ZM90.2334 5.73442C90.2334 2.15688 90.9203 1.60723 91.1373 1.60723C91.517 1.60723 91.5652 1.8472 91.5652 3.21911C91.5652 4.62896 90.9684 6.47375 90.2334 7.48658V5.73442ZM75.1938 14.4935C75.3785 15.7639 75.5517 17.0149 75.5517 17.9969C75.5517 20.2969 74.7913 22.9861 73.4788 22.964C72.9801 22.964 72.5513 22.4541 72.5277 21.5709C72.4787 18.6939 73.8376 16.2447 75.1938 14.4935ZM109.942 12.8578C110.086 13.2707 110.155 13.6041 110.155 13.9403C110.155 14.3249 110.012 14.7096 109.75 14.7096C109.562 14.7096 109.366 14.4935 109.366 14.1564C109.366 13.7956 109.679 13.2195 109.942 12.8578ZM76.0461 1.41225C76.0461 1.55871 75.7162 2.22834 75.2848 3.42997C74.836 4.67572 74.4046 6.44993 74.4046 8.58676C74.4046 9.85897 74.7222 11.5414 74.9821 13.2442L74.2182 14.28C73.0063 12.7881 72.2407 11.1109 72.2407 8.22944C72.2407 4.15077 74.6968 1.32138 75.956 1.32138C76.0251 1.32138 76.0461 1.34255 76.0461 1.41225ZM72.078 13.4118C72.5032 13.9879 73.0282 14.5393 73.6468 15.1393C72.3842 17.1799 71.3858 19.6026 71.3858 21.7632C71.3858 23.3204 71.7455 24.5 72.8882 24.5C75.2656 24.5 77.0488 19.5108 77.0488 15.8124C77.0488 14.7096 77.0025 13.6041 76.9071 12.5022C77.7891 11.5608 79.141 10.293 79.4787 10.1731C79.3352 10.6777 79.2364 11.2071 79.2364 11.7064C79.2364 13.7224 80.38 15.6466 82.5955 15.6466C84.664 15.6466 86.2346 13.9403 86.2346 11.5608C86.2346 11.2538 86.2128 10.9865 86.1865 10.6998C86.9495 10.556 87.6443 10.3592 88.3066 9.95778V14.7811C88.3066 15.4022 88.7328 15.6466 89.1344 15.6466C89.6891 15.6466 89.9744 15.2601 90.3769 14.377C90.7085 13.6536 91.615 11.9993 92.1637 11.0121C92.5907 10.2419 92.8287 9.74163 93.0238 9.74163C93.0684 9.74163 93.113 9.85897 93.113 10.1475V14.2526C93.113 15.3572 93.6827 15.6466 94.1832 15.6466C94.6609 15.6466 94.9672 15.3828 95.283 14.9496C96.5168 13.1718 97.8276 11.0624 98.3499 10.1475C98.4453 9.98337 98.5661 9.85897 98.6579 9.85897C98.7507 9.85897 98.8032 9.91102 98.8032 10.2189V14.5182C98.8032 15.2848 99.0386 15.6466 99.6327 15.6466C100.18 15.6466 100.537 15.2601 100.754 14.8049C101.539 13.1489 102.705 10.9636 103.203 10.1034C103.324 9.91102 103.442 9.74163 103.517 9.74163C103.61 9.74163 103.636 9.85897 103.636 10.1731V14.2526C103.636 15.3572 104.202 15.6466 104.701 15.6466C105.372 15.6466 105.801 15.164 106.226 14.6143C107.011 13.5777 108.156 11.7373 108.846 10.556C109.081 10.9415 109.346 11.3985 109.562 11.9014C108.985 12.5975 108.419 13.3871 108.419 14.2261C108.419 15.1154 109.031 15.6466 109.679 15.6466C110.771 15.6466 111.77 14.587 111.77 13.126C111.77 12.5516 111.604 11.9499 111.39 11.3756C112.365 10.413 113.532 9.47695 114.389 9.26168C113.984 9.83691 113.651 10.6539 113.651 11.7064C113.651 13.7224 114.795 15.6466 117.008 15.6466C119.151 15.6466 120.646 13.9403 120.646 11.5608C120.646 10.87 120.624 10.7748 120.579 10.488C121.074 10.2692 121.505 9.93484 121.842 9.66752C122.121 9.45137 122.34 9.3305 122.504 9.3305C122.719 9.3305 122.819 9.49901 122.819 9.81045V14.5182C122.819 15.2848 123.054 15.6466 123.649 15.6466C124.194 15.6466 124.577 15.2601 124.793 14.8049C125.573 13.1489 126.718 10.9415 127.215 10.1034C127.334 9.91102 127.432 9.76369 127.503 9.76369C127.6 9.76369 127.647 9.83691 127.647 10.1475V13.8953C127.647 14.9496 128.118 15.6466 129.168 15.6466C130.267 15.6466 130.813 14.587 131.766 12.9557C131.811 12.8578 131.834 12.7881 131.834 12.7184C131.834 12.5022 131.643 12.3796 131.454 12.3796C131.241 12.3796 131.12 12.5975 130.407 13.3871C130.267 13.5371 130.121 13.7453 129.861 13.7453C129.763 13.7453 129.695 13.6297 129.695 13.4833V9.28197C129.695 8.15357 129.189 7.69833 128.547 7.69833C128.027 7.69833 127.6 7.91448 127.146 8.58676C126.335 9.78927 125.505 11.4947 125.056 12.354C125.004 12.4546 124.935 12.5975 124.884 12.5975C124.834 12.5975 124.815 12.5234 124.815 12.354V9.28197C124.815 8.39619 124.577 7.69833 123.649 7.69833C122.671 7.69833 122.174 8.37149 121.461 8.87437C121.004 9.21404 120.602 9.45137 120.29 9.59518C119.818 8.37149 118.934 7.75126 118.2 7.76979C117.458 7.79537 116.939 8.25415 116.939 9.02259C116.939 9.81045 117.415 10.3592 118.052 10.6036C118.41 10.7474 118.744 10.7748 119.226 10.7748C119.365 10.7748 119.503 10.7748 119.605 10.7474C119.651 10.9865 119.627 11.3271 119.627 11.59C119.627 12.7678 118.934 13.9403 117.648 13.9403C116.316 13.9403 115.534 12.6443 115.534 11.1577C115.534 10.0284 115.865 9.09406 116.41 8.44825C116.627 8.20651 116.795 8.06006 116.795 7.83861C116.795 7.72656 116.627 7.69833 116.484 7.69833C115.584 7.69833 114.581 8.1077 113.891 8.46589C112.985 8.94672 111.914 9.74164 111.037 10.533C110.607 9.57047 110.086 8.73057 109.821 8.08034C109.723 7.81655 109.658 7.51041 109.461 7.51041C109.296 7.51041 109.224 7.67803 109.106 8.00888C108.677 9.28197 106.394 13.0051 105.894 13.5089C105.846 13.5777 105.775 13.6536 105.75 13.6536C105.705 13.6536 105.679 13.6297 105.679 13.4833V9.28197C105.679 8.15357 105.23 7.69833 104.605 7.69833C104.081 7.69833 103.636 7.91448 103.203 8.58676C102.416 9.78927 101.467 11.5414 101.014 12.4034C100.944 12.5516 100.874 12.5975 100.852 12.5975C100.824 12.5975 100.8 12.5022 100.8 12.354V9.28197C100.8 8.15357 100.351 7.69833 99.7316 7.69833C99.2066 7.69833 98.7034 7.89507 98.3027 8.58676C97.2999 10.293 95.6365 12.9089 95.325 13.3377C95.283 13.4118 95.2323 13.4603 95.1815 13.4833C95.1395 13.4833 95.1115 13.4365 95.1115 13.3174V9.28197C95.1115 8.15357 94.6609 7.69833 94.0397 7.69833C93.1804 7.69833 92.7079 8.49412 92.3964 8.99524C91.9685 9.69134 91.4006 10.6292 90.9465 11.4947C90.6394 12.0734 90.3769 12.5975 90.2815 12.5975C90.2334 12.5975 90.2334 12.3796 90.2334 11.9729V8.75791C91.7349 7.07457 92.6598 5.01274 92.6598 2.75681C92.6598 1.45813 92.0901 0.741738 91.2064 0.741738C89.5666 0.741738 88.3066 3.33469 88.3066 6.40406V8.89996C87.5428 9.38079 86.8288 9.61547 85.9467 9.78927C85.4979 8.44824 84.545 7.75126 83.7881 7.76979C83.0452 7.79537 82.5237 8.25415 82.5237 9.02259C82.5237 10.293 83.7575 10.8206 84.8547 10.8206H85.1662C85.21 11.0624 85.21 11.327 85.21 11.59C85.21 12.7678 84.5222 13.9403 83.236 13.9403C81.9025 13.9403 81.1211 12.6443 81.1211 11.1577C81.1211 10.0284 81.4536 9.09405 81.997 8.44824C82.2105 8.2065 82.3785 7.99035 82.3785 7.8386C82.3785 7.72656 82.2105 7.69833 82.0696 7.69833C81.164 7.69833 79.1663 8.92731 76.7837 11.327C76.5746 9.40637 76.334 7.53246 76.334 5.70796C76.334 3.66906 76.7382 1.93719 76.8336 1.43784C76.8808 1.12817 76.9071 0.933188 76.9071 0.792027C76.9071 0.598813 76.81 0.5 76.5527 0.5C74.6242 0.5 70.3874 3.5976 70.3874 8.22944C70.3874 10.1228 70.7917 11.47 71.5057 12.6443C71.2397 12.5975 71.0306 12.5975 70.8354 12.5975C70.0768 12.5975 69.3602 12.7881 68.9157 12.886V12.4034C68.9157 11.3756 68.6742 9.95778 68.2446 9.47695C68.1938 9.42755 68.1229 9.40637 68.0564 9.40637C67.8604 9.40637 67.6259 9.49901 67.3652 9.64458C67.0764 9.78927 66.7912 9.93484 66.7912 10.0284C66.7912 10.0742 66.7912 10.1228 66.8629 10.2419C67.0309 10.488 67.4842 10.9636 67.6478 12.0946C66.8367 11.2776 65.9127 10.915 64.7034 10.915C63.2728 10.915 62.8423 11.5608 62.8423 12.2128C62.8423 13.4603 64.4847 14.0841 66.5584 14.0841C66.9382 14.0841 67.3652 14.0117 67.7913 13.9138C67.7913 14.2985 67.8394 14.639 67.8394 14.9249C67.8394 15.3334 67.9086 15.6466 68.1737 15.6466C68.5771 15.6466 68.8168 14.827 68.8623 13.6536C69.5999 13.4603 70.3629 13.2945 71.0078 13.2945C71.3158 13.2945 71.7008 13.3377 72.078 13.4118ZM67.3897 13.1718C66.9889 13.2195 66.7448 13.2195 66.3204 13.2195C65.3894 13.2195 64.7034 12.8578 64.7034 12.3346C64.7034 11.9993 64.8679 11.8043 65.3439 11.8043C66.1069 11.8043 66.7221 12.3346 67.3897 13.1718Z" fill="#D51900"/>
</g>
<defs>
<clipPath id="clip0_3368_27624">
<rect width="131.25" height="24" fill="white" transform="translate(0.583496 0.5)"/>
</clipPath>
</defs>
</svg>
