<svg width="86" height="29" viewBox="0 0 86 29" fill="none" xmlns="http://www.w3.org/2000/svg">
<g clip-path="url(#clip0_3368_27631)">
<path d="M7.15145 7.9319C10.6333 7.9319 13.4694 10.768 13.4694 14.2779C13.4694 17.7879 10.6333 20.624 7.15145 20.624C3.66955 20.624 0.833496 17.816 0.833496 14.2779C0.833496 10.7399 3.66955 7.9319 7.15145 7.9319ZM56.6842 7.7915V18.9111C56.6842 19.7535 57.0211 19.9781 57.667 20.1466L57.695 20.287H54.1289V18.9111C53.7077 19.922 52.8372 20.5397 51.7141 20.5397C49.8046 20.5397 48.541 18.7988 48.541 16.2154C48.541 14.7553 48.9622 13.5198 49.7485 12.5931C50.5066 11.6946 51.5456 11.2172 52.6968 11.2172C53.2584 11.2172 53.7358 11.3296 54.1289 11.5823V10.066C54.1289 9.72901 54.0447 9.50437 53.8762 9.33589C53.6516 9.13933 53.2865 9.05509 52.7249 9.11125H52.6968V8.97085L56.6842 7.7915ZM70.2186 11.2453V18.9111C70.2186 19.7535 70.5556 19.9781 71.2014 20.1466V20.287H67.6353V18.883C67.2141 19.8939 66.2875 20.5397 65.2485 20.5397C64.013 20.5397 63.2268 19.9781 62.9179 18.883L62.8617 18.6022C62.8056 18.3214 62.7775 18.0406 62.7775 17.7598V13.6602C62.7775 12.7616 62.5809 12.4808 61.7947 12.4247H61.7666V12.2843L65.3327 11.2453V17.7037C65.3327 18.6584 65.7539 19.1919 66.5402 19.1919C67.0175 19.1919 67.4107 18.9392 67.6353 18.518V13.6602C67.6353 12.7335 67.4668 12.4527 66.821 12.3966H66.7929V12.2562L70.2186 11.2453ZM44.4695 11.2172C45.4242 11.2172 46.3508 11.5542 46.9686 12.1439C47.6706 12.8178 48.0356 13.8006 48.0637 15.0922V15.1203H42.7004C42.5881 16.9736 43.7394 18.4899 45.2557 18.5461C46.3508 18.6303 47.3055 17.9564 47.839 16.8613L47.9794 16.9174C47.6706 18.9673 46.4631 20.5116 44.3572 20.5116C41.9704 20.5116 40.6225 18.518 40.5664 16.0189V15.373C40.6787 14.2779 41.0157 13.2951 41.6053 12.5651C41.9704 12.1158 42.3916 11.7788 42.897 11.5542C43.3182 11.3296 43.936 11.2172 44.4414 11.2172H44.4695ZM81.619 11.2453C83.1353 11.2453 84.062 12.2 84.062 13.8287V19.0515C84.062 19.6692 84.3428 19.9781 85.0448 20.1466H85.0728V20.287H81.4786V13.9129C81.4786 12.902 81.1136 12.3966 80.3554 12.3966C79.7377 12.3966 79.4288 12.8459 79.2603 13.239C79.2884 13.4355 79.3165 13.6321 79.3165 13.8287V19.1357C79.3165 19.7816 79.513 20.0062 80.0746 20.1466H80.1027V20.287H76.7612V13.9129C76.7612 12.902 76.3681 12.3966 75.638 12.3966C75.0483 12.3966 74.7395 12.8178 74.5991 13.1547V19.1638C74.5991 19.8096 74.7956 20.0343 75.3572 20.1747H75.3853V20.3151H72.0438V13.6321C72.0438 12.7335 71.8192 12.4527 71.061 12.3966H71.0329V12.2562L74.5991 11.2734V12.7616C74.9641 11.8069 75.8065 11.2453 76.8735 11.2453C78.081 11.2453 78.9234 11.835 79.2042 12.902C79.5692 11.8912 80.4958 11.2453 81.619 11.2453ZM30.4015 8.3531L33.743 16.1874L37.0845 8.3531H40.6787L40.6506 8.4935L40.6098 8.50258C39.9906 8.64371 39.6678 8.87526 39.6678 9.64477V19.1919C39.724 19.8096 40.0609 20.0062 40.6506 20.1466H40.6787V20.287H36.1017V20.1466H36.1298C36.7195 20.0062 37.0564 19.8096 37.1126 19.1919V9.89749L32.704 20.2589H32.4513L28.1551 10.1783V18.9673C28.1551 19.7535 28.4921 19.9781 29.1379 20.1185H29.166V20.2589H26.5265V20.1185H26.5546C27.2004 19.9781 27.5374 19.7535 27.5374 18.9673V9.64477C27.5374 8.85854 27.2004 8.6339 26.5546 8.4935H26.5265V8.3531H30.4015ZM61.0365 11.2453V18.9111L61.037 18.9629C61.0507 19.7628 61.387 19.9816 62.0193 20.1466L62.0474 20.287H58.4813V13.6602C58.4813 12.7616 58.2847 12.4808 57.4985 12.4247H57.4704V12.2843L61.0365 11.2453ZM17.2602 8.29694C18.973 8.29694 20.4051 10.9926 20.4051 14.2779C20.4051 17.5913 19.0011 20.2589 17.2602 20.2589C15.5192 20.2589 14.1152 17.5913 14.1152 14.2779C14.1152 10.9645 15.5192 8.29694 17.2602 8.29694ZM22.0899 8.91469C22.7357 8.91469 23.2131 11.3296 23.2131 14.2779C23.2131 17.2263 22.7076 19.6412 22.0899 19.6412C21.4783 19.6412 20.9768 17.2744 20.9668 14.3662L20.9667 14.2779C20.9667 11.3296 21.4721 8.91469 22.0899 8.91469ZM53.118 11.7227C51.9949 11.7227 51.2929 13.2109 51.2929 15.5134C51.2929 16.6086 51.4894 17.5633 51.8264 18.2091C52.1353 18.8269 52.5845 19.1638 53.09 19.1638C53.5954 19.1638 53.9604 18.9392 54.1289 18.518V12.3404C53.9324 11.9473 53.5673 11.7227 53.118 11.7227ZM44.4414 11.7508C43.4305 11.7508 42.8408 12.9582 42.7566 14.643V14.671H45.8173C45.8735 13.3513 45.6488 12.4808 45.2276 12.0596C45.003 11.8631 44.7503 11.7508 44.4414 11.7508ZM59.6606 7.87574C60.4749 7.87574 61.0927 8.4935 61.0927 9.30781C61.0927 10.1221 60.4749 10.7399 59.6606 10.7399C58.8463 10.7399 58.2286 10.1221 58.2286 9.30781C58.2286 8.4935 58.8463 7.87574 59.6606 7.87574Z" fill="#616161"/>
</g>
<defs>
<clipPath id="clip0_3368_27631">
<rect width="84.5833" height="28" fill="white" transform="translate(0.833496 0.5)"/>
</clipPath>
</defs>
</svg>
