<svg width="62" height="45" viewBox="0 0 62 45" fill="none" xmlns="http://www.w3.org/2000/svg">
<g opacity="0.75" clip-path="url(#clip0_3368_27633)">
<path fill-rule="evenodd" clip-rule="evenodd" d="M10.5425 13.9414V32.5433C10.5425 33.0473 10.4856 33.2992 10.6566 33.5512C10.7421 33.7197 10.9132 33.8032 11.0559 33.8032C11.2554 33.8032 11.4268 33.7197 11.5407 33.5238C11.7119 33.2715 11.6835 33.0189 11.6835 32.4872V13.9414H12.5677V32.9071C12.5677 34.1954 12.0828 34.8398 11.0559 34.8398C10.6279 34.8398 10.2572 34.7002 9.97194 34.3922C9.68666 34.0835 9.54395 33.6073 9.54395 32.9354V13.9414H10.5425Z" fill="black"/>
<path fill-rule="evenodd" clip-rule="evenodd" d="M19.9845 34.728L18.5583 21.9535V34.728H17.7881V13.9414H18.815L20.2696 25.9316V13.9414H20.9259V34.728H19.9845Z" fill="black"/>
<path fill-rule="evenodd" clip-rule="evenodd" d="M28.6281 23.2981V24.0266H27.2304V33.8599H28.8277V34.728H25.9751V13.9414H28.6281V14.838H27.2304V23.2981H28.6281Z" fill="black"/>
<path fill-rule="evenodd" clip-rule="evenodd" d="M56.3261 11V12.7373H6.49268V11H56.3261Z" fill="black"/>
<path fill-rule="evenodd" clip-rule="evenodd" d="M56.3261 36.2695V38.006H6.49268V36.2695H56.3261Z" fill="black"/>
<path fill-rule="evenodd" clip-rule="evenodd" d="M59.0644 39.7705V41.5079H3.29785V39.7705H59.0644Z" fill="black"/>
<path fill-rule="evenodd" clip-rule="evenodd" d="M61.8595 43.1606V44.9255H0.473633V43.1606H61.8595Z" fill="black"/>
<path fill-rule="evenodd" clip-rule="evenodd" d="M31.1666 0.074707L56.2112 7.07851V8.92735L30.9384 2.17591L6.37842 9.03919V7.19042L31.1666 0.074707Z" fill="black"/>
<path fill-rule="evenodd" clip-rule="evenodd" d="M50.5353 9.03931H45.3717L31.3662 5.31359L17.3893 8.92748L12.0547 9.03931L31.423 3.57666L50.5353 9.03931Z" fill="black"/>
<path fill-rule="evenodd" clip-rule="evenodd" d="M35.7303 19.9371H36.8144V15.9029C36.8144 15.9029 36.7855 14.7263 36.5001 14.3904C36.2153 14.0821 35.873 13.8018 35.1312 13.8018C34.4183 13.8301 34.2467 14.0262 33.9901 14.3341C33.7047 14.6424 33.5908 15.1744 33.5908 15.7351C33.5908 16.2951 33.6197 18.7885 33.7047 19.6287C33.7903 20.4415 34.5892 23.7468 35.0456 25.344C35.4737 26.9687 35.6732 27.7813 35.7021 28.2295C35.7303 28.7052 35.7871 30.3024 35.7303 31.0867C35.7021 31.871 35.7303 32.9634 35.7303 32.9634C35.7303 32.9634 35.7871 33.8321 35.2739 33.8321C34.7319 33.8321 34.7887 32.9634 34.7887 32.9634V28.0333H33.7047V32.9359C33.7047 32.9359 33.4199 34.7285 35.1312 34.7285C36.8714 34.7285 36.8714 33.1319 36.8714 33.1319V28.6494C36.8714 28.6494 36.7855 27.1646 36.5001 26.1283C36.2153 25.1195 35.3022 21.8981 35.1024 21.0014C34.8746 20.0494 34.7887 18.6482 34.7887 17.3878C34.7887 16.1274 34.8176 15.3429 34.8176 15.3429C34.8176 15.3429 34.7887 14.7546 35.2739 14.7546C35.7303 14.7546 35.7021 15.3709 35.7021 15.3709L35.7303 19.9371Z" fill="black"/>
<path fill-rule="evenodd" clip-rule="evenodd" d="M44.0311 19.9929H44.9724V15.1463C44.9724 14.3903 44.5448 13.6338 43.4887 13.6338C42.5195 13.6338 41.9492 14.334 41.9492 15.1743V33.384C41.9492 34.1957 42.5195 34.8968 43.4887 34.8968C44.5448 34.8968 44.9724 34.1683 44.9724 33.4114V27.9491H44.0311V33.384C44.0311 33.6643 44.0599 33.9998 43.4887 33.9998C42.8899 33.9998 42.9476 33.4958 42.9476 33.2996V15.2306C42.9476 15.0345 42.8899 14.5301 43.4887 14.5301C44.0599 14.5301 44.0311 14.8943 44.0311 15.1743V19.9929Z" fill="black"/>
<path fill-rule="evenodd" clip-rule="evenodd" d="M51.9033 13.6338C50.9337 13.6338 50.249 14.334 50.249 15.1743V33.384C50.249 34.1957 50.9337 34.8968 51.9033 34.8968C52.9585 34.8968 53.5008 34.1683 53.5008 33.4114V15.1463C53.5008 14.3903 52.9585 13.6338 51.9033 13.6338ZM52.5592 33.384C52.5592 33.6643 52.4742 33.9998 51.9033 33.9998C51.3042 33.9998 51.2474 33.4958 51.2474 33.2996V15.2306C51.2474 15.0345 51.3042 14.5301 51.9033 14.5301C52.4742 14.5301 52.5592 14.8943 52.5592 15.1743V33.384Z" fill="black"/>
</g>
<defs>
<clipPath id="clip0_3368_27633">
<rect width="61.5" height="45" fill="white" transform="translate(0.416504)"/>
</clipPath>
</defs>
</svg>
