<svg width="105" height="29" viewBox="0 0 105 29" fill="none" xmlns="http://www.w3.org/2000/svg">
<g clip-path="url(#clip0_3368_27646)">
<path d="M4.67762 13.3522C4.63994 13.3028 4.59017 13.2641 4.53314 13.2396C4.4761 13.2152 4.41372 13.2059 4.35202 13.2126C4.29033 13.2193 4.23141 13.2418 4.18095 13.2779C4.1305 13.314 4.09022 13.3626 4.06401 13.4188L0.954754 19.6354C0.926429 19.692 0.913056 19.755 0.915903 19.8183C0.918751 19.8815 0.937725 19.943 0.971024 19.9969C1.00432 20.0508 1.05084 20.0953 1.10616 20.1261C1.16149 20.157 1.22378 20.1732 1.28712 20.1732H5.61659C5.68594 20.1748 5.75425 20.1562 5.81325 20.1198C5.87225 20.0833 5.91939 20.0305 5.94896 19.9677C6.88288 18.0379 6.31689 15.1036 4.67762 13.3522Z" fill="#616161"/>
<path d="M6.95775 7.69943C6.18302 8.8915 5.73153 10.2645 5.6476 11.6838C5.56368 13.103 5.85019 14.5196 6.47903 15.7947L8.56632 19.9693C8.59718 20.031 8.64462 20.0829 8.70332 20.1192C8.76202 20.1555 8.82967 20.1747 8.89868 20.1747H13.2274C13.2907 20.1747 13.353 20.1585 13.4083 20.1277C13.4637 20.0968 13.5102 20.0524 13.5435 19.9985C13.5768 19.9446 13.5957 19.8831 13.5986 19.8198C13.6014 19.7565 13.5881 19.6936 13.5597 19.6369C13.5597 19.6369 7.73618 7.98845 7.58983 7.6971C7.56089 7.63779 7.51582 7.58784 7.4598 7.55298C7.40377 7.51812 7.33905 7.49976 7.27306 7.5C7.20707 7.50025 7.14249 7.51908 7.08672 7.55436C7.03095 7.58963 6.98625 7.63991 6.95775 7.69943Z" fill="#616161"/>
<path d="M57.7322 12.6834C57.7322 14.2228 58.4463 15.4449 61.2395 15.9845C62.906 16.3344 63.2551 16.6034 63.2551 17.1588C63.2551 17.6984 62.9052 18.0477 61.7314 18.0477C60.3128 18.0222 58.9225 17.646 57.6846 16.9526V19.4599C58.5258 19.8726 59.6366 20.3328 61.6998 20.3328C64.6199 20.3328 65.7785 19.0306 65.7785 17.0953L57.7322 12.6834ZM65.7785 17.0953C65.7785 15.2702 64.8104 14.4131 62.0807 13.8261C60.573 13.4927 60.208 13.1596 60.208 12.6834C60.208 12.0809 60.7476 11.8264 61.7474 11.8264C62.9536 11.8264 64.1439 12.1915 65.2706 12.6993V10.3028C64.1902 9.81107 63.0135 9.56709 61.8267 9.58873C59.1287 9.58873 57.7322 10.7631 57.7322 12.6834" fill="#616161"/>
<path d="M95.248 9.74658V20.1735H97.4698V12.2224L98.4063 14.333L101.549 20.1735H104.342V9.74658H102.12V16.4757L101.279 14.5235L98.7554 9.74658H95.248Z" fill="#616161"/>
<path d="M81.1162 9.74658H78.688V20.1735H81.1162V9.74658Z" fill="#616161"/>
<path d="M75.8864 17.0953C75.8864 15.2702 74.9183 14.4131 72.1886 13.8261C70.6809 13.4927 70.3159 13.1596 70.3159 12.6834C70.3159 12.0809 70.8555 11.8264 71.8553 11.8264C73.0615 11.8264 74.2518 12.1915 75.3785 12.6993V10.3028C74.2981 9.81107 73.1214 9.56709 71.9346 9.58873C69.2366 9.58873 67.8401 10.7631 67.8401 12.6834C67.8401 14.2228 68.5542 15.4449 71.3474 15.9845C73.0139 16.3344 73.363 16.6034 73.363 17.1588C73.363 17.6984 73.0131 18.0477 71.8393 18.0477C70.4207 18.0222 69.0304 17.646 67.7925 16.9526V19.4599C68.6337 19.8726 69.7445 20.3328 71.8077 20.3328C74.7278 20.3328 75.8864 19.0306 75.8864 17.0953Z" fill="#616161"/>
<path d="M38.8687 9.74658V20.1735H43.8596L44.6454 17.9198H41.3126V9.74658H38.8687Z" fill="#616161"/>
<path d="M29.0078 9.74658V12H31.7058V20.1735H34.1497V12H37.0382V9.74658H29.0078Z" fill="#616161"/>
<path d="M25.4639 9.74658H22.261L18.625 20.1735H21.4017L21.9172 18.4174C23.1866 18.7902 24.5365 18.7902 25.806 18.4174L26.3215 20.1735H29.0987L25.4639 9.74658ZM23.8624 16.5371C23.41 16.5371 22.9601 16.4723 22.5261 16.3449L23.8624 11.7946L25.1986 16.3464C24.7646 16.4734 24.3146 16.5376 23.8624 16.5371Z" fill="#616161"/>
<path d="M52.4632 9.74658H49.2605L45.6245 20.1735H48.4018L48.9172 18.4174C50.1867 18.7902 51.5366 18.7902 52.8061 18.4174L53.3216 20.1735H56.0988L52.4632 9.74658ZM50.8619 16.5371C50.4096 16.5371 49.9596 16.4723 49.5256 16.3449L50.8619 11.7946L52.1981 16.3464C51.7641 16.4734 51.3141 16.5376 50.8619 16.5371Z" fill="#616161"/>
<path d="M89.8661 9.74658H86.6633L83.0273 20.1735H85.8046L86.3201 18.4174C87.5896 18.7902 88.9394 18.7902 90.2089 18.4174L90.7244 20.1735H93.5019L89.8661 9.74658ZM88.2637 16.5371C87.8114 16.5371 87.3614 16.4723 86.9275 16.3449L88.2637 11.7946L89.6 16.3464C89.1659 16.4734 88.716 16.5376 88.2637 16.5371Z" fill="#616161"/>
</g>
<defs>
<clipPath id="clip0_3368_27646">
<rect width="103.833" height="28" fill="white" transform="translate(0.916504 0.5)"/>
</clipPath>
</defs>
</svg>
