<svg width="96" height="25" viewBox="0 0 96 25" fill="none" xmlns="http://www.w3.org/2000/svg">
<g opacity="0.75" clip-path="url(#clip0_3368_27425)">
<path fill-rule="evenodd" clip-rule="evenodd" d="M3.46967 19.354L5.04295 15.171L6.54372 19.354H3.46967ZM8.07257 23.5695H9.51512L5.77112 13.5H4.3444L0.42627 23.5695H1.88261L3.03308 20.4835H6.9512L8.07257 23.5695Z" fill="#8A0051"/>
<path fill-rule="evenodd" clip-rule="evenodd" d="M12.651 20.0921C11.3142 19.8091 9.9334 19.5001 9.9334 17.9211C9.9334 16.5346 11.1308 15.6606 12.9395 15.6606C14.1094 15.6606 15.2267 16.0871 15.7843 17.1296L14.568 17.6266C14.4704 17.3481 13.8408 16.6471 12.7904 16.6471C11.761 16.6471 11.2457 17.2436 11.2457 17.7601C11.2457 18.4851 12.2246 18.7871 13.0595 18.9516C14.788 19.2921 16.2908 19.7251 16.2908 21.3206C16.2908 22.5606 15.1659 23.7256 13.0171 23.7256C11.4352 23.7256 10.3113 23.2076 9.77051 22.1251L11.1579 21.8881C11.5062 22.4811 12.1358 22.7381 13.0738 22.7381C14.2371 22.7381 14.9172 22.3036 14.9172 21.4811C14.9177 20.6111 13.8015 20.3356 12.651 20.0921Z" fill="#8A0051"/>
<path fill-rule="evenodd" clip-rule="evenodd" d="M19.1722 15.8927H20.5928V16.9632H19.1722V21.3192C19.1722 22.2227 19.1722 22.6102 19.7334 22.6102C19.981 22.6102 20.3288 22.5127 20.5928 22.4327V23.4927C20.3615 23.5247 19.8156 23.6217 19.3198 23.6217C17.8006 23.6217 17.8006 22.8987 17.817 21.9007V16.9632H16.5776V15.8927H17.817V14.0637L19.1722 13.5117V15.8927Z" fill="#8A0051"/>
<path fill-rule="evenodd" clip-rule="evenodd" d="M23.0897 15.9121V17.2831C23.8326 15.8366 25.2374 15.8041 25.7659 15.7881V17.1146C24.4776 17.1231 23.8459 17.3816 23.4206 18.0601C23.0713 18.6141 23.0897 19.3926 23.0897 20.0501V23.5696H21.7778V15.9121H23.0897Z" fill="#8A0051"/>
<path fill-rule="evenodd" clip-rule="evenodd" d="M40.9333 13.5015V14.7575L35.113 22.3615H41.0793V23.5695H33.5244V22.2615L39.3733 14.743H33.529V13.5015H40.9333Z" fill="#8A0051"/>
<path fill-rule="evenodd" clip-rule="evenodd" d="M50.6166 15.9649V17.0774C51.3468 15.8274 52.5907 15.7139 53.0549 15.7139C54.0501 15.7139 55.2424 16.2014 55.6229 17.4649C55.7561 17.9169 55.7561 18.3854 55.7561 19.0319V23.5694H54.4479V19.2419C54.4479 18.4659 54.4479 18.2404 54.3646 17.9814C54.1328 17.2549 53.4031 16.9319 52.6898 16.9319C52.1097 16.9319 51.6118 17.1094 51.1966 17.5129C50.6161 18.0784 50.6161 18.6589 50.6161 19.2259V23.5694H49.3037V15.9649H50.6166Z" fill="#8A0051"/>
<path fill-rule="evenodd" clip-rule="evenodd" d="M70.847 22.2141C70.3573 22.9671 69.4678 23.7251 67.8664 23.7251C65.1028 23.7251 64.0591 21.6396 64.0591 19.7661C64.0591 17.6016 65.2616 15.6401 67.751 15.6401C68.7273 15.6401 70.0948 15.9281 70.8516 17.1626L69.622 17.6651C69.3896 17.1636 68.8892 16.5841 67.8005 16.5841C65.6436 16.5841 65.5175 18.9906 65.5175 19.6696C65.5175 22.1926 66.9978 22.7381 67.8822 22.7381C68.8948 22.7381 69.4121 22.2626 69.6853 21.7386L70.847 22.2141Z" fill="#8A0051"/>
<path fill-rule="evenodd" clip-rule="evenodd" d="M42.9656 18.9569H47.1125C46.9966 16.9539 45.8175 16.6154 45.0311 16.6154C43.9088 16.6159 43.1137 17.4224 42.9656 18.9569ZM48.192 22.1149C47.7447 22.8604 46.8812 23.7159 45.1787 23.7159C42.8706 23.7159 41.543 22.1799 41.543 19.6049C41.543 16.7284 43.4808 15.6289 45.1302 15.6289C46.5641 15.6289 47.9387 16.4049 48.4008 18.3269C48.5499 18.9734 48.5499 19.5564 48.5499 19.8799H42.9329C42.9002 21.1589 43.4476 22.7774 45.2946 22.7459C46.0483 22.7334 46.5789 22.3984 46.9174 21.8734L48.192 22.1149Z" fill="#8A0051"/>
<path fill-rule="evenodd" clip-rule="evenodd" d="M57.8826 18.9569H62.03C61.9146 16.9539 60.7355 16.6154 59.9486 16.6154C58.8272 16.6159 58.0317 17.4224 57.8826 18.9569ZM63.11 22.1149C62.6626 22.8604 61.7997 23.7159 60.0972 23.7159C57.7891 23.7159 56.4609 22.1799 56.4609 19.6049C56.4609 16.7284 58.3988 15.6289 60.0477 15.6289C61.482 15.6289 62.8557 16.4049 63.3183 18.3269C63.4669 18.9734 63.4669 19.5564 63.4669 19.8799H57.8499C57.8167 21.1589 58.3661 22.7774 60.2116 22.7459C60.9653 22.7334 61.4974 22.3984 61.8349 21.8734L63.11 22.1149Z" fill="#8A0051"/>
<path fill-rule="evenodd" clip-rule="evenodd" d="M78.0178 23.5775L76.6534 23.5825C76.6534 23.5825 76.5354 23.043 76.4971 22.454C76.1009 22.857 75.3655 23.6905 73.8796 23.6905C72.3599 23.6905 71.2324 22.808 71.2324 21.515C71.2324 21.1095 71.3483 20.706 71.5802 20.365C72.028 19.7175 72.8568 19.1995 75.1848 19.022L76.422 18.925V18.7305C76.422 17.9375 76.422 16.611 74.6777 16.611C73.5803 16.611 73.2066 17.132 73.0799 17.6025L71.8717 17.1085C71.8906 17.0675 71.9126 17.0255 71.9356 16.983C72.3997 16.142 73.3102 15.624 74.6272 15.624C75.3523 15.624 76.2908 15.8025 76.9026 16.2715C77.7732 16.9175 77.7523 18.19 77.7523 18.19L77.8048 22.117C77.8048 22.118 77.8513 23.258 78.0178 23.5775ZM76.2239 21.4665C76.422 21.046 76.4389 20.868 76.4389 19.75C75.9283 19.831 75.2374 19.928 74.3917 20.1065C72.9385 20.4135 72.6908 20.9495 72.6908 21.483C72.6908 22.098 73.1866 22.6165 74.1604 22.6165C75.0694 22.6165 75.845 22.2605 76.2239 21.4665Z" fill="#8A0051"/>
<path fill-rule="evenodd" clip-rule="evenodd" d="M32.5988 23.5775L31.2344 23.5825C31.2344 23.5825 31.1159 23.043 31.0782 22.454C30.6819 22.857 29.9476 23.6905 28.4611 23.6905C26.9405 23.6905 25.8135 22.808 25.8135 21.515C25.8135 21.1095 25.9294 20.706 26.1617 20.365C26.6096 19.7175 27.4378 19.1995 29.7648 19.022L31.0036 18.925V18.7305C31.0036 17.9375 31.0036 16.611 29.2582 16.611C28.1609 16.611 27.7881 17.132 27.6605 17.6025L26.4523 17.1085C26.4722 17.0675 26.4931 17.0255 26.5166 16.983C26.9808 16.142 27.8918 15.624 29.2077 15.624C29.9323 15.624 30.8719 15.8025 31.4831 16.2715C32.3537 16.9175 32.3328 18.19 32.3328 18.19L32.3854 22.117C32.3854 22.118 32.4319 23.258 32.5988 23.5775ZM30.805 21.4665C31.0041 21.046 31.0194 20.868 31.0194 19.75C30.5098 19.831 29.8179 19.928 28.9733 20.1065C27.5211 20.4135 27.2729 20.9495 27.2729 21.483C27.2729 22.098 27.7677 22.6165 28.7415 22.6165C29.6499 22.6165 30.4256 22.2605 30.805 21.4665Z" fill="#8A0051"/>
<path fill-rule="evenodd" clip-rule="evenodd" d="M95.9511 12.9708C95.946 12.9238 95.9404 12.8768 95.9287 12.8313C95.9042 12.7383 95.8781 12.6453 95.8419 12.5563C95.8025 12.4618 95.754 12.3703 95.7024 12.2818C95.6447 12.1843 95.5804 12.0908 95.5125 11.9993C95.4732 11.9458 95.4277 11.8958 95.3807 11.8483C95.3282 11.7953 95.274 11.7428 95.2148 11.6968C95.081 11.5928 94.9482 11.4868 94.8022 11.3993C94.4836 11.2078 94.1659 11.0088 93.8238 10.8613C93.4102 10.6833 93.0104 10.4723 92.584 10.3273L89.7106 9.35027C89.7106 8.81527 89.7264 8.28027 89.7106 7.74577C89.6866 6.95227 89.6539 6.15827 89.5911 5.36677C89.5472 4.81577 89.4798 4.26627 89.392 3.72027C89.3236 3.29427 89.2199 2.87427 89.1234 2.45377C89.1014 2.35727 89.0682 2.26377 89.0356 2.17077C89.0064 2.08677 88.9748 2.00327 88.9396 1.92127C88.9079 1.84727 88.8732 1.77427 88.8359 1.70227C88.8022 1.63777 88.7649 1.57477 88.7256 1.51327C88.6904 1.45777 88.651 1.40377 88.6107 1.35127C88.5739 1.30377 88.5351 1.25827 88.4938 1.21477C88.4565 1.17477 88.4167 1.13677 88.3753 1.10027C88.338 1.06727 88.2982 1.03677 88.2573 1.00727C88.2196 0.980272 88.1802 0.955272 88.1404 0.932772C88.1031 0.911772 88.0653 0.891272 88.0255 0.875272C87.9561 0.847272 87.8856 0.820772 87.8136 0.800772C87.7539 0.784272 87.6921 0.775272 87.6308 0.766772C87.5848 0.760272 87.5384 0.757272 87.4924 0.756272C87.4138 0.754772 87.3341 0.753272 87.256 0.758772C87.1722 0.764772 87.0885 0.774772 87.0063 0.790772C86.9179 0.807772 86.8306 0.829272 86.7453 0.857272C86.6534 0.887272 86.5641 0.923772 86.4778 0.965272C86.3813 1.01177 86.2888 1.06577 86.1974 1.12177C86.1009 1.18127 86.0054 1.24327 85.914 1.31027C85.7542 1.42827 85.5908 1.54277 85.4453 1.67677C84.8453 2.22877 84.256 2.79177 83.68 3.36677C83.3726 3.67327 83.0749 3.99027 82.7966 4.32127C81.6895 5.63377 80.5876 6.95027 79.5229 8.29577C79.05 8.89277 78.6247 9.52427 78.187 10.1453C78.0778 10.3008 77.9756 10.4613 77.8812 10.6258C77.7173 10.9133 77.5636 11.2063 77.4134 11.5008C77.3746 11.5773 77.344 11.6583 77.3144 11.7388C77.2858 11.8158 77.2597 11.8938 77.2388 11.9728C77.2194 12.0473 77.2025 12.1233 77.1939 12.1998C77.1862 12.2703 77.1852 12.3418 77.1898 12.4123C77.1923 12.4478 77.203 12.4828 77.2148 12.5163C77.2276 12.5528 77.2444 12.5878 77.2638 12.6213C77.2853 12.6578 77.3103 12.6923 77.3363 12.7253C77.3649 12.7613 77.394 12.7963 77.4267 12.8283C77.4977 12.8968 77.5702 12.9638 77.6473 13.0258C77.7265 13.0898 77.8081 13.1508 77.8939 13.2058C78.0435 13.3018 78.1983 13.3913 78.352 13.4793C78.4194 13.5178 78.4904 13.5508 78.5588 13.5858C78.5833 13.5978 78.5103 13.5608 78.4863 13.5478C78.4832 13.5468 78.4756 13.5423 78.4781 13.5433C78.4822 13.5443 78.4863 13.5473 78.4899 13.5493C78.5276 13.5688 78.5654 13.5878 78.6037 13.6073C79.5499 14.0913 80.4997 14.5683 81.4413 15.0598C82.3881 15.5538 83.3343 16.0493 84.2693 16.5638L86.3716 17.7203C85.6413 18.2613 84.8973 18.7838 84.1824 19.3423C83.9093 19.5558 83.6555 19.7923 83.4078 20.0338C83.2066 20.2303 83.0172 20.4388 82.8385 20.6543C82.6955 20.8268 82.5653 21.0093 82.4437 21.1968C82.3482 21.3428 82.2645 21.4973 82.1894 21.6538C82.1322 21.7728 82.0863 21.8968 82.0459 22.0223C82.0168 22.1103 81.9979 22.2008 81.9816 22.2918C81.9719 22.3463 81.9699 22.4028 81.9668 22.4588C81.9658 22.4778 81.9693 22.4968 81.9693 22.5158C81.9704 22.5663 81.9678 22.6163 81.9709 22.6663C81.9734 22.7133 81.979 22.7603 81.9867 22.8058C81.9938 22.8503 82.0036 22.8943 82.0158 22.9378C82.027 22.9788 82.0419 23.0198 82.0577 23.0598C82.0735 23.0983 82.0914 23.1363 82.1108 23.1733C82.1302 23.2093 82.1501 23.2458 82.1751 23.2783C82.2236 23.3433 82.2727 23.4078 82.3304 23.4648C82.3881 23.5218 82.4514 23.5738 82.5178 23.6213C82.5842 23.6693 82.6556 23.7113 82.7282 23.7503C82.8017 23.7893 82.8778 23.8233 82.9554 23.8548C83.0325 23.8863 83.1101 23.9198 83.1918 23.9373C83.4854 24.0008 83.7811 24.0588 84.0793 24.0983C84.2253 24.1178 84.3739 24.1258 84.5205 24.1143C85.0286 24.0753 85.5362 24.0248 86.0396 23.9473C86.6274 23.8568 87.2105 23.7358 87.7921 23.6113C88.4779 23.4643 89.1617 23.3088 89.8408 23.1343C90.3208 23.0108 90.809 22.9013 91.2686 22.7173C91.6306 22.5728 91.9962 22.4348 92.3552 22.2833C92.4359 22.2498 92.512 22.2058 92.5876 22.1623C92.656 22.1233 92.7234 22.0808 92.7877 22.0358C92.8444 21.9963 92.9006 21.9543 92.9511 21.9073C92.994 21.8678 93.0333 21.8238 93.0681 21.7768C93.0982 21.7373 93.1232 21.6933 93.1441 21.6478C93.1625 21.6078 93.1763 21.5648 93.186 21.5213C93.1952 21.4818 93.1993 21.4403 93.1993 21.3998C93.1993 21.3603 93.1942 21.3208 93.187 21.2823C93.1789 21.2448 93.1676 21.2073 93.1533 21.1708C93.1396 21.1343 93.1212 21.0988 93.1013 21.0648C93.0813 21.0308 93.0594 20.9973 93.0359 20.9658C93.0124 20.9343 92.9874 20.9028 92.9603 20.8738C92.9077 20.8198 92.8541 20.7653 92.7974 20.7163C92.7479 20.6733 92.6948 20.6348 92.6412 20.5978C92.5886 20.5613 92.5339 20.5273 92.4793 20.4948C92.105 20.2738 91.7322 20.0483 91.3554 19.8308L89.777 18.9183C90.7355 18.2818 91.7026 17.6573 92.6524 17.0073C93.0584 16.7298 93.4577 16.4428 93.8427 16.1383C94.1726 15.8773 94.4866 15.5973 94.794 15.3123C94.9406 15.1768 95.0708 15.0263 95.2036 14.8778C95.2638 14.8103 95.3195 14.7383 95.3721 14.6648C95.4206 14.5983 95.4696 14.5313 95.5079 14.4583C95.6315 14.2183 95.753 13.9768 95.8562 13.7278C95.8975 13.6263 95.9149 13.5168 95.9384 13.4098C95.9491 13.3603 95.9532 13.3093 95.9573 13.2588C95.9613 13.2103 95.9629 13.1613 95.9624 13.1128C95.9598 13.0658 95.9567 13.0178 95.9511 12.9708ZM84.1697 6.65477C84.7048 6.11127 85.241 5.56877 85.7853 5.03377C85.8844 4.93627 85.9947 4.84877 86.1009 4.75827C86.1377 4.72677 86.177 4.69677 86.2163 4.66727C86.2464 4.64477 86.2761 4.62127 86.3087 4.60127C86.3317 4.58727 86.3562 4.57527 86.3813 4.56527C86.4078 4.55477 86.4344 4.54427 86.463 4.53977C86.4926 4.53477 86.5227 4.53527 86.5533 4.53677C86.5687 4.53727 86.584 4.54127 86.5988 4.54627C86.6141 4.55077 86.6299 4.55777 86.6442 4.56577C86.6596 4.57427 86.6749 4.58427 86.6881 4.59527C86.704 4.60777 86.7188 4.62177 86.7321 4.63677C86.7474 4.65377 86.7617 4.67177 86.7739 4.69077C86.7882 4.71277 86.8036 4.73527 86.8127 4.75977C86.8388 4.82577 86.8623 4.89327 86.8796 4.96227C86.9047 5.06077 86.9241 5.16077 86.9399 5.26177C86.9787 5.50777 87.0144 5.75427 87.0425 6.00127C87.0793 6.32127 87.1058 6.64227 87.136 6.96277L87.2984 8.66927L85.3564 8.23177L83.5441 7.93977L83.1055 7.90677L82.963 7.90327C83.3649 7.48677 83.7637 7.06727 84.1697 6.65477ZM82.9518 9.02777L82.959 9.01727L82.9692 9.01177L82.984 9.01027L83.0075 9.01377L83.0754 9.03277L83.251 9.09877L83.49 9.20277C84.1069 9.46127 84.7237 9.71977 85.3411 9.97727C85.7501 10.1483 86.1596 10.3178 86.5681 10.4888L87.3765 10.8268L87.4485 10.8583C87.4919 11.4838 87.545 12.1088 87.5787 12.7348C87.6053 13.2238 87.616 13.7138 87.6282 14.2033C87.6298 14.2653 87.6247 14.3268 87.6201 14.3883C87.618 14.4228 87.6144 14.4578 87.6093 14.4923C87.6037 14.5268 87.5971 14.5613 87.5869 14.5943C87.5767 14.6268 87.5654 14.6598 87.5486 14.6898C87.5327 14.7193 87.5108 14.7463 87.4888 14.7723C87.4781 14.7853 87.4633 14.7968 87.4495 14.8073C87.4352 14.8178 87.4194 14.8283 87.403 14.8373C87.3862 14.8463 87.3673 14.8538 87.3489 14.8603C87.3285 14.8673 87.3076 14.8733 87.2861 14.8773C87.2601 14.8818 87.2335 14.8843 87.2075 14.8853C87.1799 14.8858 87.1523 14.8853 87.1247 14.8818C87.0951 14.8783 87.0665 14.8723 87.0384 14.8653C87.0078 14.8578 86.9777 14.8498 86.9491 14.8383C86.8863 14.8123 86.8235 14.7848 86.7642 14.7518C86.6968 14.7143 86.632 14.6718 86.5692 14.6268C86.4997 14.5768 86.4333 14.5233 86.369 14.4678C86.2985 14.4068 86.2296 14.3448 86.1658 14.2783C86.0259 14.1318 85.8875 13.9828 85.7578 13.8273C85.5234 13.5468 85.2798 13.2713 85.074 12.9703C84.7901 12.5553 84.499 12.1453 84.2228 11.7253C84.0579 11.4748 83.8888 11.2253 83.7515 10.9583L83.128 9.74877L82.9937 9.36327L82.963 9.24877L82.9447 9.13827L82.9431 9.05827L82.9518 9.02777ZM89.8413 19.7483C90.0093 19.8523 90.1784 19.9548 90.3438 20.0618C90.5578 20.1998 90.7722 20.3368 90.9796 20.4838C91.1287 20.5893 91.2711 20.7033 91.4121 20.8198C91.4744 20.8718 91.5331 20.9278 91.5893 20.9868C91.6347 21.0353 91.6745 21.0883 91.7149 21.1413C91.7174 21.1448 91.7179 21.1493 91.7174 21.1533C91.7174 21.1628 91.7164 21.1718 91.7133 21.1808C91.7118 21.1868 91.7072 21.1918 91.7031 21.1958C91.697 21.2013 91.6904 21.2063 91.6832 21.2093C91.6735 21.2138 91.6633 21.2163 91.6526 21.2183C91.6378 21.2213 91.6224 21.2233 91.6076 21.2243C90.7886 21.2843 89.9685 21.3393 89.1499 21.4023L85.9498 21.6483L85.8502 21.6543L85.8961 21.6058L86.0979 21.4313C86.513 21.1293 86.9144 20.8088 87.3423 20.5248L89.1545 19.3218C89.3828 19.4638 89.6121 19.6058 89.8413 19.7483ZM92.3062 13.5793C92.2975 13.6083 92.2863 13.6368 92.2725 13.6633C92.2556 13.6943 92.2362 13.7243 92.2133 13.7508C92.1586 13.8143 92.1009 13.8763 92.0386 13.9328C91.9048 14.0523 91.7726 14.1748 91.625 14.2773C91.1164 14.6303 90.6134 14.9918 90.0987 15.3363C89.7443 15.5738 89.3787 15.7958 89.0172 16.0233L86.9149 17.3458C86.6172 17.1788 86.3195 17.0113 86.0218 16.8448L82.2145 14.7138C81.3545 14.2108 80.4895 13.7163 79.6352 13.2043C79.4744 13.1078 79.3232 12.9958 79.1695 12.8888C79.1205 12.8548 79.075 12.8158 79.0281 12.7798C79.0133 12.7688 78.9969 12.7588 78.9831 12.7468C78.951 12.7178 78.9183 12.6878 78.8881 12.6558C78.8698 12.6358 78.8545 12.6143 78.8391 12.5918C78.8243 12.5683 78.8095 12.5438 78.7993 12.5178C78.7886 12.4913 78.7789 12.4633 78.7748 12.4343C78.7702 12.4043 78.7697 12.3738 78.7743 12.3438C78.7789 12.3108 78.7881 12.2788 78.7998 12.2478C78.8121 12.2143 78.8274 12.1813 78.8463 12.1508C78.8841 12.0878 78.9244 12.0253 78.9704 11.9668C79.0235 11.8998 79.0802 11.8358 79.1404 11.7753C79.6322 11.2798 80.1316 10.7913 80.6259 10.2978L81.9586 8.96627L82.0219 9.18127L82.1838 9.55927L82.1945 9.58227C82.5469 10.1803 82.8778 10.7908 83.2516 11.3763C83.681 12.0493 84.1421 12.7028 84.6027 13.3553C84.8192 13.6608 85.0449 13.9603 85.2829 14.2508C85.4897 14.5033 85.7036 14.7513 85.936 14.9823C86.1397 15.1848 86.3629 15.3698 86.5896 15.5483C86.7019 15.6363 86.8281 15.7073 86.9516 15.7798C87.0099 15.8148 87.0727 15.8428 87.1355 15.8703C87.1952 15.8958 87.256 15.9183 87.3178 15.9378C87.378 15.9568 87.4393 15.9723 87.5016 15.9848C87.5578 15.9963 87.6155 16.0053 87.6727 16.0103C87.7247 16.0148 87.7773 16.0158 87.8299 16.0138C87.8779 16.0128 87.9265 16.0083 87.9745 16.0008C88.0189 15.9943 88.0633 15.9843 88.1062 15.9723C88.147 15.9613 88.1869 15.9473 88.2262 15.9308C88.2624 15.9163 88.2982 15.8988 88.3329 15.8798C88.3656 15.8618 88.3988 15.8433 88.4289 15.8208C88.4841 15.7798 88.5392 15.7373 88.5893 15.6908C88.6321 15.6508 88.6715 15.6068 88.7072 15.5608C88.7532 15.5023 88.7945 15.4403 88.8328 15.3768C88.8793 15.2998 88.9232 15.2203 88.9615 15.1388C89.0044 15.0478 89.0442 14.9553 89.0764 14.8603C89.1428 14.6623 89.2061 14.4628 89.2567 14.2598C89.3246 13.9858 89.3996 13.7113 89.4298 13.4303L89.6024 11.8048C89.9961 11.9843 90.399 12.1473 90.784 12.3438C91.1598 12.5358 91.5198 12.7578 91.8849 12.9698C91.9278 12.9948 91.9676 13.0238 92.0059 13.0548C92.0601 13.0988 92.1122 13.1453 92.1617 13.1948C92.1877 13.2208 92.2107 13.2503 92.2311 13.2803C92.251 13.3098 92.2694 13.3413 92.2832 13.3738C92.296 13.4058 92.3047 13.4403 92.3113 13.4743C92.3144 13.4913 92.3133 13.5088 92.3123 13.5263C92.3128 13.5448 92.3113 13.5628 92.3062 13.5793Z" fill="#EFAB00"/>
</g>
<defs>
<clipPath id="clip0_3368_27425">
<rect width="96" height="24" fill="white" transform="translate(0 0.5)"/>
</clipPath>
</defs>
</svg>
