<svg width="75" height="29" viewBox="0 0 75 29" fill="none" xmlns="http://www.w3.org/2000/svg">
<path d="M15.6608 7.27114C15.5871 7.27114 14.1272 7.24165 14.1272 7.24165C14.1272 7.24165 12.9032 6.06192 12.7853 5.9292C12.741 5.88496 12.682 5.85547 12.623 5.85547V23.979L18.094 22.6223C18.094 22.6223 15.8673 7.53658 15.8526 7.43335C15.8231 7.33013 15.7346 7.27114 15.6608 7.27114Z" fill="#616161"/>
<path fill-rule="evenodd" clip-rule="evenodd" d="M15.6609 7.27012C15.7346 7.27012 15.8231 7.32911 15.8378 7.43233C15.8526 7.53556 18.0793 22.6213 18.0941 22.6213L12.6231 23.978L0 21.7955C0 21.7955 1.50415 10.1605 1.53365 9.74755C1.60738 9.20192 1.62213 9.18718 2.19724 9.01022C2.22117 9.01022 2.74989 8.84519 3.55498 8.5939C3.74218 8.53547 3.94432 8.47238 4.15854 8.40561C4.29126 7.53556 4.71891 6.41482 5.27928 5.51528C6.09034 4.24707 7.07836 3.52449 8.06639 3.49499C8.58252 3.48025 9.01017 3.6572 9.34934 4.01112C9.36839 4.02065 9.38128 4.03632 9.39597 4.05417C9.40403 4.06396 9.41262 4.07441 9.42307 4.08486C9.48206 4.07011 9.5263 4.07011 9.58529 4.07011C10.3521 4.07011 11.001 4.51251 11.4286 5.33832C11.5613 5.60376 11.6646 5.85445 11.7235 6.0609C12.107 5.94293 12.3429 5.86919 12.3429 5.86919C12.4314 5.8397 12.6673 5.81021 12.7853 5.92818C12.9033 6.0609 14.1272 7.24063 14.1272 7.24063C14.1272 7.24063 15.5871 7.27012 15.6609 7.27012ZM10.1162 6.57703C10.4701 6.45906 10.7945 6.35583 11.0894 6.26735C10.942 5.75122 10.5733 4.89592 9.82123 4.77795C10.0424 5.36781 10.1162 6.07565 10.1162 6.57703ZM7.34396 7.41754C8.06649 7.19636 8.78902 6.97517 9.45257 6.76874C9.46731 6.22311 9.40833 5.41205 9.11339 4.83693C8.83321 4.95491 8.58252 5.16136 8.40556 5.35306C7.93367 5.86919 7.55026 6.63602 7.3438 7.41759L7.34396 7.41754ZM8.68574 4.3208C8.52353 4.20283 8.33183 4.15859 8.09588 4.15859C6.57698 4.20283 5.23504 6.59178 4.88112 8.19916C5.00713 8.16065 5.13645 8.12132 5.26851 8.08116C5.69284 7.95211 6.14537 7.81448 6.60647 7.66828C6.79818 6.65076 7.28482 5.60376 7.91892 4.92541C8.15487 4.65997 8.42031 4.45352 8.68574 4.3208ZM8.95151 12.4611L9.58562 10.0869C9.58562 10.0869 9.03999 9.80674 7.96349 9.88047C5.19113 10.0574 3.93767 11.9892 4.05564 13.9063C4.13854 15.1912 4.89244 15.7258 5.55249 16.1939C6.06663 16.5585 6.52382 16.8827 6.56256 17.4897C6.59206 17.8141 6.37086 18.3008 5.79574 18.3303C4.91095 18.3893 3.7902 17.5487 3.7902 17.5487L3.36255 19.3625C3.36255 19.3625 4.46855 20.5423 6.47409 20.439C8.1552 20.3358 9.30543 18.9939 9.18746 17.0326C9.08925 15.5238 8.02895 14.8419 7.19112 14.3032C6.64506 13.952 6.1935 13.6616 6.16441 13.2427C6.16441 13.051 6.16441 12.2694 7.40312 12.1957C8.24368 12.1367 8.95151 12.4611 8.95151 12.4611Z" fill="#616161"/>
<path d="M25.4969 15.1462C24.8628 14.807 24.5384 14.5121 24.5384 14.114C24.5384 13.6126 24.9955 13.2881 25.7034 13.2881C26.5292 13.2881 27.2665 13.6273 27.2665 13.6273L27.8416 11.8577C27.8416 11.8577 27.3108 11.4448 25.7476 11.4448C23.5651 11.4448 22.0462 12.6983 22.0462 14.4531C22.0462 15.4559 22.7541 16.208 23.6978 16.7536C24.4647 17.1812 24.7301 17.4909 24.7301 17.9481C24.7301 18.42 24.3467 18.8034 23.6389 18.8034C22.5919 18.8034 21.5891 18.2577 21.5891 18.2577L20.9697 20.0273C20.9697 20.0273 21.884 20.6467 23.4324 20.6467C25.6739 20.6467 27.296 19.5407 27.296 17.5499C27.2813 16.4734 26.4702 15.7066 25.4969 15.1462Z" fill="#616161"/>
<path d="M34.4334 11.4155C33.3274 11.4155 32.4574 11.9463 31.7938 12.7426L31.7643 12.7279L32.7228 7.71406H30.2306L27.7974 20.4846H30.2896L31.1154 16.1196C31.4399 14.468 32.2952 13.4505 33.0915 13.4505C33.6518 13.4505 33.873 13.8339 33.873 14.3795C33.873 14.7187 33.8436 15.1463 33.7698 15.4855L32.826 20.4846H35.3182L36.2915 15.3233C36.3947 14.7777 36.4684 14.1288 36.4684 13.6864C36.4832 12.2708 35.7459 11.4155 34.4334 11.4155Z" fill="#616161"/>
<path d="M42.1309 11.4152C39.1226 11.4152 37.1318 14.1286 37.1318 17.1517C37.1318 19.0835 38.3263 20.6466 40.5678 20.6466C43.5171 20.6466 45.5079 18.007 45.5079 14.9102C45.5226 13.1258 44.4756 11.4152 42.1309 11.4152ZM40.907 18.7443C40.0517 18.7443 39.6977 18.0217 39.6977 17.1074C39.6977 15.677 40.4351 13.347 41.7918 13.347C42.6765 13.347 42.9715 14.1139 42.9715 14.8512C42.9715 16.3848 42.2194 18.7443 40.907 18.7443Z" fill="#616161"/>
<path d="M51.9083 11.4152C50.2271 11.4152 49.2686 12.9046 49.2686 12.9046H49.2391L49.3866 11.5627H47.1746C47.0714 12.4622 46.8649 13.8484 46.6732 14.8807L44.9331 24.0236H47.4253L48.1184 20.3222H48.1774C48.1774 20.3222 48.6935 20.6466 49.6373 20.6466C52.5719 20.6466 54.4889 17.6383 54.4889 14.6005C54.4889 12.9194 53.7368 11.4152 51.9083 11.4152ZM49.5193 18.7738C48.8705 18.7738 48.487 18.4051 48.487 18.4051L48.9 16.0752C49.1949 14.512 50.0059 13.4798 50.876 13.4798C51.6428 13.4798 51.8788 14.1876 51.8788 14.8512C51.8788 16.4733 50.9202 18.7738 49.5193 18.7738Z" fill="#616161"/>
<path d="M58.0572 7.83198C57.2608 7.83198 56.6267 8.46608 56.6267 9.27715C56.6267 10.0145 57.0986 10.5306 57.8065 10.5306H57.836C58.6175 10.5306 59.2811 9.99973 59.2959 9.08544C59.2959 8.36286 58.8092 7.83198 58.0572 7.83198Z" fill="#616161"/>
<path d="M54.5624 20.4697H57.0545L58.7504 11.6218H56.2435L54.5624 20.4697Z" fill="#616161"/>
<path d="M65.106 11.6072H63.3659L63.4544 11.1943C63.6019 10.339 64.1033 9.58689 64.9438 9.58689C65.3862 9.58689 65.7401 9.7196 65.7401 9.7196L66.2268 7.75831C66.2268 7.75831 65.7991 7.53711 64.8701 7.53711C63.9853 7.53711 63.1005 7.7878 62.4221 8.36292C61.5668 9.0855 61.1687 10.1325 60.977 11.1943L60.9033 11.6072H59.7383L59.3696 13.4947H60.5346L59.2074 20.4846H61.6996L63.0268 13.4947H64.7521L65.106 11.6072Z" fill="#616161"/>
<path d="M71.1225 11.6218C71.1225 11.6218 69.5594 15.5591 68.8663 17.7121H68.8368C68.7925 17.019 68.2174 11.6218 68.2174 11.6218H65.5925L67.0967 19.7471C67.1262 19.9241 67.1114 20.0421 67.0377 20.16C66.7428 20.7204 66.2561 21.266 65.681 21.6642C65.2091 22.0034 64.6782 22.2246 64.2653 22.372L64.9584 24.4955C65.4598 24.3923 66.5216 23.9647 67.4064 23.1389C68.5419 22.0771 69.6036 20.4255 70.6801 18.184L73.7327 11.6218H71.1225Z" fill="#616161"/>
</svg>
