<svg width="64" height="45" viewBox="0 0 64 45" fill="none" xmlns="http://www.w3.org/2000/svg">
<g opacity="0.75" clip-path="url(#clip0_3368_27444)">
<path d="M13.1133 43.7717H40.5704V31.3232H13.1133V43.7717Z" fill="white"/>
<path d="M28.6077 10.6308C27.4169 11.6057 26.4978 12.2986 25.0399 12.8884C23.7708 13.4034 22.4079 13.6131 20.8502 13.8302C19.8482 13.9737 18.8005 14.1846 17.7996 14.2533C17.3882 14.2815 16.9768 14.3084 16.5666 14.3416L0.0842377 15.5667V16.8102L16.6327 15.1743L18.7787 14.9695C19.5738 14.8922 20.2812 14.8039 20.9379 14.6948C22.5414 14.4324 23.9236 14.0326 25.1626 13.4697C26.4473 12.8921 27.7477 11.9454 28.9566 10.909C29.7782 10.2051 30.5697 9.31972 31.4299 8.35206V7.90689C30.3894 9.00323 29.5255 9.8802 28.6077 10.6308ZM31.4303 31.4565L0.0844502 30.6459V31.8857H31.4303V31.4565ZM19.7486 29.2641L15.6947 29.22C10.5222 29.1451 5.35573 29.0495 0.0844502 28.949V30.1888C5.11496 30.1557 10.4438 30.1164 15.6983 30.0563L19.7545 29.995C21.121 29.9705 22.4599 29.9448 23.8131 29.8994C26.6002 29.8086 29.0975 29.6087 31.4299 29.2936V28.8619C29.0879 29.1194 26.5881 29.2543 23.7986 29.2727C22.4501 29.285 21.0992 29.2757 19.7484 29.2639M23.8447 27.3151C22.9834 27.3495 22.0512 27.3666 20.9938 27.3666C20.5944 27.3666 20.1939 27.3647 19.7957 27.3608L15.7274 27.3105C12.9524 27.2896 10.1869 27.2847 7.59205 27.2824L0.0846415 27.2892V28.5278L7.61012 28.3279C10.1952 28.263 12.9679 28.1955 15.7357 28.1452L19.8004 28.09C20.9155 28.0728 22.3867 28.0385 23.877 27.9391C25.3373 27.8423 26.6665 27.6939 27.9404 27.4866C29.0868 27.3002 30.2584 27.0488 31.4301 26.7435V26.3044C30.226 26.5865 29.0291 26.8134 27.8684 26.9716C26.6017 27.1445 25.2857 27.2563 23.8447 27.3151ZM23.9246 25.2982C21.858 25.4723 19.7432 25.4723 17.697 25.4723C17.0607 25.4723 16.4243 25.4723 15.788 25.4772C10.559 25.5006 5.37212 25.5447 0.0840528 25.5913V26.8311C5.12073 26.657 10.4628 26.4755 15.8061 26.3136C16.44 26.2915 17.0739 26.2756 17.7091 26.2584C19.7661 26.2058 21.8928 26.1518 23.981 25.9212C25.4389 25.7618 26.7669 25.5275 28.0385 25.2075C29.1476 24.9291 30.2867 24.5587 31.4306 24.1136V23.6574C30.2494 24.0891 29.0729 24.4422 27.9265 24.6998C26.6671 24.983 25.3583 25.178 23.9246 25.2982ZM24.0498 23.2521C21.8437 23.5526 19.5737 23.5869 17.3773 23.62C16.8745 23.6269 16.3705 23.6347 15.8677 23.6458L0.0842547 23.9352V25.1751L15.8953 24.481C16.3957 24.4577 16.8986 24.4368 17.4014 24.4172C19.6122 24.3264 21.8991 24.2332 24.1353 23.8715C25.5499 23.6446 26.9116 23.3073 28.183 22.872C29.2355 22.5127 30.3254 22.0479 31.4296 21.4985V21.0227C30.2688 21.5733 29.1271 22.032 28.0313 22.3753C26.7754 22.7702 25.4368 23.0657 24.0498 23.2521ZM24.1908 21.2188C22.989 21.4433 21.696 21.5867 20.1188 21.6689C19.5258 21.7008 18.8907 21.7229 18.0607 21.7425L0.0844311 22.2379V23.4802L16.0243 22.6316L18.0897 22.5249C18.8956 22.4856 19.5548 22.4464 20.1647 22.3986C21.7633 22.2735 23.0781 22.0944 24.3027 21.8332C25.6933 21.5389 27.0429 21.1097 28.3132 20.5578C29.3369 20.1151 30.3618 19.5755 31.4299 18.9195V18.4203C30.2896 19.0973 29.2046 19.6393 28.1268 20.0747C26.8746 20.5824 25.5501 20.9674 24.1908 21.2188ZM24.3692 19.1943C23.1723 19.48 21.8744 19.6627 20.2854 19.7719C19.6731 19.8136 19.0139 19.8443 18.2116 19.87L16.1245 19.946C10.8653 20.1484 5.53287 20.3814 0.0837341 20.623V21.8652C5.49802 21.4887 10.8088 21.1221 16.1655 20.7811L18.2478 20.6536C19.0645 20.6057 19.7297 20.5579 20.342 20.5003C21.96 20.3482 23.2843 20.1263 24.509 19.8038C25.8827 19.4432 27.2179 18.9134 28.4774 18.2316C29.4517 17.7055 30.4237 17.0727 31.4305 16.3099V15.7789C30.3419 16.5797 29.2976 17.2334 28.2536 17.7656C27.0158 18.3971 25.7094 18.8779 24.3692 19.1943ZM24.5637 17.1294C23.3753 17.485 22.0375 17.7254 20.4737 17.8639C19.8398 17.9204 19.1566 17.9633 18.3843 17.9952L16.2768 18.0895C11.0406 18.3373 5.82839 18.6144 0.0845161 18.9247V20.1669C5.57212 19.7341 10.9492 19.3134 16.325 18.9234L18.4253 18.7775C19.2373 18.7223 19.9097 18.6635 20.5424 18.5911C22.1447 18.4084 23.516 18.1263 24.7334 17.729C26.0818 17.2936 27.3966 16.6621 28.6404 15.8527C29.5582 15.2567 30.4772 14.5454 31.4299 13.698V13.676C30.3797 14.5896 29.3789 14.7931 28.3818 15.4063C27.1596 16.1617 25.8749 16.7406 24.5637 17.1294ZM24.1632 14.7608C23.0662 15.3863 22.2458 15.7468 20.6795 15.9136C19.7328 16.0178 18.7597 16.0669 17.8178 16.1147C17.3631 16.1379 16.9072 16.1613 16.4513 16.1907C13.6053 16.3563 10.8096 16.5402 7.95743 16.7291L0.0843036 17.2699V18.5159L8.03669 17.7727C10.606 17.5372 13.5917 17.2662 16.5063 17.0234L18.6258 16.8566C19.4534 16.7917 20.1319 16.723 20.7597 16.6396C22.3716 16.4274 23.749 16.0951 24.9687 15.6254C26.2823 15.125 27.5213 14.3476 28.7614 13.4328C29.8801 12.6087 31.4283 10.9837 31.4296 10.9629V10.5227C30.4179 11.5283 29.8357 12.0936 28.7279 12.8379C27.4035 13.727 25.1468 14.2003 24.1627 14.7608M28.7189 8.28871C27.5665 9.36666 26.3636 10.2141 25.1428 10.8076C23.9483 11.395 22.613 11.807 21.0577 12.067C20.4165 12.1762 19.7188 12.2644 18.9261 12.338L0.0837086 13.9151V15.161L16.833 13.3497L18.9994 13.118C19.8162 13.0211 20.5283 12.9132 21.1754 12.7881C22.7861 12.4778 24.1682 12.0155 25.3988 11.3729C26.6571 10.7242 27.9142 9.645 29.0834 8.50202C29.8677 7.73555 30.6231 6.74591 31.4302 5.70847V5.29274C30.498 6.47494 29.6078 7.45854 28.7189 8.28871ZM25.4135 8.59459C24.231 9.28746 22.8658 9.79517 21.355 10.1018C20.7102 10.2354 20.0065 10.3434 19.2053 10.4316C18.7338 10.4843 18.2598 10.526 17.7847 10.5678C17.5285 10.5898 17.2722 10.6131 17.016 10.6364C11.2275 11.1662 5.4692 11.7291 0.0838148 12.2613V13.511C5.51128 12.8438 11.3106 12.1362 17.0966 11.4691C17.354 11.4385 17.6114 11.4091 17.8688 11.3808C18.3428 11.328 18.8179 11.2741 19.2931 11.2103C20.1171 11.0987 20.8376 10.97 21.4956 10.8179C23.0654 10.4598 24.4825 9.89572 25.7082 9.13907C26.9256 8.39468 28.0009 7.35107 29.1582 6.07559C29.8787 5.28216 30.6798 4.16129 31.4304 3.10917V2.65053C30.5463 3.87195 29.7079 4.89836 28.8792 5.77401C27.7496 6.96723 26.5839 7.91514 25.4135 8.59459ZM0.0834961 11.823C0.0834961 11.823 18.9716 9.33099 19.5045 9.24282C20.3225 9.10669 21.0478 8.94728 21.7251 8.75718C23.2528 8.33042 24.6591 7.67923 25.9039 6.8208C27.0984 6.00529 28.2087 4.8182 29.3095 3.51578C30.0084 2.68677 30.7433 1.60638 31.429 0.564088V0.0600586C30.6158 1.28762 29.8147 2.34602 28.9908 3.27908C27.8985 4.5189 26.7534 5.5319 25.5852 6.29208C24.3799 7.08428 23.0242 7.67416 21.5531 8.04819C20.8939 8.21742 20.189 8.35477 19.3951 8.4676C18.873 8.54236 18.3341 8.60004 17.8133 8.65523C17.6052 8.67858 0.0835598 10.5732 0.0835598 10.5732L0.0834961 11.823Z" fill="#BDBCBC"/>
<path d="M44.4842 30.8797C44.4842 30.8797 49.6507 31.0734 51.2205 31.1078C52.7902 31.1421 63.8173 31.586 63.8173 31.586V31.8938L44.484 31.8816L44.4842 30.8797ZM44.4732 28.2271C44.4732 28.2271 47.7595 28.7925 51.2203 29.3652C53.8149 29.7956 57.3311 30.0667 57.7064 30.0826C58.0817 30.0998 63.8173 30.4934 63.8173 30.4934V30.8C63.8173 30.8 60.1472 30.6111 57.7064 30.4763C55.1647 30.3352 52.6385 30.1819 51.2035 30.0323C47.9892 29.6963 44.4732 29.2524 44.4732 29.2524V28.2271ZM44.4842 25.665C44.4842 25.665 48.4898 26.906 51.2205 27.6234C53.9511 28.3408 56.4603 28.6315 57.7234 28.7161C58.9864 28.8019 63.8005 29.1943 63.8005 29.1943V29.485C63.8005 29.485 61.0698 29.2986 57.7066 29.0582C54.9868 28.8645 52.8023 28.6597 51.2037 28.3065C49.4318 27.9153 44.4734 26.7356 44.4734 26.7356L44.4842 25.665ZM44.4842 23.0688C44.4842 23.0688 48.4333 24.7587 51.2205 25.8636C53.9632 26.9514 56.0574 27.0433 57.7234 27.231C58.4572 27.3132 63.8005 27.8625 63.8005 27.8625V28.1691C63.8005 28.1691 60.6079 27.9141 57.7066 27.6578C54.8053 27.4014 53.5529 27.2935 51.2037 26.5136C48.8256 25.725 44.4734 24.2081 44.4734 24.2081L44.4842 23.0688ZM44.4842 20.5068C44.4842 20.5068 49.5039 23.2354 51.2037 24.0876C53.0983 25.038 54.7367 25.4942 57.7066 25.8462C60.6225 26.1945 63.8175 26.5305 63.8175 26.5305V26.8383C63.8175 26.8383 60.8631 26.5219 57.7066 26.2227C54.5778 25.9271 53.4628 25.7898 51.2037 24.7878C49.1828 23.8926 44.4734 21.7025 44.4734 21.7025L44.4842 20.5068ZM44.4729 17.9904C44.4729 17.9904 50.1445 21.7651 51.22 22.3634C52.2966 22.9606 53.5596 23.9343 57.7061 24.4641C61.8537 24.9927 63.8 25.2318 63.8 25.2318V25.5568C63.8 25.5568 60.3694 25.1815 57.6891 24.8909C55.0091 24.6002 53.1831 24.2078 51.1862 23.1139C49.1894 22.0213 44.4835 19.2768 44.4835 19.2768L44.4727 17.9904L44.4729 17.9904ZM44.4729 15.4739C44.4729 15.4739 50.1277 19.9548 51.1864 20.7397C52.245 21.5258 53.644 22.4419 57.7061 23.0294C61.7347 23.6106 63.8 23.9 63.8 23.9V24.2422C63.8 24.2422 60.148 23.7112 57.7061 23.4046C55.2654 23.0968 53.3937 22.9668 51.2032 21.5087C49.0703 20.0898 44.4837 16.8633 44.4837 16.8633L44.4729 15.4739ZM44.4842 12.8435C44.4842 12.8435 49.4414 17.4433 51.2037 19.0157C52.8252 20.4615 54.14 20.9116 57.7066 21.5432C61.2745 22.1748 63.8175 22.5672 63.8175 22.5672V22.8922C63.8175 22.8922 60.5913 22.3624 57.6898 21.9013C54.7883 21.4402 52.9396 21.2587 51.2037 19.8521C49.2008 18.2284 44.4842 14.3471 44.4842 14.3471V12.8435ZM44.4842 10.384C44.4842 10.384 49.6964 15.8424 51.2037 17.4096C52.8023 19.0712 54.8508 19.6868 57.6898 20.1933C60.4 20.6765 63.8175 21.2357 63.8175 21.2357V21.5423C63.8175 21.5423 60.6081 21.0174 57.6898 20.5183C54.8281 20.0278 52.8253 19.7555 51.1869 18.246C49.7193 16.8946 44.4842 11.9893 44.4842 11.9893V10.384ZM44.4732 7.73083C44.4732 7.73083 50.1184 14.3935 51.2035 15.5818C52.8936 17.4323 53.7127 18.0701 57.7064 18.8439C59.3039 19.1542 63.8173 19.955 63.8173 19.955V20.2444C63.8173 20.2444 60.0798 19.5613 57.7064 19.1345C55.3342 18.7078 53.3266 18.5484 51.1867 16.4526C49.5567 14.8571 44.484 9.45017 44.484 9.45017L44.4732 7.73083ZM44.4842 5.18013C44.4842 5.18013 50.0598 12.5246 51.1869 13.9938C52.3128 15.4617 53.8657 16.6745 57.7066 17.4262C59.9211 17.8604 63.8175 18.5876 63.8175 18.5876V18.861C63.8175 18.861 60.4037 18.2123 57.7066 17.7169C55.0098 17.2214 52.7832 16.7419 51.1869 14.9159C49.7867 13.3131 44.4734 7.01343 44.4734 7.01343L44.4842 5.18013ZM44.4842 2.58395C44.4842 2.58395 50.4013 11.2258 51.1869 12.2854C51.9724 13.345 53.0298 15.0521 57.7066 16.0601C58.9143 16.3201 63.8342 17.3073 63.8342 17.3073V17.5808C63.8342 17.5808 60.0955 16.8462 57.7066 16.3336C55.3164 15.821 52.8059 15.3537 51.2037 13.2935C49.7482 11.4221 44.4734 4.52032 44.4734 4.52032L44.4842 2.58395ZM44.4842 -0.000976562C44.4842 -0.000976562 50.21 9.08979 51.2579 10.7614C52.3044 12.4316 53.5012 13.7536 57.7378 14.6513C61.9745 15.5491 63.8185 15.9733 63.8185 15.9733V16.2971C63.8185 16.2971 61.1264 15.7231 57.662 14.9505C54.1989 14.1779 52.783 13.9167 51.2035 11.7216C49.8887 9.89432 44.484 2.12797 44.484 2.12797L44.4842 -0.000976562Z" fill="#BDBCBC"/>
<path d="M40.5761 13.1567H13.1147V31.8853H40.5761V13.1567Z" fill="#254AA5"/>
<path d="M13.1133 44.9998H40.5789V43.4019H13.1133V44.9998Z" fill="#254AA5"/>
<path d="M24.0368 27.4913H24.992L24.2221 28.08L24.5192 29.0132L23.7542 28.4381L22.9867 29.0132L23.2898 28.08L22.5128 27.4913H23.4655L23.7542 26.5802L24.0368 27.4913ZM21.8173 25.2288H22.7748L22.0038 25.8186L22.3021 26.7531L21.5358 26.1767L20.7696 26.7531L21.0703 25.8186L20.2932 25.2288H21.2472L21.5359 24.3201L21.8173 25.2288ZM21.0053 22.0442H21.9616L21.1918 22.6328L21.4901 23.5673L20.7238 22.9922L19.9564 23.5673L20.2583 22.6328L19.4824 22.0442H20.4351L20.7238 21.1342L21.0053 22.0442ZM21.8173 18.9552H22.7748L22.0038 19.5438L22.3021 20.4783L21.5358 19.9019L20.7696 20.4783L21.0703 19.5438L20.2932 18.9552H21.2472L21.5359 18.0452L21.8173 18.9552ZM24.005 16.6616H24.9601L24.1902 17.2515L24.4897 18.1847L23.7223 17.6083L22.9548 18.1847L23.2579 17.2515L22.4809 16.6616H23.4336L23.7223 15.7517L24.005 16.6616ZM33.2519 22.0364H34.2094L33.4384 22.625L33.7379 23.5595L32.9704 22.9831L32.2042 23.5595L32.5061 22.625L31.7278 22.0364H32.6805L32.9704 21.1264L33.2519 22.0364ZM32.4089 25.221H33.364L32.5941 25.8108L32.8937 26.7453L32.1262 26.1689L31.3612 26.7453L31.6631 25.8108L30.8848 25.221H31.8375L32.1262 24.3098L32.4089 25.221ZM32.4089 18.9474H33.364L32.5941 19.5348L32.8937 20.4692L32.1262 19.8941L31.3612 20.4692L31.6631 19.5348L30.8848 18.9474H31.8375L32.1262 18.0362L32.4089 18.9474ZM30.159 16.6538H31.1165L30.3454 17.2425L30.6449 18.1757L29.8775 17.6005L29.1112 18.1757L29.4131 17.2425L28.6349 16.6538H29.5888L29.8775 15.7439L30.159 16.6538ZM30.159 27.4835H31.1165L30.3454 28.0722L30.6449 29.0054L29.8775 28.429L29.1112 29.0054L29.4131 28.0722L28.6349 27.4835H29.5888L29.8775 26.5724L30.159 27.4835ZM27.1285 28.3106H28.086L27.315 28.9004L27.6145 29.8325L26.847 29.2585L26.0808 29.8325L26.3827 28.9004L25.6044 28.3106H26.5583L26.847 27.4006L27.1285 28.3106ZM27.0948 15.8208H28.0499L27.28 16.4327L27.5796 17.4027L26.8121 16.8055L26.0446 17.4027L26.3478 16.4327L25.5707 15.8208H26.5234L26.8121 14.874L27.0948 15.8208Z" fill="#FFF200"/>
<path d="M30.5773 36.575H30.2658C30.2092 36.575 30.1828 36.548 30.1828 36.4916L30.1876 35.2505C30.1876 34.9893 30.1274 34.8176 29.876 34.8176C29.7028 34.8176 29.3996 34.9587 29.2818 35.0163V36.4916C29.2818 36.5444 29.2601 36.575 29.2 36.575H28.892C28.8319 36.575 28.8102 36.548 28.8102 36.4916V34.4988C28.8102 34.4424 28.8319 34.4117 28.892 34.4117H29.2C29.2601 34.4117 29.2818 34.4423 29.2818 34.4988V34.6325C29.2866 34.6325 29.2914 34.6364 29.2951 34.6364C29.455 34.5223 29.7582 34.3715 30.0228 34.3715C30.6074 34.3715 30.6604 34.7652 30.6604 35.2103V36.4918C30.6604 36.5446 30.6423 36.5752 30.5773 36.5752M27.9746 35.59H27.4465C27.23 35.59 27.0905 35.6698 27.0905 35.9616C27.0905 36.1554 27.1554 36.2179 27.3599 36.2179C27.5464 36.2179 27.8098 36.1063 27.9746 36.0094L27.9746 35.59ZM28.0011 36.3234C27.7846 36.4914 27.4935 36.6103 27.2035 36.6103C26.744 36.6103 26.6105 36.354 26.6105 35.9837C26.6057 35.4662 26.8788 35.2454 27.4249 35.2454H27.9794V35.1314C27.9794 34.8665 27.8832 34.7733 27.5283 34.7733C27.3852 34.7733 27.1121 34.7954 26.9389 34.8125C26.8523 34.8261 26.8306 34.8214 26.8186 34.7598L26.7789 34.5967C26.7703 34.539 26.7837 34.5035 26.8788 34.4643C27.0652 34.3981 27.4069 34.3675 27.6114 34.3675C28.3608 34.3675 28.451 34.6802 28.451 35.1756V36.0279C28.451 36.2082 28.4726 36.2131 28.6074 36.2302C28.6723 36.2351 28.6892 36.2486 28.6892 36.2965V36.4829C28.6892 36.5307 28.6591 36.5614 28.5857 36.5748C28.5159 36.5883 28.4474 36.5969 28.3824 36.5969C28.1779 36.5969 28.0528 36.5356 28.0095 36.3283L28.0009 36.3234L28.0011 36.3234ZM25.086 35.2943H25.9437C25.9437 35.0245 25.8739 34.7646 25.5154 34.7646C25.1943 34.7646 25.1077 34.9632 25.086 35.2943ZM25.0812 35.6254C25.0945 36.0718 25.2508 36.1957 25.6057 36.1957C25.7621 36.1957 26.0038 36.1638 26.1686 36.1466C26.2469 36.1378 26.2733 36.1378 26.2865 36.2215L26.3118 36.3674C26.3251 36.4336 26.3166 36.4692 26.2385 36.5048C26.0689 36.571 25.7537 36.6151 25.5408 36.6151C24.7132 36.6151 24.5917 36.0768 24.5917 35.5016C24.5917 35.0736 24.67 34.3672 25.5156 34.3672C26.2902 34.3672 26.4286 34.8799 26.4418 35.3557C26.4466 35.5151 26.4033 35.6255 26.2301 35.6255L25.0812 35.6254ZM23.5098 34.8174C23.3318 34.8174 23.0587 34.945 22.9288 35.0161V36.1198C23.1237 36.1775 23.2801 36.1946 23.428 36.1946C23.7396 36.1946 23.8478 36.0315 23.8478 35.476C23.8478 34.9144 23.7396 34.8174 23.5098 34.8174ZM23.475 36.6153C23.3318 36.6153 23.1334 36.5883 22.9337 36.5172L22.9289 36.5221V37.2996C22.9289 37.3473 22.9168 37.3879 22.8471 37.3879H22.5391C22.4706 37.3879 22.4573 37.3573 22.4573 37.2996V34.4997C22.4573 34.4422 22.479 34.4114 22.5391 34.4114H22.8471C22.9085 34.4114 22.9253 34.4458 22.9253 34.4997V34.6322L22.9386 34.641C23.0938 34.5307 23.3716 34.3761 23.6231 34.3761C24.1896 34.3761 24.3376 34.8127 24.3376 35.4798C24.3376 36.1997 24.1594 36.6153 23.475 36.6153ZM21.2623 34.7907C20.8942 34.7907 20.8112 35.0298 20.8112 35.4885C20.8112 35.9569 20.8942 36.1863 21.2575 36.1863C21.652 36.1863 21.7302 35.9606 21.7302 35.4885C21.7302 35.02 21.6568 34.7907 21.2623 34.7907ZM21.2575 36.6106C20.3878 36.6106 20.3313 35.9606 20.3313 35.4578C20.3313 35.0421 20.4214 34.3664 21.2575 34.3664C22.0984 34.3664 22.215 34.9366 22.215 35.4578C22.215 35.9606 22.1549 36.6106 21.2575 36.6106ZM19.439 36.491C19.439 36.5438 19.4173 36.5744 19.3572 36.5744H19.0444C18.9843 36.5744 18.9626 36.5486 18.9626 36.491V34.4995C18.9626 34.4418 18.9843 34.4112 19.0444 34.4112H19.3524C19.4173 34.4112 19.439 34.4467 19.439 34.4995V34.6932L19.4476 34.7021C19.5775 34.5794 19.8855 34.4286 20.0888 34.3893C20.1454 34.3758 20.1838 34.3893 20.1934 34.4641L20.2235 34.7596C20.2273 34.8222 20.2321 34.8479 20.1405 34.8663C19.8987 34.9142 19.5908 35.0024 19.4392 35.0687V36.4912L19.439 36.491ZM18.5127 36.5749H18.2048C18.1398 36.5749 18.123 36.5443 18.123 36.4915V36.3542L18.1143 36.3493C17.9447 36.4694 17.65 36.6142 17.3865 36.6142C16.8019 36.6142 16.7454 36.261 16.7454 35.7974V34.4987C16.7454 34.446 16.767 34.4116 16.8272 34.4116H17.1435C17.2001 34.4116 17.2218 34.4422 17.2218 34.4987V35.7398C17.2218 36.0059 17.2735 36.1727 17.5382 36.1727C17.7246 36.1727 18.0097 36.0316 18.1228 35.974V34.4987C18.1228 34.446 18.1396 34.4116 18.2046 34.4116H18.5125C18.5727 34.4116 18.5943 34.4422 18.5943 34.4987V36.4915C18.5943 36.5479 18.5729 36.5749 18.5127 36.5749ZM14.7188 33.7309C14.7188 33.6732 14.7452 33.6426 14.8054 33.6426H16.3992C16.451 33.6426 16.4823 33.6732 16.4823 33.726V34.0007C16.4823 34.0534 16.4606 34.0804 16.3957 34.0804H15.2132V34.8395H16.2609C16.3174 34.8395 16.3475 34.8665 16.3475 34.9192V35.1927C16.3475 35.2455 16.3259 35.2723 16.2609 35.2723H15.2132V36.1418H16.4257C16.4774 36.1418 16.504 36.1688 16.504 36.2265V36.495C16.504 36.5527 16.4823 36.5747 16.4209 36.5747H14.8054C14.7453 36.5747 14.7188 36.5477 14.7188 36.495L14.7188 33.7309Z" fill="#5A5758"/>
<path d="M34.9636 41.2349H34.6521C34.5955 41.2349 34.569 41.2079 34.569 41.1515L34.5738 39.9105C34.5738 39.6493 34.5137 39.4776 34.2623 39.4776C34.089 39.4776 33.7859 39.6186 33.668 39.6763V41.1515C33.668 41.2043 33.6464 41.2349 33.5862 41.2349H33.2783C33.2181 41.2349 33.1965 41.208 33.1965 41.1515V39.1588C33.1965 39.1024 33.2181 39.0716 33.2783 39.0716H33.5862C33.6464 39.0716 33.668 39.1023 33.668 39.1588V39.2924C33.6728 39.2924 33.6767 39.2964 33.6813 39.2964C33.8413 39.1823 34.1456 39.0315 34.4091 39.0315C34.9937 39.0315 35.0466 39.4251 35.0466 39.8703V41.1518C35.0466 41.2046 35.0286 41.2352 34.9636 41.2352M32.0098 39.4508C31.6417 39.4508 31.5599 39.6899 31.5599 40.1485C31.5599 40.617 31.6417 40.8463 32.005 40.8463C32.3996 40.8463 32.4778 40.6207 32.4778 40.1485C32.4778 39.6801 32.4043 39.4508 32.0098 39.4508ZM32.005 41.2706C31.1353 41.2706 31.0788 40.6207 31.0788 40.1179C31.0788 39.7022 31.169 39.0265 32.005 39.0265C32.8459 39.0265 32.9626 39.5967 32.9626 40.1179C32.9626 40.6207 32.9024 41.2706 32.005 41.2706ZM30.7583 41.1511C30.7583 41.199 30.7415 41.2345 30.6801 41.2345H30.3722C30.312 41.2345 30.2855 41.2087 30.2855 41.1511V39.1546C30.2855 39.0933 30.312 39.0712 30.3722 39.0712H30.6801C30.7415 39.0712 30.7583 39.1067 30.7583 39.1546V41.1511ZM30.5286 38.7536C30.3036 38.7536 30.2736 38.6248 30.2736 38.4972C30.2736 38.3562 30.3205 38.2446 30.5286 38.2446C30.7415 38.2446 30.7848 38.3464 30.7848 38.4972C30.7848 38.6334 30.7452 38.7536 30.5286 38.7536ZM29.1213 41.2705C28.9048 41.2705 28.6149 41.2398 28.4501 41.1736C28.3635 41.1381 28.3454 41.0976 28.3587 41.0277L28.3887 40.8818C28.402 40.8106 28.432 40.807 28.5018 40.8155C28.6918 40.8461 28.9697 40.8683 29.1164 40.8683C29.3943 40.8683 29.5074 40.7935 29.5074 40.6169C29.5074 40.4133 29.4328 40.3692 29.1597 40.3299C28.7351 40.2674 28.3634 40.1754 28.3634 39.6935C28.3634 39.2569 28.6918 39.0276 29.1778 39.0276C29.3546 39.0276 29.6541 39.0534 29.8358 39.1244C29.9092 39.155 29.9404 39.1906 29.9272 39.2569L29.8923 39.4151C29.8792 39.4776 29.8538 39.4862 29.7757 39.4776C29.5892 39.4556 29.3462 39.4286 29.1862 39.4286C28.9095 39.4286 28.8446 39.5083 28.8446 39.6763C28.8446 39.848 28.9481 39.8701 29.2127 39.9142C29.6241 39.9767 29.9958 40.0602 29.9958 40.5863C29.9958 41.1026 29.5676 41.2705 29.1213 41.2705ZM27.3068 41.2705C27.0903 41.2705 26.8004 41.2399 26.6356 41.1736C26.549 41.1381 26.5309 41.0976 26.5441 41.0277L26.5742 40.8818C26.5874 40.8106 26.6175 40.807 26.6872 40.8155C26.8773 40.8461 27.1552 40.8683 27.3019 40.8683C27.5798 40.8683 27.6929 40.7935 27.6929 40.6169C27.6929 40.4133 27.6183 40.3692 27.3452 40.33C26.9206 40.2674 26.5489 40.1754 26.5489 39.6935C26.5489 39.2569 26.8773 39.0276 27.3633 39.0276C27.5401 39.0276 27.8396 39.0534 28.0213 39.1244C28.0947 39.155 28.1259 39.1906 28.1127 39.2569L28.0778 39.4151C28.0646 39.4777 28.0393 39.4862 27.9612 39.4777C27.7747 39.4556 27.5317 39.4286 27.3717 39.4286C27.095 39.4286 27.0301 39.5083 27.0301 39.6763C27.0301 39.848 27.1336 39.8701 27.3982 39.9142C27.8096 39.9767 28.1813 40.0602 28.1813 40.5863C28.1813 41.1026 27.7531 41.2705 27.3068 41.2705ZM26.2328 41.1512C26.2328 41.199 26.216 41.2345 26.1546 41.2345H25.8466C25.7865 41.2345 25.76 41.2087 25.76 41.1512V39.1547C25.76 39.0934 25.7865 39.0713 25.8466 39.0713H26.1546C26.216 39.0713 26.2328 39.1068 26.2328 39.1547V41.1512ZM26.0031 38.7536C25.7781 38.7536 25.748 38.6249 25.748 38.4973C25.748 38.3563 25.795 38.2447 26.0031 38.2447C26.216 38.2447 26.2593 38.3465 26.2593 38.4973C26.2593 38.6334 26.2196 38.7536 26.0031 38.7536ZM25.3285 41.235H25.0169C24.9556 41.235 24.9339 41.208 24.9339 41.1516V39.8971C24.9339 39.5696 24.8569 39.4776 24.6391 39.4776C24.4792 39.4776 24.2193 39.6052 24.0858 39.6763C24.0858 39.7205 24.0896 39.8002 24.0896 39.9007V41.1516C24.0896 41.2044 24.0728 41.235 24.0078 41.235H23.6915C23.635 41.235 23.618 41.208 23.618 41.1516V39.875C23.618 39.6052 23.5483 39.4776 23.3317 39.4776C23.1802 39.4776 22.9372 39.588 22.7724 39.6763V41.1516C22.7724 41.2044 22.7507 41.235 22.6906 41.235H22.3791C22.3225 41.235 22.3008 41.208 22.3008 41.1516V39.1588C22.3008 39.1024 22.3225 39.0717 22.3791 39.0717H22.6858C22.7508 39.0717 22.7724 39.106 22.7724 39.1588V39.2876L22.7772 39.2925C22.9456 39.1723 23.1838 39.0398 23.4232 39.0313C23.6734 39.0313 23.8815 39.084 24.0162 39.3403C24.2327 39.1772 24.501 39.0313 24.7789 39.0313C25.3502 39.0313 25.4068 39.4114 25.4068 39.8529V41.1516C25.4068 41.2044 25.3886 41.235 25.3285 41.235ZM21.9334 41.235H21.6219C21.5606 41.235 21.5388 41.208 21.5388 41.1516V39.8971C21.5388 39.5696 21.4618 39.4776 21.2441 39.4776C21.0841 39.4776 20.8243 39.6052 20.6908 39.6763C20.6908 39.7205 20.6946 39.8002 20.6946 39.9007V41.1516C20.6946 41.2044 20.6778 41.235 20.6128 41.235H20.2965C20.24 41.235 20.223 41.208 20.223 41.1516V39.875C20.223 39.6052 20.1533 39.4776 19.9367 39.4776C19.7852 39.4776 19.5422 39.588 19.3774 39.6763V41.1516C19.3774 41.2044 19.3557 41.235 19.2956 41.235H18.984C18.9275 41.235 18.9058 41.208 18.9058 41.1516V39.1588C18.9058 39.1024 18.9275 39.0717 18.984 39.0717H19.2908C19.3557 39.0717 19.3774 39.106 19.3774 39.1588V39.2876L19.3822 39.2925C19.5506 39.1723 19.7888 39.0399 20.0282 39.0313C20.2784 39.0313 20.4865 39.0841 20.6212 39.3403C20.8377 39.1772 21.106 39.0313 21.3839 39.0313C21.9552 39.0313 22.0118 39.4114 22.0118 39.8529V41.1516C22.0118 41.2044 21.9936 41.235 21.9334 41.235ZM17.7063 39.4508C17.3382 39.4508 17.2552 39.6899 17.2552 40.1486C17.2552 40.617 17.3382 40.8464 17.7014 40.8464C18.096 40.8464 18.1742 40.6207 18.1742 40.1486C18.1742 39.6801 18.1008 39.4508 17.7063 39.4508ZM17.7015 41.2707C16.8318 41.2707 16.7752 40.6207 16.7752 40.1179C16.7752 39.7022 16.8654 39.0265 17.7015 39.0265C18.5423 39.0265 18.659 39.5967 18.659 40.1179C18.659 40.6207 18.5988 41.2707 17.7015 41.2707ZM15.8485 38.2718C16.0602 38.2718 16.4115 38.3024 16.6412 38.3993C16.711 38.4312 16.7362 38.4668 16.723 38.5367L16.6845 38.7182C16.6712 38.7709 16.6497 38.793 16.5714 38.7844C16.3597 38.7574 16.0999 38.7268 15.875 38.7268C15.2855 38.7268 15.1989 39.2124 15.1989 39.7863C15.1989 40.3652 15.3072 40.8201 15.875 40.8201C16.1252 40.8201 16.3381 40.7932 16.5714 40.7624C16.6545 40.7536 16.6713 40.776 16.6893 40.8336L16.723 41.0016C16.741 41.0715 16.7192 41.112 16.6496 41.1426C16.4379 41.2345 16.0602 41.2751 15.8484 41.2751C14.8825 41.2751 14.6792 40.5466 14.6792 39.7949C14.6792 39.0407 14.8609 38.2718 15.8485 38.2718Z" fill="#5A5758"/>
</g>
<defs>
<clipPath id="clip0_3368_27444">
<rect width="63.75" height="45" fill="white" transform="translate(0.0834961)"/>
</clipPath>
</defs>
</svg>
