<svg width="75" height="29" viewBox="0 0 75 29" fill="none" xmlns="http://www.w3.org/2000/svg">
<g clip-path="url(#clip0_3368_27456)">
<path fill-rule="evenodd" clip-rule="evenodd" d="M72.5583 19.1556C72.6027 19.6629 73.0084 20.3085 73.7117 20.3085H74.1227C74.2825 20.3085 74.4131 20.1779 74.4131 20.0183V10.9733H74.4111C74.4031 10.8209 74.2772 10.6989 74.1227 10.6989H72.8487C72.6942 10.6989 72.5683 10.8209 72.5603 10.9733H72.5583V11.7083C71.7775 10.7458 70.5465 10.3463 69.3122 10.3463C66.5061 10.3463 64.2315 12.6228 64.2315 15.431C64.2315 18.2395 66.5061 20.516 69.3122 20.516C70.5465 20.516 71.8921 20.0369 72.5583 19.1545V19.1556ZM69.3169 18.7364C67.5324 18.7364 66.0857 17.2567 66.0857 15.431C66.0857 13.6058 67.5324 12.126 69.3169 12.126C71.102 12.126 72.5484 13.6058 72.5484 15.431C72.5484 17.2567 71.102 18.7364 69.3169 18.7364Z" fill="#616161"/>
<path fill-rule="evenodd" clip-rule="evenodd" d="M62.6199 14.7863C62.6199 12.148 60.9569 10.3681 58.3048 10.3681C57.0387 10.3681 56.0009 11.1008 55.6344 11.7301C55.5551 11.238 55.2941 10.7207 54.4845 10.7207H54.0719C53.9123 10.7207 53.7819 10.8515 53.7819 11.0111V19.1783C53.7819 19.1785 53.7819 19.1791 53.7819 19.1795V20.0568H53.7835C53.7919 20.209 53.9179 20.3311 54.072 20.3311H55.3464C55.3659 20.3311 55.385 20.3288 55.4035 20.3252C55.412 20.3236 55.4198 20.3203 55.428 20.3179C55.4375 20.315 55.4474 20.3128 55.4564 20.3091C55.4677 20.3044 55.478 20.2981 55.4885 20.2922C55.4937 20.289 55.4991 20.2868 55.5041 20.2835C55.5168 20.2753 55.5285 20.2654 55.5398 20.2553C55.5416 20.2534 55.5438 20.2522 55.5457 20.2505C55.5583 20.2382 55.5699 20.2247 55.5801 20.2106C55.612 20.1668 55.6315 20.1138 55.6347 20.0568H55.6363V14.7137C55.6363 13.2968 56.7843 12.148 58.2002 12.148C59.6161 12.148 60.7641 13.2968 60.7641 14.7137L60.7652 19.1799L60.7656 19.1783C60.7656 19.1822 60.7662 19.1863 60.7662 19.1905V20.0568H60.7679C60.7763 20.209 60.9022 20.3311 61.0562 20.3311H62.3307C62.3503 20.3311 62.3693 20.3288 62.3878 20.3252C62.3953 20.3238 62.4023 20.3208 62.4097 20.3187C62.4201 20.3157 62.4309 20.3131 62.4409 20.3091C62.4513 20.3048 62.4608 20.2987 62.4706 20.2932C62.4767 20.2898 62.483 20.2873 62.4887 20.2835C62.5005 20.2757 62.5113 20.2664 62.5219 20.2572C62.5245 20.2546 62.5276 20.2528 62.5301 20.2503C62.5422 20.2386 62.553 20.226 62.5628 20.2128C62.5635 20.2118 62.5643 20.211 62.565 20.21C62.5964 20.1666 62.6157 20.1142 62.619 20.0576C62.619 20.0572 62.6191 20.0568 62.6191 20.0568H62.6208L62.6199 14.7863Z" fill="#616161"/>
<path fill-rule="evenodd" clip-rule="evenodd" d="M49.3482 19.1556C49.3927 19.6628 49.7985 20.3085 50.5014 20.3085H50.9126C51.0721 20.3085 51.2026 20.1778 51.2026 20.0183V10.9733H51.2009C51.1926 10.8209 51.0666 10.6989 50.9126 10.6989H49.6383C49.4841 10.6989 49.3583 10.8209 49.3496 10.9733H49.3482V11.7083C48.5673 10.7458 47.3363 10.3463 46.1018 10.3463C43.2958 10.3463 41.0212 12.6228 41.0212 15.4311C41.0212 18.2395 43.2958 20.516 46.1018 20.516C47.3363 20.516 48.6817 20.037 49.3481 19.1545L49.3482 19.1556ZM46.1068 18.7364C44.3223 18.7364 42.8755 17.2567 42.8755 15.4311C42.8755 13.6058 44.3223 12.126 46.1068 12.126C47.8914 12.126 49.338 13.6058 49.338 15.4311C49.338 17.2567 47.8914 18.7364 46.1068 18.7364Z" fill="#616161"/>
<path fill-rule="evenodd" clip-rule="evenodd" d="M33.485 17.8602C34.3358 18.45 35.2644 18.7365 36.1568 18.7365C37.0069 18.7365 37.8858 18.2954 37.8858 17.5277C37.8858 16.5027 35.9707 16.3433 34.7675 15.934C33.5639 15.5247 32.5274 14.6787 32.5274 13.3086C32.5274 11.2121 34.394 10.3462 36.1362 10.3462C37.24 10.3462 38.3789 10.7105 39.1173 11.2323C39.3715 11.4251 39.2167 11.6465 39.2167 11.6465L38.5119 12.654C38.4326 12.7674 38.2941 12.8655 38.0953 12.7427C37.8964 12.6199 37.199 12.1259 36.1362 12.1259C35.0732 12.1259 34.4329 12.6171 34.4329 13.226C34.4329 13.9562 35.2651 14.1859 36.2398 14.4347C37.9384 14.8929 39.7913 15.4437 39.7913 17.5277C39.7913 19.3749 38.0649 20.5164 36.1568 20.5164C34.7108 20.5164 33.4797 20.1039 32.4472 19.3456C32.2321 19.1302 32.3823 18.9301 32.3823 18.9301L33.0837 17.9278C33.2265 17.7404 33.4064 17.8058 33.485 17.8602Z" fill="#616161"/>
<path fill-rule="evenodd" clip-rule="evenodd" d="M28.5858 19.1556C28.6304 19.6628 29.0361 20.3085 29.739 20.3085H30.1503C30.3097 20.3085 30.4403 20.1778 30.4403 20.0183V10.9733H30.4386C30.4302 10.8209 30.3043 10.6989 30.1503 10.6989H28.8759C28.7218 10.6989 28.5959 10.8209 28.5873 10.9733H28.5858V11.7083C27.805 10.7458 26.574 10.3463 25.3395 10.3463C22.5335 10.3463 20.2588 12.6228 20.2588 15.4311C20.2588 18.2395 22.5335 20.516 25.3395 20.516C26.574 20.516 27.9193 20.037 28.5856 19.1545L28.5858 19.1556ZM25.3445 18.7364C23.5599 18.7364 22.1131 17.2567 22.1131 15.4311C22.1131 13.6058 23.5599 12.126 25.3445 12.126C27.129 12.126 28.5756 13.6058 28.5756 15.4311C28.5756 17.2567 27.129 18.7364 25.3445 18.7364Z" fill="#616161"/>
<path fill-rule="evenodd" clip-rule="evenodd" d="M13.1357 15.7765C11.2475 15.7765 9.7166 17.3073 9.7166 19.1958C9.7166 21.0841 11.2475 22.6149 13.1357 22.6149C15.0241 22.6149 16.5549 21.0841 16.5549 19.1958C16.5549 17.3073 15.0241 15.7765 13.1357 15.7765ZM4.25261 15.7769C2.3643 15.7769 0.833496 17.3073 0.833496 19.1958C0.833496 21.0841 2.3643 22.6149 4.25261 22.6149C6.141 22.6149 7.67189 21.0841 7.67189 19.1958C7.67189 17.3073 6.141 15.7769 4.25261 15.7769ZM12.1132 11.5025C12.1132 13.391 10.5825 14.922 8.69418 14.922C6.8058 14.922 5.27508 13.391 5.27508 11.5025C5.27508 9.61445 6.8058 8.0835 8.69418 8.0835C10.5825 8.0835 12.1132 9.61445 12.1132 11.5025Z" fill="#616161"/>
</g>
<defs>
<clipPath id="clip0_3368_27456">
<rect width="74.0833" height="28" fill="white" transform="translate(0.833496 0.5)"/>
</clipPath>
</defs>
</svg>
