<svg width="109" height="27" viewBox="0 0 109 27" fill="none" xmlns="http://www.w3.org/2000/svg">
<g opacity="0.75" clip-path="url(#clip0_3368_27459)">
<path fill-rule="evenodd" clip-rule="evenodd" d="M1.58246 7.47502C2.3883 7.47502 2.94984 7.64411 3.29854 7.98956C3.68875 8.37613 3.86343 9.01466 3.86343 10.0596V23.112C3.86343 24.9182 3.48126 25.7239 1.22572 25.7239H0.916504V26.5248H11.0531V25.7278L10.7472 25.7239C8.51306 25.6973 8.13625 24.8964 8.13625 23.112V10.059C8.13625 9.01731 8.31027 8.38143 8.70047 7.99553C9.05252 7.64477 9.6241 7.47436 10.4467 7.47436H11.0524V6.66211H0.916504V7.47436H1.58246V7.47502Z" fill="#091C5A"/>
<path fill-rule="evenodd" clip-rule="evenodd" d="M34.0014 19.8667C34.0014 19.8667 33.8254 19.0518 33.8 18.5956V12.634C33.7605 9.1576 34.239 7.42701 31.171 7.44027V6.65918H38.2287V7.44027C35.069 7.42767 35.4665 9.15826 35.4485 12.634V26.5544L34.4439 26.5438L19.2032 10.743C19.2032 10.743 19.3746 11.5566 19.4 12.0134V21.7757C19.3136 25.337 19.7587 25.7673 22.0745 25.7256V26.5391H14.7169V25.7256C17.036 25.7282 17.4918 25.4225 17.4891 21.4853V21.7207V12.0996L17.4704 10.5726C17.5567 8.59599 16.8198 7.44955 14.5703 7.46812V6.68637H21.3443L34.0014 19.8667Z" fill="#091C5A"/>
<path fill-rule="evenodd" clip-rule="evenodd" d="M59.5508 6.27979H58.7731L58.7369 6.54368C58.6841 6.93754 58.5274 7.59729 58.0743 7.59729C57.9451 7.59729 57.6232 7.53695 57.2605 7.37251C55.6849 6.69619 53.6436 6.27979 51.9248 6.27979C48.5803 6.27979 45.5464 7.46667 43.3792 9.62295C41.3887 11.6042 40.2997 14.3009 40.3151 17.215C40.3292 20.0065 41.4368 22.3027 43.7044 24.2382C45.9888 26.1743 48.5482 26.9998 52.2675 26.9998C55.3657 26.9998 57.1393 26.5589 59.8614 25.1114L60.3379 24.8555V19.6471C60.3379 17.4272 60.6123 17.0817 62.4355 17.0088L62.732 16.9975V16.2237H53.8249V16.9975L54.1214 17.0088C56.1521 17.0871 56.5356 17.4478 56.5356 19.2831V24.1096C55.029 25.0942 53.934 25.4682 52.5533 25.4682C50.5099 25.4682 48.6914 24.6858 47.2952 23.3039C45.6601 21.6827 44.8623 19.3216 44.8623 16.6534C44.8623 13.779 45.6347 11.327 47.2263 9.75158C48.4933 8.49641 50.1759 7.79953 52.0955 7.79953C53.8102 7.79953 55.802 8.52823 57.1681 9.60173C58.2791 10.5028 58.8554 11.3748 59.2904 12.8156L59.3567 13.0337H60.117L59.5508 6.27979Z" fill="#091C5A"/>
<path fill-rule="evenodd" clip-rule="evenodd" d="M98.5628 26.4714C99.0581 26.3971 99.5835 26.4084 99.9784 26.049C101.652 26.3036 103.348 25.8939 104.663 24.9808C105.356 24.4272 105.98 23.7847 106.485 23.0825C106.93 22.4645 107.28 21.8883 107.507 21.1961C107.677 20.7691 107.811 20.3248 107.912 19.8686C108.389 17.7176 108.138 15.312 107.431 13.2665C107.302 12.8866 107.154 12.5186 106.993 12.1678C106.111 10.3616 104.91 8.41287 103.062 7.27042C102.02 6.62724 101.062 5.63199 100.474 4.60159C100.154 4.31647 99.8472 3.93852 99.4336 3.87023C99.5467 4.05522 99.6712 4.23624 99.702 4.4524L99.6779 4.4829C99.2388 4.4955 98.8948 4.26541 98.5943 3.98693L98.9256 3.68921C98.8004 3.62622 98.6572 3.60235 98.5187 3.57052C97.2544 3.42796 96.2143 4.00616 95.0925 4.28464L95.0751 4.34631C95.7638 4.64999 95.9077 5.4019 96.3086 5.91047C96.4077 5.79245 96.577 5.87865 96.7156 5.86804C96.9157 5.87931 97.1038 6.02253 97.2979 5.97214C97.3039 5.80637 97.2095 5.67442 97.1794 5.5259C97.2979 5.4702 97.4418 5.51927 97.5743 5.5259C97.937 5.73609 98.5187 5.48876 98.7449 5.97214C98.3313 5.998 97.9431 6.0842 97.5549 6.17769C97.5803 6.33284 97.7369 6.45617 97.7242 6.61199C97.3922 6.4754 97.0409 6.3892 96.6714 6.34611L96.6527 6.40114C97.1225 6.94684 97.7677 7.27042 98.4256 7.46204C99.372 7.67886 100.205 7.23262 101.118 7.38778C103.362 8.40558 105.278 10.7336 106.111 12.9429C106.152 13.049 106.192 13.1564 106.228 13.2658C106.926 15.2835 107.059 17.7634 106.36 19.868C105.987 20.7432 105.578 21.5694 104.921 22.2808C104.673 22.5839 104.398 22.8537 104.1 23.0818C103.16 23.8072 102 24.1275 100.805 23.8026C100.73 23.7515 100.579 23.7389 100.605 23.6096C100.646 23.4366 100.685 23.2615 100.719 23.0818C100.917 22.0733 101.009 21.0124 100.956 19.9515C100.954 19.9064 100.953 19.8607 100.952 19.8156C100.885 18.2753 100.575 16.8908 100.005 15.5587C99.6377 14.7942 99.2027 13.9607 98.6545 13.2128C98 12.321 97.1881 11.5505 96.1453 11.1659C95.5062 10.9982 94.717 10.9663 94.2351 11.4935C93.8905 11.7925 93.7472 12.195 93.7968 12.6366C93.258 12.9747 92.6523 13.1571 91.993 13.2128C91.8317 13.2267 91.6664 13.2857 91.4984 13.2837C91.3391 13.291 91.1838 13.2844 91.0312 13.2658C90.2381 13.169 89.4356 12.7447 88.8259 12.2606C88.8131 11.9377 88.7944 11.634 88.7817 11.2926C88.4323 11.1129 88.1425 10.7714 88.1184 10.3676L88.1492 10.3371C88.3507 10.3987 88.5247 10.4975 88.7067 10.603C88.6251 10.1189 88.5307 9.64153 88.2877 9.21916C88.0615 9.12567 87.836 9.0514 87.6238 8.93935C87.3795 8.77955 87.2222 8.48647 87.1861 8.22058C87.4049 8.43144 87.7864 8.35718 87.9558 8.57997C87.6606 7.71732 87.6559 6.73068 87.1727 5.9423C86.9284 5.35947 86.2892 5.09225 85.8508 4.66458C85.6815 4.45903 85.6132 4.17391 85.3067 4.14208C85.0557 4.08042 85.037 3.80193 84.9934 3.62092C85.1494 3.63948 85.2806 3.74491 85.4118 3.76944C85.049 2.81529 84.7291 1.75307 83.7465 1.14504L83.5779 1.25113C83.1957 1.30682 82.7881 1.33202 82.4066 1.34462C82.5759 1.09663 82.8758 0.990544 83.1141 0.877823C82.8383 0.673599 82.6114 0.624533 82.2667 0.568836C82.0666 0.766428 81.7045 0.866551 81.4475 0.922248L81.4154 0.897052C81.4087 0.673599 81.3578 0.401081 81.6971 0.34472C81.3712 0.189563 80.8311 0.252554 80.4991 0.34472C80.4061 0.586738 80.137 0.804223 80.1564 1.09067C79.963 1.28892 79.8251 1.55614 79.6236 1.6987C79.6176 1.22063 79.8231 0.780353 79.9108 0.37721C79.629 0.482637 79.3425 0.631826 79.0661 0.761787C78.6224 0.507171 78.1539 0.253217 77.678 0.0602661C77.6352 0.0417003 77.5401 0.0237976 77.5589 0.104028C77.9665 0.395113 77.8085 0.94214 77.852 1.35655L77.595 1.14636C77.4698 0.830082 77.1084 0.600663 77.0462 0.253217C76.6198 0.334111 76.3474 0.445506 75.9525 0.613261L75.8983 0.644425C76.1921 0.644425 76.4425 0.873181 76.5864 1.10393C76.1419 1.1278 75.7471 0.954738 75.3087 0.910313C75.2652 0.867877 75.227 0.816821 75.1581 0.823452C74.9392 0.904345 74.7505 1.05884 74.5577 1.20803C74.1253 1.6304 73.6863 2.09587 73.4801 2.65483C73.6247 2.6787 73.8061 2.67274 73.9125 2.7596C73.6749 2.90215 73.4681 3.14484 73.2365 3.28076C73.1549 3.60368 73.1676 3.97101 73.1482 4.32376C72.9661 4.59761 72.7225 4.8383 72.604 5.14397C72.2152 6.3892 72.1154 7.77434 72.1717 9.18866C72.0458 9.30735 71.8825 9.38227 71.7647 9.4751L71.7774 10.7402H71.8082C71.8644 10.4743 72.1844 10.3258 72.3785 10.1455H72.4414C72.4099 10.4306 72.3724 10.7164 72.3664 11.0081L72.0037 11.3058C71.6396 11.6228 71.9468 12.1002 71.916 12.498C71.9414 12.6021 71.9588 12.7579 72.0344 12.7831C72.0786 12.628 72.2158 12.5166 72.3042 12.3793C72.4601 12.3428 72.598 12.2175 72.7419 12.2003C72.6602 12.5106 72.5552 12.8143 72.4287 13.112C72.3684 13.1511 72.2982 13.2035 72.2379 13.2672C72.1737 13.3355 72.1221 13.4117 72.1087 13.4966C72.3919 14.9666 72.8349 16.4187 73.3416 17.8025C72.9982 18.38 72.8028 19.0597 72.5163 19.6558C72.4748 19.7387 72.438 19.8242 72.4039 19.9104C72.1161 20.6318 72.0284 21.4388 71.6704 22.1317C71.5251 22.0335 71.3685 21.9573 71.2072 21.8896C70.5299 21.6662 69.7468 21.8087 69.2528 22.3246C68.8138 22.2437 68.3627 22.318 68.018 22.5481C67.771 22.7304 67.5803 22.9525 67.4705 23.2111C67.3955 23.3915 67.3614 23.5877 67.3728 23.8019C67.0917 23.9935 66.9411 24.2906 66.8474 24.5896C66.7162 25.2593 66.9538 25.9569 67.342 26.4727H98.5628V26.4714Z" fill="white"/>
<path fill-rule="evenodd" clip-rule="evenodd" d="M94.4159 12.5189C94.4092 12.68 94.2908 12.861 94.3972 12.997C94.5478 12.8292 94.7988 12.8352 94.9989 12.7616C95.5558 12.7119 96.0885 12.8849 96.6079 13.0102C96.4774 12.8047 96.389 12.5766 96.2451 12.3896C95.956 12.3153 95.5183 12.5136 95.4688 12.0919C95.2927 11.9427 95.0163 12.0495 94.8363 12.0601C94.6602 12.1854 94.5163 12.3392 94.4159 12.5189Z" fill="white"/>
<path fill-rule="evenodd" clip-rule="evenodd" d="M75.2726 7.16124C75.2699 7.15859 75.2659 7.15594 75.2632 7.15527C75.2632 7.15527 75.2632 7.15859 75.2645 7.16124H75.2726Z" fill="white"/>
<path fill-rule="evenodd" clip-rule="evenodd" d="M77.5509 12.6764L77.927 12.3171C77.9591 12.3171 77.9832 12.3237 78.002 12.3489L77.9705 13.0372C78.1519 13.2049 78.3774 13.2606 78.615 13.2732C78.6345 13.0869 78.7784 12.9569 78.86 12.7951C78.9289 12.6652 78.8854 12.4722 79.0227 12.3787L79.0655 12.4225C79.1103 12.6267 79.0983 12.8568 79.2047 13.0365C79.2174 13.1353 79.2355 13.2599 79.2475 13.3468C79.5233 13.3601 79.7729 13.2845 79.9864 13.1857C79.9737 12.9503 80.0561 12.7573 80.0922 12.5399C80.1498 12.4649 80.0233 12.329 80.1805 12.3356C80.2682 12.5213 80.4248 12.7136 80.5125 12.9118C80.8753 12.5458 81.0259 12.0684 81.1135 11.5724C81.0078 11.4286 80.8445 11.4286 80.7187 11.3364C79.6545 10.9949 78.2878 10.926 77.2604 11.4538C77.1941 11.8768 77.2818 12.3423 77.5509 12.6764Z" fill="white"/>
<path fill-rule="evenodd" clip-rule="evenodd" d="M67.5961 24.3215C67.5579 24.8002 67.5961 25.2484 67.6262 25.7199C67.7272 25.875 67.9092 26.0554 68.0892 26.068L68.122 25.751C68.1963 25.3094 67.9587 24.8413 68.2097 24.4693C68.385 24.525 68.5589 24.6119 68.7108 24.6928C68.7844 24.283 68.6794 23.8056 68.2846 23.5576L67.5961 24.3215Z" fill="white"/>
<path fill-rule="evenodd" clip-rule="evenodd" d="M69.1425 23.6523C68.8983 24.3777 68.7163 25.2742 69.012 26.0374C69.18 25.9266 69.3559 25.8206 69.5051 25.6654C69.475 25.0812 69.3934 24.458 69.7433 23.9739C70.0498 24.0674 70.2579 24.3592 70.3757 24.6449C70.5831 24.383 70.652 24.0237 70.5704 23.6755C70.5831 23.4037 70.2686 23.466 70.1187 23.3533C70.1696 23.1239 70.1622 22.858 70.4071 22.728L69.6557 22.8023C69.4623 23.0741 69.2495 23.342 69.1425 23.6523Z" fill="white"/>
<path fill-rule="evenodd" clip-rule="evenodd" d="M70.6899 25.7944C70.7221 25.8514 70.6899 25.9495 70.7529 25.9621C70.8472 25.4416 71.2729 25.1035 71.5052 24.6446C71.6169 24.4895 71.6102 24.272 71.7923 24.154C72.0372 24.154 72.2126 24.3283 72.4509 24.3469C72.5258 24.4026 72.4121 24.4517 72.4067 24.5133C72.3572 24.9364 72.1939 25.2865 72.2253 25.7201H72.2682C72.6001 25.374 72.8257 24.9974 73.07 24.6002L73.1128 24.2475C73.169 23.8251 72.7059 23.5526 72.4054 23.3788L72.6744 23.0374L72.2989 22.9067C71.8599 22.9505 71.465 23.1302 71.1585 23.4723C70.7776 24.1666 70.7154 24.951 70.6899 25.7944Z" fill="white"/>
<path fill-rule="evenodd" clip-rule="evenodd" d="M72.3745 22.1118C72.5184 22.1555 72.6496 22.0375 72.7928 22.0998C73.3698 22.31 73.9715 22.5275 74.4032 23.0056L74.9172 24.3019L75.1742 23.5022L75.0049 23.0672C74.861 22.7569 74.4661 22.7821 74.1963 22.7695C74.0846 22.6455 74.203 22.5023 74.2412 22.3849C74.3717 21.9447 73.8269 21.9685 73.608 21.7902C73.6214 21.523 73.2948 21.6158 73.1127 21.5906L73.0505 21.5163C73.0137 21.4606 72.92 21.4606 72.8691 21.5037C72.8557 21.4858 72.8316 21.4732 72.845 21.4414L72.7058 21.4732C72.5124 21.641 72.3805 21.8578 72.3745 22.1118Z" fill="white"/>
<path fill-rule="evenodd" clip-rule="evenodd" d="M72.7378 20.6858C72.7565 20.766 72.8067 20.8469 72.869 20.8959C73.1514 20.8217 73.4198 20.6301 73.7458 20.7468C74.1661 21.1128 74.6038 21.4973 75.1125 21.6969L75.2932 21.6651C75.4063 21.7036 75.5308 21.7089 75.6064 21.8329C75.676 22.0006 75.5013 22.1001 75.4438 22.236C75.7262 22.4409 75.6131 22.8076 75.7891 23.0549L76.2402 22.4595C76.1345 22.1982 76.2463 21.752 75.8326 21.7274C75.6954 21.6585 75.6011 21.5219 75.6071 21.3667C75.3387 21.1247 75.0067 21.0199 74.7363 20.772C74.5175 20.5976 74.3863 20.3304 74.1038 20.2687C73.9104 20.1639 73.6982 20.1076 73.4727 20.0585C73.051 19.9968 73.0142 20.4921 72.7378 20.6858Z" fill="white"/>
<path fill-rule="evenodd" clip-rule="evenodd" d="M73.3384 19.4632L73.414 19.5812C73.7266 19.562 74.0097 19.4261 74.3169 19.432C74.523 19.5567 74.7928 19.5507 75.0049 19.6555C75.1743 19.8849 75.3563 20.1455 75.6053 20.3013C76.114 20.3749 76.3951 20.9153 76.5704 21.3118V21.1195C76.6454 20.8536 76.5637 20.5427 76.4633 20.3013C76.3382 20.1767 76.1568 20.0951 76.0256 19.9837C76.0002 19.9035 76.0189 19.8657 76.0444 19.7914C75.8496 19.5865 75.5618 19.4745 75.3242 19.314C74.9922 18.8359 74.353 18.9666 73.8457 18.8359L73.3384 19.4632Z" fill="white"/>
<path fill-rule="evenodd" clip-rule="evenodd" d="M73.3296 14.9106C73.3851 15.1036 73.4534 15.3456 73.4902 15.5498C73.6655 15.1653 74.0114 14.9929 74.3179 14.6759C74.1419 14.5572 73.9238 14.5015 73.7297 14.4644V14.4531C73.5919 14.5891 73.3791 14.7256 73.3296 14.9106Z" fill="white"/>
<path fill-rule="evenodd" clip-rule="evenodd" d="M74.4663 16.952L74.748 16.6669C75.0304 16.3818 75.2619 16.0522 75.3054 15.6862C75.1053 15.5682 74.8423 15.6484 74.6483 15.7167C74.578 16.1212 74.473 16.5184 74.4663 16.952Z" fill="white"/>
<path fill-rule="evenodd" clip-rule="evenodd" d="M74.6729 17.8274C75.1058 17.8526 75.5246 17.9381 75.8759 17.6981L76.2259 16.5802C76.1141 16.5735 76.0004 16.5245 75.8946 16.5616C75.6638 17.0708 75.1988 17.5728 74.6729 17.8274Z" fill="white"/>
<path fill-rule="evenodd" clip-rule="evenodd" d="M74.7996 13.8682C75.0813 14.2786 75.551 14.7375 76.0334 14.8668C75.9772 14.3463 75.5269 13.9856 75.2947 13.5393L75.2813 13.3901C75.1 13.2157 74.8805 13.099 74.6925 13.0049C74.6624 13.3039 74.744 13.5897 74.7996 13.8682Z" fill="white"/>
<path fill-rule="evenodd" clip-rule="evenodd" d="M76.3267 17.8768C76.6585 17.9338 77.0152 17.8768 77.3216 17.7827C77.7673 17.6786 78.0115 17.1939 78.1614 16.8159H77.604L77.0025 17.3988C76.7656 17.5234 76.5388 17.7104 76.3267 17.8768Z" fill="white"/>
<path fill-rule="evenodd" clip-rule="evenodd" d="M76.2593 13.3037C76.3536 13.7877 76.559 14.228 76.8421 14.6444L76.917 13.7195L76.2593 13.3037Z" fill="white"/>
<path fill-rule="evenodd" clip-rule="evenodd" d="M78.3129 15.7175C78.3504 15.4071 78.2199 15.0478 78.1838 14.7315C77.9951 14.6068 77.7315 14.6194 77.5381 14.4961C77.5501 14.9861 77.9375 15.4012 78.3129 15.7175Z" fill="white"/>
<path fill-rule="evenodd" clip-rule="evenodd" d="M77.7432 18.8708C78.1379 18.7461 78.5193 18.6095 78.882 18.4106C79.1135 18.083 79.4648 17.7833 79.5143 17.3994C79.2266 17.4796 78.9757 17.3875 78.7074 17.5181C78.5448 17.8092 78.4437 18.1387 78.1312 18.3489C78.0817 18.5591 77.8496 18.703 77.7432 18.8708Z" fill="white"/>
<path fill-rule="evenodd" clip-rule="evenodd" d="M78.3555 19.6339L78.8252 20.2412C79.0761 20.3221 79.3892 20.2969 79.608 20.1544L79.4388 19.6021C79.1075 19.7274 78.7134 19.6889 78.3555 19.6339Z" fill="white"/>
<path fill-rule="evenodd" clip-rule="evenodd" d="M79.1392 15.2395L79.3205 16.059C79.7581 15.7049 79.8471 15.1897 79.8364 14.644C79.5855 14.9292 79.4389 15.1035 79.1392 15.2395Z" fill="white"/>
<path fill-rule="evenodd" clip-rule="evenodd" d="M80.3726 16.686C80.3792 16.8034 80.4107 16.9155 80.4796 17.0089C80.9674 17.182 81.0176 17.7715 81.4692 17.9949C81.763 18.1249 82.1002 17.9631 82.3578 17.8457C82.1638 17.6289 81.9436 17.4784 81.7569 17.2496C81.6251 17.1939 81.4933 17.113 81.5 16.9519L80.3726 16.686Z" fill="white"/>
<path fill-rule="evenodd" clip-rule="evenodd" d="M80.762 19.615C80.9754 19.857 81.2631 19.981 81.5636 20.0486C81.5141 19.9803 81.5957 20.0486 81.6077 20.0055L81.231 19.188C81.0437 19.1926 80.8496 19.2304 80.6743 19.2185C80.6864 19.3538 80.7185 19.4897 80.762 19.615Z" fill="white"/>
<path fill-rule="evenodd" clip-rule="evenodd" d="M81.4264 15.7915C81.2504 15.3884 81.1768 14.8984 81.1273 14.4521C80.9393 14.6749 80.7452 14.8182 80.5699 15.0469C80.4883 15.5064 81.15 15.6191 81.4264 15.7915Z" fill="white"/>
<path fill-rule="evenodd" clip-rule="evenodd" d="M82.1894 15.3703C82.4149 15.6614 82.9093 15.5619 83.1863 15.4751C83.0539 15.2516 82.6296 15.1217 82.5547 14.8796C82.5105 14.452 82.4242 14.0362 82.285 13.645C82.0656 14.1722 81.8013 14.7994 82.1894 15.3703Z" fill="white"/>
<path fill-rule="evenodd" clip-rule="evenodd" d="M82.5845 16.6862C83.2116 17.1398 83.8247 17.6662 84.7015 17.4739C84.7644 17.4302 84.8708 17.4361 84.8835 17.3559C84.6258 17.1941 84.3514 17.0701 84.0877 16.9223L83.7879 16.4873H83.65C83.3113 16.5994 82.9472 16.6418 82.5845 16.6862Z" fill="white"/>
<path fill-rule="evenodd" clip-rule="evenodd" d="M82.5977 21.7188H82.6405C83.0173 21.4211 83.4617 21.3217 83.9061 21.197C84.0259 21.2401 83.9503 21.3707 84.0567 21.4211C84.3265 21.3091 84.6524 21.3342 84.9275 21.2408C85.2601 21.254 85.5299 21.26 85.7983 21.4025C86.0104 21.681 86.412 21.6512 86.6884 21.8362L86.6443 21.4025C86.062 20.7256 85.1531 20.6758 84.3151 20.6891L84.2957 20.6016C84.0956 20.6016 83.8707 20.6453 83.6826 20.7329C83.4135 20.7441 83.1565 20.8754 82.8988 20.9556C82.779 21.1917 82.6853 21.4761 82.5977 21.7188Z" fill="white"/>
<path fill-rule="evenodd" clip-rule="evenodd" d="M83.1002 14.092C83.3445 14.409 83.7071 14.6503 84.1206 14.5701C83.9085 14.3652 83.6636 14.1471 83.6509 13.856C83.7138 13.3037 83.1002 13.2606 82.7998 12.9741C82.8988 13.3474 82.8875 13.7625 83.1002 14.092Z" fill="white"/>
<path fill-rule="evenodd" clip-rule="evenodd" d="M83.0371 22.8174H83.1101C83.4427 22.6111 83.9253 22.767 84.2512 22.5495C84.4326 22.456 84.4446 22.7046 84.5711 22.7729C84.8777 22.9593 84.9152 23.5169 85.3475 23.3876C85.8669 23.6541 85.7357 24.2821 85.7545 24.7409L86.237 24.4432C86.1929 24.2012 86.3301 23.9081 86.1735 23.6979C86.055 23.432 85.7297 23.4068 85.5731 23.1893C85.7612 22.8724 85.3355 22.7245 85.2471 22.4944L85.2726 22.4626L85.9352 22.5495C86.1621 22.6861 86.2424 22.9347 86.312 23.1641C86.832 23.251 86.9572 23.8338 87.1393 24.2065C87.2457 23.9519 87.2892 23.6787 87.3963 23.4314C87.4023 23.2258 87.1265 23.2258 86.9893 23.1336C86.9505 22.8174 86.8073 22.5183 86.5262 22.3267C85.9492 22.1841 85.4426 21.8672 84.8101 21.8672L84.2833 22.029C83.9949 22.0973 83.6883 22.0104 83.4695 22.208C83.1422 22.2325 83.1174 22.5873 83.0371 22.8174Z" fill="white"/>
<path fill-rule="evenodd" clip-rule="evenodd" d="M83.3667 20.2602L83.4865 20.3159C83.7422 20.1972 83.9999 20.0613 84.2696 19.9618C84.6886 19.8438 85.0145 20.3159 85.3659 20.0182C85.4971 19.9247 85.6089 20.0613 85.7099 20.1362C85.8605 20.4094 86.2112 20.3908 86.4743 20.4651C86.3431 20.1117 86.1804 19.627 85.7226 19.5699C85.5412 19.4897 85.3277 19.4977 85.1524 19.3909C84.6705 18.8638 84.3573 19.8246 83.8305 19.5892C83.6431 19.7954 83.4115 19.987 83.3667 20.2602Z" fill="white"/>
<path fill-rule="evenodd" clip-rule="evenodd" d="M83.4868 23.2825C83.6869 23.4489 83.893 23.7353 84.2054 23.6976C84.5955 23.8779 84.4323 24.3858 84.645 24.653L84.8699 24.4541L84.8511 24.4422L84.8832 24.411L84.8966 24.4296C84.9589 24.2426 84.8705 23.9137 84.7641 23.6969C84.6203 23.5988 84.451 23.7035 84.3138 23.61C84.2944 23.4118 84.1693 23.3123 84.0254 23.1883C83.9251 23.1141 83.7933 23.2135 83.6809 23.2069L83.4868 23.2825Z" fill="white"/>
<path fill-rule="evenodd" clip-rule="evenodd" d="M84.2705 15.7176C84.4773 16.0597 84.8774 16.2706 85.1972 16.506C85.4595 16.6247 85.8041 16.6545 86.0865 16.5928C85.8175 16.376 85.5726 16.128 85.3478 15.8661C85.2601 15.7421 85.2407 15.5876 85.1223 15.4756C84.8265 15.5319 84.496 15.526 84.2705 15.7176Z" fill="white"/>
<path fill-rule="evenodd" clip-rule="evenodd" d="M84.6147 13.4969C84.9038 13.8497 85.3481 13.7078 85.7549 13.7197V13.6773L85.1286 13.1548C84.9526 13.2111 84.766 13.3656 84.6147 13.4969Z" fill="white"/>
<path fill-rule="evenodd" clip-rule="evenodd" d="M73.085 7.64469L73.4476 8.76195C73.4409 8.12873 73.7353 7.60159 73.6731 6.95643L73.9428 6.55859L73.372 6.73232C73.2221 7.01743 73.0977 7.30388 73.085 7.64469Z" fill="white"/>
<path fill-rule="evenodd" clip-rule="evenodd" d="M73.3296 5.70812L73.8234 5.42234V4.69629C73.6166 4.82094 73.5029 5.0318 73.3416 5.19955L73.3296 5.70812Z" fill="white"/>
<path fill-rule="evenodd" clip-rule="evenodd" d="M83.4883 6.83816C83.3685 6.99332 83.1878 7.03045 83.0379 7.06161C83.3002 6.58354 83.4261 5.91849 83.2186 5.37876C83.3571 5.32969 83.5077 5.30582 83.6389 5.23023L83.6255 5.21829L83.9709 4.91925C84.428 4.60894 84.2527 4.02014 84.422 3.57987C84.1964 3.23176 84.1282 2.81005 83.8015 2.51764L83.821 2.50637C83.5633 2.18345 83.1001 2.21992 82.7481 2.0588C82.2849 1.90364 81.9282 2.21992 81.5962 2.4321C81.4523 2.45597 81.54 2.64229 81.3834 2.63633C81.2957 2.86641 81.1886 3.11439 81.1264 3.36835C80.5059 3.28082 79.8366 3.35045 79.3413 3.69723C79.0776 3.5056 78.7584 3.46781 78.4512 3.38095C78.2263 3.33785 77.9693 3.41874 77.8073 3.29342C77.5697 3.02753 77.5182 2.54283 77.1106 2.4752C76.9673 2.42547 76.9365 2.27098 76.9365 2.13372C76.6668 2.09063 76.4279 1.9673 76.1648 1.91027C75.7653 1.72992 75.446 2.01636 75.1448 2.20799C75.0136 2.26435 74.863 2.28225 74.7385 2.35784C74.513 2.70462 74.2995 3.0587 74.1556 3.44261C74.1998 3.75889 74.337 4.0387 74.5009 4.30526C74.6448 4.70906 75.0953 5.02534 75.4775 5.18713C75.2961 5.80113 75.2961 6.53381 75.4775 7.15444C75.4775 7.15444 75.4667 7.16173 75.4667 7.16041C75.4667 7.16173 75.4467 7.17765 75.4467 7.17765C75.3864 7.17765 75.3228 7.18958 75.2733 7.16041H75.2653C75.353 7.75318 75.6347 8.2717 76.0899 8.71662C76.2532 8.77364 76.2157 8.96527 76.2853 9.08992C76.3281 9.14496 76.3342 9.26298 76.3154 9.31271C75.3396 9.28155 74.4682 9.52356 73.6851 9.96384C73.485 10.0633 73.5733 10.3371 73.5546 10.5288C74.1054 10.1694 74.7004 9.90217 75.3577 9.78481C75.6394 9.76625 75.9587 9.69795 76.2284 9.77221L76.2599 10.306C75.5149 10.6906 74.7004 10.914 74.0612 11.5472C74.0739 11.7389 74.0371 11.963 74.0933 12.1248L74.6636 11.6646C75.2138 11.2502 75.79 10.8954 76.4232 10.666C76.5925 10.8649 76.7685 11.0758 76.9941 11.1991C77.3756 10.9571 77.7892 10.7781 78.2276 10.666C78.4599 10.5294 78.828 10.6534 78.9786 10.3809L79.0857 9.81597C79.0662 9.80338 79.0549 9.77951 79.0227 9.78614C78.7289 9.61838 78.5348 9.3273 78.5596 8.98516C78.4599 9.03422 78.3474 9.06605 78.2276 9.07202C78.1272 9.04682 78.0342 9.02295 77.99 8.92283C77.9833 8.79817 77.9204 8.61251 78.0456 8.51969C78.4525 8.27104 78.9792 8.25844 79.4933 8.2969C79.8748 8.34596 80.4269 8.32674 80.5574 8.77497C80.54 8.90493 80.5514 9.04748 80.4202 9.13435C80.2824 9.20861 80.1264 9.12772 79.9999 9.07268C79.9009 9.37636 79.7315 9.7185 79.3862 9.81664L79.431 10.1773C79.4739 10.3391 79.4866 10.605 79.7442 10.5493C80.3393 10.6919 80.8647 10.9962 81.3847 11.3251C81.5601 11.1507 81.6979 10.9518 81.8224 10.7728C82.7494 11.0824 83.5519 11.7713 84.3156 12.4105L84.3477 11.8894C83.6208 11.2502 82.8123 10.7973 81.973 10.4432C82.0051 10.2755 82.0426 10.1137 82.048 9.93466C83.0446 9.9897 83.989 10.294 84.8109 10.7728L84.7975 10.3259C83.9334 9.86703 82.9877 9.56269 81.9536 9.55009C81.9161 9.49306 81.9041 9.4135 81.9108 9.35714C82.4121 9.27624 82.7681 8.7617 82.8886 8.31414C83.1443 8.02305 83.5151 7.70611 83.4274 7.27246C83.4388 7.23732 83.4515 7.19886 83.4642 7.16173C83.4977 7.05233 83.5258 6.93894 83.4883 6.83816Z" fill="white"/>
<path fill-rule="evenodd" clip-rule="evenodd" d="M84.3599 8.43268L84.8731 8.27089L84.9286 7.98577C85.0738 7.57003 84.7674 7.25972 84.6155 6.93018L84.3599 8.43268Z" fill="white"/>
<path fill-rule="evenodd" clip-rule="evenodd" d="M85.6554 10.4001C85.8996 10.666 86.1378 11.095 86.5707 10.9637C86.5386 10.7846 86.4382 10.6361 86.376 10.4743C86.2622 10.343 86.2254 9.97107 86 10.1024C85.8307 9.9903 85.7878 9.80331 85.6801 9.65479C85.6313 9.88421 85.6621 10.17 85.6554 10.4001Z" fill="white"/>
<path fill-rule="evenodd" clip-rule="evenodd" d="M85.7427 12.217C85.837 12.3483 85.8624 12.5161 85.9548 12.6335C86.1241 12.7442 86.375 12.7269 86.5811 12.7077C86.7691 12.6646 86.8882 12.8688 87.0635 12.7502C86.8454 12.6142 86.7142 12.3656 86.5061 12.1865C86.2612 11.9943 85.9996 12.162 85.7427 12.217Z" fill="white"/>
<path fill-rule="evenodd" clip-rule="evenodd" d="M86.0746 15.1031C86.5062 15.3577 87.0562 15.6063 87.6323 15.5195C87.6946 15.4876 87.8016 15.4943 87.8137 15.4193C87.457 15.2947 87.0823 14.9413 86.7076 14.867C86.5002 14.5507 86.2312 14.9479 85.9683 14.9227C85.9743 14.9976 86.0492 15.054 86.0746 15.1031Z" fill="white"/>
<path fill-rule="evenodd" clip-rule="evenodd" d="M87.3774 20.582L87.4718 20.7816C87.5661 21.4274 87.9783 22.0222 87.7528 22.7297C87.9408 22.8597 87.9977 23.0765 88.1161 23.2502H88.1476C88.2914 22.7111 88.1918 22.1522 88.1161 21.6118C88.1723 21.1218 87.6712 20.836 87.3774 20.582Z" fill="white"/>
<path fill-rule="evenodd" clip-rule="evenodd" d="M87.4844 14.2279C87.8102 14.4765 88.3301 14.5011 88.7048 14.3771C88.4673 14.2471 88.205 14.1046 88.0096 13.9302L87.4844 14.2279Z" fill="white"/>
<path fill-rule="evenodd" clip-rule="evenodd" d="M89.0295 16.1338C88.9973 16.395 89.1733 16.6119 89.3613 16.7418C89.4303 16.5867 89.5427 16.4567 89.5547 16.283C89.4992 16.0158 89.3486 15.7744 89.1044 15.5947C89.0602 15.7678 89.0107 15.9342 89.0295 16.1338Z" fill="white"/>
<path fill-rule="evenodd" clip-rule="evenodd" d="M89.05 18.9623C89.0058 19.2534 89.331 19.2919 89.4689 19.453C89.5819 19.5889 89.3939 19.6824 89.3939 19.8124C89.6314 20.1161 89.7693 20.4642 89.7693 20.868C89.8636 20.49 90.0075 20.1287 90.059 19.7381C90.0336 19.4656 89.596 19.5213 89.6642 19.2176C89.7887 18.9073 89.6388 18.6029 89.5572 18.3245C89.5318 18.28 89.4755 18.1932 89.4267 18.2184C89.3116 18.473 89.0306 18.652 89.05 18.9623Z" fill="white"/>
<path fill-rule="evenodd" clip-rule="evenodd" d="M89.9072 17.4859L90.2324 18.1125C90.3769 18.0952 90.4693 17.9573 90.5824 17.8592C90.6707 17.5979 90.4385 17.4302 90.3703 17.2193C90.3127 17.0701 90.3703 16.8719 90.2632 16.7413C90.1822 16.6922 90.0872 16.6113 89.9936 16.6352L89.9072 17.4859Z" fill="white"/>
<path fill-rule="evenodd" clip-rule="evenodd" d="M90.3262 15.8359C90.5832 15.9904 90.877 16.2139 91.0142 16.4864C91.2344 17.1196 91.5851 17.6905 91.8415 18.3045C91.9358 18.7329 92.0108 19.1148 92.1299 19.5372C92.1741 19.6472 92.1487 19.8647 92.3247 19.8468C92.3742 19.3754 92.4686 18.9225 92.4746 18.4318C92.3187 18.2276 92.1105 18.1407 91.9171 18.0154V17.973C91.9425 17.8669 92.0302 17.7429 92.1621 17.7628C92.2176 17.6991 92.3869 17.6381 92.3127 17.5267C91.9867 17.2045 92.0054 16.6482 91.4847 16.5481C91.304 16.4738 91.2592 16.2881 91.2418 16.1144C90.9968 15.9109 90.6327 15.8406 90.3262 15.8359Z" fill="white"/>
<path fill-rule="evenodd" clip-rule="evenodd" d="M90.6269 19.1989C90.9468 19.4894 90.835 19.9117 90.8089 20.3029C90.7594 20.539 91.0599 20.4024 91.1542 20.5264C91.3476 20.8122 91.2352 21.2279 91.1656 21.5382C91.3355 21.2829 91.5296 21.0595 91.6607 20.781C91.654 20.6749 91.7912 20.6258 91.7865 20.4959C91.8421 20.3155 91.6299 20.3964 91.5423 20.3765C91.4673 20.358 91.3857 20.3082 91.4098 20.2094C91.5731 19.8985 91.4232 19.5265 91.3603 19.2168C91.2854 18.9616 91.3924 18.6214 91.2726 18.3979C91.0726 18.6711 90.4771 18.7335 90.6269 19.1989Z" fill="white"/>
<path fill-rule="evenodd" clip-rule="evenodd" d="M91.2095 14.7921C91.7675 15.351 92.1743 15.912 92.7752 16.4524C92.7886 16.2117 92.7565 15.9869 92.7437 15.7509C92.6554 15.5844 92.4928 15.4598 92.355 15.3358C91.9114 15.292 91.6792 14.6992 91.2095 14.7921Z" fill="white"/>
<path fill-rule="evenodd" clip-rule="evenodd" d="M92.6685 17.7502C92.6812 17.8059 92.7066 17.855 92.7307 17.9113C92.9749 18.3091 93.2064 18.7176 93.3764 19.1459C93.3262 18.6878 93.64 18.1155 93.2258 17.7628C93.1696 17.6136 92.9816 17.6633 92.8625 17.6753L92.6685 17.7502Z" fill="white"/>
<path fill-rule="evenodd" clip-rule="evenodd" d="M94.1729 22.2836C94.3489 22.3625 94.5738 22.2199 94.7431 22.1218C94.8997 22.084 95.0316 22.1708 95.1507 22.2517C95.2002 22.3505 95.1507 22.4433 95.1681 22.5368C95.5449 22.6423 95.9137 22.7789 96.2463 22.9957L96.3514 22.8909C96.3769 22.6237 96.1647 22.4327 95.9639 22.2836C95.8327 22.2073 95.6373 22.2517 95.5449 22.133C95.6072 22.0349 95.6072 21.8857 95.6005 21.7737C95.393 21.7737 95.2618 21.7113 95.0925 21.6119C94.9874 21.5814 94.8923 21.4945 94.8047 21.6119C94.4921 21.8234 94.4734 22.133 94.1729 22.2836Z" fill="white"/>
<path fill-rule="evenodd" clip-rule="evenodd" d="M94.6119 14.4739C94.7678 14.4315 94.9317 14.3864 95.0629 14.2756C95.4811 13.897 96.0893 14.151 96.5771 14.145C96.4841 13.9773 96.3516 13.8108 96.2331 13.667C96.0578 13.5987 95.8946 13.5178 95.6945 13.5178C95.2683 13.2704 94.9812 13.6855 94.6547 13.8897C94.5677 14.0588 94.5242 14.3061 94.6119 14.4739Z" fill="white"/>
<path fill-rule="evenodd" clip-rule="evenodd" d="M94.6231 15.7513C94.6231 15.734 94.6231 15.7141 94.6418 15.7088C94.698 15.7586 94.6351 15.8759 94.7295 15.9005C94.8921 15.8209 95.0427 15.7088 95.1927 15.6041C95.613 15.6041 95.8633 15.2009 96.2756 15.2009C96.9643 15.3243 97.6483 15.4609 98.2487 15.7957C98.2058 15.3926 97.8545 15.0265 97.4984 14.8455C97.2969 14.7772 97.1403 14.884 96.9964 14.9947C96.5761 15.2566 96.7963 14.6168 96.5018 14.6035C96.1196 14.7229 95.7247 14.8522 95.2997 14.8157C95.0488 14.9079 94.8727 15.1366 94.5916 15.1127C94.5789 15.3176 94.5474 15.5663 94.6231 15.7513Z" fill="white"/>
<path fill-rule="evenodd" clip-rule="evenodd" d="M94.9124 17.1361C95.0429 17.272 95.2618 17.2468 95.4512 17.272L95.9953 17.0618C96.002 16.9624 95.8327 16.9365 95.8695 16.8265C96.0201 16.6587 96.2276 16.7761 96.4143 16.7071C96.6787 16.6706 96.9478 16.4101 97.2095 16.6023C97.2034 16.6328 97.2228 16.6773 97.1981 16.7071C97.1151 16.9001 97.2543 17.0174 97.4042 17.0917C97.7114 17.1487 97.9992 17.4279 98.3064 17.3025C98.2757 17.0486 98.2067 16.8132 98.1431 16.5705C97.8868 16.5268 97.7054 16.3159 97.4671 16.2284C97.3601 16.3278 97.2229 16.4028 97.091 16.3902C96.6084 16.2788 96.0322 15.9811 95.5442 16.2854C95.3682 16.4956 95.055 16.4339 94.8174 16.5261C94.8308 16.7389 94.8549 16.9432 94.9124 17.1361Z" fill="white"/>
<path fill-rule="evenodd" clip-rule="evenodd" d="M95.118 20.8243C95.0798 20.9297 94.9741 21.1041 95.1675 21.1531C95.5689 21.1664 96.0821 20.9615 96.396 21.2712C96.5017 21.3527 96.4515 21.5191 96.4455 21.6252L96.9707 22.0602C97.0216 21.799 97.1146 21.5629 97.1213 21.2831C97.0784 21.0848 96.9774 20.8919 96.8028 20.7619C96.4575 20.7619 96.2568 20.3621 95.8874 20.4132C95.6941 20.3687 95.5254 20.5391 95.3301 20.5391C95.2424 20.626 95.1929 20.7321 95.118 20.8243Z" fill="white"/>
<path fill-rule="evenodd" clip-rule="evenodd" d="M95.2687 17.8996C95.3497 18.0661 95.4447 18.3399 95.6007 18.3585C95.9701 18.1974 96.5082 18.0972 96.9225 18.2716C97.0604 18.2962 97.0604 18.4513 97.0296 18.5514C97.2418 18.6754 97.4995 18.7736 97.7244 18.9108L97.6621 18.5388C97.6487 18.135 97.1354 18.0972 97.1039 17.6994C96.6843 17.5635 96.2144 17.5204 95.77 17.6258C95.6248 17.7564 95.4193 17.7379 95.2433 17.7757C95.2319 17.8247 95.262 17.8552 95.2687 17.8996Z" fill="white"/>
<path fill-rule="evenodd" clip-rule="evenodd" d="M95.3759 19.9099C95.6201 19.8416 95.7754 19.5744 96.039 19.5505C96.4398 19.5571 96.7971 19.7169 97.0467 20.0591C97.1986 20.1579 97.1664 20.4131 97.3598 20.4131C97.3036 20.1081 97.404 19.829 97.3919 19.5187C97.1276 19.085 96.4786 19.4192 96.2337 18.9106L95.7707 18.9411C95.4388 19.022 95.5271 19.4073 95.4816 19.6679C95.4442 19.7488 95.3692 19.8104 95.3759 19.9099Z" fill="white"/>
<path fill-rule="evenodd" clip-rule="evenodd" d="M97.6724 22.6235C97.8671 23.0081 98.294 23.3005 98.3368 23.7415C98.4372 23.6228 98.5061 23.4868 98.575 23.3569C98.5683 23.2322 98.4238 23.2322 98.3669 23.1334C98.3107 22.9723 98.399 22.8297 98.4238 22.6859C98.3428 22.4558 98.1481 22.239 97.9293 22.103L97.6724 22.6235Z" fill="white"/>
<path fill-rule="evenodd" clip-rule="evenodd" d="M98.4443 21.644L98.8946 22.252C99.088 21.9476 99.088 21.5014 99.0131 21.1341C98.9702 21.0658 98.888 20.9544 98.7755 21.0041C98.6056 21.1785 98.5815 21.4444 98.4443 21.644Z" fill="white"/>
<path fill-rule="evenodd" clip-rule="evenodd" d="M96.6089 4.65824C96.7721 4.73914 96.9287 4.8134 97.1221 4.82533C97.2546 4.7577 97.4239 4.70797 97.5865 4.75107C97.818 4.90026 98.0997 4.71991 98.368 4.7325C98.1311 4.50972 97.8608 4.37312 97.5865 4.24316C97.2352 4.31676 96.9541 4.56409 96.6089 4.65824Z" fill="white"/>
<path fill-rule="evenodd" clip-rule="evenodd" d="M99.0581 5.24169C99.3886 5.27219 99.6268 5.56328 99.8523 5.80728C100.135 5.84972 100.347 6.04798 100.516 6.25352L100.41 5.92398C100.335 5.59444 100.128 5.33982 99.9159 5.08057C99.6155 5.09913 99.3197 5.12366 99.0581 5.24169Z" fill="white"/>
<path fill-rule="evenodd" clip-rule="evenodd" d="M75.6829 2.51855L75.8643 2.53712C76.3535 2.77914 77.1426 2.90313 77.1861 3.60399C76.6929 3.79694 76.2163 4.05819 75.8221 4.45404C75.5216 4.14969 74.9132 4.31745 74.8135 3.78434C74.9078 3.28174 75.0886 2.64984 75.6829 2.51855Z" fill="#FF6600"/>
<path fill-rule="evenodd" clip-rule="evenodd" d="M76.1538 5.66554C76.7227 5.61647 77.2742 5.69538 77.8638 5.64697C78.0077 5.70864 78.1576 5.83329 78.2266 5.97585C78.2078 6.64555 78.001 7.2854 77.9696 7.97366C77.7132 8.08042 77.4622 8.29061 77.4 8.56976C77.1678 8.63739 76.9609 8.7753 76.7354 8.87941C76.635 8.66921 76.6537 8.35227 76.8304 8.17921C77.074 7.83707 77.7072 7.91796 77.6557 7.37823C77.819 7.11698 77.6624 6.78214 77.6691 6.50895C77.6061 6.30473 77.5439 6.57725 77.4435 6.57062C77.2434 6.61306 77.0366 6.62632 76.8619 6.52818C76.7294 6.39027 76.5667 6.27954 76.5292 6.09321C76.3539 6.00635 76.1477 5.86976 76.0601 5.68941L76.1538 5.66554Z" fill="#FF6600"/>
<path fill-rule="evenodd" clip-rule="evenodd" d="M76.8423 9.71123C77.11 9.74769 77.393 9.63033 77.6245 9.76029C77.5743 9.84715 77.4432 9.88429 77.3368 9.90948L76.9173 10.1024C76.7607 10.064 76.8483 9.81599 76.8423 9.71123Z" fill="#FF6600"/>
<path fill-rule="evenodd" clip-rule="evenodd" d="M77.9384 4.52886C78.2067 4.442 78.4957 4.26298 78.7834 4.34984C78.5767 4.55472 78.4141 4.82127 78.2582 5.0686L77.4004 5.0507C77.4927 4.82791 77.7303 4.64158 77.9384 4.52886Z" fill="#FF6600"/>
<path fill-rule="evenodd" clip-rule="evenodd" d="M80.4512 4.32437C80.8071 4.26271 80.7884 4.72155 81.1143 4.74077C81.1711 4.81504 81.2528 4.88267 81.2206 4.99406C81.0326 5.06833 80.7576 5.03186 80.5435 5.08093C80.2618 4.92577 80.4445 4.44173 79.9989 4.4729C79.9748 4.43643 79.9239 4.3615 79.9868 4.33631C80.1253 4.2879 80.3053 4.30581 80.4512 4.32437Z" fill="#FF6600"/>
<path fill-rule="evenodd" clip-rule="evenodd" d="M80.2257 5.98831C80.3816 5.77016 80.6205 5.75292 80.8454 5.7085L82.4678 5.73966C82.5368 5.80132 82.4056 5.85702 82.4056 5.93195C82.3052 6.02478 82.1606 6.04997 82.0729 6.1375C81.8608 6.14413 81.8782 6.39079 81.7282 6.49688C81.496 6.7263 81.1587 6.62153 80.8889 6.58374C80.7946 6.51544 80.6888 6.42195 80.6446 6.31652L80.5697 6.39079C80.6641 6.7389 80.6386 7.12414 80.7069 7.47689L81.0951 7.73217C81.1018 8.30306 81.7784 8.14791 82.0729 8.46485C82.004 8.66907 81.8661 8.8428 81.7169 9.01718C81.4786 8.7871 81.2089 8.63725 80.9211 8.53911C80.8963 8.2036 80.5268 8.00601 80.3194 7.83759C80.2631 7.22956 80.2504 6.60894 80.1514 6.01947L80.2257 5.98831Z" fill="#FF6600"/>
<path fill-rule="evenodd" clip-rule="evenodd" d="M80.8139 9.816H81.566L81.4717 10.2072L80.7196 9.89026C80.7022 9.8286 80.7698 9.81003 80.8139 9.816Z" fill="#FF6600"/>
<path fill-rule="evenodd" clip-rule="evenodd" d="M82.1662 2.7862L82.7237 2.61182C83.0436 2.76034 83.3441 2.94733 83.638 3.15752C83.8702 3.58055 83.8314 4.15012 83.7256 4.62156C83.5563 4.80854 83.1868 4.62156 83.0496 4.91928H83.0242C82.8167 4.33644 82.2291 3.81594 81.6836 3.54806C81.7713 3.25101 81.8656 2.95992 82.1662 2.7862Z" fill="#FF6600"/>
<path fill-rule="evenodd" clip-rule="evenodd" d="M95.2308 26.4278H98.5726C99.0672 26.3535 99.5933 26.3654 99.9875 26.0047C101.661 26.26 103.357 25.8502 104.673 24.9385C105.367 24.3829 105.99 23.741 106.494 23.0402C106.939 22.4222 107.29 21.8447 107.517 21.1531C107.686 20.7254 107.82 20.2818 107.921 19.825C108.398 17.6747 108.148 15.2697 107.442 13.2222C107.311 12.8423 107.164 12.4763 107.003 12.1248C106.121 10.3187 104.922 8.37057 103.072 7.22745C102.03 6.58362 101.072 5.5877 100.483 4.55862C100.164 4.27218 99.8563 3.89423 99.4434 3.82594C99.5565 4.01226 99.681 4.19195 99.7131 4.40877L99.6877 4.43993C99.2499 4.45253 98.9046 4.22311 98.6041 3.94264L98.9367 3.64558C98.8109 3.58392 98.667 3.55806 98.5291 3.52822C97.2635 3.38566 96.224 3.96187 95.1036 4.24168L95.0849 4.30334C95.7729 4.60703 95.9168 5.35761 96.3184 5.86751C96.4188 5.74882 96.5881 5.83568 96.7253 5.82308C96.9255 5.83568 97.1135 5.97824 97.307 5.92851C97.3137 5.76142 97.2206 5.63146 97.1885 5.48293C97.307 5.42591 97.4522 5.4763 97.5834 5.48293C97.9461 5.69312 98.5291 5.44448 98.7547 5.92851C98.341 5.95437 97.9528 6.03991 97.5646 6.1334C97.5894 6.28855 97.746 6.41321 97.734 6.56837C97.4013 6.43045 97.0513 6.34558 96.6812 6.30115L96.6638 6.35619C97.1336 6.90255 97.7775 7.22546 98.4354 7.41842C99.3811 7.63524 100.214 7.18899 101.127 7.34415C103.371 8.36195 105.287 10.69 106.121 12.8993C106.162 13.0054 106.201 13.1128 106.238 13.2209C106.936 15.2386 107.068 17.7204 106.369 19.8237C105.997 20.7002 105.588 21.5251 104.931 22.2379C104.683 22.5396 104.408 22.8094 104.109 23.0389C103.169 23.7643 102.009 24.0832 100.815 23.7576C100.741 23.7092 100.589 23.696 100.614 23.566C100.656 23.3936 100.695 23.2172 100.729 23.0389C100.928 22.029 101.018 20.9681 100.966 19.9085C100.963 19.8628 100.963 19.817 100.961 19.7719C100.895 18.2323 100.585 16.8472 100.014 15.5157C99.6482 14.7512 99.2125 13.9178 98.6643 13.1692C98.0104 12.2767 97.1979 11.5055 96.1551 11.121C95.5159 10.9532 94.7261 10.9227 94.2449 11.4505C93.8996 11.7482 93.7563 12.1514 93.8059 12.5916C93.2671 12.9311 92.6614 13.1141 92.0021 13.1692C91.8408 13.1831 91.6748 13.2408 91.5081 13.2401C91.3482 13.2474 91.1922 13.2401 91.0416 13.2209C90.2465 13.1241 89.4447 12.7017 88.835 12.2157C88.8222 11.8948 88.8028 11.5891 88.7908 11.2489C88.4407 11.0686 88.1529 10.7264 88.1275 10.324L88.1596 10.2928C88.3598 10.3545 88.5351 10.4539 88.7158 10.56C88.6342 10.076 88.5411 9.5979 88.2968 9.1762C88.0713 9.0827 87.8444 9.0091 87.6322 8.89638C87.3879 8.73526 87.2313 8.44351 87.1952 8.1763C87.4134 8.38848 87.7955 8.31355 87.9649 8.537C87.671 7.67436 87.6644 6.68772 87.1818 5.89934C86.9375 5.31584 86.2983 5.04929 85.8599 4.62029C85.6906 4.41606 85.6223 4.13095 85.3151 4.09912C85.0648 4.03746 85.0454 3.75764 85.0019 3.57862C85.1585 3.59652 85.2897 3.70261 85.4222 3.72714C85.0581 2.771 84.7388 1.71077 83.7556 1.10274L83.5863 1.2075C83.2048 1.26452 82.7972 1.28839 82.415 1.30099C82.5844 1.05234 82.8849 0.947581 83.1232 0.83486C82.8467 0.630636 82.6205 0.580907 82.2751 0.524546C82.075 0.724128 81.7136 0.822261 81.4566 0.877959L81.4258 0.854088C81.4191 0.631299 81.3669 0.356791 81.7056 0.301757C81.3803 0.1466 80.8415 0.208265 80.5089 0.301757C80.4145 0.543775 80.1474 0.760597 80.1648 1.04571C79.9721 1.2453 79.8342 1.51118 79.6327 1.65441C79.6274 1.17634 79.8315 0.7354 79.9199 0.332921C79.6381 0.437685 79.3516 0.586211 79.0766 0.717498C78.6315 0.462881 78.163 0.208265 77.6878 0.0166397C77.6436 -0.00258917 77.5492 -0.0211549 77.568 0.0590758C77.9749 0.350824 77.8176 0.896525 77.8611 1.31293L77.6041 1.10274C77.4789 0.785793 77.1168 0.556373 77.0553 0.208265C76.6289 0.289159 76.3565 0.401216 75.9616 0.568971L75.9068 0.599472C76.2006 0.599472 76.4509 0.828892 76.5955 1.05831C76.151 1.08351 75.7562 0.909123 75.3184 0.866687C75.2743 0.822925 75.2375 0.773195 75.1672 0.779825C74.9476 0.860719 74.7609 1.01588 74.5661 1.16507C74.1344 1.58611 73.6954 2.05291 73.4892 2.61054C73.6338 2.63574 73.8152 2.62977 73.9216 2.71663C73.6847 2.85919 73.4772 3.10121 73.2449 3.2378C73.164 3.56071 73.176 3.92672 73.1573 4.2808C72.9759 4.55332 72.7316 4.79534 72.6125 5.09902C72.2243 6.34624 72.1239 7.73005 72.1808 9.14503C72.0549 9.26239 71.8916 9.33865 71.7738 9.43081L71.7865 10.6966H71.8173C71.8749 10.4294 72.1941 10.2809 72.3876 10.1012H72.4505C72.4197 10.3863 72.3815 10.6714 72.3755 10.9638L72.0121 11.2615C71.65 11.5778 71.9565 12.0546 71.9244 12.4517C71.9505 12.5578 71.9679 12.713 72.0449 12.7382C72.0877 12.583 72.2256 12.471 72.3126 12.335C72.4692 12.2966 72.6064 12.1732 72.7503 12.1547C72.6707 12.4643 72.5636 12.7687 72.4371 13.0664C72.3775 13.1055 72.3066 13.1592 72.2463 13.2215C72.1828 13.2898 72.1319 13.3681 72.1198 13.4523C72.401 14.923 72.844 16.3744 73.352 17.7582C73.0067 18.3344 72.8119 19.0147 72.5248 19.6108C72.484 19.6944 72.4471 19.7786 72.4123 19.8654C72.1245 20.5875 72.0369 21.3931 71.6788 22.0874C71.5349 21.9872 71.3789 21.913 71.2163 21.8447C70.5383 21.6219 69.7559 21.7645 69.2619 22.279C68.8229 22.1981 68.3718 22.2724 68.0264 22.5018C67.7801 22.6861 67.5887 22.9076 67.4796 23.1668C67.406 23.3465 67.3705 23.5421 67.3825 23.7563C67.1001 23.9486 66.9495 24.2463 66.8565 24.544C66.7246 25.215 66.9622 25.9119 67.3504 26.4271L95.2308 26.4278Z" fill="white"/>
<path fill-rule="evenodd" clip-rule="evenodd" d="M107.442 13.2232C107.311 12.8432 107.164 12.4772 107.003 12.1258C106.121 10.3196 104.922 8.37155 103.072 7.22843C102.03 6.58459 101.072 5.58867 100.483 4.5596C100.164 4.27316 99.8563 3.89521 99.4434 3.82691C99.5565 4.01324 99.681 4.19293 99.7131 4.40975L99.6877 4.44091C99.2499 4.45351 98.9046 4.22409 98.6041 3.94361L98.9367 3.64656C98.8109 3.5849 98.667 3.55904 98.5291 3.5292C97.2635 3.38664 96.224 3.96284 95.1036 4.24265L95.0849 4.30432C95.7729 4.608 95.9168 5.35859 96.3184 5.86849C96.4188 5.7498 96.5881 5.83666 96.7253 5.82406C96.9255 5.83666 97.1135 5.97922 97.307 5.92949C97.3137 5.7624 97.2206 5.63244 97.1885 5.48391C97.307 5.42689 97.4522 5.47728 97.5834 5.48391C97.9461 5.6941 98.5291 5.44545 98.7547 5.92949C98.341 5.95535 97.9528 6.04088 97.5646 6.13437C97.5894 6.28953 97.746 6.41419 97.734 6.56934C97.4013 6.43143 97.0513 6.34656 96.6812 6.30213L96.6638 6.35716C97.1336 6.90353 97.7775 7.22644 98.4354 7.41939C99.3811 7.63621 100.214 7.18997 101.127 7.34513C103.371 8.36293 105.287 10.6909 106.121 12.9003C106.162 13.0064 106.201 13.1138 106.238 13.2219C106.936 15.2396 107.068 17.7214 106.369 19.8246C105.997 20.7012 105.588 21.5261 104.931 22.2389C104.683 22.5406 104.408 22.8104 104.109 23.0398C103.169 23.7652 102.009 24.0842 100.815 23.7586C100.741 23.7102 100.589 23.6969 100.614 23.567C100.656 23.3946 100.695 23.2182 100.729 23.0398C100.928 22.03 101.018 20.9691 100.966 19.9095C100.963 19.8638 100.963 19.818 100.961 19.7729C100.895 18.2333 100.585 16.8482 100.014 15.5167C99.6482 14.7522 99.2125 13.9187 98.6643 13.1701C98.0104 12.2777 97.1979 11.5065 96.1551 11.1219C95.5159 10.9542 94.7261 10.9237 94.2449 11.4515C93.8996 11.7492 93.7563 12.1523 93.8059 12.5926C93.2671 12.9321 92.6614 13.1151 92.0021 13.1701C91.8408 13.1841 91.6748 13.2417 91.5081 13.2411C91.3482 13.2484 91.1922 13.2411 91.0416 13.2219C90.2465 13.125 89.4447 12.7027 88.835 12.2167C88.8222 11.8957 88.8028 11.5901 88.7908 11.2499C88.4407 11.0696 88.1529 10.7274 88.1275 10.3249L88.1596 10.2938C88.3598 10.3554 88.5351 10.4549 88.7158 10.561C88.6342 10.0769 88.5411 9.59888 88.2968 9.17717C88.0713 9.08368 87.8444 9.01008 87.6322 8.89736C87.3879 8.73623 87.2313 8.44449 87.1952 8.17727C87.4134 8.38945 87.7955 8.31453 87.9649 8.53798C87.671 7.67533 87.6644 6.68869 87.1818 5.90031C86.9375 5.31682 86.2983 5.05027 85.8599 4.62126C85.6906 4.41704 85.6223 4.13192 85.3151 4.1001C85.0648 4.03843 85.0454 3.75862 85.0019 3.57959C85.1585 3.59749 85.2897 3.70358 85.4222 3.72812C85.0581 2.77198 84.7388 1.71174 83.7556 1.10371L83.5863 1.20848C83.2048 1.2655 82.7972 1.28937 82.415 1.30197C82.5844 1.05332 82.8849 0.948557 83.1232 0.835836C82.8467 0.631613 82.6205 0.581883 82.2751 0.525523C82.075 0.725105 81.7136 0.823238 81.4566 0.878935L81.4258 0.855065C81.4191 0.632276 81.3669 0.357768 81.7056 0.302733C81.3803 0.147577 80.8415 0.209241 80.5089 0.302733C80.4145 0.544751 80.1474 0.761573 80.1648 1.04669C79.9721 1.24627 79.8342 1.51216 79.6327 1.65538C79.6274 1.17731 79.8315 0.736377 79.9199 0.333897C79.6381 0.438661 79.3516 0.587188 79.0766 0.718474C78.6315 0.463858 78.163 0.209242 77.6878 0.0176163C77.6436 -0.00161254 77.5492 -0.0201784 77.568 0.0600523C77.9749 0.3518 77.8176 0.897501 77.8611 1.3139L77.6041 1.10371C77.4789 0.78677 77.1168 0.55735 77.0553 0.209242C76.6289 0.290135 76.3565 0.402193 75.9616 0.569948L75.9068 0.600449C76.2006 0.600449 76.4509 0.829869 76.5955 1.05929C76.151 1.08448 75.7562 0.910099 75.3184 0.867663C75.2743 0.823901 75.2375 0.774171 75.1672 0.780802C74.9476 0.861696 74.7609 1.01685 74.5661 1.16604C74.1344 1.58709 73.6954 2.05388 73.4892 2.61152C73.6338 2.63672 73.8152 2.63075 73.9216 2.71761C73.6847 2.86017 73.4772 3.10219 73.2449 3.23878C73.164 3.56169 73.176 3.9277 73.1573 4.28178C72.9759 4.55429 72.7316 4.79631 72.6125 5.1C72.2243 6.34722 72.1239 7.73103 72.1808 9.14601C72.0549 9.26337 71.8916 9.33962 71.7738 9.43179L71.7865 10.6976H71.8173C71.8749 10.4304 72.1941 10.2818 72.3876 10.1021H72.4505C72.4197 10.3873 72.3815 10.6724 72.3755 10.9648L72.0121 11.2625C71.65 11.5788 71.9565 12.0555 71.9244 12.4527C71.9505 12.5588 71.9679 12.714 72.0449 12.7391C72.0877 12.584 72.2256 12.4719 72.3126 12.336C72.4692 12.2975 72.6064 12.1742 72.7503 12.1557C72.6707 12.4653 72.5636 12.7696 72.4371 13.0674C72.3775 13.1065 72.3066 13.1602 72.2463 13.2225C72.1828 13.2908 72.1319 13.3691 72.1198 13.4533C72.401 14.9239 72.844 16.3754 73.352 17.7592C73.0067 18.3354 72.8119 19.0157 72.5248 19.6118C72.484 19.6953 72.4471 19.7796 72.4123 19.8664C72.1245 20.5885 72.0369 21.3941 71.6788 22.0883C71.5349 21.9882 71.3789 21.914 71.2163 21.8457C70.5383 21.6229 69.7559 21.7654 69.2619 22.28C68.8229 22.1991 68.3718 22.2733 68.0264 22.5028C67.7801 22.6871 67.5887 22.9086 67.4796 23.1678C67.406 23.3475 67.3705 23.5431 67.3825 23.7573C67.1001 23.9496 66.9495 24.2473 66.8565 24.545C66.7246 25.216 66.9622 25.9129 67.3504 26.4281H78.4186C78.256 26.2365 78.1054 25.9692 77.9916 25.7398C77.7547 25.3851 77.9173 24.8832 77.8919 24.4734C78.1175 24.0225 78.3464 23.569 78.604 23.128C78.6562 23.0392 78.7084 22.9523 78.762 22.8661L79.27 22.6738C79.539 22.6738 79.7653 22.4815 80.0216 22.5492C80.3663 22.8913 80.3663 22.2084 80.6989 22.1772C81.4753 22.0777 82.2457 22.152 82.6834 22.8038C82.6834 22.8906 82.8226 22.8906 82.7905 22.9715C82.6901 23.0014 82.5957 22.9397 82.49 22.9397C82.0141 22.8224 81.4559 22.5233 80.9867 22.7905C80.9687 22.9019 80.9446 23.0153 80.9218 23.1267C80.8984 23.2454 80.877 23.3614 80.8669 23.4728C81.1735 23.5597 81.4305 23.7772 81.6621 24.0125C81.8187 23.7089 82.1507 23.5723 82.4451 23.4728C82.7022 23.5285 82.9839 23.5351 83.1974 23.6963C83.5923 24.057 83.3976 24.671 83.3608 25.1298C83.7168 25.3281 84.1117 25.4408 84.4745 25.6324C84.3051 25.7829 84.0809 25.8439 83.8741 25.9189L83.2731 25.8002C83.2041 25.7511 83.0843 25.7511 83.0596 25.6642C82.8594 25.8744 82.6152 26.1542 82.49 26.4268H91.0704C90.9573 26.1721 90.8261 25.9739 90.6695 25.7385C90.4935 25.3659 90.5638 24.8566 90.5444 24.4595L91.3462 23.2494C91.7839 23.2434 92.2799 23.0816 92.7551 23.1625C92.7792 23.1519 92.8019 23.14 92.824 23.126C93.0214 22.9908 93.0817 22.6765 93.3755 22.7156C93.9009 22.5737 94.3025 22.8098 94.6974 23.0451C94.684 23.0763 94.6713 23.1035 94.6572 23.126C94.4919 23.3879 94.1827 23.0955 93.9571 23.1744C93.8627 23.2739 94.0013 23.3913 94.0194 23.504C94.101 23.6147 93.9377 23.6021 93.8822 23.6213C93.751 23.6399 93.6071 23.6087 93.506 23.504C93.4812 23.4722 93.5 23.4357 93.4505 23.4297C93.3367 23.6147 93.174 23.7831 93.1305 23.994C93.2738 24.1312 93.4679 24.2672 93.5375 24.4416C93.6814 24.6464 93.4244 24.8009 93.3748 24.9813C93.3561 25.0178 93.2985 25.0178 93.2805 24.9813C93.1479 24.907 93.0362 24.72 92.8916 24.7691C92.7658 25.3221 92.9351 25.8744 92.8601 26.4268C93.1044 26.4838 93.3922 26.4142 93.6553 26.4268L93.7624 25.2598C93.8741 24.5032 94.3266 23.87 94.8587 23.2918C95.4336 22.9026 95.8044 23.6717 96.2294 23.9383C96.299 23.9509 96.2742 24.0251 96.3044 24.0682C96.2983 24.1929 96.1672 24.242 96.0795 24.2798C95.8158 24.3719 95.6217 24.0868 95.459 23.9191C95.3031 24.0868 95.2335 24.3096 95.0521 24.4409L95.1143 24.4588C95.3225 24.6643 95.5213 24.8812 95.5668 25.1543C95.5414 25.4017 95.4162 25.6437 95.19 25.769C95.022 25.4826 94.8834 25.1663 94.7717 24.8745C94.7777 24.8878 94.7643 24.8931 94.7522 24.9064C94.4069 24.9985 94.3152 25.3831 94.2576 25.6941C94.2764 25.9984 94.0448 26.1224 94.1064 26.4261H98.5733C99.0679 26.3518 99.594 26.3638 99.9882 26.0031C101.661 26.2583 103.358 25.8486 104.673 24.9369C105.367 24.3812 105.991 23.7394 106.495 23.0385C106.94 22.4205 107.291 21.843 107.518 21.1514C107.686 20.7238 107.82 20.2802 107.921 19.8233C108.398 17.675 108.148 15.2701 107.442 13.2232Z" fill="#FF6600"/>
<path fill-rule="evenodd" clip-rule="evenodd" d="M78.6976 24.7402C78.9418 24.585 79.3366 24.5472 79.3921 24.1878C79.2931 24.1129 79.2048 24.0194 79.0917 23.9949L78.8348 24.0692C78.8535 23.92 78.9351 23.7529 78.9867 23.5917L79.8123 23.3252C79.6986 23.6972 79.6558 24.1626 79.6176 24.591C79.6926 25.2242 79.7869 25.9005 80.1128 26.4277H79.2228C79.1232 25.8448 78.5082 25.4218 78.6976 24.7402Z" fill="#FF6600"/>
<path fill-rule="evenodd" clip-rule="evenodd" d="M80.622 23.9951H80.6715L81.2717 24.5355L81.3594 24.5169C81.3105 25.1502 81.2784 25.7708 81.2717 26.4279H80.6213C80.4889 25.8139 80.2701 25.1681 80.2955 24.505C80.4079 24.3373 80.4828 24.1257 80.622 23.9951Z" fill="#FF6600"/>
<path fill-rule="evenodd" clip-rule="evenodd" d="M81.9611 24.5917C82.0809 24.4373 82.1304 24.1753 82.368 24.1455C82.5373 24.1501 82.6938 24.1753 82.8203 24.294C83.0391 24.5666 82.825 24.9153 82.7454 25.1878C82.657 25.6036 82.5058 26.0372 82.3686 26.4284H81.7363L81.9611 24.5917Z" fill="#FF6600"/>
<path fill-rule="evenodd" clip-rule="evenodd" d="M91.4623 24.3991C91.6002 24.5735 91.6437 24.8089 91.8504 24.964C92.0324 24.716 92.0759 24.3308 91.9882 24.0145L91.8069 23.8342C92.0391 23.7791 92.2826 23.7599 92.5148 23.7168C92.4145 24.0457 92.2251 24.3434 92.2579 24.728C92.2639 25.2869 92.3576 25.8459 92.4078 26.4281H91.7193C91.469 25.8817 91.2181 25.3612 91.2368 24.728C91.3118 24.6159 91.362 24.4853 91.4623 24.3991Z" fill="#FF6600"/>
<path fill-rule="evenodd" clip-rule="evenodd" d="M94.4264 12.4761C94.4197 12.6372 94.3013 12.8162 94.407 12.9542C94.5589 12.7864 94.8086 12.7924 95.0094 12.7181C95.5669 12.6677 96.099 12.8421 96.6184 12.9668C96.4872 12.7612 96.3995 12.5318 96.2549 12.3461C95.9665 12.2712 95.5281 12.4701 95.4786 12.0471C95.3032 11.8986 95.0281 12.0047 94.8461 12.0166C94.67 12.1406 94.5268 12.2957 94.4264 12.4761Z" fill="white"/>
<path fill-rule="evenodd" clip-rule="evenodd" d="M75.2813 7.11747C75.2787 7.11614 75.276 7.11349 75.272 7.11084C75.272 7.11349 75.2733 7.11482 75.2733 7.11747H75.2813Z" fill="white"/>
<path fill-rule="evenodd" clip-rule="evenodd" d="M77.5597 12.6341L77.9358 12.2748C77.9679 12.2748 77.9927 12.2807 78.0108 12.3046L77.98 12.9935C78.1614 13.1613 78.3856 13.2163 78.6239 13.2296C78.6433 13.0439 78.7872 12.9126 78.8688 12.7515C78.9378 12.6215 78.8943 12.4292 79.0315 12.3371L79.0756 12.3795C79.1185 12.5851 79.1064 12.8145 79.2135 12.9935C79.2262 13.093 79.2436 13.2163 79.2557 13.3038C79.5321 13.3164 79.7831 13.2422 79.9953 13.142C79.9825 12.9067 80.0649 12.7144 80.101 12.4982C80.1586 12.4233 80.0321 12.286 80.1887 12.2927C80.277 12.479 80.433 12.6706 80.5213 12.8702C80.8841 12.5042 81.036 12.0268 81.1217 11.5295C81.0159 11.3876 80.8533 11.3876 80.7268 11.2941C79.6626 10.9533 78.2979 10.885 77.2705 11.4121C77.2016 11.8325 77.2893 12.298 77.5597 12.6341Z" fill="white"/>
<path fill-rule="evenodd" clip-rule="evenodd" d="M67.6049 24.2785C67.5667 24.7566 67.6049 25.2048 67.6356 25.6769C67.736 25.8321 67.9187 26.0124 68.1 26.0237L68.1308 25.7068C68.2057 25.2665 67.9682 24.799 68.2191 24.4264C68.3944 24.4814 68.5697 24.569 68.7203 24.6492C68.7952 24.2401 68.6881 23.7613 68.2934 23.5127L67.6049 24.2785Z" fill="white"/>
<path fill-rule="evenodd" clip-rule="evenodd" d="M69.1511 23.6079C68.9069 24.3346 68.7256 25.2291 69.02 25.9943C69.1893 25.8815 69.3639 25.7761 69.5138 25.6216C69.483 25.0375 69.4014 24.4155 69.752 23.9302C70.0585 24.0236 70.2659 24.3154 70.3836 24.5998C70.5917 24.3399 70.66 23.9792 70.579 23.6331C70.5917 23.3593 70.2786 23.4222 70.128 23.3102C70.1776 23.0801 70.1709 22.8149 70.4158 22.6836L69.665 22.7579C69.471 23.0317 69.2582 23.2969 69.1511 23.6079Z" fill="white"/>
<path fill-rule="evenodd" clip-rule="evenodd" d="M70.6987 25.7521C70.7302 25.8071 70.6987 25.9072 70.7623 25.9198C70.8553 25.398 71.281 25.0605 71.5139 24.6003C71.6257 24.4472 71.6204 24.2284 71.8017 24.111C72.0454 24.111 72.2214 24.2847 72.4597 24.3033C72.5346 24.3596 72.4208 24.4094 72.4148 24.471C72.3653 24.8941 72.2027 25.2428 72.2334 25.6778H72.2769C72.6089 25.3297 72.8345 24.9551 73.0788 24.5579L73.1216 24.2051C73.1792 23.7828 72.716 23.5103 72.4135 23.3359L72.6832 22.9937L72.3071 22.8638C71.8687 22.9069 71.4738 23.0872 71.1672 23.4294C70.7857 24.1229 70.7235 24.908 70.6987 25.7521Z" fill="white"/>
<path fill-rule="evenodd" clip-rule="evenodd" d="M72.3848 22.0698C72.528 22.1122 72.6598 21.9955 72.8031 22.0565C73.38 22.268 73.981 22.4848 74.4134 22.9623L74.9274 24.2599L75.1844 23.4582L75.0151 23.0252C74.8705 22.7149 74.4763 22.7401 74.2066 22.7275C74.0942 22.6029 74.2126 22.4603 74.2508 22.343C74.382 21.902 73.8371 21.9265 73.6183 21.7469C73.631 21.481 73.3051 21.5725 73.123 21.5486L73.0608 21.4743C73.0233 21.4173 72.9296 21.4173 72.8787 21.4611C72.8673 21.4425 72.8419 21.4299 72.8546 21.3994L72.7174 21.4299C72.522 21.5977 72.3908 21.8145 72.3848 22.0698Z" fill="white"/>
<path fill-rule="evenodd" clip-rule="evenodd" d="M72.7466 20.6418C72.766 20.7213 72.8155 20.8022 72.8778 20.8526C73.1602 20.7784 73.4306 20.5848 73.7552 20.7034C74.1755 21.0695 74.6133 21.454 75.1213 21.6523L75.3033 21.6218C75.4151 21.6583 75.5402 21.6642 75.6152 21.7895C75.6848 21.9573 75.5095 22.0554 75.4539 22.192C75.735 22.3976 75.6232 22.7629 75.7979 23.0109L76.2484 22.4161C76.1433 22.1549 76.2551 21.7086 75.8428 21.6835C75.7036 21.6152 75.6105 21.4792 75.6159 21.3241C75.3475 21.0821 75.0155 20.9766 74.7465 20.728C74.5256 20.5549 74.3951 20.2884 74.114 20.226C73.9192 20.1199 73.7064 20.0643 73.4815 20.0158C73.0605 19.9522 73.023 20.4488 72.7466 20.6418Z" fill="white"/>
<path fill-rule="evenodd" clip-rule="evenodd" d="M73.3486 19.4192L73.4236 19.5386C73.7368 19.5194 74.0179 19.3834 74.3251 19.3887C74.5313 19.5127 74.801 19.5061 75.0139 19.6122C75.1832 19.8423 75.3652 20.1015 75.6142 20.2567C76.1222 20.331 76.4033 20.8727 76.5787 21.2685V21.0769C76.6536 20.8097 76.572 20.4987 76.4736 20.2567C76.3478 20.1327 76.1651 20.0525 76.0345 19.9417C76.0091 19.8608 76.0278 19.8224 76.0533 19.7488C75.8585 19.5439 75.5707 19.4318 75.3324 19.2701C75.0005 18.792 74.3626 18.9239 73.8546 18.792L73.3486 19.4192Z" fill="white"/>
<path fill-rule="evenodd" clip-rule="evenodd" d="M73.3384 14.8674C73.3939 15.0603 73.4615 15.3017 73.4996 15.5072C73.6743 15.1226 74.0202 14.9482 74.3267 14.6326C74.1507 14.5146 73.9319 14.4582 73.7385 14.4218V14.4092C73.6 14.5444 73.3872 14.6817 73.3384 14.8674Z" fill="white"/>
<path fill-rule="evenodd" clip-rule="evenodd" d="M74.4766 16.9095L74.7576 16.6244C75.04 16.3379 75.2728 16.0084 75.315 15.643C75.1149 15.5257 74.8519 15.6066 74.6586 15.6749C74.5896 16.0767 74.4826 16.4738 74.4766 16.9095Z" fill="white"/>
<path fill-rule="evenodd" clip-rule="evenodd" d="M74.6816 17.7847C75.1139 17.8086 75.5341 17.8954 75.8847 17.6534L76.236 16.5368C76.1222 16.5302 76.0092 16.4798 75.9034 16.5182C75.6719 17.0261 75.2089 17.5294 74.6816 17.7847Z" fill="white"/>
<path fill-rule="evenodd" clip-rule="evenodd" d="M74.8098 13.8255C75.0915 14.2346 75.5619 14.6928 76.043 14.8241C75.9875 14.3023 75.5365 13.9422 75.3043 13.4967L75.2916 13.3475C75.1102 13.1737 74.8908 13.0551 74.7028 12.9629C74.6727 13.2606 74.7543 13.5451 74.8098 13.8255Z" fill="white"/>
<path fill-rule="evenodd" clip-rule="evenodd" d="M76.3354 17.8339C76.6673 17.8895 77.0246 17.8339 77.3311 17.7404C77.7754 17.6343 78.0203 17.1509 78.1701 16.7729H77.6128L77.0126 17.3558C76.7751 17.4791 76.5496 17.6654 76.3354 17.8339Z" fill="white"/>
<path fill-rule="evenodd" clip-rule="evenodd" d="M76.2681 13.2607C76.3624 13.7454 76.5698 14.1857 76.8515 14.6015L76.9258 13.6765L76.2681 13.2607Z" fill="white"/>
<path fill-rule="evenodd" clip-rule="evenodd" d="M78.3217 15.6745C78.3598 15.3642 78.2287 15.0035 78.1919 14.6885C78.0039 14.5639 77.7416 14.5758 77.5469 14.4531C77.5596 14.9418 77.9463 15.3582 78.3217 15.6745Z" fill="white"/>
<path fill-rule="evenodd" clip-rule="evenodd" d="M77.752 18.8265C78.1461 18.7025 78.5281 18.5659 78.8921 18.3676C79.1236 18.0381 79.4736 17.741 79.5244 17.3564C79.2347 17.4367 78.9858 17.3432 78.7161 17.4745C78.5535 17.7656 78.4525 18.0958 78.14 18.306C78.0899 18.5155 77.8583 18.6587 77.752 18.8265Z" fill="white"/>
<path fill-rule="evenodd" clip-rule="evenodd" d="M78.3657 19.5894L78.8354 20.1974C79.0864 20.2777 79.3995 20.2538 79.6183 20.1112L79.4504 19.5596C79.1178 19.6822 78.723 19.6464 78.3657 19.5894Z" fill="white"/>
<path fill-rule="evenodd" clip-rule="evenodd" d="M79.1479 15.197L79.3293 16.0152C79.7675 15.6625 79.8579 15.1473 79.8452 14.6016C79.5949 14.8867 79.4497 15.0604 79.1479 15.197Z" fill="white"/>
<path fill-rule="evenodd" clip-rule="evenodd" d="M80.3828 16.6416C80.3888 16.7603 80.4196 16.8717 80.4879 16.9645C80.9763 17.1389 81.0265 17.727 81.4782 17.9505C81.7712 18.0818 82.1105 17.92 82.3661 17.8013C82.1727 17.5845 81.9539 17.4353 81.7659 17.2065C81.6347 17.1508 81.5016 17.0699 81.5089 16.9088L80.3828 16.6416Z" fill="white"/>
<path fill-rule="evenodd" clip-rule="evenodd" d="M80.7721 19.5716C80.9842 19.8123 81.2719 19.9376 81.5724 20.0046C81.5228 19.9369 81.6045 20.0046 81.6165 19.9621L81.2405 19.1426C81.0525 19.1492 80.8577 19.187 80.6831 19.1744C80.6972 19.311 80.7273 19.4469 80.7721 19.5716Z" fill="white"/>
<path fill-rule="evenodd" clip-rule="evenodd" d="M81.4358 15.7492C81.2598 15.3461 81.1876 14.8548 81.1361 14.4092C80.9494 14.6326 80.7547 14.7759 80.5787 15.0039C80.4971 15.4628 81.1601 15.5748 81.4358 15.7492Z" fill="white"/>
<path fill-rule="evenodd" clip-rule="evenodd" d="M82.198 15.3258C82.4248 15.6189 82.9186 15.5195 83.1943 15.4319C83.0625 15.2085 82.6383 15.0772 82.5633 14.8372C82.5205 14.4088 82.4322 13.9918 82.2937 13.6025C82.0749 14.129 81.8099 14.7563 82.198 15.3258Z" fill="white"/>
<path fill-rule="evenodd" clip-rule="evenodd" d="M82.5933 16.6416C83.2197 17.0945 83.8341 17.6223 84.7096 17.4293C84.7725 17.3869 84.8796 17.3915 84.8916 17.312C84.6346 17.1508 84.3595 17.0255 84.0965 16.877L83.7967 16.4434H83.6588C83.3201 16.5541 82.9574 16.5992 82.5933 16.6416Z" fill="white"/>
<path fill-rule="evenodd" clip-rule="evenodd" d="M82.6064 21.6742H82.6513C83.0268 21.3765 83.4712 21.2764 83.9156 21.153C84.0354 21.1968 83.9598 21.3274 84.0669 21.3765C84.3359 21.2658 84.6619 21.2896 84.937 21.1968C85.2689 21.2087 85.5387 21.2147 85.8077 21.3573C86.0219 21.6371 86.4215 21.6053 86.6979 21.7922L86.653 21.3573C86.0714 20.6809 85.1632 20.6319 84.3239 20.6445L84.3051 20.5576C84.105 20.5576 83.8795 20.6001 83.6914 20.6876C83.423 20.7002 83.1653 20.8301 82.9083 20.9104C82.7885 21.1464 82.6941 21.4335 82.6064 21.6742Z" fill="white"/>
<path fill-rule="evenodd" clip-rule="evenodd" d="M83.109 14.0484C83.3526 14.3654 83.7159 14.608 84.1294 14.5271C83.9173 14.3209 83.6717 14.1041 83.6597 13.813C83.7226 13.2607 83.109 13.2163 82.8086 12.9312C82.909 13.3038 82.8956 13.7195 83.109 14.0484Z" fill="white"/>
<path fill-rule="evenodd" clip-rule="evenodd" d="M83.0444 22.7724H83.1194C83.4507 22.5682 83.9333 22.724 84.2592 22.5065C84.4406 22.413 84.4533 22.6617 84.5785 22.73C84.8857 22.915 84.9238 23.4739 85.3555 23.344C85.8742 23.6105 85.7437 24.2371 85.7625 24.6959L86.245 24.3989C86.2009 24.1569 86.3394 23.8651 86.1821 23.6543C86.063 23.3877 85.737 23.3632 85.5804 23.1464C85.7692 22.8294 85.3428 22.6796 85.2545 22.4502L85.2806 22.4196L85.9445 22.5065C86.1701 22.6424 86.2517 22.8911 86.3207 23.1212C86.8394 23.208 86.9645 23.7909 87.1466 24.1628C87.2537 23.9089 87.2972 23.635 87.4036 23.3871C87.4103 23.1822 87.1345 23.1822 86.9967 23.0893C86.9598 22.7724 86.8153 22.4753 86.5335 22.2837C85.9572 22.1392 85.4506 21.8242 84.8181 21.8242L84.292 21.9847C84.0029 22.0536 83.6963 21.9668 83.4768 22.1644C83.1502 22.1896 83.1261 22.5436 83.0444 22.7724Z" fill="white"/>
<path fill-rule="evenodd" clip-rule="evenodd" d="M83.377 20.2164L83.4968 20.2728C83.7538 20.1547 84.0101 20.0181 84.2798 19.9187C84.6982 19.8013 85.0241 20.2728 85.3762 19.9744C85.5067 19.8822 85.6204 20.0181 85.7195 20.0931C85.8721 20.3656 86.2215 20.347 86.4852 20.4206C86.3533 20.0679 86.19 19.5838 85.7329 19.5275C85.5515 19.4472 85.338 19.4539 85.1633 19.3478C84.6808 18.8206 84.3682 19.7828 83.8401 19.5474C83.6534 19.7509 83.4211 19.9445 83.377 20.2164Z" fill="white"/>
<path fill-rule="evenodd" clip-rule="evenodd" d="M83.4956 23.2387C83.6957 23.4064 83.9024 23.6922 84.2162 23.6544C84.6036 23.8341 84.4411 24.3434 84.6532 24.6106L84.8787 24.4116L84.8599 24.3984L84.8914 24.3679L84.9048 24.3851C84.967 24.2001 84.8793 23.8712 84.7723 23.6531C84.6291 23.5543 84.4605 23.6597 84.322 23.5662C84.3032 23.3667 84.1781 23.2685 84.0342 23.1452C83.9339 23.0696 83.8021 23.1691 83.689 23.1624L83.4956 23.2387Z" fill="white"/>
<path fill-rule="evenodd" clip-rule="evenodd" d="M84.2793 15.6743C84.4854 16.0151 84.8862 16.2267 85.206 16.462C85.4696 16.5801 85.8129 16.6112 86.0953 16.5482C85.8256 16.3314 85.5807 16.0828 85.3566 15.8228C85.2682 15.6982 85.2495 15.5424 85.1311 15.4316C84.8367 15.488 84.5041 15.4814 84.2793 15.6743Z" fill="white"/>
<path fill-rule="evenodd" clip-rule="evenodd" d="M84.625 13.4538C84.9127 13.8072 85.3577 13.6646 85.7645 13.6772V13.6335L85.1382 13.1123C84.9629 13.1673 84.7755 13.3225 84.625 13.4538Z" fill="white"/>
<path fill-rule="evenodd" clip-rule="evenodd" d="M73.0938 7.60141L73.4564 8.71867C73.4497 8.08545 73.7455 7.55698 73.6826 6.91249L73.9509 6.51465L73.3808 6.68903C73.2309 6.97415 73.1058 7.25993 73.0938 7.60141Z" fill="white"/>
<path fill-rule="evenodd" clip-rule="evenodd" d="M73.3384 5.66515L73.8329 5.38004V4.65332C73.6248 4.77731 73.513 4.98949 73.3504 5.15526L73.3384 5.66515Z" fill="white"/>
<path fill-rule="evenodd" clip-rule="evenodd" d="M83.4982 6.79421C83.379 6.94871 83.1977 6.98716 83.0471 7.017C83.3108 6.54026 83.4359 5.87587 83.2291 5.33547C83.3663 5.28641 83.5169 5.26121 83.6481 5.18695L83.6354 5.17369L83.9801 4.87597C84.4372 4.56566 84.2612 3.97686 84.4305 3.53592C84.2056 3.18914 84.1367 2.76677 83.8107 2.47502L83.8295 2.46242C83.5725 2.13951 83.1093 2.1773 82.7586 2.01618C82.2941 1.86102 81.9374 2.1773 81.6047 2.38816C81.4608 2.41335 81.5492 2.59901 81.3926 2.59238C81.3049 2.8218 81.1978 3.07045 81.1349 3.32507C80.5151 3.2382 79.8451 3.3065 79.3505 3.65394C79.0862 3.46099 78.7682 3.42453 78.461 3.33766C78.2355 3.29324 77.9791 3.37413 77.8165 3.25014C77.5789 2.98425 77.5274 2.49955 77.1197 2.43192C76.9758 2.38153 76.9457 2.22637 76.9457 2.08978C76.676 2.04535 76.4371 1.92202 76.1754 1.86633C75.7745 1.68597 75.4552 1.97242 75.1547 2.16404C75.0222 2.21908 74.8722 2.23831 74.7471 2.31257C74.5222 2.66068 74.31 3.01409 74.1641 3.39867C74.209 3.71495 74.3462 3.99343 74.5095 4.26131C74.6534 4.66445 75.1045 4.9814 75.486 5.14318C75.3046 5.75718 75.3046 6.48854 75.486 7.10917C75.486 7.10917 75.4759 7.11779 75.4759 7.1158C75.4759 7.11779 75.4559 7.13436 75.4559 7.13436C75.397 7.13436 75.3314 7.14564 75.2825 7.1158H75.2745C75.3642 7.70858 75.6453 8.22842 76.1004 8.67333C76.2637 8.72903 76.2256 8.92198 76.2938 9.04531C76.338 9.10167 76.3447 9.21903 76.326 9.26876C75.3481 9.23826 74.4774 9.48028 73.6943 9.92056C73.4941 10.02 73.5818 10.2925 73.5631 10.4855C74.1146 10.1248 74.7089 9.85889 75.3668 9.7402C75.6486 9.72296 75.9672 9.65334 76.2376 9.7276L76.2684 10.2627C75.5241 10.6479 74.7089 10.8707 74.0711 11.504C74.0831 11.6956 74.0456 11.9184 74.1019 12.0802L74.6728 11.6213C75.2236 11.2049 75.7999 10.8515 76.4317 10.6221C76.6017 10.8203 76.7771 11.0325 77.0026 11.1558C77.3841 10.9132 77.7984 10.7335 78.2368 10.6221C78.4684 10.4855 78.8385 10.6095 78.9884 10.337L79.0942 9.77203C79.0768 9.75943 79.0634 9.73423 79.0319 9.7402C78.7381 9.57245 78.5433 9.28136 78.5688 8.94055C78.4684 8.98961 78.3566 9.02144 78.2368 9.02608C78.1378 9.00221 78.0427 8.97702 77.9992 8.87689C77.9932 8.75356 77.9296 8.56724 78.0561 8.47508C78.4624 8.22643 78.9891 8.21383 79.5025 8.25096C79.884 8.30135 80.4355 8.28213 80.568 8.72903C80.5492 8.85965 80.5613 9.00288 80.4294 9.08907C80.2916 9.16334 80.1356 9.08244 80.0098 9.02608C79.9101 9.33109 79.7407 9.67191 79.3967 9.77137L79.4395 10.1307C79.4824 10.2925 79.4958 10.5591 79.7528 10.5027C80.3478 10.6466 80.8745 10.9503 81.3939 11.2785C81.5699 11.1054 81.7071 10.9065 81.8316 10.7262C82.7599 11.0378 83.5604 11.7261 84.3261 12.3659L84.3562 11.8441C83.6294 11.2042 82.8222 10.752 81.9822 10.3986C82.0143 10.2309 82.0518 10.0691 82.0585 9.88873C83.0538 9.94509 83.9995 10.2494 84.8194 10.7262L84.8067 10.2799C83.9426 9.82043 82.9969 9.51675 81.9641 9.50481C81.9253 9.44912 81.9133 9.36822 81.92 9.31253C82.4213 9.2323 82.7773 8.71776 82.8972 8.26953C83.1548 7.97844 83.5243 7.6615 83.4366 7.22786C83.4473 7.19139 83.46 7.15359 83.4734 7.1158C83.5062 7.00904 83.5343 6.895 83.4982 6.79421Z" fill="white"/>
<path fill-rule="evenodd" clip-rule="evenodd" d="M84.3672 8.38953L84.8804 8.22775L84.9379 7.94329C85.0818 7.52689 84.7747 7.21657 84.6241 6.8877L84.3672 8.38953Z" fill="white"/>
<path fill-rule="evenodd" clip-rule="evenodd" d="M85.6641 10.3559C85.9084 10.6232 86.1466 11.0508 86.5788 10.9209C86.5467 10.7405 86.4463 10.5913 86.3848 10.4302C86.2724 10.3003 86.2336 9.92761 86.0087 10.0582C85.8395 9.94684 85.7966 9.76052 85.6889 9.61133C85.6401 9.84141 85.6708 10.1265 85.6641 10.3559Z" fill="white"/>
<path fill-rule="evenodd" clip-rule="evenodd" d="M85.7515 12.174C85.8458 12.3039 85.8719 12.4723 85.9642 12.5904C86.1335 12.7011 86.3845 12.6825 86.5919 12.6646C86.7786 12.6209 86.8983 12.8251 87.073 12.7077C86.8542 12.5711 86.723 12.3232 86.5169 12.1421C86.272 11.9512 86.0091 12.1189 85.7515 12.174Z" fill="white"/>
<path fill-rule="evenodd" clip-rule="evenodd" d="M86.0841 15.0604C86.5164 15.3144 87.065 15.563 87.6418 15.4761C87.704 15.4456 87.8111 15.4516 87.8231 15.3773C87.4658 15.2527 87.0911 14.8993 86.7164 14.825C86.5097 14.5087 86.24 14.9059 85.9771 14.8807C85.9831 14.9543 86.058 15.01 86.0841 15.0604Z" fill="white"/>
<path fill-rule="evenodd" clip-rule="evenodd" d="M87.3848 20.5391L87.4791 20.7373C87.5741 21.3831 87.9856 21.9779 87.7608 22.6854C87.9488 22.8167 88.005 23.0335 88.1248 23.2072H88.1556C88.2994 22.6682 88.1997 22.1092 88.1248 21.5688C88.181 21.0788 87.6792 20.7937 87.3848 20.5391Z" fill="white"/>
<path fill-rule="evenodd" clip-rule="evenodd" d="M87.4932 14.1849C87.8184 14.4336 88.3383 14.4574 88.7136 14.3341C88.4761 14.2042 88.2131 14.0603 88.0184 13.8872L87.4932 14.1849Z" fill="white"/>
<path fill-rule="evenodd" clip-rule="evenodd" d="M89.0399 16.0891C89.0091 16.3503 89.1838 16.5671 89.3718 16.6984C89.4407 16.5439 89.5524 16.412 89.5652 16.2389C89.5089 15.9724 89.3584 15.7297 89.1142 15.5493C89.0714 15.723 89.0205 15.8908 89.0399 16.0891Z" fill="white"/>
<path fill-rule="evenodd" clip-rule="evenodd" d="M89.0574 18.92C89.0126 19.2111 89.3384 19.2489 89.4756 19.41C89.5887 19.5466 89.4007 19.6401 89.4007 19.7701C89.6389 20.0738 89.7774 20.4199 89.7774 20.8244C89.8704 20.4464 90.0142 20.0864 90.0651 19.6958C90.0397 19.422 89.6021 19.479 89.6703 19.1747C89.7961 18.8643 89.6456 18.5607 89.5639 18.2802C89.5399 18.2377 89.4823 18.1502 89.4335 18.1761C89.3197 18.4294 89.0387 18.6097 89.0574 18.92Z" fill="white"/>
<path fill-rule="evenodd" clip-rule="evenodd" d="M89.916 17.4424L90.2412 18.069C90.3851 18.0504 90.4787 17.9138 90.5911 17.8144C90.6788 17.5538 90.4466 17.386 90.379 17.1745C90.3222 17.0253 90.379 16.8277 90.272 16.6978C90.1904 16.6474 90.0974 16.5665 90.0037 16.5917L89.916 17.4424Z" fill="white"/>
<path fill-rule="evenodd" clip-rule="evenodd" d="M90.335 15.7915C90.5926 15.9467 90.8865 16.1694 91.025 16.4433C91.2439 17.0765 91.5946 17.6461 91.8509 18.2608C91.9453 18.6891 92.0203 19.0717 92.1387 19.4927C92.1836 19.6048 92.1581 19.8216 92.3342 19.803C92.383 19.3316 92.4774 18.8781 92.4841 18.3881C92.3275 18.1832 92.1213 18.097 91.9266 17.973V17.9292C91.952 17.8245 92.0403 17.6991 92.1709 17.719C92.2264 17.6567 92.3964 17.595 92.3214 17.483C91.9955 17.1607 92.0142 16.6057 91.4955 16.5056C91.3135 16.4314 91.27 16.2444 91.2512 16.072C91.0063 15.8658 90.6435 15.7981 90.335 15.7915Z" fill="white"/>
<path fill-rule="evenodd" clip-rule="evenodd" d="M90.6363 19.1552C90.9548 19.4462 90.8431 19.8686 90.8177 20.2598C90.7681 20.4959 91.0679 20.358 91.1622 20.4833C91.357 20.7684 91.2439 21.1848 91.1756 21.4944C91.3449 21.2392 91.5383 21.0164 91.6694 20.7366C91.6641 20.6318 91.8012 20.5814 91.7952 20.4508C91.8508 20.2711 91.6387 20.352 91.5503 20.3334C91.4754 20.3149 91.3944 20.2651 91.4199 20.1657C91.5811 19.8554 91.4319 19.4834 91.369 19.1731C91.2941 18.9184 91.4011 18.577 91.2807 18.3535C91.0799 18.628 90.4844 18.6897 90.6363 19.1552Z" fill="white"/>
<path fill-rule="evenodd" clip-rule="evenodd" d="M91.2183 14.7502C91.7763 15.3092 92.1831 15.8701 92.784 16.4105C92.7967 16.1678 92.7652 15.945 92.7532 15.709C92.6655 15.5412 92.5023 15.4179 92.3638 15.2926C91.9195 15.2502 91.688 14.6567 91.2183 14.7502Z" fill="white"/>
<path fill-rule="evenodd" clip-rule="evenodd" d="M92.6772 17.7065C92.6906 17.7635 92.7161 17.8125 92.7415 17.8676C92.985 18.2654 93.2172 18.6752 93.3865 19.1029C93.3357 18.6434 93.6488 18.0731 93.2346 17.7191C93.1791 17.5692 92.9924 17.6196 92.872 17.6315L92.6772 17.7065Z" fill="white"/>
<path fill-rule="evenodd" clip-rule="evenodd" d="M94.1816 22.2394C94.357 22.3202 94.5825 22.1777 94.7519 22.0782C94.9085 22.0411 95.0397 22.1286 95.1595 22.2088C95.209 22.3076 95.1595 22.4011 95.1782 22.4946C95.5537 22.5994 95.9225 22.7366 96.2545 22.9535L96.3602 22.848C96.3856 22.5815 96.1735 22.3885 95.972 22.2394C95.8415 22.1651 95.6461 22.2089 95.553 22.0908C95.6159 21.9914 95.6159 21.8422 95.6093 21.7308C95.4024 21.7308 95.2706 21.6678 95.1026 21.5697C94.9955 21.5385 94.9011 21.451 94.8135 21.5697C94.5009 21.7798 94.4822 22.0908 94.1816 22.2394Z" fill="white"/>
<path fill-rule="evenodd" clip-rule="evenodd" d="M94.6213 14.431C94.7772 14.3865 94.9405 14.3434 95.0717 14.2314C95.4919 13.8528 96.0987 14.1074 96.5878 14.1014C96.4935 13.9337 96.361 13.7659 96.2426 13.6234C96.0666 13.5551 95.904 13.4748 95.704 13.4748C95.2777 13.2262 94.9907 13.6426 94.6642 13.8468C94.5758 14.0146 94.533 14.2626 94.6213 14.431Z" fill="white"/>
<path fill-rule="evenodd" clip-rule="evenodd" d="M94.6321 15.7088C94.6321 15.6896 94.6321 15.6703 94.6508 15.6657C94.7084 15.7148 94.6448 15.8341 94.7392 15.858C94.9018 15.7771 95.0524 15.6657 95.2023 15.5603C95.622 15.5603 95.873 15.1565 96.2852 15.1565C96.9753 15.2811 97.658 15.4184 98.2584 15.7519C98.2155 15.3501 97.8635 14.9827 97.5074 14.8031C97.3059 14.7348 97.1493 14.8402 97.0061 14.9522C96.5871 15.2135 96.806 14.5736 96.5121 14.561C96.1293 14.6784 95.7344 14.8097 95.3087 14.7712C95.0584 14.8654 94.8824 15.0941 94.6006 15.0689C94.5892 15.2752 94.5585 15.5238 94.6321 15.7088Z" fill="white"/>
<path fill-rule="evenodd" clip-rule="evenodd" d="M94.9204 17.092C95.0516 17.2299 95.2705 17.2047 95.4592 17.2299L96.004 17.0177C96.01 16.9202 95.8414 16.8937 95.8789 16.7823C96.0295 16.6146 96.2349 16.7332 96.4237 16.665C96.686 16.6272 96.9558 16.3679 97.2188 16.5589C97.2108 16.5907 97.2302 16.6331 97.2054 16.665C97.1244 16.8572 97.2616 16.9753 97.4122 17.0495C97.7194 17.1052 98.0066 17.385 98.3138 17.2597C98.283 17.0051 98.2147 16.771 98.1518 16.5277C97.8948 16.4846 97.7127 16.2737 97.4751 16.1862C97.3694 16.2857 97.2302 16.3599 97.099 16.3473C96.6164 16.2353 96.0395 15.9376 95.5516 16.2419C95.3762 16.4534 95.063 16.3911 94.8247 16.4839C94.8388 16.6948 94.8635 16.9003 94.9204 17.092Z" fill="white"/>
<path fill-rule="evenodd" clip-rule="evenodd" d="M95.1278 20.7812C95.0903 20.8866 94.9839 21.0597 95.1786 21.1101C95.5787 21.122 96.0926 20.9171 96.4058 21.2274C96.5121 21.3083 96.4613 21.4761 96.4546 21.5815L96.9805 22.0158C97.0307 21.7539 97.1257 21.5185 97.1324 21.2394C97.0883 21.0405 96.9879 20.8488 96.8126 20.7189C96.4673 20.7189 96.2679 20.319 95.8972 20.3681C95.7039 20.3257 95.5346 20.4961 95.3399 20.4961C95.2536 20.5823 95.2027 20.6884 95.1278 20.7812Z" fill="white"/>
<path fill-rule="evenodd" clip-rule="evenodd" d="M95.2767 17.8551C95.3577 18.0229 95.4527 18.296 95.6087 18.3139C95.9781 18.1542 96.5176 18.054 96.9305 18.2284C97.0678 18.2523 97.0678 18.4074 97.0376 18.5069C97.2498 18.6309 97.5068 18.7304 97.7324 18.8663L97.6695 18.4936C97.6567 18.0905 97.1441 18.054 97.1119 17.6562C96.6923 17.5203 96.2224 17.4758 95.778 17.5819C95.6341 17.7119 95.4266 17.6946 95.2526 17.7311C95.2399 17.7808 95.27 17.8127 95.2767 17.8551Z" fill="white"/>
<path fill-rule="evenodd" clip-rule="evenodd" d="M95.3831 19.8659C95.6273 19.797 95.7845 19.5311 96.0475 19.5059C96.4476 19.5125 96.8049 19.6743 97.0559 20.0165C97.2057 20.1139 97.1743 20.3685 97.369 20.3685C97.3115 20.0649 97.4118 19.7864 97.3991 19.4747C97.1375 19.0411 96.4858 19.3766 96.2416 18.8667L95.7785 18.8979C95.446 18.9794 95.5343 19.364 95.4908 19.6252C95.4527 19.7048 95.3777 19.7671 95.3831 19.8659Z" fill="white"/>
<path fill-rule="evenodd" clip-rule="evenodd" d="M97.6841 22.5809C97.8775 22.9655 98.3043 23.2572 98.3472 23.6975C98.4469 23.5801 98.5164 23.4436 98.5847 23.3129C98.578 23.1889 98.4341 23.1889 98.3786 23.0895C98.3211 22.9284 98.4087 22.7858 98.4341 22.6426C98.3525 22.4132 98.1578 22.1963 97.9397 22.0591L97.6841 22.5809Z" fill="white"/>
<path fill-rule="evenodd" clip-rule="evenodd" d="M98.4531 21.5999L98.9034 22.2086C99.0968 21.905 99.0968 21.4574 99.0219 21.0914C98.979 21.0224 98.8967 20.911 98.785 20.9614C98.6157 21.1345 98.5903 21.4017 98.4531 21.5999Z" fill="white"/>
<path fill-rule="evenodd" clip-rule="evenodd" d="M96.6177 4.61496C96.7803 4.69585 96.9368 4.77012 97.1322 4.78271C97.2627 4.71442 97.4327 4.66403 97.5952 4.70845C97.8268 4.85764 98.1085 4.67729 98.3781 4.68989C98.1399 4.46643 97.8696 4.32918 97.5952 4.19922C97.244 4.27282 96.9629 4.52147 96.6177 4.61496Z" fill="white"/>
<path fill-rule="evenodd" clip-rule="evenodd" d="M99.0669 5.19694C99.3988 5.22811 99.6376 5.51986 99.8618 5.76187C100.143 5.80431 100.356 6.00389 100.525 6.20812L100.42 5.8799C100.345 5.55036 100.137 5.29574 99.9247 5.03516C99.6243 5.05439 99.3292 5.08024 99.0669 5.19694Z" fill="white"/>
<path fill-rule="evenodd" clip-rule="evenodd" d="M75.6922 2.47607L75.8743 2.4953C76.3615 2.73732 77.1506 2.86131 77.1961 3.56217C76.7002 3.75512 76.2243 4.01504 75.8294 4.41222C75.5296 4.10854 74.9219 4.27563 74.8208 3.74252C74.9158 3.2386 75.0966 2.60537 75.6922 2.47607Z" fill="#FF6600"/>
<path fill-rule="evenodd" clip-rule="evenodd" d="M76.1632 5.62274C76.7335 5.57235 77.2843 5.65258 77.8733 5.60352C78.0165 5.66518 78.1664 5.78851 78.236 5.93173C78.2166 6.60209 78.0105 7.24194 77.9797 7.9302C77.7227 8.03497 77.4717 8.24715 77.4088 8.52564C77.1772 8.59393 76.9697 8.72986 76.7442 8.83529C76.6458 8.62509 76.6632 8.30815 76.8392 8.13376C77.0835 7.79295 77.7167 7.87252 77.6665 7.33278C77.8291 7.07286 77.6732 6.73735 77.6778 6.46483C77.6156 6.25929 77.5527 6.53313 77.453 6.5265C77.2528 6.56894 77.0467 6.58153 76.8707 6.48207C76.7388 6.34548 76.5775 6.23343 76.5387 6.04843C76.3627 5.96157 76.1572 5.82564 76.0688 5.64529L76.1632 5.62274Z" fill="#FF6600"/>
<path fill-rule="evenodd" clip-rule="evenodd" d="M76.8527 9.66692C77.1203 9.70538 77.4034 9.58603 77.6349 9.71731C77.586 9.80484 77.4535 9.8413 77.3472 9.8665L76.9269 10.0581C76.771 10.0217 76.8587 9.77301 76.8527 9.66692Z" fill="#FF6600"/>
<path fill-rule="evenodd" clip-rule="evenodd" d="M77.9471 4.48612C78.2155 4.39926 78.5045 4.22023 78.7922 4.30577C78.5861 4.51132 78.4236 4.77721 78.267 5.02586L77.4092 5.00729C77.5035 4.78318 77.7411 4.59818 77.9471 4.48612Z" fill="#FF6600"/>
<path fill-rule="evenodd" clip-rule="evenodd" d="M80.4601 4.28225C80.8168 4.22059 80.7974 4.67943 81.1232 4.69667C81.1808 4.77093 81.2624 4.83923 81.2303 4.95128C81.0416 5.02555 80.7666 4.98974 80.5538 5.03815C80.2714 4.88299 80.4541 4.39895 80.0092 4.43012C79.9844 4.39232 79.9349 4.31806 79.9964 4.29353C80.1343 4.24446 80.3169 4.26302 80.4601 4.28225Z" fill="#FF6600"/>
<path fill-rule="evenodd" clip-rule="evenodd" d="M80.2338 5.94353C80.3904 5.72604 80.6287 5.70814 80.8542 5.66504L82.4766 5.69488C82.5455 5.75787 82.4137 5.81356 82.4137 5.88783C82.314 5.98132 82.1694 6.00652 82.0817 6.09271C81.8689 6.09868 81.8876 6.34733 81.7377 6.45342C81.5055 6.68284 81.1668 6.57675 80.8977 6.54028C80.804 6.47132 80.6976 6.37849 80.6528 6.27307L80.5778 6.34733C80.6722 6.69544 80.6474 7.08002 80.717 7.43343L81.1052 7.68804C81.1112 8.25828 81.7879 8.10312 82.0817 8.42007C82.0128 8.62562 81.8749 8.79868 81.725 8.9724C81.4874 8.74298 81.217 8.59445 80.9299 8.49433C80.9044 8.16081 80.535 7.96123 80.3295 7.79413C80.2719 7.18544 80.2599 6.56482 80.1602 5.97535L80.2338 5.94353Z" fill="#FF6600"/>
<path fill-rule="evenodd" clip-rule="evenodd" d="M80.8234 9.77303H81.5755L81.4811 10.1636L80.7284 9.84729C80.711 9.78563 80.7792 9.76706 80.8234 9.77303Z" fill="#FF6600"/>
<path fill-rule="evenodd" clip-rule="evenodd" d="M82.1764 2.74306L82.7339 2.56934C83.0539 2.71786 83.3537 2.90352 83.6482 3.11504C83.8798 3.53675 83.843 4.10764 83.7359 4.57908C83.5665 4.76474 83.1971 4.57908 83.0599 4.8768H83.0338C82.8276 4.29396 82.2387 3.77147 81.6938 3.50624C81.7815 3.20787 81.8759 2.91612 82.1764 2.74306Z" fill="#FF6600"/>
</g>
<defs>
<clipPath id="clip0_3368_27459">
<rect width="107.25" height="27" fill="white" transform="translate(0.916504)"/>
</clipPath>
</defs>
</svg>
