<svg width="43" height="29" viewBox="0 0 43 29" fill="none" xmlns="http://www.w3.org/2000/svg">
<g clip-path="url(#clip0_3368_27606)">
<path d="M2.5834 17.3317C2.76092 17.8028 3.0067 18.2057 3.32077 18.5402C3.63485 18.8747 4.00693 19.1308 4.43703 19.3083C4.86718 19.4858 5.33485 19.5745 5.84009 19.5745C6.33169 19.5745 6.79251 19.4824 7.22266 19.298C7.6528 19.1136 8.02829 18.8542 8.34916 18.5197C8.67004 18.1851 8.91926 17.7858 9.09678 17.3215C9.27431 16.8572 9.36304 16.3384 9.36304 15.7648V6.9165H11.5137V21.2541H9.38353V19.9227C8.90562 20.4279 8.34232 20.8171 7.69373 21.0902C7.04509 21.3633 6.34533 21.4998 5.59431 21.4998C4.82961 21.4998 4.11616 21.3667 3.45388 21.1004C2.79165 20.8342 2.21811 20.4553 1.7334 19.9637C1.24868 19.4721 0.866309 18.8816 0.586405 18.192C0.306456 17.5024 0.166504 16.7344 0.166504 15.8877V6.9165H2.31713V15.7648C2.31713 16.3384 2.40587 16.8606 2.5834 17.3317Z" fill="#616161"/>
<path d="M15.2208 6.9165V12.1395C15.6987 11.6615 16.2517 11.2827 16.8798 11.0027C17.508 10.7228 18.1907 10.5828 18.928 10.5828C19.6928 10.5828 20.4096 10.7262 21.0787 11.0129C21.7478 11.2997 22.3281 11.6888 22.8196 12.1804C23.3112 12.672 23.7004 13.2523 23.9872 13.9214C24.2739 14.5905 24.4173 15.3006 24.4173 16.0516C24.4173 16.8026 24.2739 17.5092 23.9872 18.1714C23.7004 18.8337 23.3112 19.4107 22.8196 19.9022C22.3281 20.3938 21.7478 20.7829 21.0787 21.0697C20.4096 21.3564 19.6927 21.4998 18.928 21.4998C18.1907 21.4998 17.5046 21.3598 16.8696 21.0799C16.2347 20.8 15.6782 20.4211 15.2003 19.9431V21.254H13.1521V6.9165H15.2208ZM15.4563 17.4648C15.6406 17.9018 15.8967 18.2842 16.2244 18.6119C16.5521 18.9396 16.9345 19.1991 17.3714 19.3902C17.8084 19.5814 18.2795 19.677 18.7847 19.677C19.2763 19.677 19.7405 19.5814 20.1775 19.3902C20.6144 19.1991 20.9933 18.9396 21.3143 18.6119C21.6351 18.2842 21.8912 17.9018 22.0823 17.4648C22.2735 17.0279 22.3691 16.5568 22.3691 16.0516C22.3691 15.5463 22.2735 15.0718 22.0823 14.628C21.8912 14.1843 21.6351 13.7985 21.3143 13.4708C20.9933 13.1431 20.6145 12.8871 20.1775 12.7028C19.7405 12.5184 19.2763 12.4262 18.7847 12.4262C18.2931 12.4262 17.8289 12.5184 17.3919 12.7028C16.955 12.8871 16.5727 13.1431 16.2449 13.4708C15.9172 13.7985 15.6578 14.1843 15.4666 14.628C15.2754 15.0718 15.1798 15.5463 15.1798 16.0516C15.1798 16.5568 15.272 17.0279 15.4563 17.4648Z" fill="#616161"/>
<path d="M25.5845 13.9419C25.8576 13.2865 26.2331 12.7096 26.711 12.2112C27.1889 11.7128 27.7556 11.3202 28.411 11.0335C29.0665 10.7467 29.7765 10.6034 30.5412 10.6034C31.2922 10.6034 31.9886 10.7399 32.6304 11.013C33.2722 11.2861 33.8252 11.665 34.2894 12.1498C34.7537 12.6345 35.1156 13.208 35.375 13.8702C35.6344 14.5325 35.7641 15.2528 35.7641 16.0312V16.7071H27.2641C27.3324 17.1304 27.4689 17.523 27.6737 17.8848C27.8786 18.2466 28.1345 18.5607 28.4418 18.8269C28.749 19.0932 29.0972 19.3015 29.4864 19.4516C29.8756 19.6018 30.2886 19.677 30.7256 19.677C31.9682 19.677 32.9718 19.1649 33.7365 18.1408L35.2317 19.2468C34.7128 19.9432 34.071 20.4894 33.3064 20.8854C32.5417 21.2814 31.6814 21.4794 30.7256 21.4794C29.9473 21.4794 29.2202 21.3428 28.5442 21.0697C27.8683 20.7966 27.2812 20.4143 26.7828 19.9227C26.2844 19.4311 25.8918 18.8542 25.6051 18.1919C25.3183 17.5297 25.1749 16.8094 25.1749 16.0311C25.1748 15.2937 25.3114 14.5973 25.5845 13.9419ZM28.4623 13.1328C27.8819 13.6176 27.4962 14.2628 27.305 15.0684H33.675C33.4975 14.2628 33.1186 13.6176 32.5382 13.1328C31.9579 12.6481 31.2786 12.4057 30.5003 12.4057C29.7219 12.4057 29.0426 12.6481 28.4623 13.1328Z" fill="#616161"/>
<path d="M39.6352 13.3684C39.1983 13.8463 38.9798 14.4949 38.9798 15.3142V21.2541H36.9111V10.8081H38.9593V12.0985C39.2187 11.6752 39.5567 11.3407 39.9732 11.0949C40.3896 10.8491 40.8846 10.7262 41.4582 10.7262H42.175V12.6515H41.3148C40.632 12.6515 40.0722 12.8905 39.6352 13.3684Z" fill="#616161"/>
</g>
<defs>
<clipPath id="clip0_3368_27606">
<rect width="42" height="28" fill="white" transform="translate(0.166504 0.5)"/>
</clipPath>
</defs>
</svg>
