<svg width="114" height="25" viewBox="0 0 114 25" fill="none" xmlns="http://www.w3.org/2000/svg">
<g opacity="0.75">
<path d="M105.368 19.6206C105.368 18.0652 106.663 16.8032 108.258 16.8032C109.853 16.8032 111.147 18.0652 111.147 19.6206C111.147 21.1761 109.853 22.4372 108.258 22.4372C106.663 22.4372 105.368 21.1761 105.368 19.6206Z" fill="#86BC24"/>
<path d="M13.1958 12.1591C13.1958 10.3746 12.8421 9.05068 12.1346 8.18817C11.4263 7.32648 10.3533 6.89604 8.91075 6.89604H7.37624V17.8086H8.55028C10.1526 17.8086 11.3267 17.3456 12.0744 16.4162C12.8211 15.4885 13.1958 14.0692 13.1958 12.1591ZM18.6683 11.9733C18.6683 15.2244 17.7718 17.7295 15.9788 19.4879C14.1859 21.2472 11.6654 22.1268 8.41651 22.1268H2.10352V2.64551H8.85718C11.9898 2.64551 14.4083 3.44523 16.1126 5.04388C17.8161 6.64334 18.6683 8.95205 18.6683 11.9733Z" fill="#0F0B0B"/>
<path d="M36.1553 22.1268H41.1787V2.56396H36.1553V22.1268Z" fill="#0F0B0B"/>
<path d="M48.235 14.8299C48.235 16.0772 48.4023 17.0286 48.736 17.6824C49.0705 18.337 49.6307 18.6639 50.4184 18.6639C51.1978 18.6639 51.7489 18.337 52.0701 17.6824C52.3912 17.0286 52.5509 16.0772 52.5509 14.8299C52.5509 13.5892 52.3887 12.6533 52.0634 12.0215C51.7372 11.3881 51.1812 11.0709 50.3926 11.0709C49.6216 11.0709 49.0705 11.3864 48.736 12.0142C48.4023 12.6427 48.235 13.581 48.235 14.8299ZM57.6639 14.8299C57.6639 17.2063 57.0249 19.0601 55.7438 20.3889C54.4635 21.7186 52.6714 22.3838 50.3675 22.3838C48.1581 22.3838 46.3993 21.7039 45.094 20.3441C43.7869 18.9843 43.1338 17.1468 43.1338 14.8299C43.1338 12.4609 43.7736 10.6201 45.0548 9.30762C46.3358 7.99511 48.1321 7.33887 50.4452 7.33887C51.8744 7.33887 53.1389 7.64296 54.2344 8.2503C55.3307 8.85764 56.1771 9.72748 56.7716 10.8606C57.367 11.9922 57.6639 13.3161 57.6639 14.8299Z" fill="#0F0B0B"/>
<path d="M59.6602 22.127H64.6844V14.64V7.5957H59.6602V22.127Z" fill="#0F0B0B"/>
<path d="M59.6587 5.83772H64.683V2.56299H59.6587V5.83772Z" fill="#0F0B0B"/>
<path d="M74.8625 18.4204C75.5408 18.4204 76.3485 18.2524 77.291 17.919V21.5752C76.6136 21.8655 75.9697 22.0734 75.3576 22.1965C74.7454 22.3212 74.027 22.3831 73.205 22.3831C71.5182 22.3831 70.3023 21.9698 69.5555 21.1448C68.8121 20.3198 68.4391 19.053 68.4391 17.3435V11.3532H66.6797V7.59668H68.4391V3.88579L73.502 3.02734V7.59668H76.7074V11.3532H73.502V17.0092C73.502 17.95 73.956 18.4204 74.8625 18.4204Z" fill="#0F0B0B"/>
<path d="M86.4913 18.4204C87.1695 18.4204 87.9774 18.2524 88.9199 17.919V21.5752C88.2434 21.8655 87.5985 22.0734 86.9863 22.1965C86.3734 22.3212 85.6575 22.3831 84.8338 22.3831C83.147 22.3831 81.9312 21.9698 81.186 21.1448C80.441 20.3198 80.068 19.053 80.068 17.3435V11.3532H78.3076V7.59668H80.068V3.82955L85.1299 3.02734V7.59668H88.3369V11.3532H85.1299V17.0092C85.1299 17.95 85.5839 18.4204 86.4913 18.4204Z" fill="#0F0B0B"/>
<path d="M95.2587 13.0593C95.3273 12.2636 95.5608 11.6807 95.9588 11.3082C96.3586 10.9364 96.8519 10.7506 97.4423 10.7506C98.0862 10.7506 98.598 10.9592 98.9777 11.3799C99.3598 11.7981 99.5589 12.3582 99.5748 13.0593H95.2587ZM102.344 9.05167C101.149 7.91036 99.4551 7.33887 97.2633 7.33887C94.9594 7.33887 93.1866 7.99511 91.9439 9.30762C90.702 10.6201 90.0806 12.5033 90.0806 14.9571C90.0806 17.3335 90.7522 19.1661 92.0919 20.4525C93.4324 21.7389 95.3147 22.383 97.7391 22.383C98.9032 22.383 99.9051 22.3055 100.745 22.1514C101.579 21.999 102.387 21.7234 103.171 21.3256L102.399 18.0509C101.829 18.2775 101.287 18.452 100.776 18.5669C100.036 18.734 99.2253 18.818 98.3421 18.818C97.3738 18.818 96.6094 18.5873 96.0491 18.1259C95.4888 17.6636 95.1902 17.0261 95.156 16.2142H104.136V13.9829C104.136 11.8364 103.539 10.1922 102.344 9.05167Z" fill="#0F0B0B"/>
<path d="M25.3359 13.0593C25.4044 12.2636 25.6378 11.6807 26.0357 11.3082C26.4347 10.9364 26.929 10.7506 27.5203 10.7506C28.1625 10.7506 28.6743 10.9592 29.0548 11.3799C29.4369 11.7981 29.6352 12.3582 29.6528 13.0593H25.3359ZM32.4216 9.05167C31.2266 7.91036 29.5331 7.33887 27.3405 7.33887C25.0356 7.33887 23.2636 7.99511 22.0217 9.30762C20.7799 10.6201 20.1577 12.5033 20.1577 14.9571C20.1577 17.3335 20.8284 19.1661 22.1698 20.4525C23.5095 21.7389 25.3919 22.383 27.8162 22.383C28.9803 22.383 29.9821 22.3055 30.8217 22.1514C31.6563 21.999 32.4643 21.7234 33.2487 21.3256L32.476 18.0509C31.9064 18.2775 31.3645 18.452 30.8536 18.5669C30.1127 18.734 29.3023 18.818 28.4191 18.818C27.4516 18.818 26.6865 18.5873 26.1262 18.1259C25.5651 17.6636 25.2674 17.0261 25.2331 16.2142H34.2129V13.9829C34.2129 11.8364 33.6158 10.1922 32.4216 9.05167Z" fill="#0F0B0B"/>
</g>
</svg>
