<svg width="87" height="29" viewBox="0 0 87 29" fill="none" xmlns="http://www.w3.org/2000/svg">
<g clip-path="url(#clip0_3368_27622)">
<path d="M51.3328 9.25019C49.5651 9.25019 47.8371 10.851 47.6384 13.1639V9.44087H45.0998V20.6669H47.6695V15.233C47.6695 13.7109 48.7484 11.5637 51.3328 11.5637V9.25019Z" fill="#616161"/>
<path d="M78.2875 18.8697V11.1785H79.776C81.7607 11.1785 83.3736 12.419 83.3736 14.9621C83.3736 17.5051 81.7607 18.8697 79.776 18.8697H78.2875ZM75.7443 20.6684H80.0863C82.7533 20.6684 86.0405 18.9317 86.0405 14.9621C86.0405 11.0545 82.7533 9.44183 80.0863 9.44183H75.7443V20.6684Z" fill="#616161"/>
<path d="M66.014 15.0863C66.014 13.0394 67.0684 11.3648 68.805 11.3648C70.4797 11.3648 71.4101 13.0394 71.4101 15.0863C71.4101 17.1331 70.4797 18.8078 68.805 18.8078C67.0684 18.8078 66.014 17.1331 66.014 15.0863ZM63.4089 15.2103C63.4089 18.5597 65.1455 20.9167 67.8746 20.9167C69.8594 20.9167 71.0378 19.6141 71.6582 17.5052V20.6686H74.2007V9.44197H71.6582V12.4192C71.1001 10.4344 69.9216 9.25589 68.061 9.25589C65.2696 9.25589 63.4089 11.7989 63.4089 15.2103Z" fill="#616161"/>
<path d="M5.49915 20.9167C2.33586 20.9167 0.475098 18.3736 0.475098 15.2103C0.475098 11.923 2.52193 9.25589 6.42952 9.25589C10.4612 9.25589 11.8257 11.985 11.8877 13.5356H8.97257C8.91053 12.6673 8.16623 11.3648 6.36749 11.3648C4.44471 11.3648 3.20421 13.0394 3.20421 15.0863C3.20421 17.1331 4.44471 18.8078 6.36749 18.8078C8.1042 18.8078 8.8485 17.4433 9.15864 16.0787H6.36749V14.9622H12.2243V20.6686H9.65484V17.0711C9.46877 18.3736 8.66243 20.9167 5.49915 20.9167Z" fill="#616161"/>
<path d="M17.4338 20.9165C15.0149 20.9165 13.5263 19.3039 13.5263 16.0785V9.44183H16.1313V16.0785C16.1313 17.7532 16.9376 18.5596 18.3022 18.5596C20.9693 18.5596 21.9617 15.2722 21.9617 12.9773V9.44183H24.5667V20.6684H22.0237V16.5127C21.5275 18.8077 20.163 20.9165 17.4338 20.9165Z" fill="#616161"/>
<path d="M40.1339 9.25C37.9113 9.25 36.5092 11.397 36.0515 13.3822C35.9733 10.7218 34.665 9.25 32.5718 9.25C30.7633 9.25 29.0854 10.8628 28.6496 13.4143V9.44098H26.1101V20.6678H28.6822V16.6431C28.6822 15.6452 29.0981 11.5505 31.6874 11.5505C33.3646 11.5505 33.5395 13.0635 33.5395 15.1316V20.6678H36.1104V16.6431C36.1104 15.6452 36.5436 11.5505 39.1327 11.5505C40.8087 11.5505 40.9818 13.0635 40.9818 15.1316V20.6678H43.5561V14.0272C43.5678 10.8414 42.443 9.25 40.1339 9.25Z" fill="#616161"/>
<path d="M56.851 9.25C53.5214 9.25 51.2652 11.8608 51.2652 15.0833C51.2652 18.634 53.4109 20.9166 56.851 20.9166C60.1807 20.9166 62.4769 18.3058 62.4769 15.0833C62.4769 11.5326 60.2896 9.25 56.851 9.25ZM56.851 18.9294C54.9126 18.9294 53.6571 17.2883 53.6571 15.0833C53.6571 12.8783 54.9169 11.2372 56.851 11.2372C58.7848 11.2372 59.9944 12.8783 59.9944 15.0833C59.9944 17.2883 58.7836 18.9294 56.851 18.9294Z" fill="#616161"/>
</g>
<defs>
<clipPath id="clip0_3368_27622">
<rect width="86.3333" height="28" fill="white" transform="translate(0.25 0.5)"/>
</clipPath>
</defs>
</svg>
