<svg width="202" height="60" viewBox="0 0 202 60" fill="none" xmlns="http://www.w3.org/2000/svg">
<path d="M6.8 35.6051C7.68 34.8184 8.43333 33.8517 9.06 32.7051C9.68667 31.5451 10 30.4517 10 29.4251C10 28.3984 9.8 27.5651 9.4 26.9251C9.01333 26.2851 8.55333 25.9651 8.02 25.9651C7.48667 25.9651 6.82 26.3784 6.02 27.2051C5.22 28.0317 4.5 29.1184 3.86 30.4651C3.22 31.7984 2.9 33.0784 2.9 34.3051C2.9 35.0384 3.06 35.6384 3.38 36.1051C3.7 36.5584 4.07333 36.7851 4.5 36.7851C5.16667 36.7851 5.93333 36.3917 6.8 35.6051ZM4.38 38.3651C3.5 38.3651 2.72667 37.9317 2.06 37.0651C1.40667 36.1984 1.08 35.3184 1.08 34.4251C1.08 33.2117 1.3 31.9784 1.74 30.7251C2.19333 29.4717 2.75333 28.3784 3.42 27.4451C4.1 26.5117 4.84667 25.7517 5.66 25.1651C6.47333 24.5651 7.22667 24.2651 7.92 24.2651C9.04 24.2651 9.97333 24.7784 10.72 25.8051C11.4667 26.8184 11.84 27.9651 11.84 29.2451C11.84 30.5251 11.4867 31.8717 10.78 33.2851C10.0733 34.6851 9.12667 35.8851 7.94 36.8851C6.76667 37.8717 5.58 38.3651 4.38 38.3651ZM19.9656 29.0451C20.019 28.8317 20.0723 28.6851 20.1256 28.6051C20.179 28.5251 20.2923 28.4851 20.4656 28.4851C20.6523 28.4851 20.8723 28.6584 21.1256 29.0051C21.3923 29.3517 21.5256 29.6851 21.5256 30.0051C21.5256 30.1784 21.2323 31.2051 20.6456 33.0851C20.059 34.9651 19.6056 36.4584 19.2856 37.5651C19.1256 38.1251 18.899 38.4051 18.6056 38.4051C18.4323 38.4051 18.2856 38.3317 18.1656 38.1851C18.0456 38.0384 17.9856 37.7717 17.9856 37.3851C17.9856 36.9984 18.139 36.2984 18.4456 35.2851C17.8856 36.1917 17.279 36.9384 16.6256 37.5251C15.9723 38.1117 15.3723 38.4051 14.8256 38.4051C14.2923 38.4051 13.7856 38.1517 13.3056 37.6451C12.8256 37.1384 12.5856 36.6184 12.5856 36.0851C12.5856 34.8184 12.9523 33.2384 13.6856 31.3451C14.4323 29.4384 15.0523 28.4851 15.5456 28.4851C15.7856 28.4851 15.9923 28.5984 16.1656 28.8251C16.3523 29.0384 16.4456 29.2851 16.4456 29.5651C16.4456 29.6851 16.2656 30.1184 15.9056 30.8651C15.5456 31.5984 15.1856 32.4651 14.8256 33.4651C14.4656 34.4517 14.2856 35.3184 14.2856 36.0651C14.2856 36.2784 14.3523 36.4584 14.4856 36.6051C14.619 36.7384 14.779 36.8051 14.9656 36.8051C15.4723 36.8051 16.0723 36.3584 16.7656 35.4651C17.4723 34.5717 18.1123 33.5317 18.6856 32.3451C19.259 31.1584 19.6856 30.0584 19.9656 29.0451ZM23.7145 30.9251L23.6545 29.4251C23.6545 28.7984 23.8012 28.4851 24.0945 28.4851C24.3479 28.4851 24.5879 28.6517 24.8145 28.9851C25.0545 29.3051 25.1745 29.6917 25.1745 30.1451C25.1745 30.5851 25.1612 30.9184 25.1345 31.1451C26.2945 29.3851 27.3945 28.5051 28.4345 28.5051C29.0879 28.5051 29.4145 28.6651 29.4145 28.9851C29.4145 29.1451 29.3412 29.2917 29.1945 29.4251C29.0479 29.5584 28.8145 29.7117 28.4945 29.8851C27.7879 30.1917 27.1879 30.6651 26.6945 31.3051C26.2145 31.9317 25.8212 32.6451 25.5145 33.4451C25.2079 34.2451 24.9612 34.9184 24.7745 35.4651C24.6012 36.0117 24.4679 36.4384 24.3745 36.7451C24.2812 37.0517 24.1745 37.3517 24.0545 37.6451C23.8412 38.1784 23.5945 38.4451 23.3145 38.4451C23.0879 38.4451 22.9012 38.3184 22.7545 38.0651C22.6212 37.7984 22.5545 37.5451 22.5545 37.3051C22.5545 37.0517 22.6679 36.5584 22.8945 35.8251C23.4412 34.1451 23.7145 32.5117 23.7145 30.9251ZM45.943 24.3451C46.2896 24.3451 46.643 24.5651 47.003 25.0051C47.3763 25.4451 47.563 25.8117 47.563 26.1051C47.563 26.3851 47.5096 26.5251 47.403 26.5251C47.3096 26.5251 47.123 26.4784 46.843 26.3851C46.563 26.2784 46.3096 26.2251 46.083 26.2251C45.563 26.2251 44.9296 26.4917 44.183 27.0251C43.4496 27.5584 42.7496 28.2184 42.083 29.0051C41.4296 29.7917 40.8696 30.6917 40.403 31.7051C39.9363 32.7051 39.703 33.5717 39.703 34.3051C39.703 35.0384 39.8896 35.5784 40.263 35.9251C40.6496 36.2584 41.1496 36.4251 41.763 36.4251C42.3763 36.4251 43.0096 36.3384 43.663 36.1651C44.3163 35.9784 44.8496 35.7717 45.263 35.5451C46.3296 34.9717 46.9163 34.6851 47.023 34.6851C47.2496 34.6851 47.363 34.8384 47.363 35.1451C47.363 35.4384 47.0563 35.8384 46.443 36.3451C45.8296 36.8384 45.0696 37.2851 44.163 37.6851C43.2563 38.0851 42.443 38.2851 41.723 38.2851C40.7896 38.2851 39.9096 37.8851 39.083 37.0851C38.2563 36.2717 37.843 35.3784 37.843 34.4051C37.843 33.1517 38.2496 31.7384 39.063 30.1651C39.8896 28.5784 40.943 27.2117 42.223 26.0651C43.5163 24.9184 44.7563 24.3451 45.943 24.3451ZM53.0756 24.5651C53.0756 27.0717 52.5556 30.3251 51.5156 34.3251C50.849 37.0451 50.3823 38.4051 50.1156 38.4051C49.929 38.4051 49.709 38.2584 49.4556 37.9651C49.2156 37.6717 49.0956 37.4451 49.0956 37.2851C49.0956 37.1251 49.289 36.2984 49.6756 34.8051C50.0623 33.3117 50.449 31.4784 50.8356 29.3051C51.2223 27.1184 51.4156 25.1517 51.4156 23.4051C51.4156 23.2184 51.4423 23.0851 51.4956 23.0051C51.549 22.9251 51.6623 22.8851 51.8356 22.8851C52.009 22.8851 52.2556 23.0784 52.5756 23.4651C52.909 23.8384 53.0756 24.2051 53.0756 24.5651ZM56.598 25.6451C56.598 25.3784 56.7046 25.1251 56.918 24.8851C57.1313 24.6451 57.3446 24.5251 57.558 24.5251C57.7846 24.5251 58.0513 24.7984 58.358 25.3451C58.6646 25.8784 58.818 26.3251 58.818 26.6851C58.818 26.8184 58.758 26.9384 58.638 27.0451C58.518 27.1517 58.3913 27.2051 58.258 27.2051C57.938 27.2051 57.578 27.0117 57.178 26.6251C56.7913 26.2384 56.598 25.9117 56.598 25.6451ZM56.498 28.4851C56.7513 28.4851 56.9913 28.6384 57.218 28.9451C57.4446 29.2517 57.558 29.5517 57.558 29.8451C57.558 30.1384 57.3646 31.0184 56.978 32.4851C56.5913 33.9384 56.1046 35.5717 55.518 37.3851C55.2913 38.0517 55.0046 38.3851 54.658 38.3851C54.4713 38.3851 54.3113 38.3117 54.178 38.1651C54.0446 38.0051 53.978 37.8317 53.978 37.6451C53.978 37.4451 54.0246 37.1384 54.118 36.7251C54.2246 36.2984 54.3713 35.7384 54.558 35.0451C54.758 34.3384 54.9113 33.7651 55.018 33.3251C55.138 32.8851 55.258 32.3917 55.378 31.8451C55.498 31.2851 55.5913 30.8384 55.658 30.5051C55.738 30.1584 55.8246 29.8117 55.918 29.4651C56.1046 28.8117 56.298 28.4851 56.498 28.4851ZM66.7836 31.8051C66.7836 32.5117 66.3969 33.0917 65.6236 33.5451C64.8636 33.9851 63.9969 34.2051 63.0236 34.2051C62.0636 34.2051 61.1903 34.0984 60.4036 33.8851C60.2169 34.4717 60.1236 34.9984 60.1236 35.4651C60.1236 35.9184 60.2636 36.2717 60.5436 36.5251C60.8369 36.7784 61.3103 36.9051 61.9636 36.9051C62.6303 36.9051 63.3103 36.7917 64.0036 36.5651C64.7103 36.3251 65.0969 36.2051 65.1636 36.2051C65.5103 36.2051 65.6836 36.3384 65.6836 36.6051C65.6836 36.9651 65.2769 37.3584 64.4636 37.7851C63.6503 38.1984 62.8569 38.4051 62.0836 38.4051C61.0436 38.4051 60.1969 38.0984 59.5436 37.4851C58.8903 36.8584 58.5636 36.0717 58.5636 35.1251C58.5636 34.1784 58.8169 33.1917 59.3236 32.1651C59.8303 31.1251 60.4836 30.2517 61.2836 29.5451C62.0836 28.8384 62.8769 28.4851 63.6636 28.4851C64.4503 28.4851 65.1636 28.8584 65.8036 29.6051C66.4569 30.3517 66.7836 31.0851 66.7836 31.8051ZM63.7636 30.0651C63.2703 30.0651 62.7569 30.3251 62.2236 30.8451C61.6903 31.3517 61.2369 31.9851 60.8636 32.7451C61.3969 32.8651 62.0036 32.9251 62.6836 32.9251C63.3636 32.9251 63.9569 32.8184 64.4636 32.6051C64.9703 32.3784 65.2236 32.0851 65.2236 31.7251C65.2236 31.3651 65.0569 30.9984 64.7236 30.6251C64.4036 30.2517 64.0836 30.0651 63.7636 30.0651ZM69.7675 34.9251C71.0475 32.7517 72.0875 31.1384 72.8875 30.0851C73.7008 29.0184 74.3608 28.4851 74.8675 28.4851C75.3875 28.4851 75.8742 28.7584 76.3275 29.3051C76.7942 29.8517 77.0275 30.4317 77.0275 31.0451C77.0275 32.0051 76.8075 33.1784 76.3675 34.5651C75.5675 37.1251 74.8475 38.4051 74.2075 38.4051C73.9142 38.4051 73.7675 38.2051 73.7675 37.8051C73.7675 37.5251 73.9075 36.9584 74.1875 36.1051C74.4808 35.2384 74.7475 34.3917 74.9875 33.5651C75.2408 32.7251 75.3675 32.0984 75.3675 31.6851C75.3675 31.2584 75.3008 30.9451 75.1675 30.7451C75.0475 30.5451 74.9208 30.4451 74.7875 30.4451C74.6675 30.4451 74.5408 30.4851 74.4075 30.5651C74.2742 30.6451 74.1208 30.7784 73.9475 30.9651C73.7875 31.1517 73.6342 31.3384 73.4875 31.5251C73.3408 31.6984 73.1542 31.9517 72.9275 32.2851C72.7142 32.6184 72.5342 32.9051 72.3875 33.1451C72.2408 33.3717 72.0275 33.7051 71.7475 34.1451C71.4675 34.5851 71.2542 34.9184 71.1075 35.1451C70.9608 35.3717 70.7675 35.6784 70.5275 36.0651C70.2875 36.4517 70.0942 36.7517 69.9475 36.9651C69.8142 37.1784 69.6608 37.4117 69.4875 37.6651C69.1542 38.1584 68.8875 38.4051 68.6875 38.4051C68.5008 38.4051 68.2808 38.2584 68.0275 37.9651C67.7742 37.6584 67.6475 37.3917 67.6475 37.1651C67.6475 37.0984 67.6942 36.9184 67.7875 36.6251C68.0408 35.8517 68.3208 34.8984 68.6275 33.7651C68.9342 32.6184 69.1008 31.3184 69.1275 29.8651C69.1675 28.8917 69.3075 28.4051 69.5475 28.4051C69.8408 28.4051 70.1342 28.5584 70.4275 28.8651C70.7208 29.1717 70.8675 29.5117 70.8675 29.8851C70.8675 30.2451 70.7542 30.9517 70.5275 32.0051C70.3142 33.0451 70.0608 34.0184 69.7675 34.9251ZM80.7116 36.4051C80.7116 36.6584 80.8582 36.7851 81.1516 36.7851C81.6582 36.7851 82.2716 36.6451 82.9916 36.3651C83.7249 36.0717 84.1316 35.9251 84.2116 35.9251C84.4516 35.9251 84.5716 36.0517 84.5716 36.3051C84.5716 36.6917 84.1716 37.1384 83.3716 37.6451C82.5849 38.1517 81.8649 38.4051 81.2116 38.4051C80.5716 38.4051 80.0382 38.2317 79.6116 37.8851C79.1849 37.5251 78.9716 37.1584 78.9716 36.7851C78.9716 36.4117 79.0516 35.9384 79.2116 35.3651C79.3716 34.7784 79.5982 34.0117 79.8916 33.0651C80.1982 32.1051 80.4382 31.3117 80.6116 30.6851C79.9849 30.8317 79.5649 30.9051 79.3516 30.9051C79.1382 30.9051 78.9249 30.7984 78.7116 30.5851C78.5116 30.3584 78.4116 30.1451 78.4116 29.9451C78.4116 29.6251 79.2782 29.3184 81.0116 29.0251C81.2516 27.9184 81.3716 26.9384 81.3716 26.0851C81.3716 25.6851 81.5049 25.4851 81.7716 25.4851C81.9982 25.4851 82.2782 25.6317 82.6116 25.9251C82.9449 26.2051 83.1116 26.5251 83.1116 26.8851C83.1116 27.2451 82.9982 27.8784 82.7716 28.7851C83.5316 28.7184 84.1382 28.6851 84.5916 28.6851C85.3916 28.6851 85.7916 28.8584 85.7916 29.2051C85.7916 29.4051 85.5716 29.5717 85.1316 29.7051C84.7049 29.8384 83.7982 30.0451 82.4116 30.3251C82.1316 31.3784 81.7782 32.5851 81.3516 33.9451C80.9249 35.2917 80.7116 36.1117 80.7116 36.4051ZM91.9259 28.4851C92.3793 28.4851 92.8059 28.7384 93.2059 29.2451C93.6059 29.7384 93.8059 30.1717 93.8059 30.5451C93.8059 30.7717 93.6993 30.8851 93.4859 30.8851C93.3393 30.8851 93.1126 30.7717 92.8059 30.5451C92.4993 30.3051 92.1859 30.1851 91.8659 30.1851C91.5459 30.1851 91.0393 30.3717 90.3459 30.7451C89.6659 31.1184 89.3259 31.5117 89.3259 31.9251C89.3259 32.2317 89.9393 32.7584 91.1659 33.5051C91.6326 33.7984 92.0526 34.1784 92.4259 34.6451C92.8126 35.0984 93.0059 35.5917 93.0059 36.1251C93.0059 36.6451 92.6393 37.1584 91.9059 37.6651C91.1859 38.1584 90.3393 38.4051 89.3659 38.4051C88.4059 38.4051 87.5526 38.1717 86.8059 37.7051C86.0726 37.2384 85.7059 36.7984 85.7059 36.3851C85.7059 36.2117 85.7459 36.0784 85.8259 35.9851C85.9193 35.8784 86.0326 35.8251 86.1659 35.8251C86.2993 35.8251 86.4859 35.9117 86.7259 36.0851C87.4459 36.6051 88.1926 36.8651 88.9659 36.8651C89.7526 36.8651 90.3193 36.7784 90.6659 36.6051C91.0126 36.4184 91.1859 36.1784 91.1859 35.8851C91.1859 35.5784 90.9926 35.2584 90.6059 34.9251C90.2193 34.5784 89.7926 34.2717 89.3259 34.0051C88.8726 33.7384 88.4526 33.4117 88.0659 33.0251C87.6793 32.6384 87.4859 32.2451 87.4859 31.8451C87.4859 31.1384 88.0393 30.4051 89.1459 29.6451C90.2659 28.8717 91.1926 28.4851 91.9259 28.4851Z" fill="#2D2D2D"/>
<path fill-rule="evenodd" clip-rule="evenodd" d="M123.054 34.5108C123.49 33.7678 123.862 33.1255 124.057 32.785C125.239 30.7102 128.764 25.9177 130.146 21.7382C131.201 18.5499 131.016 15.708 128.35 14.2555C125.927 12.9355 122.906 13.936 119.855 16.3398C113.288 21.5134 106.427 33.0673 105.205 37.1007C105.072 37.5411 105.301 38.0032 105.719 38.1341C106.135 38.2645 106.581 38.0151 106.714 37.5747C107.888 33.7044 114.488 22.6259 120.792 17.659C123.256 15.718 125.641 14.6658 127.597 15.7326C129.529 16.7844 129.414 18.9105 128.649 21.2218C127.305 25.2896 123.851 29.9356 122.699 31.9552C121.978 33.2216 119.099 37.9728 118.944 38.4404C118.751 39.0257 119.106 39.3269 119.23 39.4164C119.326 39.486 119.826 39.7998 120.323 39.243C127.414 31.3082 143.442 24.1654 158.788 23.5672C173.999 22.9742 188.576 28.8516 192.94 47.0683C193.047 47.5105 193.478 47.7723 193.901 47.6537C194.326 47.533 194.584 47.0765 194.478 46.6343C189.905 27.5473 174.697 21.2864 158.761 21.9075C145.331 22.4305 131.412 27.8722 123.054 34.5108Z" fill="#2D2D2D"/>
<path fill-rule="evenodd" clip-rule="evenodd" d="M193.361 45.9093C191.864 44.7662 190.408 43.5772 188.822 42.5571C184.598 39.8387 179.642 37.9632 174.638 37.6595C174.2 37.634 173.819 37.9847 173.785 38.4419C173.752 38.9016 174.079 39.2936 174.514 39.3207C179.264 39.6059 183.965 41.3998 187.972 43.9793C189.786 45.1478 191.43 46.5422 193.164 47.8291C193.251 47.8922 193.988 48.476 194.176 48.5537C194.614 48.7374 194.913 48.5178 195.04 48.3979C195.146 48.299 195.252 48.1543 195.311 47.9395C195.359 47.763 195.374 47.4073 195.299 46.929C195.061 45.3961 194.017 41.9141 193.903 41.3223C192.602 34.5391 192.483 27.9769 192.193 21.0748C192.172 20.6168 191.801 20.268 191.364 20.2968C190.927 20.3257 190.589 20.7218 190.608 21.1793C190.901 28.1688 191.031 34.8138 192.349 41.6792C192.425 42.0863 192.969 44.3136 193.361 45.9093Z" fill="#2D2D2D"/>
</svg>
