<svg width="83" height="20" viewBox="0 0 83 20" fill="none" xmlns="http://www.w3.org/2000/svg">
<path d="M5.4 15L0.3 0.999999H3.18L7.06 12.24L10.96 0.999999H13.82L8.72 15H5.4ZM15.1011 15V4.92H17.8011V15H15.1011ZM16.4611 3.54C15.9811 3.54 15.5811 3.4 15.2611 3.12C14.9544 2.82667 14.8011 2.46 14.8011 2.02C14.8011 1.58 14.9544 1.22 15.2611 0.94C15.5811 0.646666 15.9811 0.5 16.4611 0.5C16.9544 0.5 17.3544 0.646666 17.6611 0.94C17.9811 1.22 18.1411 1.58 18.1411 2.02C18.1411 2.46 17.9811 2.82667 17.6611 3.12C17.3544 3.4 16.9544 3.54 16.4611 3.54ZM24.2494 15.24C23.3294 15.24 22.5294 15.0933 21.8494 14.8C21.1694 14.5067 20.636 14.1 20.2494 13.58C19.8627 13.06 19.6427 12.4733 19.5894 11.82H22.2694C22.336 12.0733 22.4494 12.3067 22.6094 12.52C22.7694 12.72 22.9827 12.88 23.2494 13C23.516 13.12 23.836 13.18 24.2094 13.18C24.5694 13.18 24.8627 13.1333 25.0894 13.04C25.316 12.9333 25.4827 12.7933 25.5894 12.62C25.7094 12.4467 25.7694 12.2667 25.7694 12.08C25.7694 11.8 25.6894 11.5867 25.5294 11.44C25.3694 11.28 25.136 11.1533 24.8294 11.06C24.5227 10.9667 24.1494 10.8733 23.7094 10.78C23.2294 10.6867 22.756 10.5733 22.2894 10.44C21.836 10.2933 21.4294 10.1133 21.0694 9.9C20.7094 9.68667 20.4227 9.41333 20.2094 9.08C19.996 8.74667 19.8894 8.33333 19.8894 7.84C19.8894 7.24 20.0494 6.70667 20.3694 6.24C20.6894 5.76 21.156 5.38 21.7694 5.1C22.3827 4.82 23.1227 4.68 23.9894 4.68C25.2027 4.68 26.1627 4.95333 26.8694 5.5C27.576 6.04667 27.996 6.8 28.1294 7.76H25.5894C25.5094 7.45333 25.3294 7.21333 25.0494 7.04C24.7827 6.85333 24.4227 6.76 23.9694 6.76C23.4894 6.76 23.1227 6.84667 22.8694 7.02C22.616 7.19333 22.4894 7.42 22.4894 7.7C22.4894 7.88667 22.5694 8.05333 22.7294 8.2C22.9027 8.34667 23.1427 8.47333 23.4494 8.58C23.756 8.67333 24.1294 8.76667 24.5694 8.86C25.3427 9.02 26.0227 9.20667 26.6094 9.42C27.196 9.62 27.656 9.91333 27.9894 10.3C28.3227 10.6733 28.4894 11.22 28.4894 11.94C28.4894 12.58 28.316 13.1533 27.9694 13.66C27.6227 14.1533 27.1294 14.54 26.4894 14.82C25.8627 15.1 25.116 15.24 24.2494 15.24ZM34.1339 15.24C33.3206 15.24 32.6206 15.0733 32.0339 14.74C31.4606 14.3933 31.0206 13.8933 30.7139 13.24C30.4072 12.5733 30.2539 11.7533 30.2539 10.78V4.92H32.9539V10.5C32.9539 11.3133 33.1206 11.9267 33.4539 12.34C33.8006 12.7533 34.3272 12.96 35.0339 12.96C35.4872 12.96 35.8872 12.86 36.2339 12.66C36.5806 12.4467 36.8539 12.1467 37.0539 11.76C37.2672 11.36 37.3739 10.8733 37.3739 10.3V4.92H40.0539V15H37.6939L37.4739 13.36C37.1806 13.9333 36.7472 14.3933 36.1739 14.74C35.6006 15.0733 34.9206 15.24 34.1339 15.24ZM45.6981 15.24C44.8581 15.24 44.1648 15.1067 43.6181 14.84C43.0715 14.56 42.6648 14.1933 42.3981 13.74C42.1448 13.2733 42.0181 12.76 42.0181 12.2C42.0181 11.5867 42.1715 11.0467 42.4781 10.58C42.7981 10.1133 43.2715 9.74667 43.8981 9.48C44.5381 9.21333 45.3381 9.08 46.2981 9.08H48.7981C48.7981 8.58667 48.7315 8.18 48.5981 7.86C48.4648 7.52667 48.2581 7.28 47.9781 7.12C47.6981 6.96 47.3248 6.88 46.8581 6.88C46.3515 6.88 45.9181 6.99333 45.5581 7.22C45.2115 7.43333 44.9981 7.76667 44.9181 8.22H42.2981C42.3648 7.5 42.5981 6.88 42.9981 6.36C43.4115 5.82667 43.9515 5.41333 44.6181 5.12C45.2981 4.82667 46.0515 4.68 46.8781 4.68C47.8248 4.68 48.6448 4.84 49.3381 5.16C50.0315 5.48 50.5648 5.94 50.9381 6.54C51.3115 7.14 51.4981 7.88 51.4981 8.76V15H49.2181L48.9181 13.46C48.7715 13.7267 48.5981 13.9667 48.3981 14.18C48.1981 14.3933 47.9648 14.58 47.6981 14.74C47.4315 14.9 47.1315 15.02 46.7981 15.1C46.4648 15.1933 46.0981 15.24 45.6981 15.24ZM46.3381 13.16C46.6848 13.16 46.9915 13.1 47.2581 12.98C47.5381 12.8467 47.7781 12.6733 47.9781 12.46C48.1781 12.2333 48.3315 11.98 48.4381 11.7C48.5581 11.4067 48.6381 11.0933 48.6781 10.76V10.74H46.6181C46.2048 10.74 45.8648 10.7933 45.5981 10.9C45.3448 10.9933 45.1581 11.1333 45.0381 11.32C44.9181 11.5067 44.8581 11.72 44.8581 11.96C44.8581 12.2267 44.9181 12.4467 45.0381 12.62C45.1581 12.7933 45.3315 12.9267 45.5581 13.02C45.7848 13.1133 46.0448 13.16 46.3381 13.16ZM53.6169 15V0.599999H56.3169V15H53.6169ZM58.6089 15V4.92H61.3089V15H58.6089ZM59.9689 3.54C59.4889 3.54 59.0889 3.4 58.7689 3.12C58.4622 2.82667 58.3089 2.46 58.3089 2.02C58.3089 1.58 58.4622 1.22 58.7689 0.94C59.0889 0.646666 59.4889 0.5 59.9689 0.5C60.4622 0.5 60.8622 0.646666 61.1689 0.94C61.4889 1.22 61.6489 1.58 61.6489 2.02C61.6489 2.46 61.4889 2.82667 61.1689 3.12C60.8622 3.4 60.4622 3.54 59.9689 3.54ZM68.1772 15C67.4705 15 66.8505 14.8933 66.3172 14.68C65.7972 14.4533 65.3905 14.0867 65.0972 13.58C64.8039 13.06 64.6572 12.3533 64.6572 11.46V7.18H62.9372V4.92H64.6572L64.9572 2.18H67.3572V4.92H70.0172V7.18H67.3572V11.5C67.3572 11.9533 67.4572 12.2667 67.6572 12.44C67.8572 12.6133 68.1972 12.7 68.6772 12.7H69.9972V15H68.1772ZM73.1695 19.4L75.6095 13.88H75.0095L70.9695 4.92H73.9095L76.7895 11.42L79.3895 4.92H82.2495L76.0295 19.4H73.1695Z" fill="#2D2D2D"/>
</svg>
