<svg width="93" height="115" viewBox="0 0 93 115" fill="none" xmlns="http://www.w3.org/2000/svg">
<mask id="mask0_9073_21450" style="mask-type:alpha" maskUnits="userSpaceOnUse" x="31" y="51" width="95" height="79">
<path d="M60.5543 54.7611C82.5256 44.3903 112.764 62.577 123.073 84.544C133.376 106.52 108.276 111.762 86.2987 122.143C64.3274 132.513 44.9497 133.003 34.646 111.027C24.3423 89.0503 38.583 65.1319 60.5543 54.7611Z" fill="#DA3B9B"/>
</mask>
<g mask="url(#mask0_9073_21450)">
<path d="M60.5543 54.7611C82.5256 44.3903 112.764 62.577 123.073 84.544C133.376 106.52 108.276 111.762 86.2987 122.143C64.3274 132.513 44.9497 133.003 34.646 111.027C24.3423 89.0503 38.583 65.1319 60.5543 54.7611Z" fill="#DA3B9B"/>
<path d="M95.5701 55.7536C95.1471 55.9307 95.4939 56.1091 95.4699 56.2986C95.0222 56.6028 95.1518 56.2059 94.9234 56.1543C94.6523 56.3719 94.5321 56.7289 94.2997 56.8311C94.2574 56.796 94.2059 56.8008 94.232 56.7178C94.0095 57.0661 93.2948 57.2105 93.0809 57.6802C93.0411 57.6709 93.0087 57.6583 92.9988 57.6359C93.1298 57.7303 93.2116 57.8553 93.2503 57.9636C93.0803 58.0652 93.017 58.3077 92.862 58.179C92.9744 58.1296 92.9415 58.0546 92.9676 57.9716L92.8272 58.1407C92.5227 57.9973 93.0251 57.9195 92.9277 57.7387C92.6132 58.0201 92.314 58.438 92.0076 58.5548C91.8013 58.3504 92.5913 58.0924 92.1033 58.1013L92.5835 57.9527C92.0356 57.7643 92.8609 57.8307 92.3222 57.6025C91.7127 57.8437 91.7732 58.1033 91.1877 58.3787C91.152 58.5823 91.3483 58.5406 91.3051 58.7475C90.7045 59.4768 90.2991 58.5549 89.9746 59.2611C89.9437 59.5162 90.0896 59.8277 89.606 59.9689L89.5533 59.6253C89.0298 59.9808 89.5328 60.1889 88.8802 60.4133C88.8958 60.2454 89.2142 60.0338 89.1102 60.0617C88.6269 60.1222 88.9701 60.3738 88.7216 60.5815L88.5027 60.4094C88.0287 60.8773 87.5699 61.4816 87.0773 62.0292C87.0485 61.9434 87.0815 61.7948 86.9067 61.8448C86.6168 62.2228 86.2555 62.5606 85.8702 62.8642C85.4948 63.1903 85.1128 63.5014 84.7435 63.7802L84.6903 64.1882C84.6361 64.2478 84.509 64.2232 84.5318 64.1327C84.2283 64.3377 84.6361 64.2478 84.5905 64.4289C84.4726 64.5881 84.3206 64.5476 84.3428 64.3947C84.1176 65.0215 83.5625 66.017 83.0007 66.4072L83.0154 66.2576C82.649 66.6245 83.0848 67.0053 82.6432 67.2622L82.6627 67.1641C82.4873 67.3755 82.3152 67.5943 82.1712 67.8365C82.0348 68.0754 81.8834 68.3209 81.7544 68.5565C81.4782 69.0268 81.1757 69.4372 80.8345 69.7393C81.062 70.0329 80.2066 70.6506 80.6004 70.9157C80.1048 71.3752 80.118 71.1815 79.6155 71.9303C79.5024 72.141 79.7518 72.3623 79.69 72.6489L79.4559 72.564L79.5506 73.0233L79.1944 73.1084L79.1551 73.3851C79.2111 73.2889 79.3395 73.2145 79.4 73.2505C79.3493 73.6843 78.8719 74.1447 78.7523 74.1168L78.6113 75.1181C78.5258 75.0662 78.549 74.895 78.5304 74.7511C78.5897 75.3333 78.2519 74.7484 78.3022 75.2898C78.3738 75.2493 78.4299 75.3768 78.4763 75.401C78.2587 75.5773 78.0721 76.0887 77.9932 76.4991L77.864 76.3681C77.5779 77.0395 77.4252 77.8313 77.1355 78.5759C77.3085 78.3388 77.5648 78.4944 77.509 78.7336L77.2305 78.7309C77.3195 78.9333 77.405 78.5379 77.4826 78.8973C77.341 79.1653 77.1339 78.9791 77.1139 78.7911L77.07 79.1593C76.9861 79.1515 76.9798 79.0558 76.9019 79.0006C76.9909 79.203 76.4344 79.4835 76.6028 79.7851L76.5264 79.774C76.2226 80.507 76.1539 80.8592 75.8831 81.4435C76.0755 81.5556 75.9301 81.7537 75.9981 82.0101C75.719 82.3923 75.3151 82.7756 75.0314 83.2492C74.9168 83.6395 75.1279 83.4483 75.1537 83.6696C74.9744 83.5874 74.6724 84.0601 74.7178 83.736C74.3639 84.2942 74.2611 84.4468 73.8424 85.2034C73.9638 85.1947 74.0622 85.1335 74.0835 85.2226C74.0031 85.3653 73.78 85.4276 73.7255 85.3442L73.7315 85.2969C73.5327 85.76 73.0269 86.054 72.5496 86.2908C72.0789 86.5425 71.6226 86.7253 71.4456 87.1162L71.4657 87.0806C71.2945 87.2811 71.1266 87.4891 70.9446 87.6854C70.6148 87.8305 71.0552 87.4489 70.7609 87.4711C70.4943 87.8209 70.1969 87.9785 69.9064 88.0705C69.6257 88.185 69.3445 88.2371 69.0693 88.4655C68.905 88.3767 68.709 88.3377 68.5135 88.3611C68.4104 88.3706 68.3138 88.3952 68.2023 88.4264C68.095 88.4468 67.9835 88.4779 67.8761 88.4983L67.5383 88.5843C67.4201 88.6004 67.3095 88.6133 67.2064 88.6229C66.9851 88.6486 66.7849 88.6204 66.6215 88.5134L66.6584 88.6582C66.4866 88.7963 66.4575 88.5676 66.3346 88.5322C66.34 88.6461 66.5112 88.6692 66.4011 88.7445C65.6618 88.7923 64.8953 88.5748 64.2359 88.194C63.5689 87.8165 62.9898 87.2929 62.4514 86.7604C62.0639 86.3674 61.7043 87.1159 61.4196 86.3466L61.7515 86.3079C61.2305 86.0183 60.8358 85.5478 60.4893 85.0651C60.132 84.5782 59.8347 84.0649 59.4241 83.6194C59.5104 83.653 59.5821 83.6125 59.6357 83.7141C59.6801 83.4084 59.2024 82.9118 59.0674 82.9712C58.9916 82.7988 59.1751 82.8702 59.1964 82.7356C59.1874 82.4711 58.706 82.2714 58.8224 82.0682C58.8425 82.0325 58.912 82.1093 58.9435 82.1401C58.7876 82.0298 58.6594 81.4332 58.5196 81.6646C58.4433 81.2062 58.1028 80.8998 58.1001 80.5074C57.7806 80.3706 57.9444 79.7261 57.59 79.7746C57.9429 79.682 57.5991 78.9208 57.3465 78.692C57.4793 78.7499 57.375 78.4111 57.5551 78.475C57.4425 78.1578 57.2872 77.8862 57.1238 78.0028C57.3395 77.2728 56.3964 76.9183 56.8066 76.407C56.2938 75.5054 55.8407 74.6581 55.4007 73.8408C55.7545 73.73 55.8203 74.7745 56.1552 74.6003C55.6909 73.8295 55.2017 73.4901 54.9015 72.665C54.8466 72.4387 55.1008 72.7115 55.1904 72.7526C54.677 72.0123 54.4307 71.2083 53.8543 70.6299C53.8843 70.6167 53.9589 70.6644 54.0219 70.7261C53.9293 70.5969 53.8735 70.3888 53.7476 70.489L53.8669 70.5975C53.7883 70.9273 53.128 70.3411 52.9973 70.3896C53.5345 70.3501 52.6691 69.6842 53.3907 69.6978C53.3062 69.6276 53.1734 69.5697 53.0924 69.65C53.0298 69.5076 53.0592 69.4321 53.2543 69.4894C52.8752 69.0747 52.8251 69.3472 52.5448 68.9338C52.6132 68.8858 52.6944 68.9485 52.805 68.9356C52.5245 68.8264 52.2589 68.7107 52.0467 68.3299C52.1024 68.3143 52.1168 68.2454 52.1963 68.3446C51.7212 67.7932 51.1015 67.6453 50.6844 66.9612C51.0978 66.9046 50.5882 66.6814 50.7795 66.4452L50.4105 66.1961L50.4287 66.4206C50.167 66.1511 49.7899 66.0664 49.6248 65.7723C49.7186 65.8026 49.8158 65.8404 49.9129 65.8782C49.7372 65.7229 49.5424 65.5849 49.3625 65.4404L49.5798 65.7921C49.2021 65.6452 49.3525 66.0889 49.0456 65.6961C49.1385 65.7447 48.783 65.4448 48.7558 65.1795C48.5565 65.133 48.3463 65.0823 48.1851 64.858C48.1872 64.7408 48.4378 64.6395 48.4489 64.5631C48.156 64.6293 47.7259 64.0581 47.3814 64.1291C47.4771 64.1229 47.5781 64.0069 47.5766 63.9628L47.3278 64.0275C47.2328 63.8725 47.2313 63.8284 47.3305 63.749C46.937 63.4033 47.2375 64.1477 46.8404 63.6515C46.8911 63.665 46.8929 63.6284 46.9867 63.6587C46.5236 63.2362 45.9414 63.0718 45.5089 62.6985C45.526 62.3511 45.9645 62.9007 45.9433 62.588C45.2116 62.1853 44.3003 62.0046 43.6351 61.5905L43.7553 61.6808C43.4639 62.0147 43.3231 61.2268 42.8791 61.2343C42.9846 61.2505 43.1034 61.073 43.0542 61.1036C42.5806 60.8199 41.9873 60.732 41.1773 60.5784L41.3122 60.519C41.0445 60.2968 40.5337 60.1726 40.2226 60.0143C40.091 60.0811 39.9075 60.0098 39.9716 60.1962C39.5544 59.7357 39.0325 59.6879 38.5354 59.6561C38.03 59.6458 37.5545 59.6224 37.1376 59.3048C37.2539 59.3252 37.4221 59.2602 37.3348 59.2449L36.5194 59.201C36.5503 59.3932 36.6045 59.3335 36.7502 59.502C36.6318 59.5988 36.3955 59.6312 36.2061 59.6072C36.5796 59.5413 36.2538 59.3089 36.1096 59.1844C36.136 59.2444 36.0676 59.2923 36.0715 59.3622C35.698 58.9808 35.9545 59.7267 35.4195 59.4253L35.4573 59.3282C35.236 59.354 35.0294 59.4538 34.8118 59.4064C34.7387 59.1791 35.0465 59.33 35.0814 59.1447C34.7522 59.1284 34.4149 59.5004 34.1406 59.2633C34.2788 59.2114 34.4758 59.2321 34.614 59.1803C34.3124 58.9014 34.2765 58.962 34.0372 58.9062L34.0588 58.9146L33.5156 58.7778L33.655 58.8507C33.2322 59.3944 32.8234 58.9123 32.2765 59.2959C32.8 58.9405 32.3671 59.0951 32.4013 58.8475C32.2652 58.7821 32.0452 58.7089 32.1036 58.6385C31.8443 58.842 31.6603 58.4846 31.3074 58.8008C31.2819 58.7226 31.0322 58.8056 31.0787 58.6062C30.7375 58.6847 31.1638 58.7387 31.1443 58.8368C30.646 59.1275 29.8873 58.6024 29.1788 59.0661C28.5576 59.3214 28.4794 59.5705 27.9355 59.8187C27.7197 59.7347 28.0423 59.5123 28.0423 59.5123C27.7074 59.4628 27.4694 59.5317 27.187 59.6827C27.2313 59.6006 27.16 59.5604 27.0422 59.496C26.8074 59.5724 26.9495 59.814 26.6029 59.7786C26.6407 59.6815 26.6704 59.5253 26.7715 59.4093C26.5041 59.5537 26.2555 59.7614 25.9881 59.9059C25.8763 59.7941 26.1104 59.6553 26.189 59.5492C25.8742 59.6876 25.372 59.9085 25.342 60.1453L25.5689 60.1528C25.4565 60.2023 25.4556 59.9969 25.5324 59.9274C25.7645 59.6822 25.9566 59.875 25.9896 59.95L25.7971 60.0615C26.1232 60.4368 26.5955 59.7819 27.0323 59.6971L26.9369 60.07C27.0571 59.9366 27.1764 59.8215 27.3033 59.7031C27.4136 59.7709 27.5152 59.9409 27.3203 60.0266C27.6524 60.131 27.5596 59.8588 27.8575 59.9871C27.8932 60.0072 27.8773 60.0321 27.8581 60.0495L28.1297 59.8942C28.0854 59.9764 28.2254 60.1116 28.035 60.1059C28.5809 60.1878 28.8346 59.7274 29.0699 59.937L29.0249 59.9567C29.739 59.75 29.0591 59.7091 29.5826 59.3537L30.0169 59.914L30.0661 59.6598C30.1393 59.6634 30.2931 59.6674 30.2736 59.7654C30.5362 59.5694 30.2199 59.6637 30.3677 59.4914C30.7436 59.6749 31.3694 59.3282 31.4718 59.7035C31.599 59.5045 31.1223 59.5799 31.5036 59.4301C31.6301 59.8396 31.9479 59.342 32.2906 59.5313C32.1916 59.7537 31.8744 59.6427 32.2063 59.8278C32.4039 59.4635 32.852 59.8926 33.1224 59.8363C33.1402 59.5512 33.7289 59.7306 34.2014 59.6659C34.1669 59.7705 35.0668 59.8846 35.4802 60.0516L35.4592 60.1056C35.5759 59.8217 36.0178 59.9315 36.3445 59.9219C36.3031 60.0922 36.2306 60.151 36.0516 60.2118C36.1496 60.2313 36.2486 60.2325 36.3499 60.2595C36.4383 60.1759 36.5424 60.148 36.7402 60.1504L36.6239 60.3537C37.0244 60.4101 37.4765 60.2381 37.9543 60.511C38.0299 60.3167 37.6675 59.8589 38.2545 59.8512C38.2491 59.9609 38.2251 60.1504 38.0704 60.1647C38.1219 60.16 38.2601 60.1081 38.3372 60.1816L38.0739 60.3152C38.2946 60.4508 38.2341 60.1912 38.4217 60.2517C38.3812 60.4037 38.5284 60.3927 38.4714 60.5072C38.4166 60.5045 38.3296 60.4085 38.2397 60.4481C38.4489 60.5171 38.6753 60.6859 38.7163 60.8199C38.7208 60.7285 38.7703 60.6172 38.9307 60.6362C39.3252 60.7399 39.0188 60.8568 39.2169 61.0022C39.3419 60.9204 39.5566 61.1033 39.6298 60.8833C39.7377 60.9253 39.7323 61.035 39.7544 61.1058C39.9832 61.0767 40.6903 61.3829 40.5519 61.0681L40.5096 61.033C40.5096 61.033 40.5354 61.0306 40.5462 61.0348C41.2861 61.0493 41.8457 61.6709 42.5034 61.8647L42.474 61.9402C42.8919 62.0158 43.3106 62.2968 43.6566 62.2699C43.7678 62.3193 43.8451 62.5358 43.7543 62.5936C44.0573 62.6929 44.1299 62.6342 44.4578 62.973C44.1113 62.9376 44.4938 63.1361 44.1313 62.9019C44.4521 63.1633 44.4673 63.2998 44.9485 63.3565C44.7161 63.4587 45.0692 63.7327 45.2611 63.7825L45.0951 63.5067C45.2959 63.5973 45.4518 63.7076 45.596 63.8321L45.3642 63.9966C45.6139 64.3609 45.9868 64.4563 46.333 64.5723C46.6718 64.6917 46.9838 64.8318 47.0596 65.2278C47.3498 65.2165 46.7883 64.8551 47.0771 64.7997C47.3687 65.0561 47.4181 65.6158 47.5026 65.686C47.7885 66.1327 48.1328 65.695 48.4661 66.1478C48.479 66.0348 48.6046 65.7917 48.9712 66.0151C49.232 66.3029 49.0437 66.6272 48.8072 66.5166C48.7367 66.4581 48.7244 66.4098 48.7511 66.3892C48.6366 66.3322 48.4939 66.2518 48.5257 66.4257L48.6231 66.3828C48.7046 66.5885 49.0832 66.9408 48.8802 66.9675C49.1374 67.1048 49.0757 66.9441 48.9642 66.7516C49.2028 67.1924 49.4983 67.2949 49.7669 67.7225C49.7531 67.6301 49.7852 67.4997 49.8374 67.5573C50.239 68.1857 50.1869 67.6809 50.5547 68.029C50.6308 68.3444 50.2324 68.1707 50.646 68.4808C50.7596 68.7797 50.4964 68.6897 50.3627 68.6501C50.7875 68.8837 50.8072 69.376 50.9244 69.6017C50.8605 69.5583 50.7934 69.5073 50.722 69.4671C50.8464 69.5466 50.9076 69.6449 50.9837 69.7366L51.0536 69.5091C51.1129 69.644 51.1783 69.7316 51.1174 69.7762C51.306 69.8185 51.3072 69.496 51.616 69.6285C51.6459 69.839 52.0434 70.0309 51.8722 70.2314C51.6049 69.705 51.7085 70.4287 51.3824 70.0533C51.4603 70.1085 51.5289 70.2035 51.5883 70.3384C51.5757 70.3708 51.5325 70.354 51.5043 70.3306C51.6292 70.9197 51.8833 70.3786 52.2072 70.8712C52.0451 70.8889 52.0516 71.1275 52.1328 71.1902C52.0031 70.9968 52.2759 70.9663 52.4824 71.0901C52.5774 71.4688 52.7606 71.3972 52.8547 71.5704L52.7849 71.3507C52.9429 71.3438 53.0262 71.5129 53.2033 71.7123C53.1191 71.7851 53.0136 71.5453 53.0157 71.6517C53.3943 71.7804 53.1094 72.3529 53.4475 72.6336C53.4484 72.8389 53.2166 72.7798 53.2376 72.9495C53.6105 73.2686 53.2705 73.4718 53.6233 73.8265C53.7396 73.6232 53.6848 73.6205 53.9965 73.8412L53.5409 73.1918L54.0086 73.5229C53.913 73.3055 53.6875 73.1184 53.654 72.9811C53.8995 73.1325 53.8446 73.1298 53.9376 72.9547C53.8179 73.3741 54.3704 73.471 54.3529 73.8991L53.9182 74.0903C53.9442 74.6782 54.527 74.905 54.6737 75.6455L54.6714 75.396C54.8791 75.4209 54.856 75.8158 55.0073 76.0175C54.8517 76.0502 54.8511 76.2115 54.7899 76.3368C54.8949 76.2906 54.9625 76.8512 55.2794 76.8192L55.1906 77.2071C55.3005 77.8028 55.8363 77.7193 55.9696 78.2868C55.7514 78.177 55.7261 78.4654 55.4897 78.1311C55.5463 78.3209 55.5747 78.4873 55.6788 78.4594C55.6134 78.5955 56.0561 78.9107 55.9722 79.1265C56.0684 79.1826 56.2273 79.1574 56.2905 79.3622C56.2704 79.3979 56.2155 79.3951 56.2155 79.3951C56.2905 79.3622 56.4247 79.6878 56.5354 79.4513C56.2574 80.1818 57.132 81.0315 56.9317 81.6742C57.1439 82.055 57.3923 82.5182 57.5655 82.8714C57.5107 82.8687 57.4906 82.9044 57.4759 82.8303C57.5768 83.3852 58.0242 82.938 58.1473 83.5637C58.0618 83.9591 57.8763 83.334 57.8838 83.5544C57.4502 83.8703 58.2887 84.1903 58.2452 84.7014L58.1681 84.628C58.1792 84.9988 58.752 85.203 59.0155 85.6597C59.0155 85.6597 58.9564 85.6677 58.9438 85.7001C59.3656 85.8456 59.8401 86.3346 60.2312 86.6546C59.9809 86.6752 59.998 86.5514 59.9032 86.763C60.0756 86.9108 60.1146 86.4911 60.4552 86.7976C60.4644 86.9814 60.6221 87.2788 60.4991 87.467C60.3939 87.3702 60.2854 87.2658 60.1844 87.1582C60.1265 87.5146 60.586 87.563 60.7158 87.7564L60.6058 87.8316C61.1345 88.261 61.3474 88.0332 61.8936 88.4817L61.8849 88.3603C62.3813 88.3298 62.044 88.7018 62.4979 88.7169L62.4268 89.0433C62.6867 89.1258 63.3663 89.2473 63.8049 89.3496C63.4727 89.4689 62.9295 89.3321 62.5548 89.2733C62.7787 89.4163 63.3629 89.6871 63.5512 89.5864C63.4382 89.5735 63.2868 89.5954 63.2149 89.4928C63.6184 89.4137 64.0264 89.4669 64.5063 89.6225C64.3714 89.9055 64.6759 90.0489 65.0704 90.1527C65.4608 90.2672 65.917 90.3081 66.0906 90.5806C67.0481 90.4189 68.0032 90.6787 69.0894 90.362C68.5903 90 69.3949 90.2634 69.1938 89.8062C69.4219 89.7148 69.5077 89.686 69.5434 89.7061C69.8069 89.7154 70.0746 89.714 70.3498 89.7092C70.574 89.7716 70.172 89.8948 70.2331 89.9931C70.7734 89.8181 70.5287 90.0957 70.9337 90.0607C70.7862 89.9287 71.0114 89.7492 71.3268 89.6731C71.158 89.6758 70.9859 89.6709 70.8214 89.6628C71.1209 89.388 71.3005 89.3895 71.5016 89.3994C71.6995 89.4019 71.9039 89.4193 72.1762 89.1027C72.1351 89.1924 72.094 89.282 72.0496 89.3641C72.2031 89.2251 72.5108 89.0093 72.7935 88.7776C73.0696 88.5309 73.3077 88.2383 73.3428 87.9724C73.431 87.9694 73.583 88.0099 73.4768 88.155C74.2672 87.5927 74.7206 86.4272 75.3556 86.0406L75.4117 86.168C75.4854 86.0104 75.4231 85.7873 75.6546 85.7034C75.6818 85.7451 75.7106 85.8308 75.7574 85.7745C75.7952 85.6773 75.8807 85.2819 76.0675 85.1372L76.0665 85.3791C76.4053 85.0512 76.543 84.7133 76.615 84.3686C76.7086 84.0323 76.729 83.6923 76.8817 83.3479C77.1919 83.5245 77.6306 82.9559 77.8354 82.669L77.8777 82.7041C78.3851 81.7832 78.3624 80.9792 78.5913 80.0556C79.1757 79.6554 79.4496 78.2648 79.9623 77.4578C79.8505 77.5696 79.715 77.343 79.734 77.1826C79.8785 77.0027 79.7074 76.5323 79.9936 76.6748L79.9643 76.7503C80.3186 76.7018 80.3885 76.2506 80.5145 75.9269L80.1353 75.7359C81.0141 75.09 80.7511 73.4345 81.4488 73.1903C81.4347 72.955 81.5313 72.7067 81.5247 72.4681L81.7322 72.5737C82.0219 72.0527 82.1808 71.8039 82.4594 71.1357L82.5484 71.3381C82.7343 70.988 82.1897 70.5835 82.3498 70.2357L82.6955 70.2894C83.0562 69.6656 83.6732 69.1975 83.7951 68.4372C83.8299 68.4756 83.9036 68.5416 83.8433 68.6486C84.0439 68.3725 84.7731 67.7119 84.3232 67.543C84.5752 67.7095 84.7594 66.9486 84.9139 66.5676L85.0554 66.7469C85.0362 66.317 84.9841 66.2595 85.206 65.8488C85.301 65.7801 85.4021 65.8878 85.2662 65.9654C85.5846 65.7538 85.2768 65.603 85.6528 65.3392C85.6492 65.4124 85.653 65.4822 85.6527 65.5629C85.9082 65.2895 85.8359 65.2676 85.8528 65.0008C85.9452 64.7634 86.3793 64.5098 86.5651 64.607C86.5124 64.4871 86.5292 64.2202 86.7151 64.0938C86.7907 64.1232 86.7679 64.2137 86.7619 64.2611C87.2853 63.9056 87.2431 63.4232 87.7018 63.2662C87.7582 63.313 87.8056 63.319 87.8463 63.31C87.485 63.6478 87.1855 63.9227 87.2056 63.887C87.3489 64.0297 87.6691 63.7815 87.6375 64.1979C87.7527 63.87 87.9156 63.2438 88.2631 63.0373C88.2889 63.0349 88.3179 63.04 88.3428 63.0559L88.326 63.099C88.4052 63.0553 88.4529 62.9806 88.4823 62.9051C88.6022 62.8524 88.6771 62.8194 88.7656 62.7358C88.9149 62.8311 89.1763 62.5104 89.3289 62.3896C89.1683 62.2277 89.3916 62.0847 89.0865 62.1027C89.1164 62.0895 89.0805 62.15 88.977 62.2402C88.9611 62.2651 88.9344 62.2858 88.9293 62.3149L88.9194 62.2924C88.831 62.376 88.6967 62.4977 88.5548 62.6227C88.5971 62.4341 88.661 62.254 88.9165 62.2043C88.903 62.0313 88.8904 61.84 88.8949 61.7486C89.317 61.8134 89.8225 61.6 89.9934 61.7038C90.4084 61.244 91.091 60.7827 91.1598 60.2068C91.2734 60.0585 91.4026 60.1895 91.4932 60.2123C91.4338 60.301 91.3279 60.3655 91.3201 60.4494C91.5432 60.1634 92.1638 59.8458 92.0644 59.5585C92.5072 59.4264 92.0022 59.9258 92.4901 59.5502L92.4622 59.6698C93.0737 59.535 93.4003 59.1588 93.7577 58.7512C94.1109 58.3543 94.4974 57.9518 95.2382 57.948C95.1425 57.9543 95.091 57.9591 95.0487 57.924C95.4241 57.8215 95.7688 57.6699 96.122 57.4966C96.471 57.3342 96.8275 57.1685 97.1764 57.0061C97.872 56.6554 98.6104 56.4022 99.3779 56.3778C99.8054 56.3329 99.7862 56.1266 100.005 55.9321L100.159 56.1414L100.512 55.7628C101.083 55.4133 101.693 56.0484 102.396 55.5514L102.263 55.4129C102.55 55.3941 103.134 55.1552 103.121 55.3489C103.148 55.3099 103.181 55.1612 103.31 55.2299L103.337 55.3522C103.552 55.2308 103.78 55.1395 104.005 55.0406C104.557 55.0751 103.979 55.5526 104.767 55.4925C105.043 55.4071 105.559 55.0366 105.446 54.9613C105.324 54.97 105.14 54.9169 105.121 54.7913L105.393 54.6984C105.408 54.3252 105.604 53.9169 104.887 53.7312L104.429 54.0129L104.25 53.8501L104.656 53.7968C104.414 53.6529 104.281 53.8187 104.129 53.9395C104.082 53.8528 104 53.7901 103.907 53.7598L103.487 54.1681C103.409 54.0323 103.66 53.8503 103.332 53.8158C103.142 54.0154 103.582 54.0995 103.247 54.2736C102.993 54.1437 103.037 53.9992 102.8 54.1929C102.745 54.1095 102.793 54.0349 102.891 53.9737C102.675 54.1317 102.267 54.1409 102.191 54.3534C101.916 54.1969 101.408 54.5458 101.355 54.2022C101.302 54.3059 101.003 54.5808 100.798 54.644C101.091 54.1305 99.99 54.8205 99.976 54.3615C99.8845 54.5806 99.6264 54.6852 99.35 54.7889C99.0693 54.9034 98.7638 55.0019 98.542 55.189C98.5621 55.1533 98.599 55.0745 98.6463 55.0805C98.3534 55.1467 98.2365 55.0639 98.0279 55.0573C98.0965 55.376 97.6692 55.5639 97.5085 55.8492C97.0609 55.7062 97.5808 55.4239 97.3797 55.1903C97.4819 55.4226 96.8757 55.6714 97.0738 55.8168C96.7474 55.7457 96.8169 55.8224 96.5915 55.6353C96.6972 56.0182 96.3747 55.7933 96.2529 56.1063C95.8033 56.0804 96.0114 55.801 95.6453 56.0873C95.4043 56.068 95.7122 55.7716 95.7155 55.7791L95.7149 55.7167L95.5701 55.7536ZM87.1327 62.0943C87.1912 62.0238 87.2455 61.9642 87.2764 61.9327C87.2488 61.9717 87.2029 62.0097 87.1327 62.0943ZM86.4977 62.7045C86.5777 62.6425 86.6779 62.5448 86.778 62.447C86.8569 62.4839 86.8898 62.5589 86.8173 62.6176C86.8134 62.5478 86.6359 62.6527 86.4977 62.7045ZM88.8849 62.6207C88.8097 62.7343 88.744 62.7274 88.6975 62.7031C88.7401 62.6575 88.7977 62.6054 88.8561 62.5349C88.8529 62.5274 88.8463 62.5124 88.843 62.5049C88.8594 62.5424 88.8792 62.5874 88.8774 62.624L88.8849 62.6207Z" fill="white"/>
<path d="M83.7443 47.9033C83.497 48.012 83.758 48.2192 83.7823 48.3964C83.5445 48.6083 83.5542 48.2642 83.3899 48.1754C83.243 48.3295 83.2426 48.6338 83.111 48.7006C83.0762 48.6622 83.0472 48.6571 83.0433 48.5873C82.9731 48.8954 82.515 48.8912 82.452 49.2767C82.4196 49.2641 82.4022 49.2449 82.3848 49.2257C82.4966 49.3375 82.5785 49.4626 82.6213 49.56C82.523 49.6211 82.5346 49.8307 82.3989 49.6847C82.4663 49.655 82.4259 49.5834 82.422 49.5135L82.3641 49.6463C82.1237 49.4658 82.4529 49.482 82.3555 49.3012C82.1917 49.4985 82.0865 49.8489 81.891 49.8723C81.718 49.6621 82.2031 49.565 81.8659 49.4897L82.1588 49.4235C81.7532 49.1725 82.3237 49.351 81.9124 49.0667C81.5502 49.1992 81.6318 49.4049 81.2729 49.5448C81.2863 49.7178 81.4218 49.7208 81.4245 49.8896C81.1357 50.3923 80.6934 49.5492 80.5758 50.075C80.5949 50.2813 80.7667 50.5904 80.4399 50.5999L80.3338 50.2977C80.0238 50.4877 80.4276 50.7753 80.0034 50.8277C79.9848 50.6838 80.1698 50.5756 80.1074 50.5762C79.7618 50.5225 80.0732 50.8238 79.9248 50.9338L79.7327 50.741C79.4622 51.021 79.237 51.4241 78.954 51.7365C78.921 51.6615 78.9156 51.5476 78.7909 51.5488C78.4749 52.0098 77.901 52.2711 77.4261 52.5337L77.4516 52.8356C77.4207 52.867 77.317 52.8143 77.3164 52.7519C77.1107 52.8334 77.4132 52.8703 77.4069 52.9983C77.34 53.0904 77.1973 53.01 77.206 52.9078C77.0806 53.2939 76.8287 53.9414 76.3802 54.0402L76.3739 53.9446C76.099 54.0923 76.5255 54.513 76.1853 54.5732L76.1847 54.5109C75.9469 54.7228 75.7538 54.9956 75.5475 55.2383C75.3595 55.482 75.1541 55.7066 74.8711 55.7952C75.0854 56.0588 74.3773 56.2182 74.7469 56.5297C74.3571 56.7011 74.3419 56.5647 73.929 56.9073C73.8321 57.0125 74.0633 57.2329 74.0219 57.4032L73.8045 57.2751L73.9055 57.6064L73.5889 57.5578L73.5658 57.729C73.6084 57.6834 73.7265 57.6672 73.7904 57.7107C73.766 57.9808 73.3364 58.1429 73.2219 58.086C73.1787 58.2928 73.158 58.4898 73.1298 58.69C73.0443 58.6381 73.0606 58.5326 73.0435 58.4328C73.1235 58.818 72.7869 58.3578 72.8537 58.7131C72.9235 58.7092 72.9739 58.8033 73.0128 58.8309C72.8123 58.8833 72.6707 59.1513 72.6116 59.383L72.4783 59.2628C72.2492 59.5961 72.1427 60.0455 71.901 60.4112C72.0485 60.3195 72.2814 60.5033 72.2385 60.6295L71.9903 60.5329C72.0853 60.6879 72.1402 60.467 72.219 60.7275C72.103 60.8501 71.9108 60.6573 71.8914 60.5317L71.859 60.7428C71.7834 60.7134 71.7753 60.6543 71.7016 60.5883C71.7924 60.7541 71.3037 60.7007 71.4707 60.9582L71.3993 60.9181C71.1562 61.2397 71.1031 61.4241 70.901 61.6561C71.0541 61.8213 70.9342 61.874 70.9834 62.0671C70.8709 62.1165 70.7303 62.1426 70.6038 62.1803C70.4707 62.2031 70.3583 62.2526 70.2491 62.3095C70.1412 62.4911 70.295 62.4951 70.2761 62.6555C70.1745 62.4855 69.9487 62.6026 70.0093 62.415C69.7386 62.5519 69.6852 62.5933 69.3185 62.8172C69.3698 62.893 69.427 62.9215 69.4084 63.0013C69.3368 63.0417 69.2208 62.9407 69.2295 62.8385L69.252 62.8286C69.0352 62.9865 68.7456 62.8366 68.5268 62.6645C68.3047 62.4849 68.1299 62.3113 67.885 62.4458L67.915 62.4326C67.7669 62.462 67.6122 62.4764 67.4575 62.4907C67.3016 62.3804 67.6275 62.3891 67.555 62.2242C66.9991 62.3434 66.9536 61.8536 66.5214 61.8469C66.6162 61.188 65.6116 61.2631 65.5158 60.6791L65.4438 60.8002C65.2699 60.8319 65.3854 60.647 65.3449 60.5753C65.2855 60.6641 65.3584 60.7483 65.251 60.7687C64.4015 60.3015 63.8656 59.3475 63.2092 58.6075C62.9658 58.3388 62.5724 59.0307 62.4532 58.4749L62.723 58.3562C61.9682 58.1246 61.6094 57.37 60.893 57.1037C60.9638 57.0815 61.018 57.0219 61.0744 57.0686C61.0903 56.8201 60.6568 56.6887 60.5483 56.808C60.4755 56.7238 60.6203 56.6869 60.6257 56.5772C60.5873 56.3883 60.1778 56.5148 60.2426 56.3163C60.2552 56.284 60.3133 56.2942 60.3457 56.3068C60.206 56.3145 60.0094 55.9895 59.9395 56.2171C59.8017 55.9646 59.4833 55.9526 59.4069 55.7178C59.1346 55.8107 59.1365 55.3269 58.8721 55.5594C59.1233 55.2969 58.7004 55.0267 58.4576 55.044C58.57 54.9946 58.4225 54.8627 58.5658 54.7817C58.4108 54.6531 58.234 54.5967 58.1377 54.7643C58.1324 54.2031 57.3553 54.5717 57.5554 54.0096C56.9759 53.7904 56.4705 53.5565 56.0026 53.3061C56.2397 53.0318 56.4852 53.6305 56.6984 53.3221C56.2052 53.1364 55.7951 53.2005 55.454 52.8317C55.3788 52.7217 55.6048 52.7475 55.6789 52.7328C55.1891 52.5547 54.9205 52.1271 54.4412 52.0338C54.4646 52.0057 54.5161 52.0009 54.5743 52.0111C54.4997 51.9634 54.4394 51.8468 54.3515 51.9927L54.4463 52.0048C54.422 52.2749 53.8751 52.2112 53.7933 52.3098C54.1894 52.0104 53.4987 51.9653 54.0296 51.6066C53.964 51.5997 53.8567 51.62 53.8039 51.7237C53.7451 51.6512 53.767 51.5789 53.9052 51.5271C53.5914 51.4236 53.5922 51.629 53.3542 51.4743C53.4052 51.4071 53.4634 51.4173 53.5434 51.3553C53.3321 51.4035 53.1315 51.4559 52.9651 51.2607C53.0035 51.226 53.0104 51.1603 53.0743 51.2038C52.7068 50.9987 52.258 51.1782 51.9459 50.8145C52.247 50.5837 51.8701 50.6421 52.0009 50.3699L51.7392 50.324L51.7526 50.497C51.5677 50.3815 51.2988 50.4819 51.1831 50.3002L51.386 50.2736C51.2565 50.2232 51.1378 50.177 51.0083 50.1266C51.0563 50.195 51.1117 50.26 51.1555 50.3392C50.8902 50.3664 50.992 50.6794 50.7858 50.4749C50.8482 50.4744 50.6 50.3778 50.5883 50.1682C50.451 50.2018 50.3095 50.2461 50.2028 50.1052C50.2115 50.003 50.3818 49.8207 50.3887 49.7551C50.186 49.9247 49.9055 49.5919 49.6728 49.7748C49.737 49.7376 49.8098 49.5982 49.8117 49.5616L49.6431 49.7073C49.582 49.609 49.5838 49.5724 49.6441 49.4654C49.392 49.299 49.5703 49.8467 49.3212 49.5448C49.3545 49.5391 49.3488 49.5058 49.4186 49.5019C49.1369 49.268 48.7408 49.3438 48.484 49.1258C48.5068 48.8117 48.7789 49.1661 48.7742 48.8908C48.3158 48.7436 47.7342 48.8652 47.3311 48.64L47.4015 48.6985C47.203 49.081 47.1533 48.3782 46.8685 48.5035C46.9351 48.4921 47.0106 48.2979 46.9864 48.3443C46.7043 48.1911 46.3424 48.2429 45.8544 48.2518L45.9395 48.1607C45.7887 48.0213 45.4788 47.9877 45.3079 47.8839C45.2228 47.975 45.1148 47.933 45.1433 48.0994C44.6739 47.3577 43.9441 48.1796 43.4924 47.6C43.5581 47.6069 43.6573 47.5275 43.61 47.5215L43.1318 47.5529C43.1444 47.7442 43.1845 47.6728 43.2538 47.8302C43.1827 47.933 43.0478 47.9924 42.9315 47.972C43.1488 47.8764 42.9684 47.6695 42.8857 47.5627C42.8938 47.6218 42.8578 47.6824 42.8551 47.7372C42.6486 47.3897 42.7747 48.1035 42.4788 47.858L42.5091 47.7641C42.3826 47.8019 42.2633 47.917 42.1329 47.8849C42.0996 47.6669 42.2729 47.7965 42.2927 47.6178C42.1023 47.6121 41.9005 47.9871 41.7458 47.7778C41.8259 47.7158 41.9431 47.7179 42.0223 47.6741C41.8487 47.4016 41.8301 47.4813 41.6931 47.4342L41.7006 47.4309L41.391 47.3167L41.468 47.3901C41.2206 47.9462 40.9838 47.4689 40.6756 47.846C40.9721 47.483 40.7221 47.6466 40.7413 47.4056C40.6601 47.3429 40.5315 47.2743 40.5642 47.2062C40.422 47.4119 40.3037 47.0614 40.0947 47.359C40.08 47.285 39.9334 47.3584 39.9541 47.1615C39.7527 47.2322 40.0135 47.2964 39.994 47.3944C39.7127 47.6702 39.2475 47.1413 38.8535 47.5471C38.5027 47.7461 38.485 48.0312 38.175 48.2212C38.0407 48.1193 38.2152 47.9262 38.2152 47.9262C38.0102 47.8465 37.8687 47.8908 37.7194 48.0191C37.738 47.9393 37.6924 47.8968 37.6154 47.8233C37.4805 47.8826 37.5892 48.13 37.38 48.061C37.392 47.9663 37.3992 47.82 37.4445 47.7196C37.2961 47.8296 37.1731 48.0178 37.028 48.1353C36.9462 48.0103 37.0721 47.9102 37.1141 47.8022C36.9324 47.9179 36.6509 48.0507 36.6542 48.2818C36.694 48.2911 36.7522 48.3013 36.7921 48.3106C36.7246 48.3403 36.7013 48.1448 36.7405 48.0918C36.8536 47.8811 36.9966 48.1044 37.0262 48.1719L36.9195 48.2546C37.1706 48.6629 37.3692 48.0568 37.6204 48.0179L37.5991 48.3761L37.7808 48.0368C37.8579 48.1102 37.9262 48.2859 37.8236 48.3579C38.0227 48.485 37.9481 48.2137 38.1312 48.3657C38.1519 48.3924 38.151 48.4107 38.1393 48.4248L38.2886 48.2965C38.2667 48.3687 38.3617 48.5237 38.2496 48.4925C38.5767 48.626 38.6841 48.1583 38.8345 48.3784L38.8111 48.4066C39.2009 48.2352 38.8088 48.1572 39.096 47.834L39.3756 48.4088L39.3916 48.1603C39.3916 48.1603 39.5229 48.1741 39.5216 48.273C39.6629 48.0857 39.4788 48.1756 39.5643 48.0038C39.793 48.1984 40.1327 47.8522 40.2052 48.2407C40.2658 48.0531 39.9995 48.0986 40.2112 47.9697C40.2969 48.3882 40.4684 47.8834 40.6648 48.0654C40.6099 48.2864 40.4357 48.1751 40.6245 48.3604C40.7274 47.9842 40.9876 48.4333 41.145 48.3641C41.1594 48.0715 41.4913 48.2565 41.7635 48.1636C41.7374 48.2467 42.2599 48.3568 42.488 48.489L42.4745 48.5397C42.5471 48.2573 42.8004 48.3248 42.9893 48.2864C42.9587 48.4609 42.9152 48.5248 42.8127 48.5967C42.875 48.5961 42.9257 48.6096 42.9838 48.6198C43.0432 48.5311 43.0966 48.4897 43.2147 48.4736L43.1457 48.6828C43.3718 48.7086 43.6428 48.491 43.9156 48.6841C43.9696 48.4815 43.7733 48.0758 44.1177 48.0048C44.1048 48.1178 44.0883 48.304 43.9951 48.3361C44.025 48.3229 44.1051 48.2608 44.1531 48.3292L43.9911 48.4899C44.1104 48.5984 44.0931 48.3556 44.1977 48.3901C44.168 48.5463 44.2538 48.5175 44.2184 48.6404C44.1884 48.6536 44.138 48.5594 44.0805 48.6116C44.195 48.6686 44.3176 48.7846 44.3478 48.9144C44.3523 48.823 44.3877 48.7001 44.4867 48.7013C44.716 48.7346 44.5241 48.9084 44.6401 49.0095C44.722 48.9109 44.8362 49.0485 44.8911 48.8276C44.96 48.842 44.9471 48.955 44.951 49.0248C45.0901 48.9547 45.4993 49.1325 45.4322 48.8579L45.404 48.8345L45.4265 48.8247C45.8768 48.6892 46.1867 49.1701 46.5923 49.1975L46.5629 49.273C46.8132 49.2524 47.0779 49.3864 47.292 49.2833C47.3567 49.3085 47.4035 49.4758 47.3333 49.5603C47.5237 49.5661 47.5714 49.4914 47.7701 49.6992C47.5578 49.7657 47.7853 49.8356 47.5596 49.7292C47.7578 49.8746 47.7514 50.0026 48.0677 49.9082C47.9133 50.0656 48.1297 50.2119 48.2586 50.1999L48.1696 49.9976C48.2893 50.0255 48.3855 50.0815 48.4817 50.1376L48.3204 50.3606C48.6162 50.8299 49.3286 50.2124 49.4217 50.8513C49.6217 50.7365 49.2497 50.6228 49.444 50.4747C49.6247 50.601 49.6579 51.0426 49.7185 51.0786C49.907 51.3445 50.14 50.8574 50.3702 51.096C50.3789 50.9938 50.468 50.7489 50.7156 50.7831C50.8997 50.9168 50.7578 51.2655 50.604 51.2616C50.5576 51.2373 50.5444 51.2073 50.5678 51.1791C50.4946 51.1755 50.3849 51.1701 50.4151 51.2999L50.4844 51.2337C50.5437 51.3686 50.7935 51.5092 50.66 51.6126C50.8471 51.6109 50.7934 51.5092 50.714 51.41C50.8885 51.6642 51.0881 51.6301 51.2934 51.8529C51.2788 51.7788 51.3025 51.67 51.3381 51.6901C51.6379 52.0055 51.5903 51.6329 51.8633 51.7453C51.9299 51.9576 51.6304 52.0088 51.9394 52.0607C52.0368 52.2415 51.8363 52.2939 51.743 52.326C52.0665 52.309 52.0991 52.6882 52.2001 52.7958L52.0431 52.7844C52.1345 52.7889 52.1875 52.8282 52.2514 52.8717L52.2871 52.6681C52.3351 52.7365 52.3989 52.78 52.3479 52.8471C52.4828 52.7878 52.4688 52.5524 52.7026 52.4943C52.7395 52.6391 53.039 52.5879 52.9283 52.8244C52.6915 52.5708 52.8144 53.0534 52.553 52.9269C52.6186 52.9338 52.6684 52.9656 52.7229 53.0489C52.7178 53.078 52.6846 53.0837 52.6555 53.0786C52.7987 53.445 52.9421 52.9168 53.2182 53.1174C53.0997 53.2142 53.124 53.3914 53.1938 53.3875C53.0802 53.3122 53.2787 53.1533 53.4409 53.1357C53.5548 53.354 53.6867 53.2065 53.7671 53.2874L53.6885 53.1699C53.807 53.0731 53.8906 53.1615 54.0384 53.2128C53.9823 53.3091 53.878 53.1939 53.9002 53.2647C54.1841 53.1577 54.0548 53.6976 54.3441 53.7045C54.3734 53.8526 54.1935 53.9317 54.2289 54.0325C54.5473 54.0445 54.3449 54.3572 54.6507 54.4016C54.7046 54.1989 54.663 54.2262 54.9283 54.199L54.4816 54.0376L54.8875 53.9843C54.7781 53.8983 54.5794 53.9141 54.5323 53.8275C54.7362 53.7825 54.6978 53.8173 54.7392 53.647C54.7188 53.987 55.1379 53.74 55.2008 54.0254L54.9076 54.3959C55.0358 54.7689 55.523 54.5546 55.7802 54.9156L55.7142 54.7657C55.8851 54.6458 55.9457 54.9054 56.1018 54.9351C55.9933 55.0544 56.0254 55.1477 56.005 55.264C56.0718 55.172 56.2403 55.4736 56.4714 55.2467L56.4903 55.5336C56.7037 55.8154 57.0818 55.4344 57.3003 55.6872C57.1171 55.7588 57.1596 55.9369 56.9054 55.8877C56.9899 55.9579 57.0478 56.0487 57.118 55.9642C57.105 56.0772 57.4903 55.9972 57.4738 56.1834C57.5595 56.1546 57.6714 56.0428 57.7658 56.1355C57.7532 56.1678 57.719 56.1918 57.719 56.1918C57.7658 56.1355 57.9366 56.2392 57.9648 56.039C57.906 56.6373 58.7199 56.6372 58.6689 57.1516C58.8904 57.2688 59.1392 57.4278 59.3157 57.5648C59.2708 57.5846 59.269 57.6211 59.245 57.587C59.3801 57.8943 59.6848 57.3667 59.8397 57.719C59.8061 58.0289 59.6095 57.7039 59.6281 57.8478C59.3213 58.269 59.9872 58.0745 59.9649 58.4511L59.896 58.4367C59.9166 58.687 60.3585 58.5731 60.5564 58.7992C60.5564 58.7992 60.5114 58.819 60.5096 58.8556C60.8358 58.7837 61.1784 58.9729 61.4398 59.0995C61.2374 59.1885 61.2785 59.0988 61.1738 59.288C61.2884 59.345 61.3637 59.0077 61.5885 59.1325C61.578 59.2713 61.6529 59.4619 61.5191 59.646L61.3318 59.5047C61.2367 59.797 61.568 59.696 61.6315 59.8202L61.5431 59.9038C61.8515 60.117 62.0503 59.8775 62.3336 60.1554L62.3714 60.0583C62.7392 59.9592 62.392 60.3087 62.7056 60.2691L62.5524 60.5512C62.7119 60.5884 63.1306 60.6457 63.3597 60.7597C63.1024 60.846 62.7919 60.75 62.5583 60.7275C62.6635 60.8243 62.9396 61.0249 63.0937 60.9482C63.0248 60.9338 62.9249 60.9509 62.9178 60.8735C63.2149 60.7965 63.4583 60.8415 63.6687 61.0352C63.2363 61.4759 64.1312 61.619 63.9821 62.1139C64.507 62.2498 64.706 62.8242 65.2327 63.1472C65.3278 62.6313 65.3894 63.2393 65.6305 62.8112C65.76 62.8616 65.8023 62.8967 65.793 62.9365C65.8622 63.0939 65.9314 63.2513 66.0007 63.4087C66.0141 63.5817 65.831 63.4297 65.7782 63.5334C66.036 63.7331 65.7806 63.7828 65.916 64.0095C65.9649 63.8359 66.1403 63.8482 66.2761 63.9943L66.1526 63.6729C66.674 63.6583 66.3117 64.238 66.8639 64.1919L66.6616 64.2809C66.9101 64.2969 67.554 64.6219 67.8895 64.2865C67.9159 64.3465 67.9527 64.4913 67.8238 64.5033C68.1269 64.6025 68.4953 64.5657 68.829 64.4905C69.166 64.4228 69.4598 64.3383 69.7164 64.4133L69.6885 64.5329C69.8084 64.4802 69.8549 64.2808 70.0234 64.3588C70.0282 64.4104 70.0096 64.4901 70.0611 64.4853C70.1154 64.4257 70.3166 64.212 70.4779 64.2126L70.3957 64.3918C70.7201 64.3565 70.9228 64.1869 71.0616 63.9737C71.2103 63.7831 71.2919 63.5415 71.4646 63.385C71.663 63.6735 72.1202 63.4724 72.3202 63.3576L72.34 63.4026C72.8905 62.9458 72.9193 62.3606 73.1368 61.8177C73.665 61.7374 73.9227 60.8996 74.3664 60.5255C74.269 60.5684 74.1317 60.3783 74.1479 60.2728C74.2729 60.1909 74.103 59.8453 74.3767 60.0201L74.3566 60.0557C74.6798 60.1194 74.7332 59.8544 74.8294 59.6868L74.4703 59.4601C74.863 59.3768 74.974 59.0597 75.0691 58.7674C75.1642 58.4751 75.2401 58.2002 75.5467 58.2263C75.5216 58.0674 75.6011 57.943 75.5867 57.7884L75.7674 57.9146C76.007 57.6661 76.1123 57.5393 76.2991 57.1709L76.3716 57.3358C76.5344 57.1568 76.0281 56.7176 76.1436 56.5326L76.4589 56.6802C76.6955 56.3436 77.1791 56.2024 77.2035 55.7087C77.2382 55.7471 77.3045 55.8163 77.276 55.8736C77.4004 55.7294 77.9236 55.4546 77.5255 55.2003C77.7542 55.3949 77.8293 54.9146 77.886 54.6571L78.0274 54.8364C77.9447 54.5061 77.8926 54.4485 78.0149 54.1979C78.0749 54.1715 78.1792 54.2866 78.0869 54.3004C78.3141 54.2273 78.0446 54.0417 78.3136 53.9413L78.342 54.1077C78.5063 53.9728 78.4425 53.9293 78.4083 53.7297C78.4455 53.5702 78.7468 53.4824 78.9018 53.611C78.8341 53.4977 78.8107 53.3022 78.9414 53.2537C79.0053 53.2972 79.0017 53.3703 79.0041 53.3961C79.3695 53.2712 79.229 52.8499 79.5666 52.8446C79.6154 52.8947 79.6511 52.9148 79.6877 52.9166C79.4733 53.1003 79.294 53.2418 79.2916 53.216C79.4307 53.3695 79.6274 53.2472 79.681 53.5725C79.711 53.3357 79.7227 52.8743 79.9575 52.7979C79.9791 52.8063 80.0007 52.8147 80.0255 52.8306L80.0204 52.8596C80.0729 52.8366 80.093 52.8009 80.1032 52.7427C80.1847 52.7248 80.233 52.7125 80.2864 52.6711C80.4165 52.7839 80.5511 52.5815 80.6387 52.5162C80.493 52.3477 80.6246 52.2809 80.4037 52.226C80.4294 52.2236 80.4019 52.2625 80.3518 52.3114C80.3401 52.3255 80.3317 52.3471 80.3308 52.3653L80.3209 52.3429C80.2708 52.3917 80.1941 52.4613 80.1065 52.5266C80.1063 52.3836 80.1168 52.2448 80.2954 52.2646C80.2553 52.1123 80.2044 51.9558 80.1972 51.8785C80.52 52.0227 80.8561 51.9733 81.0036 52.1052C81.206 51.7926 81.6167 51.5672 81.5562 51.084C81.609 50.9802 81.7157 51.1212 81.7838 51.1538C81.7619 51.2261 81.7019 51.2525 81.7166 51.3265C81.8113 51.1149 82.1819 50.9608 82.0632 50.691C82.3501 50.6722 82.0887 50.9929 82.3597 50.7753L82.3693 50.8784C83.1739 50.9181 82.9394 49.6527 83.8957 49.8135C83.83 49.8066 83.801 49.8015 83.7662 49.7631C84.2105 49.6751 84.5781 49.4329 84.9639 49.1916C85.3522 48.9762 85.747 48.7757 86.2216 48.8174C86.4785 48.8118 86.436 48.6337 86.5223 48.4436L86.6587 48.652L86.8006 48.3034C87.0695 47.9793 87.5749 48.6605 87.8852 48.1662L87.7785 48.0253C87.9482 48.0044 88.2525 47.7811 88.2726 47.969C88.2852 47.9367 88.2741 47.7895 88.3628 47.8488L88.4156 47.9688L88.7385 47.6657C89.0602 47.6853 88.8131 48.1607 89.2532 48.0834C89.4007 47.9917 89.625 47.6068 89.5512 47.5408C89.4847 47.5522 89.366 47.506 89.3282 47.3795L89.4617 47.2761C89.4065 46.9068 89.4522 46.5021 89.0055 46.3407L88.7857 46.6342L88.6541 46.4774L88.8814 46.4042C88.7123 46.2639 88.6634 46.4375 88.599 46.5553C88.5594 46.4653 88.4998 46.4111 88.435 46.3859L88.2572 46.7951C88.1903 46.6635 88.2983 46.4818 88.1055 46.4503C88.03 46.6445 88.304 46.7387 88.1387 46.8919C87.9655 46.7623 87.9652 46.6193 87.8498 46.8043C87.8027 46.7176 87.8171 46.6487 87.8639 46.5923C87.761 46.7449 87.5191 46.744 87.5083 46.9634C87.3143 46.8072 87.0811 47.1513 86.9768 46.8126C86.9573 46.9106 86.8283 47.1462 86.7192 47.2031C86.8017 46.7196 86.2614 47.3419 86.1733 46.8976C86.1451 47.3215 85.6349 47.2596 85.439 47.5873C85.4409 47.5507 85.4553 47.4817 85.4843 47.4868C85.3137 47.5261 85.2226 47.4409 85.0955 47.4163C85.2016 47.7185 84.9806 47.8873 84.9248 48.1265C84.608 47.9349 84.8964 47.7365 84.7211 47.5005C84.8308 47.7296 84.486 47.8812 84.6391 48.0464C84.4134 47.9399 84.4722 48.0125 84.2875 47.8164C84.4233 48.1861 84.1823 47.9432 84.1613 48.2208C83.8714 48.1515 83.9488 47.9207 83.7658 48.1353C83.5998 48.0831 83.7503 47.8559 83.7503 47.8559L83.7404 47.8334L83.7443 47.9033ZM78.9902 51.8189C79.0253 51.7767 79.0562 51.7452 79.0721 51.7203C79.0529 51.7377 79.0295 51.7659 78.9902 51.8189ZM78.6107 52.1558C78.6673 52.122 78.7174 52.0731 78.7824 52.0177C78.8421 52.0719 78.8793 52.1361 78.8484 52.1676C78.8328 52.1118 78.7171 52.1537 78.6107 52.1558ZM80.4177 52.6849C80.3775 52.7563 80.331 52.732 80.2954 52.7119C80.322 52.6912 80.3496 52.6523 80.3847 52.61L80.3748 52.5875C80.3913 52.625 80.4078 52.6625 80.421 52.6924L80.4177 52.6849Z" fill="white"/>
<path d="M34.7577 75.2084C35.0572 75.3808 35.0444 75.0466 35.197 74.9258C35.5963 75.0811 35.2449 75.2178 35.2898 75.4216C35.5506 75.4858 35.8678 75.3732 36.0228 75.5018C36.0093 75.5524 36.0333 75.5866 35.955 75.6121C36.3235 75.5753 36.6283 76.0853 37.0732 76.0596C37.0788 76.0928 37.0737 76.1219 37.0578 76.1468C37.1091 75.999 37.1994 75.8788 37.2696 75.7943C37.3963 75.8995 37.626 75.8522 37.5471 76.039C37.4809 75.9697 37.4158 76.0251 37.3418 76.0398L37.5228 76.0854C37.4634 76.3978 37.2845 76.0113 37.1484 76.1696C37.4604 76.3096 37.9041 76.3829 38.0462 76.6245C37.9022 76.8667 37.5528 76.2959 37.6319 76.6994C37.5641 76.5861 37.4814 76.4793 37.4062 76.3693C37.3551 76.8837 37.2464 76.1891 37.1579 76.72C37.4873 77.1029 37.6765 76.9839 37.99 77.3917C38.1747 77.3641 38.1237 77.2076 38.3051 77.1726C39.0221 77.5013 38.221 78.0593 38.8491 78.1856C39.0778 78.1566 39.3728 77.9732 39.481 78.3818L39.168 78.4837C39.4674 78.8798 39.6962 78.4034 39.8712 78.9437C39.7132 78.9505 39.5421 78.7038 39.5601 78.7853C39.5834 79.2044 39.8499 78.8546 40.0121 79.0606L39.8367 79.2719C40.2027 79.6566 40.7134 80.0045 41.1049 80.4674C41.0233 80.4854 40.8929 80.4533 40.9031 80.6188C41.4489 81.148 41.7792 81.9598 42.0234 82.6575L42.3663 82.7661C42.3927 82.826 42.3366 82.9222 42.2611 82.8929C42.3348 83.1825 42.396 82.8335 42.5471 82.8923C42.6505 83.0257 42.5419 83.145 42.4307 83.0955C42.8618 83.4248 43.5392 84.1108 43.576 84.7029L43.4615 84.6459C43.5804 85.0587 44.1168 84.8139 44.1167 85.2612L44.042 85.2135C44.393 86.0521 45.0659 86.8295 45.0903 87.597C45.4555 87.5527 45.3747 88.4469 45.8193 88.2782C45.8429 88.8403 45.7044 88.7492 45.8713 89.454C45.9321 89.633 46.2574 89.5794 46.4054 89.7736L46.1806 89.8725L46.5523 90.0669L46.3484 90.3354L46.4866 90.5072C46.4686 90.4257 46.519 90.2962 46.593 90.2815C46.8364 90.5502 46.7461 91.1177 46.6229 91.1629C46.7841 91.3872 46.9271 91.6105 47.0808 91.8381C46.981 91.8552 46.91 91.7343 46.8147 91.66C47.1875 91.979 46.6021 91.8071 46.921 92.1052C46.9645 92.0413 47.0724 92.0833 47.124 92.0785C47.0433 92.3019 47.144 92.7138 47.2725 93.0061L47.0905 92.9788C47.1549 93.5319 47.3605 94.1213 47.3631 94.7374C47.447 94.5216 47.7387 94.5543 47.7621 94.7497L47.4983 94.821C47.6574 94.9389 47.5996 94.6244 47.7923 94.8796C47.7581 95.1272 47.4991 95.0264 47.4065 94.8972C47.4386 94.9904 47.4631 95.087 47.4952 95.1802C47.4179 95.1874 47.3807 95.1232 47.2827 95.1037C47.4376 95.2324 46.9858 95.5474 47.2478 95.7363L47.1704 95.7434C47.0792 96.3292 47.0906 96.6194 46.9532 97.1003C47.1657 97.1767 47.062 97.3476 47.1684 97.5692C46.9716 97.9151 46.6262 98.228 46.4367 98.6513C46.383 98.9969 46.5599 98.8297 46.609 99.0227C46.4181 98.9547 46.2027 99.3803 46.1914 99.0901C45.9425 99.6021 45.8696 99.7415 45.6108 100.455C45.7256 100.431 45.8057 100.369 45.8419 100.451C45.7915 100.581 45.6042 100.663 45.5271 100.59L45.5256 100.546C45.3285 101.42 43.927 101.812 43.8915 102.606L43.8975 102.559L43.6653 103.251C43.4449 103.482 43.6555 103.005 43.4114 103.122C43.2362 103.923 42.6597 104.016 42.4546 104.607C42.078 104.585 41.8175 104.887 41.5452 105.204C41.2837 105.524 40.9923 105.858 40.6463 105.885L40.7665 105.975C40.7308 106.179 40.5768 106.032 40.4652 106.063C40.5456 106.144 40.6706 106.062 40.6427 106.182C40.1836 106.643 39.5714 106.939 38.949 107.07C38.33 107.208 37.7082 107.177 37.1323 107.109C36.9204 107.094 36.8499 107.26 36.7587 107.398C36.6718 107.526 36.5483 107.652 36.2881 107.426L36.4902 107.194C36.0234 107.292 35.55 107.152 35.1043 106.972C34.6519 106.777 34.2188 106.565 33.7421 106.417C33.8204 106.392 33.8639 106.328 33.946 106.372C33.8672 106.112 33.3207 105.967 33.223 106.091C33.107 105.99 33.27 105.954 33.2389 105.842C33.1433 105.625 32.6723 105.734 32.7014 105.515C32.7107 105.475 32.7863 105.505 32.8261 105.514C32.6615 105.506 32.348 105.098 32.3096 105.356C32.0905 105.041 31.6984 104.963 31.5741 104.66C31.2563 104.711 31.2045 104.125 30.9053 104.319C31.188 104.088 30.6677 103.637 30.3853 103.564C30.5217 103.549 30.3346 103.327 30.5118 103.303C30.3239 103.099 30.1042 102.945 29.9938 103.101C29.9972 102.438 29.0733 102.513 29.3249 101.946C29.0009 101.677 28.6993 101.398 28.4194 101.128C28.1511 100.843 27.8903 100.556 27.6445 100.261C27.9569 100.097 28.1358 100.931 28.4335 100.692C27.9117 100.197 27.4443 100.009 27.1392 99.3563C27.0934 99.1707 27.3221 99.3653 27.4126 99.3881C26.9259 98.8508 26.768 98.1867 26.3151 97.7061C26.3451 97.6929 26.4089 97.7364 26.4653 97.7832C26.3933 97.6806 26.3874 97.5044 26.2366 97.5886L26.3352 97.6704C26.211 97.9576 25.6568 97.45 25.542 97.4737C26.0558 97.4623 25.3823 96.8462 26.0613 96.9053C25.9984 96.8436 25.8838 96.7866 25.793 96.8444C25.7735 96.7188 25.8095 96.6583 25.9822 96.7255C25.7142 96.3603 25.6195 96.5719 25.4654 96.2013C25.5404 96.1684 25.5991 96.2409 25.7056 96.2389C25.4882 96.1108 25.2601 95.9786 25.1891 95.6341C25.244 95.6368 25.2875 95.573 25.3195 95.6662C25.0855 95.134 24.5627 94.8809 24.4971 94.2031C24.886 94.2736 24.5314 93.9555 24.8162 93.8302L24.622 93.531L24.5215 93.7094C24.4295 93.4188 24.1459 93.2215 24.167 92.9439L24.345 93.125L24.1368 92.5905L24.1163 92.9304C23.8762 92.6693 23.7649 93.0671 23.7308 92.6438C23.7788 92.7121 23.6463 92.35 23.7885 92.1443C23.6626 92.0208 23.5259 91.8931 23.5451 91.652C23.6261 91.5717 23.8803 91.6209 23.9304 91.5721C23.6522 91.4887 23.7077 90.8828 23.4098 90.7545C23.4844 90.8021 23.6433 90.777 23.6667 90.7488L23.4434 90.6681C23.4838 90.5161 23.5072 90.488 23.6352 90.4943C23.5903 90.0668 23.2878 90.7008 23.3505 90.1723C23.367 90.2097 23.3937 90.1891 23.4416 90.2574C23.4486 89.7445 23.1477 89.3044 23.1969 88.8265C23.477 88.6497 23.3168 89.221 23.5461 89.0307C23.4098 88.375 23.0184 87.6885 23.0542 87.0376L23.0263 87.1572C22.5934 87.0882 23.212 86.6641 22.9971 86.3382C23.03 86.4132 23.2378 86.4381 23.1913 86.4138C23.2462 85.9692 23.0635 85.5129 22.9613 84.8333L23.0707 84.9193C23.1748 84.6678 23.1632 84.2346 23.2391 83.9597C23.1372 83.8704 23.1744 83.7109 23.002 83.7867C23.3519 83.3824 23.3277 82.9816 23.3044 82.5624C23.2768 82.1541 23.2643 81.7392 23.613 81.4338C23.5902 81.5243 23.6528 81.6667 23.6747 81.5945C23.6889 81.3825 23.7255 81.1607 23.7546 80.9422C23.5642 80.9364 23.6239 80.9907 23.4473 81.0773C23.3721 80.9673 23.3346 80.7601 23.3901 80.6015C23.4071 80.925 23.6683 80.6849 23.8116 80.604C23.7493 80.6046 23.7046 80.5437 23.6464 80.5335C24.0713 80.3199 23.3071 80.3518 23.6843 79.9891L23.7697 80.041C23.7863 79.8548 23.723 79.6501 23.8334 79.4942C24.0636 79.5092 23.845 79.7038 24.006 79.785C24.1059 79.5443 23.8439 79.1318 24.147 79.0074C24.1407 79.1354 24.0786 79.279 24.0831 79.4112C24.4162 79.2737 24.3781 79.2278 24.4993 79.0761L24.4843 79.0827C24.5886 78.9742 24.6822 78.8615 24.7898 78.7605L24.6699 78.8132C24.5104 78.5524 24.5734 78.3905 24.6697 78.2229C24.7725 78.0704 24.9012 77.9154 24.8715 77.6243C24.9134 78.1873 24.9947 77.8027 25.1812 77.9622C25.3011 77.9095 25.4669 77.8187 25.4849 77.9002C25.451 77.6199 25.8015 77.7252 25.7665 77.3202C25.8378 77.3603 25.9101 77.1586 26.0267 77.322C26.1523 77.0789 25.8822 77.2782 25.8201 77.1981C25.8961 76.6996 26.695 76.706 26.8879 76.0666C27.1847 75.623 27.1101 75.3517 27.4516 74.9689C27.6636 74.983 27.4987 75.2792 27.4987 75.2792C27.7799 75.2271 27.9325 75.1063 28.1037 74.9057C28.0959 74.9897 28.1681 75.0116 28.276 75.0536C28.4394 74.937 28.2623 74.7376 28.545 74.7295C28.5438 74.8285 28.5549 74.9757 28.5087 75.0944C28.6781 74.9304 28.8145 74.6915 29.0163 74.5401C29.1248 74.6445 28.9638 74.7869 28.9218 74.8948C29.1386 74.7368 29.5044 74.5312 29.5194 74.301L29.3299 74.277C29.4199 74.2374 29.4432 74.4329 29.3889 74.4925C29.2309 74.723 29.0562 74.5494 29.0157 74.4778L29.1608 74.3603C28.9936 74.1834 28.832 74.2634 28.6818 74.41C28.5348 74.564 28.3927 74.7697 28.2353 74.8389L28.2093 74.4747C28.1406 74.6033 28.0851 74.7618 28.0197 74.8979C27.9043 74.8592 27.7677 74.7315 27.8954 74.5948C27.5878 74.587 27.7532 74.8005 27.4756 74.7794C27.4433 74.7668 27.4367 74.7518 27.4526 74.727L27.2946 74.9575C27.2991 74.866 27.1306 74.7881 27.2871 74.7371C26.7762 74.8366 26.8298 75.3855 26.5342 75.2829L26.551 75.2398C26.1301 75.7469 26.6532 75.4721 26.4883 75.9919C26.2724 75.9079 26.0632 75.839 25.8357 75.7691L25.9603 75.9915C25.907 76.0329 25.7969 76.1081 25.7424 76.0248C25.6806 76.3114 25.8428 76.0701 25.8578 76.2871C25.6689 76.3254 25.5393 76.4987 25.4149 76.6429C25.3013 76.7912 25.1894 76.9031 25.0144 76.8101C25.0851 77.0116 25.3184 76.6674 25.2065 77.0029C24.809 76.811 25.0281 77.3497 24.6959 77.469C24.5736 77.2723 24.8344 77.1128 24.5056 77.2396C24.6938 77.5862 24.114 77.6712 24.039 77.9278C24.2878 78.0868 23.859 78.4542 23.7759 78.8754C23.6914 78.8053 23.297 79.5154 23.0647 79.8412L23.0257 79.8136C23.2628 79.9867 23.0877 80.341 23.0549 80.6327C22.8856 80.573 22.8376 80.5046 22.8209 80.3242C22.7906 80.418 22.7537 80.4968 22.7417 80.5916C22.8103 80.6866 22.8349 80.7831 22.8226 80.9585L22.6343 80.8356C22.5431 81.1977 22.6878 81.6081 22.4542 82.0329C22.6494 82.0902 23.0853 81.8 23.1275 82.2824C23.0178 82.277 22.8208 82.2563 22.8089 82.1274C22.8179 82.1681 22.8706 82.2881 22.8046 82.3618L22.6584 82.131C22.5279 82.3225 22.7909 82.2695 22.7429 82.4248C22.5867 82.395 22.6094 82.5282 22.4907 82.482C22.4818 82.4412 22.5777 82.3543 22.5232 82.2709C22.4626 82.4586 22.3312 82.6684 22.2038 82.7245C22.2919 82.7215 22.4149 82.7569 22.4151 82.8999C22.3788 83.2647 22.2053 82.9922 22.0997 83.1996C22.1974 83.2997 22.0619 83.5204 22.2912 83.5537C22.2825 83.6559 22.1644 83.6721 22.0969 83.7017C22.1751 83.8999 22.0644 84.5837 22.3196 84.391L22.3439 84.3445L22.357 84.3745C22.5542 84.9855 22.1776 85.6342 22.2908 86.2374L22.2101 86.2371C22.3135 86.5941 22.3026 87.0372 22.4888 87.2774C22.4909 87.3838 22.3622 87.5388 22.2651 87.501C22.3505 87.7765 22.4302 87.7951 22.348 88.198C22.1811 87.9405 22.2362 88.3098 22.2219 87.9315C22.1855 88.2963 22.0746 88.3898 22.3392 88.7475C22.1243 88.6453 22.1153 89.0518 22.1953 89.2134L22.3077 88.9403C22.3611 89.1226 22.3637 89.2913 22.3772 89.4643L22.0939 89.41C21.9901 89.8045 22.1801 90.1145 22.342 90.4011C22.5146 90.692 22.6525 90.9444 22.4417 91.2786C22.6614 91.4325 22.4915 90.8631 22.7421 90.9855C22.7657 91.324 22.4806 91.7535 22.5084 91.8575C22.4841 92.3513 22.9868 92.1928 23.014 92.6817C23.0842 92.5972 23.325 92.4734 23.5033 92.7975C23.5602 93.1303 23.2328 93.3011 23.0988 93.1185C23.0658 93.0436 23.0901 92.9971 23.1234 92.9914C23.0548 92.8964 22.9804 92.7681 22.9142 92.9224L23.0197 92.9387C22.9774 93.1272 23.1128 93.5775 22.9327 93.5136C23.0939 93.7379 23.1128 93.5775 23.1045 93.3755C23.0852 93.8401 23.2998 94.023 23.3504 94.4838C23.3765 94.4008 23.4659 94.2989 23.4847 94.3621C23.577 95.0193 23.7416 94.5801 23.9346 94.9783C23.8803 95.2616 23.5737 95.0118 23.8482 95.392C23.8521 95.6854 23.6323 95.5316 23.5187 95.4564C23.8293 95.776 23.6754 96.2193 23.741 96.4499L23.5846 96.2772C23.6748 96.3806 23.7176 96.4781 23.7605 96.5755L23.8942 96.3915C23.9095 96.5279 23.9523 96.6253 23.8816 96.6475C24.0468 96.7179 24.1343 96.429 24.3972 96.5996C24.3732 96.7891 24.6916 97.0247 24.4931 97.1836C24.3537 96.6634 24.2838 97.3382 24.065 96.9425C24.1205 97.0076 24.1666 97.1125 24.1936 97.2348C24.181 97.2672 24.1345 97.2429 24.103 97.212C24.1158 97.7699 24.461 97.314 24.6794 97.7904C24.5182 97.7898 24.4848 98.0191 24.5511 98.0884C24.4654 97.8935 24.7256 97.8953 24.9063 98.0216C24.9623 98.3726 25.1413 98.3118 25.2138 98.4767L25.1689 98.2728C25.3269 98.266 25.3886 98.4267 25.5334 98.6134C25.4459 98.6788 25.3652 98.4548 25.3673 98.5613C25.7028 98.6731 25.4089 99.2049 25.7347 99.4373C25.729 99.6277 25.5039 99.5836 25.5215 99.7457C25.8821 100.017 25.567 100.236 25.9267 100.525C26.0248 100.321 25.9732 100.325 26.2952 100.488C26.1387 100.315 25.964 100.142 25.8159 99.9472C25.9694 100.032 26.1303 100.113 26.2838 100.198C26.1756 100.013 25.9475 99.8804 25.914 99.7431C26.158 99.8505 26.1031 99.8478 26.1877 99.6943C26.0764 100.092 26.6259 100.101 26.6327 100.482L26.2286 100.723C26.3112 101.277 26.9237 101.347 27.1865 101.965L27.135 101.746C27.3379 101.72 27.3831 102.067 27.5714 102.19C27.4248 102.263 27.4616 102.408 27.4403 102.542C27.5288 102.459 27.714 102.941 27.9997 102.797L28.0116 103.15C28.2784 103.614 28.735 103.351 29.0152 103.764C28.7808 103.76 28.8455 104.009 28.5319 103.825C28.6353 103.958 28.7205 104.09 28.8047 104.018C28.7942 104.156 29.2777 104.239 29.2561 104.454C29.3509 104.466 29.4984 104.375 29.6084 104.523C29.5991 104.563 29.5508 104.575 29.5508 104.575C29.6084 104.523 29.8296 104.721 29.8521 104.487C29.8343 105.22 30.8832 105.51 30.9416 106.11C31.2575 106.32 31.6448 106.57 31.9101 106.767C31.8576 106.79 31.8591 106.834 31.8252 106.777C32.1247 107.173 32.3223 106.585 32.6673 107.024C32.7449 107.383 32.354 106.983 32.4373 107.152C32.2085 107.628 33.0198 107.459 33.1777 107.9L33.0872 107.877C33.2481 108.182 33.794 108.04 34.1939 108.258C34.1939 108.258 34.1555 108.293 34.1645 108.333C34.5624 108.221 35.1388 108.352 35.5777 108.374C35.3975 108.534 35.3514 108.429 35.3846 108.647C35.5891 108.664 35.4159 108.311 35.8023 108.355C35.8982 108.492 36.1554 108.63 36.1661 108.857L35.7839 108.802C35.9224 109.117 36.2782 108.889 36.4692 108.957L36.4338 109.08C37.049 109.095 37.061 108.777 37.6804 108.782L37.6117 108.687C37.9182 108.346 37.9088 108.833 38.2191 108.563L38.3735 108.853C38.4718 108.792 38.6568 108.683 38.861 108.558C39.0511 108.42 39.2519 108.287 39.4285 108.201C39.2969 108.491 38.8768 108.757 38.6001 108.941C38.8288 108.912 39.3592 108.714 39.4231 108.534C39.3505 108.593 39.2537 108.698 39.1556 108.679C39.3548 108.358 39.63 108.13 40.0239 107.948C40.1159 108.238 40.4022 108.157 40.7105 108.004C41.0187 107.85 41.3446 107.635 41.6185 107.73C42.1199 107.08 42.9033 106.807 43.5021 106.114C42.9313 106.016 43.6733 105.913 43.2695 105.626C43.3808 105.452 43.4383 105.4 43.4707 105.412C43.6806 105.32 43.8904 105.228 44.097 105.128C44.3 105.101 44.0529 105.353 44.1533 105.398C44.4739 105.069 44.4327 105.383 44.7301 105.225C44.5575 105.158 44.634 104.945 44.8399 104.783L44.4403 104.932C44.6191 104.281 45.102 104.748 45.2774 104.09L45.2798 104.339C45.4016 104.026 45.9836 103.377 45.8349 102.896C45.9123 102.889 46.0619 102.904 46.0115 103.034C46.4951 102.445 46.638 101.407 47.1591 101.026L47.2268 101.139C47.2739 101.002 47.1699 100.807 47.3723 100.718C47.4146 100.753 47.4475 100.828 47.4868 100.775C47.4946 100.691 47.5085 100.336 47.6653 100.204L47.6952 100.415C48.2229 99.8246 47.985 99.2226 48.1695 98.6048C48.4956 98.7565 48.8411 98.22 49.0018 97.9346L49.0408 97.9622C49.3926 97.074 49.2176 96.3101 49.1494 95.4635C49.3707 95.2141 49.4307 94.7404 49.4185 94.2449C49.4213 93.7427 49.3452 93.2037 49.3669 92.7648C49.3306 92.906 49.0941 92.7953 49.0314 92.6529C49.0638 92.4419 48.67 92.1768 48.9985 92.1307L49.0024 92.2006C49.281 91.9797 49.0871 91.5998 49.0035 91.2877L48.5891 91.3626C48.7631 90.8835 48.5239 90.3805 48.2845 89.958C48.045 89.5356 47.7954 89.1713 47.9579 88.8494C47.7813 88.7123 47.6782 88.4983 47.5008 88.3795L47.7107 88.2872C47.5264 87.7868 47.4326 87.5329 47.0714 86.9761L47.2783 87.0193C47.1149 86.6887 46.4838 86.9215 46.3112 86.6307L46.5583 86.3789C46.252 85.8248 46.2023 85.1221 45.6244 84.7233C45.6694 84.7035 45.7659 84.679 45.828 84.759C45.6943 84.4958 45.4582 83.6335 45.1086 83.9573C45.3727 83.8053 44.8074 83.3741 44.5181 83.1435L44.7379 83.0737C44.3434 82.9699 44.2759 82.9996 43.9978 82.6926C43.9732 82.596 44.1048 82.5292 44.1276 82.6623C44.0632 82.3328 43.8212 82.5555 43.7197 82.1619L43.919 82.2084C43.7647 81.9185 43.7104 81.9781 43.4754 81.9115C43.2946 81.7853 43.1949 81.3551 43.3343 81.2043C43.2045 81.2346 42.9728 81.1755 42.9128 80.9782C42.9638 80.9111 43.0426 80.948 43.0783 80.9681C42.9 80.4203 42.412 80.4292 42.3713 79.9909C42.4213 79.9421 42.4381 79.8989 42.4399 79.8623C42.6896 80.2266 42.8763 80.5291 42.8439 80.5165C43.0148 80.3966 42.8506 80.0842 43.2427 80.1622C42.9574 80.0015 42.392 79.794 42.2694 79.4543C42.2745 79.4252 42.2829 79.4036 42.2988 79.3787L42.342 79.3955C42.309 79.3206 42.2527 79.2738 42.1846 79.2411C42.146 79.1329 42.1238 79.0621 42.0627 78.9638C42.1796 78.8229 41.8912 78.5741 41.7812 78.4256C41.6127 78.5713 41.4979 78.3713 41.4877 78.6531C41.482 78.6199 41.5276 78.6624 41.6112 78.7509C41.6286 78.7701 41.6568 78.7935 41.6783 78.8019L41.6559 78.8117C41.7362 78.8927 41.818 79.0177 41.9322 79.1553C41.7511 79.1097 41.5968 79.0435 41.571 78.8222C41.398 78.8357 41.2251 78.8492 41.1336 78.8446C41.2407 78.4576 41.0696 77.9872 41.1701 77.8089C40.7291 77.4572 40.2592 76.8767 39.7037 76.9153C39.561 76.8349 39.6704 76.6973 39.6782 76.6134C39.7753 76.6512 39.8374 76.7312 39.9147 76.724C39.6294 76.5633 39.2346 76.0929 38.9738 76.2523C38.7865 75.8875 39.3281 76.2038 38.8971 75.8746L39.0152 75.8584C38.7779 75.3188 38.3162 75.164 37.8612 75.0242C37.3986 74.8877 36.9585 74.7414 36.6391 74.1573C36.6828 74.2365 36.7068 74.2707 36.6966 74.3288C36.2221 73.8398 35.5773 73.533 34.9457 73.2562C34.3033 72.9752 33.6807 72.7392 33.1187 72.3155C32.7877 72.1122 32.6765 72.2863 32.4201 72.3543L32.407 72.1007C32.2505 72.1517 32.1048 72.2068 31.9441 72.2685C31.6488 72.3089 31.4543 72.0904 31.2163 71.9356C30.9824 71.7701 30.7121 71.6028 30.3298 71.7709L30.4056 71.9433C30.1523 71.8758 29.5941 71.9693 29.6505 71.7924C29.6271 71.8206 29.5617 71.9567 29.4631 71.8748L29.4619 71.7501C29.2497 71.8166 29.0341 71.8756 28.8317 71.9646C28.3365 71.8962 28.8978 71.4436 28.1594 71.4732C27.8806 71.5511 27.4368 71.9251 27.5579 71.9971C27.6644 71.995 27.8379 72.0439 27.8649 72.1662L27.6475 72.2618C27.6478 72.6285 27.5623 73.0239 28.1093 73.2305C28.2203 73.137 28.3345 73.051 28.4563 72.9617L28.5869 73.1368C28.4805 73.1389 28.3807 73.1559 28.2883 73.1697C28.4757 73.3109 28.5668 73.1724 28.6862 73.0573C28.7257 73.1473 28.7737 73.2156 28.8492 73.245C28.9653 73.1224 29.0855 72.9891 29.2006 72.8847C29.2375 73.0295 29.0366 73.1626 29.2773 73.2625C29.45 73.106 29.1215 72.9285 29.4012 72.8323C29.5759 73.0059 29.5106 73.142 29.7297 73.0098C29.7543 73.1064 29.7075 73.1627 29.6284 73.2065C29.8176 73.0875 30.1089 73.2009 30.2211 73.0084C30.379 73.2252 30.8536 73.0433 30.7816 73.388C30.8476 73.3143 31.1483 73.1642 31.3195 73.1873C30.9249 73.5308 31.934 73.3642 31.7412 73.78C32.0566 73.4803 32.574 73.8431 33.0273 73.7958C32.9898 73.8123 32.9289 73.857 32.905 73.8228C33.1124 73.9283 33.1319 74.0539 33.2428 74.1841C33.3885 73.9053 33.7515 73.9782 34.0163 73.8886C34.1469 74.2873 33.7026 74.1518 33.6657 74.4542C33.7623 74.206 34.2128 74.4372 34.2279 74.207C34.3432 74.4693 34.3552 74.3746 34.3342 74.6522C34.545 74.318 34.5453 74.6846 34.8151 74.566C35.0009 74.8868 34.7056 74.9272 35.0653 74.9926C35.1445 75.1725 34.812 75.1487 34.812 75.1487L34.7895 75.1586L34.7577 75.2084ZM41.1798 80.4344C41.1277 80.3769 41.0896 80.331 41.0656 80.2968C41.0863 80.3235 41.1211 80.3619 41.1798 80.4344ZM41.5983 81.0197C41.562 80.9372 41.4967 80.8497 41.428 80.7546C41.4715 80.6908 41.5605 80.6695 41.5944 80.7262C41.532 80.7268 41.5863 80.8908 41.5983 81.0197ZM41.9625 78.8379C42.0612 78.9197 42.051 78.9779 42.0234 79.0169C41.9853 78.971 41.9397 78.9284 41.8768 78.8666C41.8693 78.8699 41.8543 78.8765 41.8468 78.8798C41.8843 78.8633 41.9218 78.8469 41.9691 78.8529L41.9625 78.8379Z" fill="white"/>
<path d="M39.0122 124.217C39.407 124.24 39.2128 123.94 39.2983 123.769C39.7708 123.704 39.5036 123.992 39.6568 124.157C39.9497 124.091 40.1859 123.835 40.4012 123.856C40.4243 123.909 40.4599 123.929 40.4024 123.981C40.7142 123.754 41.3152 123.982 41.6738 123.699C41.6978 123.733 41.7152 123.752 41.7143 123.771C41.6558 123.617 41.6523 123.467 41.661 123.365C41.8372 123.359 41.9818 123.179 42.0492 123.373C41.9395 123.367 41.9359 123.441 41.8849 123.508L42.0648 123.429C42.2308 123.704 41.8183 123.519 41.8192 123.724C42.1754 123.639 42.587 123.396 42.8544 123.475C42.9107 123.745 42.2188 123.576 42.592 123.814L42.1676 123.723C42.4877 124.146 41.9049 123.696 42.2125 124.151C42.7701 124.219 42.8357 124.002 43.3966 124.077C43.5178 123.926 43.3526 123.855 43.4737 123.703C44.2505 123.415 44.1155 124.369 44.6848 123.976C44.8261 123.789 44.8615 123.442 45.2899 123.602L45.1681 123.915C45.7068 123.92 45.4476 123.453 46.0222 123.62C45.9353 123.748 45.6085 123.757 45.6916 123.784C46.0732 124 45.9359 123.587 46.2153 123.571L46.2899 123.842C46.8622 123.761 47.4651 123.504 48.0908 123.381C48.0647 123.464 47.9646 123.562 48.1265 123.625C48.9104 123.414 49.8257 123.441 50.6228 123.484L50.8825 123.2C50.9523 123.196 51.0252 123.28 50.9634 123.343C51.2767 123.385 50.9523 123.196 51.0792 123.078C51.2464 123.031 51.3274 123.174 51.2314 123.261C51.7255 122.981 52.6366 122.572 53.2389 122.7L53.1429 122.787C53.5935 122.795 53.5268 122.216 53.9644 122.337L53.8994 122.392C54.3718 122.327 54.8512 122.197 55.3039 122.087C55.7533 121.97 56.1934 121.893 56.593 121.968C56.6327 121.61 57.5338 121.849 57.4583 121.372C58.0417 121.438 57.9247 121.579 58.6916 121.492C58.888 121.45 58.8826 121.113 59.1084 120.996L59.1923 121.227L59.4331 120.88L59.7008 121.102L59.9016 120.969C59.8093 120.982 59.6765 120.925 59.6651 120.858C59.9769 120.631 60.5627 120.723 60.6122 120.835L61.3548 120.347C61.3719 120.447 61.2502 120.537 61.165 120.628C61.5107 120.234 61.3338 120.849 61.6528 120.476C61.5847 120.443 61.6309 120.324 61.6219 120.284C61.872 120.344 62.3241 120.172 62.6299 119.992L62.6283 120.172C63.2468 119.972 63.8561 119.587 64.5222 119.312C64.2569 119.339 64.1907 119.047 64.3757 118.938L64.5561 119.145C64.6176 118.939 64.3142 119.144 64.4974 118.849C64.758 118.77 64.7843 119.054 64.6749 119.191L64.9417 118.985C64.9897 119.053 64.9354 119.113 64.9558 119.22C65.0097 119.017 65.5817 119.24 65.6462 118.898L65.6942 118.967C66.3537 118.677 66.614 118.455 67.1396 118.206C67.0506 118.003 67.2844 117.945 67.366 117.704C67.7788 117.585 68.3011 117.552 68.7568 117.307C69.0371 117.049 68.7676 117.087 68.8573 116.905C68.9697 117.079 69.4254 116.834 69.2515 117.089C69.798 116.786 69.9521 116.709 70.5817 116.209C70.4663 116.17 70.3632 116.18 70.3785 116.093C70.4895 115.999 70.7047 116.021 70.7326 116.125L70.705 116.164C71.3535 115.503 72.7949 115.79 73.2183 115.085L73.1907 115.124L73.7373 114.597C74.0512 114.477 73.6233 114.826 73.9093 114.826C74.4481 114.16 75.0312 114.306 75.4996 113.804C76.2175 114.115 77.0517 112.961 77.8197 112.999L77.7187 112.891C77.8093 112.69 77.94 112.865 78.0731 112.843C78.0045 112.748 77.8471 112.817 77.9082 112.691C79.1369 111.865 80.7021 111.498 82.1001 110.955C82.6089 110.749 82.0625 110.158 82.8249 110.162L82.7612 110.486C83.6131 109.717 84.7994 109.527 85.6767 108.837C85.6431 108.923 85.6727 108.99 85.5753 109.033C85.861 109.113 86.3473 108.694 86.2847 108.551C86.4412 108.5 86.3815 108.67 86.5086 108.694C86.7571 108.71 86.9377 108.246 87.1226 108.362C87.1583 108.382 87.089 108.448 87.0548 108.472C87.1535 108.33 87.6943 108.218 87.4779 108.071C87.8913 108.015 88.157 107.683 88.4978 107.685C88.6013 107.371 89.1802 107.528 89.1125 107.191C89.2201 107.538 89.8781 107.203 90.0554 106.955C90.0158 107.089 90.2997 106.982 90.2616 107.16C90.5239 107.045 90.7548 106.898 90.6415 106.742C91.2974 106.973 91.538 106.035 92.0076 106.473C92.7602 106.007 93.4791 105.629 94.1978 105.33C94.2829 105.687 93.3844 105.617 93.5319 105.972C94.1875 105.612 94.5093 105.184 95.2405 105.078C95.435 105.072 95.1766 105.258 95.1397 105.337C95.8095 104.988 96.5203 104.998 97.1019 104.652C97.1151 104.682 97.0501 104.738 96.9892 104.783C97.1124 104.737 97.2911 104.757 97.2434 104.608L97.1334 104.683C96.8747 104.502 97.519 104.075 97.5179 103.951C97.4087 104.455 98.1822 103.936 97.9668 104.585C98.046 104.541 98.132 104.432 98.0925 104.342C98.2205 104.348 98.2801 104.403 98.1815 104.544C98.6087 104.356 98.4172 104.226 98.8282 104.144C98.8354 104.221 98.767 104.269 98.74 104.37C98.9112 104.17 99.0998 103.988 99.459 103.991C99.4455 104.042 99.5051 104.096 99.3945 104.109C99.9911 103.981 100.348 103.511 101.034 103.585C100.883 103.955 101.275 103.667 101.349 103.956L101.686 103.808L101.53 103.698C101.841 103.651 102.087 103.417 102.377 103.487L102.161 103.626L102.738 103.515L102.398 103.433C102.7 103.246 102.324 103.062 102.751 103.098C102.669 103.134 103.068 103.066 103.24 103.232C103.388 103.122 103.54 103.02 103.782 103.083C103.851 103.178 103.751 103.419 103.796 103.48C103.933 103.222 104.527 103.373 104.713 103.103C104.654 103.174 104.65 103.327 104.674 103.362L104.795 103.148C104.946 103.206 104.962 103.244 104.942 103.36C105.38 103.4 104.792 102.979 105.319 103.14C105.282 103.157 105.295 103.187 105.209 103.216C105.733 103.307 106.218 103.067 106.703 103.194C106.838 103.501 106.282 103.254 106.438 103.507C107.117 103.486 107.88 103.186 108.544 103.333L108.425 103.286C108.555 102.871 108.904 103.541 109.257 103.368C109.171 103.396 109.121 103.588 109.149 103.549C109.598 103.656 110.087 103.566 110.8 103.521L110.7 103.619C110.95 103.741 111.388 103.799 111.665 103.901C111.768 103.811 111.931 103.855 111.866 103.687C112.247 104.065 112.675 104.083 113.1 104.093C113.525 104.103 113.951 104.076 114.262 104.458C114.172 104.435 114.023 104.483 114.088 104.508L114.765 104.604C114.771 104.413 114.706 104.469 114.619 104.292C114.736 104.214 114.95 104.191 115.113 104.236C114.778 104.267 115.022 104.517 115.118 104.654C115.117 104.592 115.178 104.547 115.188 104.489C115.425 104.904 115.37 104.15 115.751 104.528L115.699 104.613C115.885 104.63 116.09 104.566 116.265 104.659C116.269 104.891 116.052 104.682 115.974 104.85C116.233 104.933 116.632 104.659 116.783 104.942C116.647 104.957 116.488 104.901 116.359 104.913C116.522 105.244 116.572 105.195 116.747 105.306L116.74 105.291L117.111 105.585L117.028 105.478C117.567 105.098 117.708 105.662 118.29 105.522C117.727 105.644 118.14 105.668 118.001 105.882C118.077 105.992 118.205 106.141 118.133 106.181C118.412 106.104 118.382 106.483 118.78 106.371C118.751 106.447 118.98 106.48 118.852 106.635C119.126 106.711 118.859 106.489 118.925 106.415C119.451 106.371 119.652 107.195 120.378 107.198C120.925 107.342 121.133 107.206 121.638 107.377C121.709 107.579 121.356 107.528 121.356 107.528C121.519 107.778 121.698 107.879 121.965 107.958C121.887 107.983 121.894 108.061 121.903 108.182C122.077 108.293 122.181 108.042 122.325 108.309C122.235 108.349 122.096 108.419 121.975 108.428C122.212 108.52 122.478 108.555 122.73 108.659C122.697 108.808 122.481 108.724 122.352 108.736C122.606 108.866 123.009 109.091 123.205 108.987C123.178 108.927 123.152 108.867 123.118 108.81C123.207 108.87 123.036 108.99 122.953 108.964C122.657 108.942 122.724 108.688 122.765 108.617L122.941 108.692C123.089 108.215 122.326 108.291 122.056 108.043L122.376 107.876C122.219 107.864 122.076 107.864 121.907 107.867C121.891 107.749 121.955 107.569 122.135 107.633C122.01 107.348 121.877 107.594 121.791 107.319C121.782 107.278 121.805 107.268 121.834 107.273L121.562 107.205C121.637 107.172 121.661 106.982 121.764 107.116C121.488 106.692 121.01 106.884 120.995 106.587L121.042 106.593C120.42 106.357 120.858 106.763 120.293 106.761L120.324 106.077L120.142 106.255C120.089 106.216 119.988 106.126 120.053 106.053C119.759 106.075 120.041 106.166 119.836 106.229C119.674 105.862 119.008 105.913 119.123 105.523C118.93 105.634 119.33 105.79 118.965 105.753C119.066 105.333 118.582 105.635 118.406 105.337C118.582 105.188 118.78 105.414 118.601 105.108C118.288 105.353 118.106 104.798 117.848 104.759C117.717 105.032 117.3 104.652 116.885 104.584C116.948 104.502 116.201 104.169 115.872 103.929L115.9 103.89C115.734 104.142 115.376 103.959 115.073 103.941C115.136 103.779 115.208 103.72 115.385 103.696L115.125 103.613C115.03 103.682 114.941 103.703 114.755 103.687L114.886 103.495C114.531 103.401 114.111 103.523 113.679 103.274C113.604 103.469 113.89 103.915 113.387 103.931C113.399 103.818 113.423 103.628 113.56 103.613C113.516 103.615 113.385 103.663 113.322 103.601L113.56 103.47C113.379 103.344 113.418 103.595 113.248 103.535C113.289 103.383 113.152 103.399 113.206 103.277C113.25 103.275 113.34 103.379 113.416 103.327C113.24 103.253 113.031 103.103 112.983 102.972C112.978 103.064 112.932 103.182 112.79 103.164C112.427 103.092 112.705 102.951 112.514 102.821C112.399 102.907 112.191 102.757 112.139 102.986C112.038 102.959 112.036 102.852 112.006 102.785C111.801 102.848 111.129 102.643 111.294 102.937L111.341 102.961C111.341 102.961 111.318 102.971 111.308 102.967C110.664 103.089 110.058 102.648 109.431 102.665L109.439 102.581C109.062 102.639 108.618 102.566 108.34 102.707C108.227 102.694 108.095 102.537 108.147 102.451C107.867 102.485 107.821 102.586 107.43 102.427C107.722 102.298 107.337 102.298 107.723 102.342C107.365 102.259 107.28 102.126 106.885 102.327C107.03 102.129 106.616 102.061 106.441 102.111L106.697 102.266C106.498 102.282 106.33 102.266 106.152 102.247L106.249 101.98C105.491 101.66 104.895 102.522 104.315 102.017C104.122 102.209 104.731 102.129 104.555 102.358C104.215 102.338 103.833 101.978 103.723 101.973C103.238 101.846 103.304 102.381 102.808 102.331C102.884 102.423 102.956 102.668 102.598 102.79C102.257 102.788 102.135 102.43 102.353 102.334C102.434 102.316 102.481 102.34 102.479 102.377C102.584 102.331 102.73 102.276 102.584 102.188L102.546 102.285C102.367 102.203 101.891 102.26 101.987 102.092C101.732 102.205 101.891 102.26 102.091 102.288C101.634 102.185 101.398 102.36 100.938 102.33C101.02 102.375 101.099 102.474 101.033 102.485C100.356 102.452 100.769 102.7 100.324 102.806C100.047 102.704 100.36 102.441 99.9323 102.647C99.6415 102.596 99.8301 102.415 99.9302 102.317C99.5509 102.574 99.1412 102.333 98.9025 102.34L99.1025 102.225C98.9784 102.289 98.8711 102.309 98.7637 102.329L98.9244 102.491C98.7931 102.477 98.6858 102.498 98.6711 102.424C98.5649 102.569 98.8254 102.714 98.6018 102.937C98.4141 102.877 98.1146 103.152 98.0091 102.912C98.5496 102.88 97.9036 102.672 98.3356 102.536C98.2565 102.579 98.1524 102.607 98.0169 102.604C97.9962 102.577 98.0196 102.549 98.0538 102.525C97.5022 102.41 97.8763 102.854 97.3579 102.957C97.3984 102.805 97.1826 102.721 97.0959 102.768C97.3106 102.727 97.2506 102.977 97.0746 103.126C96.7164 103.105 96.7364 103.293 96.555 103.328L96.7679 103.323C96.7307 103.483 96.5685 103.501 96.3469 103.607C96.3008 103.502 96.5328 103.48 96.4423 103.458C96.2474 103.767 95.7918 103.341 95.4857 103.601C95.2971 103.559 95.3994 103.344 95.239 103.325C94.8837 103.615 94.7545 103.261 94.3678 103.52C94.5401 103.668 94.5536 103.617 94.3023 103.88L94.9562 103.557L94.5889 103.942C94.797 103.886 94.9931 103.701 95.1286 103.704C94.9607 103.913 94.9667 103.865 95.1109 103.99C94.7466 103.792 94.5967 104.305 94.2163 104.213L94.0925 103.749C93.534 103.699 93.2908 104.244 92.6229 104.332L92.8531 104.347C92.8249 104.548 92.4717 104.497 92.2924 104.639C92.2598 104.483 92.1135 104.476 91.9957 104.411C92.0418 104.516 91.5229 104.557 91.5732 104.875L91.2228 104.769C90.6861 104.871 90.803 105.401 90.3053 105.531C90.3926 105.322 90.13 105.295 90.4094 105.055C90.2487 105.117 90.0865 105.135 90.1327 105.24C89.9999 105.182 89.7555 105.602 89.5579 105.519C89.5169 105.609 89.5528 105.772 89.3663 105.836C89.3306 105.816 89.3334 105.761 89.3334 105.761C89.3663 105.836 89.0923 105.966 89.3105 106.075C88.6348 105.8 87.9548 106.654 87.3753 106.435C87.047 106.624 86.6546 106.85 86.3506 106.993C86.3533 106.938 86.3176 106.918 86.3842 106.906C85.8976 106.959 86.3031 107.434 85.75 107.498C85.4005 107.375 85.9563 107.256 85.7594 107.235C85.4809 106.785 85.2044 107.559 84.7559 107.435L84.8177 107.372C84.4936 107.326 84.2855 107.829 83.8676 107.977C83.8676 107.977 83.8703 107.923 83.8346 107.902C83.6661 108.272 83.1843 108.6 82.8275 108.846C82.8617 108.599 82.9612 108.662 82.7888 108.514C82.6254 108.631 82.9807 108.788 82.6656 109.007C82.5028 108.962 82.215 108.999 82.081 108.817L82.4009 108.649C82.1089 108.474 81.9836 108.86 81.7872 108.901L81.7569 108.771C81.2703 109.048 81.4064 109.337 80.8592 109.578L80.9555 109.634C80.8025 110.059 80.638 109.603 80.4446 109.957L80.2144 109.718C80.0558 109.886 79.6783 110.33 79.3589 110.56C79.4474 110.252 79.7928 109.939 79.9776 109.688C79.7827 109.774 79.341 110.031 79.3095 110.224C79.3713 110.161 79.4358 110.043 79.5272 110.047C79.4078 110.386 79.1566 110.649 78.7767 110.843C78.5637 110.256 77.7211 111.208 77.2367 110.921C76.6709 111.465 75.8726 111.52 75.111 111.945C75.6029 112.229 74.8886 112.07 75.1613 112.486C74.9904 112.606 74.923 112.636 74.8873 112.616L74.208 112.637C74.0128 112.58 74.3342 112.456 74.2656 112.361C73.8575 112.532 74.0066 112.261 73.6831 112.278C73.8123 112.409 73.6612 112.574 73.409 112.631L73.8287 112.67C73.396 113.191 73.1599 112.553 72.7239 113.066L72.8304 112.841C72.5809 113.067 71.77 113.379 71.6725 113.869C71.5969 113.839 71.4725 113.76 71.5835 113.666C70.8765 113.95 70.2513 114.807 69.6077 114.848L69.6107 114.713C69.4997 114.806 69.4889 115.026 69.2704 114.997C69.2506 114.952 69.2734 114.861 69.2026 114.883C69.1517 114.95 68.9577 115.242 68.7514 115.261L68.8378 115.071C68.103 115.251 67.9518 115.863 67.4217 116.203C67.2724 115.884 66.6899 116.024 66.4003 116.098L66.3806 116.053C65.5912 116.373 65.175 116.932 64.4932 117.375C63.8843 117.231 62.8874 117.893 62.0582 117.981C62.1895 117.995 62.1445 118.238 62.0228 118.327C61.8249 118.325 61.6246 118.744 61.541 118.432L61.601 118.406C61.3525 118.166 61.0299 118.388 60.7502 118.485L60.8541 118.904C59.9083 118.604 58.9908 119.813 58.3979 119.421C58.2509 119.575 58.0345 119.652 57.8876 119.806L57.8285 119.591C57.3102 119.693 57.0548 119.743 56.4495 119.973L56.525 119.779C56.1722 119.872 56.2677 120.536 55.9439 120.634L55.7572 120.332C55.1438 120.503 54.4534 120.377 53.9113 120.812C53.914 120.758 53.9077 120.662 54.0085 120.627C53.7156 120.693 52.8336 120.66 53.0398 121.088C52.9736 120.796 52.3967 121.192 52.0792 121.386L52.0868 121.159C51.8502 121.495 51.8606 121.58 51.476 121.723C51.378 121.703 51.3594 121.559 51.5006 121.595C51.1624 121.538 51.2901 121.849 50.8821 121.796L51.0074 121.633C50.6756 121.672 50.716 121.744 50.5598 121.938C50.3739 122.064 49.9302 121.991 49.8487 121.785C49.8241 121.912 49.6646 122.099 49.4644 122.071C49.4314 121.996 49.489 121.943 49.5231 121.919C48.959 121.837 48.7418 122.299 48.3327 122.121C48.318 122.047 48.2865 122.016 48.2508 121.996C48.6891 121.955 49.036 121.91 49.0093 121.931C48.9827 121.728 48.6301 121.74 48.8733 121.418C48.6139 121.622 48.1735 122.003 47.817 121.945C47.7997 121.926 47.7748 121.91 47.7616 121.88L47.7991 121.864C47.7085 121.841 47.6411 121.871 47.5802 121.915C47.4639 121.895 47.3917 121.873 47.2885 121.883C47.2343 121.719 46.8763 121.84 46.7075 121.843C46.7441 122.068 46.5106 122.046 46.7477 122.219C46.7153 122.206 46.7785 122.187 46.8967 122.171C46.9191 122.161 46.9524 122.156 46.9716 122.138L46.9632 122.16C47.0813 122.144 47.2219 122.118 47.3991 122.093C47.2756 122.219 47.138 122.333 46.923 122.231C46.846 122.381 46.7614 122.535 46.7062 122.613C46.4347 122.321 45.9538 122.183 45.8789 121.993C45.357 122.169 44.6246 122.151 44.3019 122.597C44.152 122.663 44.117 122.481 44.0648 122.424C44.1548 122.384 44.2612 122.382 44.3047 122.318C44.0049 122.45 43.399 122.395 43.3297 122.684C42.9436 122.559 43.5411 122.413 43.0105 122.467L43.0773 122.375C42.0398 121.928 41.3642 123.137 40.2152 122.498C40.2941 122.535 40.3298 122.555 40.3528 122.607C39.0455 122.279 37.6014 122.717 36.339 122.145C35.982 122.025 35.9181 122.205 35.6741 122.321L35.6244 122.066L35.2061 122.295C34.6245 122.416 34.35 121.589 33.6041 121.845L33.6649 122.024C33.4191 121.953 32.8603 121.985 32.935 121.809C32.9083 121.829 32.8247 121.964 32.7452 121.865L32.7623 121.741C32.5477 121.782 32.3297 121.815 32.116 121.838C31.6669 121.651 32.2824 121.362 31.6088 121.193C31.3486 121.191 30.8174 121.407 30.8893 121.51C30.9906 121.537 31.1357 121.643 31.1111 121.77L30.8608 121.791C30.7405 122.148 30.4673 122.482 30.9988 122.857L31.4458 122.714L31.5381 122.924L31.1967 122.859C31.3588 123.065 31.5114 122.945 31.6655 122.868C31.6826 122.968 31.7189 123.05 31.7935 123.098L32.2576 122.831C32.2795 122.982 32.0255 123.076 32.2827 123.214C32.5019 123.081 32.1644 122.863 32.4971 122.806C32.6668 123.009 32.5765 123.129 32.838 123.032C32.855 123.132 32.7975 123.184 32.6934 123.212C32.9174 123.131 33.2411 123.257 33.3857 123.077C33.5535 123.317 34.083 123.137 34.011 123.482C34.0877 123.413 34.4142 123.26 34.5971 123.269C34.1941 123.634 35.3025 123.388 35.1453 123.824C35.4476 123.494 36.0941 123.765 36.5711 123.609C36.5403 123.64 36.4827 123.692 36.4512 123.661C36.7087 123.718 36.7648 123.845 36.9215 123.937C36.9842 123.633 37.386 123.59 37.6144 123.418C37.8992 123.74 37.3952 123.774 37.4689 124.063C37.4741 123.811 38.0368 123.849 37.9412 123.632C38.1657 123.838 38.1411 123.741 38.249 124.007C38.3195 123.618 38.4786 123.959 38.6915 123.731C39.0257 123.942 38.7574 124.105 39.1511 124.003C39.3243 124.133 38.9771 124.259 38.9771 124.259L38.9837 124.274L39.0122 124.217ZM48.0845 123.286C48.0105 123.3 47.9439 123.312 47.9032 123.321C47.9439 123.312 47.9955 123.307 48.0845 123.286ZM48.8406 123.195C48.7525 123.198 48.6344 123.214 48.5162 123.23C48.4833 123.155 48.5019 123.075 48.5717 123.071C48.5357 123.132 48.7144 123.152 48.8406 123.195ZM47.0976 121.814C47.21 121.765 47.2556 121.808 47.2753 121.853C47.2196 121.868 47.1605 121.876 47.0715 121.898C47.0715 121.898 47.0631 121.919 47.0589 121.93C47.0649 121.883 47.0775 121.85 47.0976 121.814Z" fill="white"/>
<path d="M116.441 85.189C116.036 85.1434 116.222 85.4642 116.123 85.6243C115.637 85.659 115.922 85.3907 115.765 85.218C115.455 85.265 115.204 85.5276 114.985 85.4985C114.969 85.4427 114.926 85.4259 114.991 85.3704C114.655 85.5811 114.045 85.3127 113.653 85.6014C113.629 85.5672 113.611 85.548 113.612 85.5297C113.671 85.6829 113.667 85.8367 113.651 85.9422C113.471 85.9407 113.312 86.1089 113.245 85.9149C113.358 85.9278 113.369 85.8513 113.423 85.7917L113.236 85.8741C113.071 85.58 113.49 85.7803 113.5 85.5792C113.126 85.6451 112.69 85.8728 112.408 85.7819C112.352 85.5115 113.08 85.7014 112.703 85.4555L113.141 85.5761C112.822 85.1351 113.41 85.6187 113.111 85.142C112.525 85.0508 112.456 85.26 111.87 85.1688C111.742 85.3238 111.907 85.3942 111.778 85.5492C110.962 85.8279 111.127 84.8608 110.514 85.2375C110.362 85.4207 110.312 85.7738 109.872 85.6092L110.013 85.2971C109.445 85.2874 109.708 85.744 109.119 85.583C109.213 85.452 109.561 85.4508 109.467 85.4205C109.068 85.2028 109.205 85.6165 108.91 85.6387L108.828 85.3707C108.227 85.4473 107.587 85.72 106.938 85.853C106.965 85.77 107.072 85.669 106.903 85.6093C106.084 85.8622 105.113 85.8509 104.275 85.8793L104.022 86.1784C103.956 86.1898 103.865 86.1046 103.934 86.0384C103.597 86.0255 103.956 86.1898 103.829 86.3082C103.657 86.3657 103.565 86.2365 103.665 86.1388C103.157 86.4694 102.249 86.9672 101.61 86.9173L101.699 86.8154C101.224 86.8726 101.365 87.4368 100.891 87.3768L100.949 87.3063C99.9732 87.5478 99.0587 88.1736 98.2148 88.187C98.2183 88.5611 97.2917 88.4677 97.4421 88.9114C97.1486 88.9153 97.0407 88.8733 96.9061 88.852C96.7715 88.8307 96.6177 88.8268 96.3018 88.8405C96.1396 88.8582 96.1416 89.1882 95.9359 89.2697L95.8928 89.0293C95.8185 89.1246 95.7366 89.2232 95.6589 89.3111C95.6086 89.2169 95.5624 89.112 95.5196 89.0145L95.3481 89.0721C95.417 89.0865 95.489 89.189 95.4746 89.258C95.3247 89.3239 95.1454 89.2417 95.0252 89.1515C94.9059 89.0429 94.8382 88.9296 94.8634 88.8648C94.6472 88.8615 94.4095 88.8498 94.1712 88.7757C94.2338 88.6945 94.3493 88.7332 94.4533 88.7053C94.0183 88.7535 94.5316 88.4562 94.134 88.4879C94.1379 88.5577 94.0372 88.5931 93.9988 88.6279C93.9398 88.4123 93.6439 88.1667 93.3886 87.9928L93.5535 87.9203C93.2324 87.5158 92.7735 87.0826 92.5305 86.5096C92.5446 86.745 92.2615 86.8337 92.1599 86.6637L92.3701 86.4907C92.1675 86.4367 92.3593 86.7102 92.0772 86.5569C92.0125 86.3081 92.2952 86.3 92.4154 86.3903L92.2326 86.1576C92.3042 86.1172 92.3606 86.164 92.4604 86.1469C92.2578 86.0929 92.5606 85.6019 92.2501 85.5059L92.325 85.4729C92.1794 84.8572 92.0616 84.569 92.0147 84.0351C91.7835 84.0384 91.8309 83.8207 91.6445 83.6612C91.7126 83.2466 91.9138 82.8093 91.949 82.3197C91.8822 81.9645 91.7682 82.1935 91.6633 82.016C91.8687 82.0151 91.9329 81.5307 92.0366 81.8071C92.117 81.2171 92.136 81.0567 92.1888 80.2821C92.0839 80.3282 92.017 80.4203 91.9691 80.3519C91.9838 80.2023 92.1481 80.0674 92.2368 80.1268L92.2533 80.1643C92.2318 79.7086 92.5535 79.2809 92.8585 78.8963C93.1709 78.5084 93.4741 78.1604 93.4391 77.7554L93.4406 77.7995C93.4823 77.5485 93.5348 77.3018 93.5798 77.0584C93.7729 76.7856 93.6187 77.3096 93.8538 77.1526C93.9435 76.2991 94.5138 76.1109 94.6719 75.4331C95.4504 75.3322 95.6347 73.9005 96.3552 73.5657L96.2182 73.5186C96.2074 73.2908 96.4041 73.3921 96.5075 73.3019C96.4071 73.2566 96.2943 73.3867 96.2899 73.2545C97.03 71.9272 98.3126 70.8979 99.419 69.8746C99.8154 69.4946 99.0926 69.1326 99.8245 68.8644L99.8706 69.193C100.42 68.1642 101.5 67.6089 102.177 66.7294C102.162 66.8166 102.217 66.8817 102.13 66.947C102.423 66.9432 102.804 66.445 102.715 66.305C102.863 66.2133 102.828 66.3985 102.963 66.4015C103.215 66.3626 103.283 65.8674 103.502 65.9588C103.535 65.9714 103.487 66.0461 103.459 66.085C103.533 65.9274 104.049 65.7182 103.809 65.6183C104.207 65.4877 104.412 65.1202 104.759 65.075C104.823 64.7518 105.419 64.8472 105.315 64.5085C105.46 64.8382 106.077 64.4507 106.24 64.1911C106.208 64.3215 106.489 64.2071 106.461 64.389C106.724 64.2737 106.937 64.1082 106.824 63.9523C107.47 64.1602 107.724 63.2524 108.182 63.6857C108.937 63.2463 109.703 62.9542 110.472 62.7684C110.481 62.9522 110.27 62.9821 110.066 63.0271C109.863 63.072 109.67 63.1211 109.726 63.3109C110.407 63.0292 110.806 62.6749 111.541 62.7185C111.729 62.7608 111.441 62.8786 111.383 62.949C112.104 62.7573 112.783 62.9595 113.434 62.8339C113.422 62.8663 113.354 62.896 113.291 62.9149C113.416 62.9137 113.572 63.0058 113.588 62.8379L113.458 62.8681C113.281 62.6064 114.029 62.438 114.083 62.316C113.787 62.7414 114.713 62.5488 114.255 63.0724C114.34 63.0619 114.464 62.9984 114.458 62.8845C114.573 62.9415 114.603 63.0089 114.451 63.1114C114.916 63.1124 114.794 62.9157 115.199 63.0237C115.17 63.0992 115.085 63.1097 115.023 63.191C115.262 63.0855 115.52 62.9992 115.841 63.18C115.806 63.2223 115.828 63.293 115.723 63.2585C116.294 63.4187 116.854 63.2263 117.412 63.6608C117.078 63.879 117.559 63.8734 117.45 64.154C117.569 64.1819 117.689 64.2098 117.801 64.241C117.779 64.1702 117.771 64.1111 117.749 64.0404C118.016 64.2002 118.373 64.1592 118.545 64.3877C118.458 64.3724 118.378 64.3721 118.283 64.36C118.462 64.4422 118.625 64.5493 118.801 64.6422L118.587 64.3604C118.944 64.4183 118.772 64.0286 119.079 64.3407C118.993 64.3071 119.345 64.5371 119.362 64.7799C119.544 64.8072 119.741 64.828 119.873 65.0471C119.853 65.1634 119.617 65.2581 119.606 65.3346C119.747 65.2902 119.896 65.4039 120.052 65.5142C120.196 65.6386 120.351 65.7673 120.51 65.7421C120.418 65.7376 120.3 65.8344 120.294 65.8818L120.534 65.8387C120.593 65.9919 120.573 66.0275 120.467 66.092C120.716 66.4563 120.668 65.7353 120.877 66.2515C120.838 66.2239 120.821 66.2671 120.754 66.2161C121.022 66.662 121.473 66.9555 121.64 67.4367C121.447 67.7095 121.362 67.1114 121.224 67.3869C121.627 67.9164 122.223 68.4774 122.376 69.1522L122.364 69.0233C122.792 68.9784 122.334 69.5644 122.617 69.8424C122.558 69.7698 122.359 69.8039 122.406 69.81C122.464 70.2674 122.74 70.6917 122.999 71.3827L122.878 71.3108C122.827 71.6016 122.93 72.0393 122.923 72.3468C123.036 72.4221 123.042 72.5984 123.191 72.4701C122.666 73.4524 123.665 74.2386 123.179 75.1055C123.18 75.0066 123.077 74.8732 123.076 74.9538L123.202 75.6676C123.389 75.6035 123.313 75.5741 123.449 75.4159C123.559 75.5019 123.648 75.7043 123.654 75.8806C123.512 75.5583 123.356 75.8952 123.254 76.0295C123.307 76.0064 123.37 76.0499 123.437 76.0385C123.114 76.4222 123.808 76.0898 123.607 76.6078L123.506 76.5808C123.562 76.7706 123.693 76.9457 123.675 77.1502C123.466 77.2425 123.571 76.9544 123.389 76.9454C123.407 77.2323 123.815 77.509 123.608 77.7701C123.545 77.646 123.542 77.4772 123.475 77.3456C123.23 77.6414 123.294 77.6666 123.265 77.8852L123.259 77.8702L123.169 78.357L123.237 78.2284C123.803 78.579 123.362 78.9605 123.746 79.445C123.38 78.9797 123.544 79.3728 123.299 79.346C123.238 79.4713 123.163 79.6656 123.096 79.6146C123.301 79.8374 122.952 79.9998 123.247 80.326C123.166 80.344 123.247 80.568 123.047 80.5215C123.117 80.8219 123.183 80.4438 123.284 80.4708C123.566 80.9284 122.988 81.5671 123.374 82.2204C123.544 82.7897 123.81 82.8872 123.956 83.4224C123.838 83.5998 123.67 83.2799 123.67 83.2799C123.564 83.568 123.59 83.7892 123.683 84.0615C123.616 84.0105 123.558 84.0626 123.473 84.1538C123.495 84.3675 123.756 84.2887 123.661 84.581C123.568 84.5324 123.432 84.467 123.345 84.3711C123.424 84.6316 123.576 84.8775 123.659 85.1455C123.523 85.2231 123.446 84.9884 123.355 84.9032C123.421 85.1961 123.5 85.6803 123.716 85.7643L123.792 85.57C123.804 85.6806 123.605 85.6341 123.569 85.5517C123.394 85.2974 123.631 85.1845 123.709 85.159L123.766 85.3488C124.22 85.1402 123.672 84.5852 123.687 84.1937L124.028 84.3388L123.743 83.9545C123.831 83.8708 124.01 83.81 124.071 83.989C124.225 83.7069 123.948 83.7482 124.117 83.5036C124.148 83.4722 124.162 83.4839 124.175 83.5138L124.06 83.2515C124.135 83.2992 124.305 83.1976 124.26 83.3604C124.438 82.8705 123.994 82.592 124.234 82.4058L124.25 82.4433C124.118 81.7769 124.011 82.3875 123.702 81.8883L124.299 81.5365L124.049 81.4765C124.056 81.4108 124.066 81.272 124.167 81.299C123.993 81.0448 124.062 81.3452 123.901 81.2015C124.119 80.864 123.777 80.2899 124.159 80.2024C123.967 80.0902 124.022 80.5219 123.886 80.1706C124.302 80.0591 123.796 79.7628 123.983 79.4568C124.199 79.5408 124.097 79.8363 124.281 79.5228C123.908 79.3467 124.35 78.9286 124.267 78.6789C123.971 78.6752 124.133 78.1296 124.026 77.7027C124.127 77.7297 124.169 76.8885 124.258 76.4823L124.306 76.4883C124.008 76.4223 124.055 75.9993 123.989 75.7064C124.168 75.708 124.239 75.7664 124.319 75.928L124.311 75.6453C124.211 75.5818 124.164 75.4951 124.122 75.317L124.346 75.3794C124.321 74.9969 124.06 74.6284 124.18 74.1284C123.976 74.111 123.628 74.5411 123.462 74.0416C123.577 74.018 123.758 73.9829 123.81 74.1211C123.79 74.0762 123.711 73.9769 123.749 73.8798L123.941 74.0726C124.014 73.8526 123.778 73.9655 123.79 73.7902C123.948 73.7833 123.889 73.6484 124.023 73.6697C124.043 73.7147 123.968 73.8283 124.031 73.89C124.048 73.6856 124.126 73.4365 124.241 73.3504C124.152 73.3717 124.027 73.3729 123.994 73.2173C123.954 72.8414 124.173 73.0758 124.233 72.8441C124.116 72.7613 124.209 72.5056 123.966 72.523C123.961 72.4091 124.065 72.3812 124.122 72.329C124.003 72.1399 123.977 71.409 123.759 71.6659L123.746 71.7165L123.732 71.6865C123.406 71.0875 123.638 70.3327 123.371 69.7256L123.446 69.6926C123.261 69.3535 123.152 68.8825 122.894 68.6828C122.848 68.5779 122.939 68.3771 123.041 68.3858C122.882 68.1249 122.774 68.1453 122.724 67.6845C122.981 67.9025 122.793 67.5376 122.939 67.9298C122.848 67.5403 122.903 67.4 122.524 67.1284C122.779 67.1593 122.594 66.7396 122.439 66.6109L122.464 66.9311C122.326 66.7593 122.253 66.5944 122.162 66.4286L122.448 66.3657C122.337 65.9313 122.008 65.6914 121.702 65.504C121.397 65.2983 121.122 65.1418 121.096 64.7152C120.818 64.6941 121.306 65.1325 121.023 65.1405C120.803 64.8437 120.764 64.3065 120.68 64.218C120.384 63.7488 120.058 64.2056 119.708 63.7961C119.705 63.9133 119.602 64.1465 119.235 64.0038C118.964 63.7741 119.085 63.417 119.323 63.4911C119.405 63.5355 119.417 63.5838 119.401 63.6087C119.517 63.6474 119.668 63.7061 119.614 63.5421L119.516 63.585C119.434 63.3976 118.982 63.1223 119.168 63.0582C118.875 62.9814 118.985 63.1298 119.139 63.2768C118.798 62.908 118.499 62.8785 118.096 62.5727C118.143 62.6593 118.155 62.7882 118.087 62.7556C117.496 62.3268 117.723 62.7816 117.273 62.6127C117.076 62.3684 117.503 62.3235 116.997 62.2508C116.75 62.0553 117.028 61.9957 117.173 61.9589C116.682 61.9603 116.409 61.5435 116.158 61.4395L116.414 61.4338C116.261 61.4299 116.145 61.3912 116.033 61.36L116.106 61.5873C115.978 61.5186 115.862 61.4799 115.892 61.4044C115.712 61.4835 115.912 61.7353 115.588 61.833C115.437 61.6936 115.025 61.7942 115.012 61.5406C115.558 61.7655 115.003 61.2762 115.505 61.3596C115.402 61.3692 115.287 61.3305 115.154 61.2726C115.137 61.2352 115.186 61.2229 115.222 61.2247C114.707 60.8876 114.903 61.4546 114.333 61.3384C114.427 61.2075 114.241 61.0479 114.141 61.065C114.381 61.1025 114.213 61.3106 113.989 61.3912C113.634 61.2343 113.578 61.4112 113.392 61.3947C113.467 61.4241 113.536 61.4385 113.601 61.4636C113.514 61.5913 113.332 61.564 113.074 61.588C113.061 61.4773 113.308 61.5299 113.223 61.478C112.926 61.698 112.592 61.1829 112.191 61.3501C112.005 61.2529 112.172 61.0815 112.01 61.0185C111.563 61.2238 111.506 60.8287 111.038 61.0255C111.187 61.2015 111.204 61.1584 110.893 61.3667C111.141 61.302 111.398 61.234 111.653 61.1842C111.491 61.2825 111.328 61.3808 111.172 61.4941C111.401 61.4651 111.656 61.353 111.791 61.3743C111.559 61.5389 111.583 61.4924 111.696 61.6483C111.366 61.3644 111.089 61.853 110.723 61.6919L110.684 61.2171C110.101 61.071 109.735 61.5808 109.022 61.608C109.098 61.6191 109.186 61.6344 109.27 61.6422C109.212 61.8374 108.849 61.7645 108.645 61.89C108.631 61.7354 108.474 61.7057 108.357 61.6412C108.403 61.7461 107.844 61.7772 107.876 62.0941C107.753 62.0587 107.63 62.0233 107.511 61.9954C106.927 62.0912 107.039 62.6321 106.512 62.7747C106.603 62.5555 106.329 62.542 106.631 62.2929C106.455 62.3613 106.296 62.3864 106.324 62.4905C106.187 62.4434 105.938 62.893 105.725 62.8165C105.687 62.9137 105.731 63.0734 105.54 63.1484C105.504 63.1283 105.507 63.0734 105.507 63.0734C105.54 63.1484 105.261 63.3069 105.502 63.3885C104.776 63.1803 104.146 64.1281 103.525 64.0168C103.204 64.265 102.841 64.577 102.556 64.7829C102.548 64.7239 102.508 64.7146 102.578 64.6924C102.09 64.8626 102.585 65.2353 102.047 65.4361C101.667 65.4063 102.197 65.1465 102.005 65.1774C101.63 64.8143 101.501 65.6401 101.024 65.6533L101.076 65.5678C100.737 65.6097 100.654 66.1739 100.277 66.456C100.277 66.456 100.257 66.411 100.225 66.3984C100.164 66.8097 99.7774 67.2929 99.5099 67.661C99.4668 67.4206 99.5831 67.441 99.3747 67.3537C99.2494 67.5162 99.6475 67.5468 99.4043 67.8684C99.2314 67.8819 98.9606 68.0189 98.7724 67.8959L99.032 67.6118C98.6906 67.5472 98.6881 67.9687 98.5139 68.0811L98.442 67.9786C98.0636 68.4402 98.2914 68.6531 97.8656 69.1087L97.9786 69.1216C97.9927 69.5806 97.6623 69.216 97.6125 69.6315L97.3071 69.5064C97.2189 69.7331 97.0329 70.3068 96.832 70.6635C96.7859 70.335 96.9946 69.8943 97.0798 69.5795C96.932 69.7519 96.6102 70.1797 96.6627 70.3802C96.693 70.2864 96.7035 70.1476 96.7967 70.1155C96.8185 70.4906 96.6875 70.8434 96.4101 71.189C95.9695 70.7566 95.5847 72.0172 95.0169 72.0075C94.7403 72.7821 94.0253 73.2308 93.55 74.0212C94.1262 74.0093 93.4102 74.2527 93.8575 74.4764C93.7669 74.6772 93.7127 74.7369 93.6761 74.7351L93.0809 75.131C92.8837 75.1909 93.096 74.9007 92.9955 74.8555C92.7164 75.2376 92.7101 74.9184 92.4325 75.121C92.6178 75.1558 92.5545 75.3983 92.365 75.5979L92.7532 75.3824C92.6416 76.0845 92.0936 75.6725 91.9919 76.3971L91.9572 76.1351C91.8669 76.4789 91.3466 77.2892 91.5684 77.7731C91.4934 77.806 91.3312 77.8237 91.3642 77.675C90.9423 78.4241 91.0369 79.5543 90.6315 80.1173L90.5263 80.0204C90.5181 80.185 90.668 80.3427 90.5019 80.5142C90.4554 80.4899 90.4 80.4248 90.3748 80.4896C90.3919 80.5894 90.4802 80.953 90.3648 81.138L90.2758 80.9356C89.9501 81.7408 90.3712 82.2712 90.4077 82.9439C90.0461 82.9151 89.903 83.5863 89.8751 83.9295L89.8244 83.916C89.8255 84.9353 90.2759 85.6138 90.6643 86.4359C90.5567 86.7605 90.7002 87.2699 90.9393 87.773C91.1785 88.2761 91.5208 88.7696 91.7626 89.2178C91.7117 89.0613 91.9869 89.0565 92.132 89.1627C92.2309 89.3876 92.7387 89.4236 92.4934 89.6388L92.438 89.5738C92.351 89.9251 92.7922 90.1962 93.1265 90.407L93.4029 90.0797C93.6487 90.5977 94.3477 90.8449 94.9737 90.8647C95.6062 90.8996 96.1372 90.7645 96.4564 90.9819C96.684 90.8281 96.9661 90.7577 97.1505 90.5872L97.2095 90.8028C97.8403 90.6506 98.1317 90.5403 98.7466 90.1893L98.6851 90.3953C99.0449 90.237 98.8345 89.5961 99.1469 89.4318L99.387 89.693C99.9801 89.4143 100.697 89.4387 101.185 88.9201C101.197 88.9684 101.207 89.0715 101.113 89.1219C101.397 89.0149 102.295 88.9419 102.044 88.5335C102.147 88.81 102.687 88.349 102.996 88.1149L103.006 88.3427C103.215 87.9827 103.197 87.9012 103.587 87.7115C103.694 87.7094 103.719 87.8683 103.574 87.8428C103.924 87.8674 103.767 87.57 104.191 87.58L104.08 87.7541C104.417 87.6864 104.373 87.6255 104.515 87.4199C104.701 87.2751 105.157 87.3343 105.258 87.5226C105.279 87.388 105.428 87.1973 105.632 87.2147C105.672 87.2864 105.611 87.3493 105.577 87.3733C106.158 87.413 106.363 86.9648 106.795 87.1328C106.817 87.2035 106.841 87.2377 106.876 87.2578C106.426 87.3126 106.072 87.3611 106.099 87.3404C106.133 87.5401 106.497 87.5141 106.261 87.8507C106.52 87.6472 106.961 87.2473 107.319 87.287C107.336 87.3062 107.361 87.322 107.374 87.352L107.337 87.3685C107.424 87.3838 107.491 87.3541 107.555 87.317C107.672 87.3374 107.751 87.356 107.855 87.3464C107.92 87.5146 108.278 87.3929 108.451 87.3795C108.414 87.154 108.652 87.1658 108.41 87.0035C108.443 87.0161 108.38 87.035 108.257 87.062C108.235 87.0719 108.202 87.0776 108.182 87.0949L108.191 87.0733C108.073 87.0895 107.914 87.1147 107.737 87.1389C107.868 87.0097 108.005 86.8955 108.22 86.9978C108.297 86.8476 108.386 86.6834 108.441 86.6054C108.72 86.8942 109.212 87.0357 109.294 87.2231C109.834 87.0481 110.592 87.0818 110.936 86.6442C111.092 86.5933 111.124 86.7671 111.18 86.8322C111.09 86.8718 110.98 86.8663 110.929 86.9335C111.239 86.8241 111.866 86.8881 111.95 86.5916C112.351 86.7287 111.725 86.8518 112.276 86.824L112.199 86.9118C113.259 87.4114 114.008 86.2055 115.176 86.9084C115.097 86.8715 115.058 86.8439 115.042 86.7882C116.395 87.1592 117.912 86.8051 119.209 87.4154C119.584 87.5548 119.648 87.3747 119.906 87.2701L119.956 87.5255L120.395 87.3052C120.999 87.192 121.29 88.0387 122.07 87.7765L121.994 87.6041C122.255 87.6683 122.839 87.6348 122.764 87.8108C122.799 87.7868 122.875 87.6549 122.965 87.7583L122.951 87.8896L123.628 87.78C124.107 87.954 123.464 88.2633 124.18 88.4049C124.455 88.4001 124.998 88.1703 124.918 88.071C124.817 88.044 124.657 87.9445 124.667 87.824L124.924 87.8C125.026 87.4421 125.286 87.0956 124.724 86.7342L124.265 86.8913L124.161 86.6955L124.515 86.7459C124.345 86.5432 124.188 86.6748 124.031 86.744C124.014 86.6442 123.962 86.5683 123.888 86.5207L123.412 86.8015C123.39 86.6501 123.648 86.5455 123.379 86.4222C123.16 86.5544 123.508 86.7769 123.172 86.8263C122.995 86.6269 123.082 86.4992 122.824 86.6038C122.807 86.504 122.865 86.4518 122.969 86.424C122.741 86.4971 122.403 86.3777 122.258 86.5576C122.083 86.3216 121.542 86.4966 121.614 86.1519C121.541 86.2289 121.2 86.3697 121.007 86.3565C121.428 85.9923 120.287 86.2257 120.444 85.7898C120.127 86.1261 119.467 85.8259 118.976 85.9704C119.011 85.9464 119.065 85.8867 119.104 85.9143C118.85 85.8468 118.779 85.726 118.623 85.6339C118.545 85.9454 118.13 85.9579 117.883 86.1291C117.592 85.7921 118.124 85.7817 118.058 85.4888C118.042 85.7373 117.462 85.6793 117.55 85.9C117.322 85.6871 117.347 85.7836 117.254 85.5114C117.165 85.8993 117.013 85.5545 116.786 85.7707C116.446 85.5449 116.731 85.4013 116.325 85.4729C116.148 85.3359 116.513 85.2292 116.513 85.2292L116.497 85.2541L116.441 85.189ZM106.943 85.9046C107.021 85.8791 107.088 85.8677 107.14 85.8629C107.102 85.8794 107.043 85.8875 106.943 85.9046ZM106.156 86.0271C106.252 86.0208 106.37 86.0046 106.496 85.9852C106.529 86.0601 106.517 86.1365 106.443 86.1512C106.483 86.0982 106.286 86.0775 106.16 86.0346L106.156 86.0271ZM107.993 87.3569C107.881 87.4064 107.835 87.3638 107.816 87.3188C107.875 87.3107 107.938 87.2919 108.027 87.2706C108.027 87.2706 108.035 87.249 108.04 87.2382C108.034 87.2856 108.024 87.3254 108.001 87.3536L107.993 87.3569Z" fill="white"/>
</g>
<path d="M31.4498 24.8182C33.5236 21.256 38.3678 19.4119 42.0495 21.5553C45.7311 23.6987 44.1654 29.775 42.0915 33.3372C40.0177 36.8994 32.5679 37.8079 28.8863 35.6645C25.2046 33.5211 29.3752 28.3817 31.449 24.8195L31.4498 24.8182Z" fill="#93D930"/>
</svg>
