<svg width="249" height="209" viewBox="0 0 249 209" fill="none" xmlns="http://www.w3.org/2000/svg">
<mask id="mask0_3368_52425" style="mask-type:alpha" maskUnits="userSpaceOnUse" x="63" y="167" width="110" height="119">
<path d="M155.843 184.17C180.727 204.546 176.166 251.033 155.761 275.842C135.341 300.649 114.81 273.617 89.9108 253.24C65.026 232.865 53.4287 209.975 73.8486 185.168C94.2685 160.36 130.958 163.795 155.843 184.17Z" fill="#DA3B9B"/>
</mask>
<g mask="url(#mask0_3368_52425)">
<path d="M155.843 184.17C180.727 204.546 176.166 251.033 155.761 275.842C135.341 300.649 114.81 273.617 89.9108 253.24C65.026 232.865 53.4287 209.975 73.8486 185.168C94.2685 160.36 130.958 163.795 155.843 184.17Z" fill="#DA3B9B"/>
<path d="M174.555 226.599C174.102 226.194 174.086 226.71 173.846 226.789C173.228 226.427 173.776 226.356 173.708 226.054C173.294 225.853 172.799 225.912 172.544 225.693C172.562 225.622 172.527 225.563 172.641 225.547C172.098 225.479 171.52 224.707 170.837 224.718C170.825 224.665 170.822 224.619 170.843 224.595C170.805 224.805 170.702 224.974 170.594 225.081C170.376 224.936 170.05 224.998 170.116 224.74C170.239 224.846 170.31 224.764 170.424 224.748L170.142 224.676C170.14 224.231 170.519 224.787 170.68 224.568C170.164 224.352 169.495 224.232 169.181 223.932C169.308 223.569 170.066 224.367 169.778 223.788L170.228 224.278C170.142 223.516 170.532 224.54 170.498 223.767C169.864 223.175 169.588 223.395 168.926 222.851C168.662 222.924 168.823 223.135 168.551 223.201C167.338 222.898 168.21 221.889 167.181 221.902C166.859 222.01 166.569 222.362 166.126 221.864L166.506 221.606C165.784 221.182 165.821 221.901 165.182 221.249C165.391 221.172 165.825 221.432 165.733 221.324C165.386 220.78 165.28 221.334 164.891 221.155L164.972 220.795C164.143 220.494 163.16 220.289 162.225 220.011C162.312 219.928 162.508 219.883 162.349 219.703C161.732 219.571 161.123 219.331 160.541 219.043C159.938 218.779 159.349 218.499 158.806 218.216L158.288 218.384C158.185 218.353 158.143 218.187 158.264 218.163C157.846 217.917 158.185 218.353 157.943 218.402C157.686 218.351 157.648 218.147 157.843 218.086C156.966 218.173 155.46 218.075 154.674 217.625L154.862 217.558C154.215 217.328 154.007 218.066 153.449 217.684L153.577 217.651C153.225 217.562 152.866 217.48 152.494 217.446C152.131 217.418 151.751 217.377 151.396 217.357C150.677 217.294 150.015 217.165 149.46 216.929C149.238 217.368 148.013 216.696 147.92 217.317C147.089 216.986 147.328 216.892 146.147 216.716C145.831 216.701 145.708 217.125 145.331 217.214L145.299 216.886L144.804 217.26L144.5 216.882L144.146 216.993C144.293 217.005 144.455 217.116 144.446 217.209C143.899 217.395 143.077 217.086 143.043 216.927L141.765 217.327C141.779 217.196 141.997 217.126 142.158 217.022C141.496 217.424 142.003 216.687 141.384 217.055C141.473 217.118 141.353 217.257 141.35 217.327C141.016 217.167 140.298 217.234 139.763 217.373L139.846 217.144C138.881 217.184 137.847 217.451 136.793 217.528C137.174 217.6 137.134 217.995 136.816 218.064L136.661 217.729C136.47 217.951 136.991 217.828 136.606 218.125C136.205 218.108 136.31 217.755 136.523 217.624L136.058 217.781C136.02 217.676 136.13 217.614 136.152 217.49C135.961 217.711 135.309 217.205 135.044 217.578L135.014 217.48C133.965 217.534 133.505 217.652 132.652 217.66C132.628 217.954 132.308 217.892 132.04 218.119C131.425 218.003 130.737 217.738 130.009 217.668C129.478 217.753 129.826 217.896 129.576 218.053C129.573 217.792 128.836 217.699 129.249 217.569C128.381 217.464 128.14 217.427 126.997 217.357C127.077 217.497 127.206 217.58 127.111 217.656C126.895 217.641 126.694 217.41 126.763 217.297L126.823 217.277C126.156 217.303 125.517 216.865 124.963 216.429C124.394 216.009 123.916 215.567 123.348 215.578L123.402 215.582C123.065 215.491 122.721 215.409 122.383 215.303C122.022 214.991 122.729 215.3 122.535 214.961C121.965 214.841 121.608 214.575 121.333 214.28C121.036 214.01 120.814 213.703 120.385 213.504C120.398 213.257 120.333 213 120.194 212.78C120.124 212.662 120.04 212.561 119.939 212.445C119.854 212.328 119.753 212.212 119.668 212.096L119.373 211.741C119.286 211.609 119.208 211.484 119.138 211.366C118.982 211.116 118.901 210.86 118.937 210.604L118.784 210.731C118.522 210.604 118.779 210.439 118.751 210.272C118.618 210.343 118.688 210.561 118.535 210.472C118.058 209.615 117.882 208.575 117.963 207.571C118.035 206.559 118.332 205.569 118.663 204.622C118.912 203.936 117.813 203.931 118.571 203.154L118.806 203.528C118.856 202.741 119.194 202.002 119.575 201.313C119.954 200.609 120.399 199.962 120.698 199.218C120.707 199.34 120.796 199.403 120.705 199.525C121.096 199.404 121.418 198.551 121.27 198.423C121.433 198.235 121.452 198.495 121.625 198.444C121.936 198.283 121.901 197.593 122.211 197.617C122.265 197.621 122.212 197.748 122.193 197.803C122.237 197.554 122.877 197.061 122.521 197.026C123.026 196.674 123.199 196.093 123.666 195.867C123.648 195.407 124.512 195.236 124.252 194.84C124.564 195.21 125.278 194.366 125.408 193.934C125.415 194.126 125.76 193.808 125.786 194.06C126.102 193.745 126.338 193.405 126.106 193.276C127.101 193.119 126.989 191.79 127.834 191.99C128.62 190.865 129.376 189.841 130.103 188.851C130.436 189.211 129.225 189.883 129.623 190.184C130.281 189.191 130.409 188.414 131.225 187.586C131.464 187.392 131.283 187.851 131.284 187.981C131.878 186.947 132.699 186.195 133.063 185.177C133.096 185.206 133.081 185.322 133.043 185.432C133.145 185.248 133.362 185.063 133.171 184.97L133.109 185.174C132.67 185.267 132.996 184.145 132.863 184.016C133.216 184.636 133.52 183.223 133.914 184.093C133.95 183.952 133.944 183.761 133.802 183.71C133.936 183.554 134.043 183.546 134.086 183.812C134.366 183.123 134.012 183.218 134.347 182.648C134.443 182.702 134.414 182.835 134.492 182.96C134.464 182.563 134.451 182.179 134.786 181.709C134.836 181.767 134.927 181.745 134.853 181.896C135.242 181.015 135.067 180.19 135.648 179.303C135.951 179.765 135.928 179.029 136.319 179.123L136.407 178.54L136.149 178.69C136.323 178.224 136.209 177.725 136.467 177.36C136.484 177.49 136.494 177.627 136.504 177.765C136.59 177.466 136.644 177.155 136.715 176.858L136.418 177.318C136.379 176.783 135.934 177.215 136.229 176.624C136.224 176.763 136.38 176.168 136.682 175.984C136.625 175.72 136.566 175.44 136.742 175.119C136.884 175.055 137.147 175.297 137.245 175.267C136.999 174.955 137.438 174.116 137.157 173.744C137.219 173.855 137.415 173.91 137.467 173.883L137.248 173.622C137.379 173.421 137.431 173.394 137.583 173.467C137.772 172.8 137.053 173.583 137.421 172.826C137.433 172.894 137.478 172.876 137.495 173.005C137.737 172.211 137.603 171.422 137.803 170.692C138.229 170.516 137.821 171.352 138.182 171.149C138.248 170.045 137.946 168.853 138.063 167.823L138.024 168.018C137.459 167.859 138.321 167.243 138.06 166.716C138.1 166.852 138.38 166.893 138.315 166.851C138.385 166.124 138.153 165.365 137.877 164.309L138.024 164.436C138.138 163.99 137.996 163.309 138.009 162.847C137.854 162.727 137.835 162.468 137.649 162.65C137.962 161.89 137.723 161.238 137.478 160.626C137.203 160.016 136.961 159.434 137.104 158.755C137.146 158.906 137.319 159.07 137.288 158.957L136.877 157.957C136.664 158.103 136.767 158.134 136.648 158.404C136.465 158.318 136.292 158.053 136.213 157.813C136.504 158.222 136.597 157.701 136.664 157.458C136.607 157.523 136.511 157.469 136.429 157.513C136.673 156.85 135.927 157.581 135.983 156.77L136.121 156.76C135.964 156.51 135.728 156.319 135.661 156.032C135.891 155.816 135.886 156.269 136.127 156.206C135.959 155.803 135.323 155.611 135.45 155.148C135.591 155.284 135.678 155.531 135.819 155.667C135.981 155.148 135.888 155.14 135.819 154.822L135.821 154.852L135.676 154.125L135.668 154.333C134.777 154.137 135.122 153.374 134.352 152.938C135.075 153.362 134.644 152.932 134.959 152.833C134.96 152.633 134.922 152.328 135.04 152.358C134.649 152.164 134.972 151.74 134.393 151.498C134.472 151.423 134.231 151.172 134.496 151.114C134.208 150.751 134.386 151.291 134.258 151.324C133.627 150.893 133.824 149.688 132.867 149.104C132.208 148.506 131.866 148.554 131.26 148.045C131.238 147.739 131.687 147.999 131.687 147.999C131.556 147.57 131.339 147.325 130.997 147.073C131.121 147.079 131.128 146.971 131.138 146.794C130.914 146.557 130.706 146.864 130.551 146.429C130.689 146.419 130.892 146.366 131.088 146.421C130.764 146.183 130.374 146.004 130.049 145.766C130.12 145.569 130.418 145.77 130.59 145.804C130.246 145.506 129.696 145.031 129.396 145.13L129.516 145.406C129.393 145.299 129.638 145.182 129.765 145.234C130.19 145.372 130.068 145.711 129.997 145.793L129.755 145.626C129.491 146.23 130.543 146.422 130.892 146.896L130.392 146.994C130.62 147.062 130.825 147.139 131.039 147.224C131.021 147.394 130.875 147.612 130.662 147.428C130.726 147.884 130.999 147.619 131.015 148.048C131.011 148.102 130.972 148.097 130.94 148.084L131.28 148.32C131.157 148.314 131.075 148.558 130.973 148.327C131.186 149.027 131.88 149.068 131.763 149.469L131.714 149.426C132.367 150.162 132.03 149.326 132.752 149.75L132.329 150.588L132.661 150.502C132.698 150.592 132.781 150.778 132.653 150.81C133.036 151.013 132.744 150.688 133.034 150.767C133.028 151.321 133.798 151.872 133.407 152.208C133.718 152.247 133.357 151.72 133.752 152.09C133.335 152.474 134.11 152.572 134.079 153.089C133.757 153.097 133.709 152.655 133.676 153.156C134.224 153.186 133.966 153.965 134.187 154.257C134.538 154.116 134.658 154.922 135.004 155.45C134.859 155.468 135.234 156.609 135.269 157.198L135.193 157.204C135.598 157.182 135.718 157.772 135.915 158.158C135.688 158.205 135.577 158.152 135.402 157.972C135.435 158.1 135.489 158.219 135.515 158.356C135.665 158.414 135.757 158.523 135.867 158.761L135.558 158.737C135.718 159.248 136.181 159.691 136.126 160.417C136.401 160.397 136.742 159.704 137.085 160.401C136.951 160.457 136.711 160.536 136.606 160.359C136.641 160.418 136.781 160.554 136.737 160.688L136.428 160.449C136.391 160.79 136.667 160.57 136.701 160.829C136.497 160.867 136.594 161.036 136.424 161.033C136.396 160.966 136.462 160.808 136.363 160.723C136.4 161.012 136.326 161.378 136.19 161.504C136.301 161.457 136.462 161.453 136.531 161.656C136.631 162.186 136.317 161.886 136.256 162.206C136.425 162.309 136.328 162.669 136.633 162.632C136.644 162.785 136.51 162.841 136.438 162.907C136.602 163.164 136.638 164.184 136.936 163.839L136.954 163.769C136.954 163.769 136.971 163.798 136.972 163.814C137.375 164.706 136.95 165.729 137.092 166.625L136.985 166.633C137.132 167.176 137.035 167.836 137.263 168.234C137.267 168.395 137.052 168.611 136.932 168.535C136.985 168.954 137.097 169.007 136.878 169.592C136.723 169.157 136.703 169.727 136.777 169.161C136.647 169.693 136.493 169.789 136.698 170.396C136.444 170.177 136.317 170.755 136.367 171.012L136.602 170.657C136.608 170.949 136.564 171.198 136.498 171.441L136.169 171.257C135.876 171.763 135.973 172.263 136.031 172.743C136.081 173.215 136.091 173.668 135.661 173.984C135.839 174.324 135.952 173.448 136.182 173.761C136.042 174.256 135.4 174.633 135.365 174.774C134.993 175.37 135.712 175.532 135.36 176.188C135.502 176.139 135.864 176.151 135.806 176.717C135.61 177.192 135.115 177.151 135.113 176.806C135.143 176.688 135.193 176.646 135.233 176.666C135.236 176.497 135.251 176.281 135.061 176.417L135.168 176.509C134.969 176.724 134.762 177.377 134.615 177.149C134.597 177.535 134.754 177.37 134.921 177.127C134.53 177.663 134.575 178.074 134.216 178.638C134.319 178.569 134.493 178.534 134.454 178.629C133.931 179.466 134.505 179.117 134.298 179.754C133.964 180.025 133.945 179.45 133.809 180.12C133.517 180.426 133.475 180.06 133.446 179.878C133.408 180.518 132.831 180.822 132.627 181.09C132.643 180.989 132.666 180.88 132.673 180.772C132.649 180.965 132.566 181.094 132.5 181.238L132.811 181.192C132.684 181.34 132.616 181.467 132.528 181.42C132.585 181.669 132.971 181.488 132.988 181.932C132.754 182.088 132.75 182.672 132.413 182.581C132.891 181.962 132.084 182.497 132.348 181.894C132.326 182.019 132.251 182.155 132.124 182.302C132.078 182.306 132.073 182.245 132.085 182.198C131.452 182.682 132.243 182.678 131.839 183.345C131.725 183.161 131.444 183.305 131.415 183.438C131.572 183.173 131.764 183.481 131.733 183.799C131.334 184.127 131.524 184.306 131.37 184.517L131.594 184.308C131.691 184.493 131.537 184.689 131.399 185.014C131.264 184.955 131.491 184.692 131.365 184.755C131.426 185.281 130.58 185.266 130.436 185.83C130.191 185.947 130.13 185.637 129.939 185.758C129.77 186.385 129.334 186.094 129.11 186.718C129.419 186.741 129.391 186.674 129.304 187.172L129.822 186.259L129.692 187.006C129.897 186.768 129.993 186.392 130.138 186.274C130.097 186.653 130.069 186.586 130.331 186.598C129.761 186.693 129.959 187.409 129.438 187.631L128.962 187.22C128.274 187.585 128.334 188.411 127.532 189.007L127.829 188.863C127.917 189.125 127.432 189.322 127.277 189.618C127.149 189.45 126.956 189.541 126.772 189.539C126.886 189.638 126.255 190.038 126.473 190.398L125.959 190.513C125.309 190.983 125.713 191.576 125.11 192.057C125.118 191.734 124.759 191.868 125.024 191.395C124.829 191.571 124.646 191.699 124.739 191.808C124.539 191.807 124.414 192.515 124.108 192.538C124.096 192.685 124.216 192.86 124.007 193.052C123.953 193.049 123.925 192.981 123.925 192.981C124.007 193.052 123.694 193.398 124.04 193.396C123.008 193.478 122.489 195.007 121.607 195.133C121.272 195.603 120.86 196.163 120.536 196.571C120.508 196.504 120.454 196.5 120.534 196.44C119.928 196.876 120.717 197.157 120.039 197.66C119.518 197.782 120.16 197.205 119.9 197.339C119.276 197.001 119.37 198.185 118.734 198.423L118.778 198.289C118.341 198.513 118.423 199.314 118.026 199.889C118.026 199.889 117.983 199.823 117.937 199.826C118.003 200.413 117.688 201.258 117.528 201.908C117.361 201.62 117.518 201.57 117.212 201.577C117.133 201.867 117.657 201.676 117.484 202.257C117.269 202.372 117.003 202.73 116.709 202.69C116.765 202.509 116.828 202.32 116.899 202.138C116.44 202.271 116.643 202.848 116.486 203.113L116.333 203.024C116.12 203.901 116.514 204.026 116.288 204.934L116.428 204.854C116.747 205.43 116.11 205.239 116.35 205.79L115.919 205.89C115.968 206.248 116.209 207.129 116.336 207.712C116.005 207.383 115.86 206.655 115.717 206.174C115.673 206.523 115.682 207.375 115.909 207.543C115.86 207.401 115.748 207.232 115.83 207.088C116.154 207.525 116.322 208.043 116.409 208.706C115.994 208.705 115.995 209.151 116.095 209.681C116.18 210.213 116.391 210.782 116.163 211.144C116.901 212.197 117.133 213.487 118.129 214.605C118.278 213.803 118.42 214.915 118.853 214.414C119.092 214.635 119.175 214.721 119.171 214.775C119.31 215.096 119.463 215.415 119.625 215.741C119.678 216.045 119.303 215.634 119.22 215.763C119.736 216.31 119.265 216.175 119.537 216.639C119.611 216.388 119.954 216.555 120.224 216.889C120.125 216.689 120.033 216.48 119.949 216.279C120.448 216.481 120.548 216.696 120.65 216.942C120.76 217.18 120.855 217.435 121.388 217.58C121.258 217.582 121.127 217.584 121.004 217.578C121.258 217.682 121.69 217.927 122.128 218.134C122.58 218.324 123.065 218.442 123.403 218.333C123.456 218.437 123.494 218.641 123.261 218.597C124.382 219.222 126.033 219.102 126.856 219.642L126.736 219.781C126.966 219.78 127.198 219.578 127.429 219.807C127.395 219.864 127.309 219.947 127.403 219.971C127.54 219.961 128.062 219.838 128.341 219.979L128.051 220.116C128.636 220.334 129.118 220.307 129.571 220.197C130.026 220.118 130.444 219.949 130.943 219.936C130.908 220.407 131.837 220.609 132.297 220.691L132.279 220.761C133.668 220.844 134.616 220.36 135.851 220.109C136.661 220.58 138.48 220.118 139.736 220.272C139.538 220.202 139.732 219.911 139.935 219.843C140.232 219.913 140.697 219.441 140.69 219.865L140.583 219.872C140.842 220.269 141.421 220.096 141.88 220.062L141.893 219.5C143.164 220.184 144.994 218.929 145.683 219.624C145.956 219.474 146.308 219.448 146.589 219.305L146.581 219.613C147.368 219.663 147.756 219.712 148.713 219.665L148.522 219.886C149.046 219.91 149.22 219.029 149.727 219.023L149.859 219.466C150.81 219.543 151.721 220.015 152.699 219.729C152.673 219.792 152.636 219.918 152.473 219.906C152.918 219.989 154.122 220.486 154.068 219.852C154.012 220.248 155.027 220.036 155.57 220.004L155.436 220.275C155.939 220.008 155.978 219.913 156.595 219.945C156.731 220.019 156.66 220.201 156.49 220.083C156.924 220.343 156.929 219.889 157.458 220.189C157.369 220.226 157.288 220.271 157.191 220.316C157.663 220.466 157.648 220.367 157.977 220.236C158.313 220.211 158.863 220.586 158.852 220.864C158.966 220.733 159.294 220.601 159.551 220.752C159.559 220.859 159.438 220.883 159.378 220.902C160.1 221.326 160.653 221.002 161.101 221.461C161.077 221.555 161.097 221.615 161.131 221.659C160.522 221.419 160.023 221.217 160.077 221.22C159.988 221.473 160.467 221.715 159.951 221.914C160.408 221.865 161.25 221.704 161.694 222.002C161.711 222.031 161.722 222.069 161.717 222.108L161.656 222.112C161.753 222.182 161.869 222.197 161.977 222.189C162.108 222.302 162.19 222.373 162.34 222.431C162.311 222.664 162.843 222.794 163.074 222.908C163.176 222.624 163.474 222.81 163.279 222.455C163.312 222.484 163.219 222.475 163.053 222.403C163.014 222.398 162.974 222.378 162.936 222.388L162.957 222.363C162.807 222.305 162.585 222.214 162.355 222.115C162.605 222.059 162.857 222.033 163.061 222.31C163.26 222.195 163.482 222.072 163.594 222.025C163.756 222.567 164.298 223.05 164.271 223.313C165.057 223.548 165.996 224.102 166.724 223.857C166.966 223.908 166.883 224.137 166.907 224.258C166.767 224.238 166.63 224.148 166.525 224.186C166.994 224.291 167.726 224.852 168.013 224.57C168.423 225.024 167.539 224.704 168.265 225.074L168.106 225.109C168.615 225.763 169.25 225.94 169.941 226.136C170.616 226.332 171.317 226.566 171.742 227.449C171.68 227.339 171.645 227.28 171.663 227.209C171.999 227.6 172.376 227.926 172.784 228.25C173.177 228.574 173.577 228.907 173.97 229.231C174.784 229.864 175.507 230.603 175.972 231.506C176.269 231.992 176.504 231.852 176.861 232.003L176.699 232.307L177.352 232.513C178.094 232.997 177.682 234.087 178.675 234.645L178.765 234.408C178.951 234.74 179.568 235.302 179.329 235.397C179.391 235.407 179.588 235.362 179.579 235.555L179.448 235.657C179.715 235.845 179.954 236.066 180.2 236.278C180.472 236.958 179.574 236.539 180.093 237.447C180.352 237.727 181.088 238.135 181.114 237.956C181.034 237.816 180.993 237.566 181.132 237.471L181.398 237.744C181.853 237.549 182.452 237.552 182.267 236.589L181.67 236.202L181.763 235.896L182.057 236.351C182.092 235.979 181.818 235.915 181.587 235.801C181.664 235.695 181.693 235.563 181.676 235.433L180.949 235.163C181.067 234.993 181.427 235.19 181.282 234.778C180.936 234.665 181.085 235.238 180.687 234.937C180.698 234.559 180.895 234.53 180.529 234.356C180.598 234.244 180.714 234.258 180.843 234.341C180.531 234.172 180.288 233.69 179.991 233.719C180.022 233.302 179.316 232.892 179.697 232.634C179.543 232.63 179.044 232.428 178.852 232.219C179.632 232.278 178.182 231.353 178.723 231.076C178.409 231.091 178.137 230.842 177.856 230.57C177.56 230.3 177.268 229.99 176.918 229.831C176.973 229.835 177.088 229.835 177.107 229.895C176.862 229.582 176.894 229.395 176.784 229.142C176.442 229.405 175.974 229.001 175.542 228.971C175.458 228.355 176.091 228.816 176.256 228.443C176.037 228.697 175.395 228.113 175.334 228.433C175.233 228.002 175.181 228.129 175.276 227.753C174.879 228.097 174.964 227.584 174.521 227.616C174.296 227.064 174.749 227.154 174.198 226.879C174.084 226.58 174.614 226.779 174.607 226.787L174.681 226.751L174.555 226.599ZM162.179 220.115C162.297 220.144 162.399 220.175 162.454 220.194C162.392 220.184 162.32 220.15 162.179 220.115ZM161.089 219.702C161.208 219.763 161.382 219.827 161.556 219.891C161.556 220.006 161.486 220.088 161.374 220.035C161.455 219.991 161.229 219.838 161.089 219.702ZM162.545 222.509C162.367 222.483 162.338 222.401 162.34 222.331C162.419 222.356 162.514 222.396 162.632 222.426C162.639 222.417 162.653 222.401 162.66 222.393C162.624 222.434 162.582 222.483 162.537 222.502L162.545 222.509Z" fill="white"/>
<path d="M177.221 207.999C176.951 207.765 176.851 208.195 176.653 208.324C176.265 208.161 176.682 207.977 176.694 207.73C176.427 207.642 176.063 207.814 175.908 207.695C175.934 207.631 175.924 207.594 176.005 207.549C175.597 207.641 175.342 207.09 174.845 207.234C174.841 207.188 174.855 207.157 174.868 207.125C174.797 207.322 174.694 207.491 174.602 207.598C174.473 207.515 174.229 207.648 174.327 207.403C174.401 207.466 174.463 207.377 174.545 207.333L174.353 207.339C174.432 206.949 174.6 207.352 174.761 207.133C174.432 207.049 173.953 207.122 173.814 206.902C173.967 206.576 174.359 207.101 174.257 206.655L174.503 206.967C174.572 206.34 174.683 207.123 174.789 206.47C174.425 206.112 174.225 206.326 173.854 205.977C173.655 206.091 173.728 206.255 173.528 206.354C172.763 206.294 173.52 205.286 172.824 205.445C172.588 205.585 172.316 205.966 172.119 205.58L172.42 205.282C172.017 205.019 171.903 205.665 171.599 205.188C171.76 205.084 171.995 205.244 171.959 205.17C171.827 204.726 171.643 205.269 171.427 205.154L171.549 204.815C171.06 204.651 170.45 204.611 169.916 204.45C169.987 204.368 170.12 204.297 170.048 204.148C169.317 204.032 168.679 203.495 168.095 203.076L167.748 203.278C167.693 203.259 167.697 203.105 167.771 203.069C167.557 202.869 167.685 203.252 167.528 203.317C167.38 203.289 167.395 203.073 167.522 203.026C166.99 203.095 166.072 203.162 165.699 202.682L165.81 202.62C165.477 202.375 165.216 203.124 164.951 202.752L165.025 202.715C164.637 202.552 164.201 202.476 163.793 202.367C163.395 202.281 163.01 202.163 162.743 201.875C162.55 202.281 161.957 201.525 161.795 202.144C161.368 201.775 161.523 201.679 160.878 201.38C160.698 201.324 160.565 201.726 160.338 201.773L160.368 201.44L160.029 201.749L159.907 201.343L159.69 201.413C159.768 201.438 159.855 201.57 159.839 201.671C159.502 201.795 159.064 201.374 159.067 201.205C158.795 201.271 158.548 201.358 158.293 201.438C158.306 201.306 158.442 201.266 158.551 201.188C158.136 201.503 158.495 200.839 158.108 201.121C158.153 201.202 158.069 201.316 158.058 201.378C157.881 201.168 157.48 201.151 157.17 201.212L157.238 200.984C156.709 200.9 156.111 201.028 155.537 200.947C155.73 201.071 155.643 201.454 155.467 201.474L155.442 201.123C155.311 201.324 155.606 201.264 155.339 201.507C155.127 201.438 155.248 201.098 155.387 201.004L155.116 201.085C155.109 200.978 155.175 200.935 155.212 200.809C155.065 201.012 154.851 200.397 154.638 200.743L154.646 200.635C154.123 200.527 153.872 200.568 153.48 200.459C153.37 200.736 153.238 200.622 153.035 200.791C152.912 200.684 152.801 200.531 152.684 200.401C152.581 200.255 152.458 200.149 152.328 200.051C152.05 200.025 152.133 200.211 151.93 200.279C152.076 200.061 151.807 199.858 152.066 199.824C151.748 199.578 151.669 199.538 151.193 199.226C151.131 199.331 151.129 199.415 151.024 199.438C150.934 199.376 150.989 199.18 151.117 199.132L151.141 199.153C150.829 198.984 150.844 198.552 150.925 198.193C151.014 197.825 151.122 197.518 150.822 197.301L150.855 197.33C150.735 197.169 150.63 196.993 150.525 196.816C150.569 196.567 150.743 196.961 150.899 196.781C150.441 196.184 151.001 195.851 150.763 195.331C151.605 195.07 150.944 193.911 151.588 193.465L151.402 193.448C151.265 193.258 151.552 193.291 151.615 193.202C151.475 193.181 151.416 193.316 151.33 193.199C151.406 191.918 152.242 190.735 152.754 189.53C152.937 189.086 151.886 189.009 152.483 188.551L152.778 188.806C152.626 187.772 153.324 186.914 153.236 185.906C153.302 185.978 153.405 186.009 153.381 186.103C153.687 185.981 153.598 185.388 153.393 185.326C153.453 185.191 153.579 185.343 153.713 185.287C153.917 185.134 153.533 184.716 153.807 184.681C153.853 184.678 153.874 184.753 153.878 184.799C153.789 184.636 154.066 184.216 153.754 184.262C153.977 183.954 153.811 183.566 154.048 183.342C153.782 183.069 154.362 182.796 153.934 182.612C154.39 182.763 154.473 182.104 154.314 181.824C154.437 181.93 154.511 181.679 154.689 181.804C154.755 181.546 154.722 181.302 154.467 181.282C155.135 180.957 154.253 180.238 155.038 180.157C154.971 179.34 154.964 178.603 154.997 177.901C155.46 178.029 154.883 178.662 155.373 178.742C155.315 178.047 155.005 177.593 155.252 176.976C155.341 176.823 155.439 177.108 155.499 177.188C155.433 176.501 155.792 175.937 155.631 175.311C155.678 175.323 155.713 175.382 155.734 175.457C155.748 175.341 155.854 175.203 155.629 175.181L155.669 175.301C155.332 175.425 155.097 174.735 154.933 174.693C155.516 174.997 155.177 174.145 155.908 174.576C155.879 174.494 155.793 174.377 155.639 174.373C155.693 174.262 155.792 174.247 155.932 174.383C155.878 173.948 155.633 174.066 155.682 173.694C155.792 173.716 155.812 173.792 155.932 173.852C155.754 173.627 155.578 173.417 155.716 173.107C155.78 173.133 155.862 173.104 155.847 173.205C155.883 172.649 155.413 172.215 155.671 171.635C156.118 171.864 155.834 171.446 156.234 171.448L156.14 171.109L155.941 171.223C155.973 170.937 155.701 170.672 155.852 170.431L155.999 170.658C155.986 170.475 155.974 170.307 155.96 170.123C155.906 170.219 155.86 170.323 155.79 170.42C155.607 170.118 155.29 170.418 155.418 170.055C155.454 170.129 155.428 169.778 155.672 169.645C155.554 169.499 155.42 169.355 155.528 169.148C155.655 169.1 155.97 169.2 156.053 169.171C155.735 169.025 155.973 168.501 155.622 168.326C155.703 168.382 155.911 168.39 155.956 168.371L155.686 168.253C155.769 168.124 155.814 168.105 155.976 168.116C156.031 167.72 155.478 168.245 155.697 167.775C155.723 167.812 155.76 167.786 155.804 167.867C155.923 167.398 155.608 166.967 155.722 166.536C156.111 166.385 155.842 166.912 156.168 166.75C156.084 166.118 155.608 165.492 155.648 164.882L155.618 164.999C155.048 164.979 155.86 164.521 155.549 164.251C155.6 164.324 155.875 164.304 155.806 164.302C155.829 163.877 155.561 163.474 155.273 162.896L155.43 162.946C155.511 162.686 155.376 162.296 155.402 162.033C155.245 161.983 155.234 161.83 155.051 161.959C155.671 160.976 154.274 160.571 154.71 159.701C154.739 159.784 154.891 159.857 154.871 159.797L154.562 159.243C154.34 159.367 154.448 159.375 154.299 159.547C154.136 159.52 153.988 159.393 153.947 159.242C154.185 159.448 154.329 159.114 154.41 158.955C154.344 158.998 154.251 158.989 154.184 159.017C154.482 158.573 153.7 159.129 153.826 158.636L153.955 158.619C153.838 158.489 153.633 158.412 153.597 158.238C153.839 158.074 153.782 158.355 154.007 158.277C153.906 158.046 153.343 158.018 153.505 157.714C153.625 157.775 153.689 157.916 153.786 157.986C154.013 157.623 153.908 157.646 153.886 157.456L153.894 157.463L153.855 157.028L153.811 157.162C153.005 157.182 153.441 156.628 152.815 156.473C153.418 156.622 153.08 156.416 153.379 156.302C153.408 156.169 153.417 155.976 153.517 155.977C153.19 155.923 153.542 155.583 153.068 155.502C153.148 155.442 152.977 155.309 153.224 155.222C153.025 155.021 153.096 155.369 152.968 155.402C152.479 155.222 152.847 154.365 152.137 154.125C151.7 153.819 151.349 153.959 150.946 153.697C150.991 153.478 151.321 153.577 151.321 153.577C151.3 153.287 151.167 153.143 150.929 153.037C151.034 153.014 151.06 152.935 151.104 152.802C150.956 152.674 150.722 152.945 150.686 152.655C150.806 152.616 150.985 152.541 151.131 152.538C150.915 152.423 150.62 152.383 150.397 152.277C150.5 152.108 150.691 152.201 150.844 152.19C150.602 152.039 150.284 151.778 150.009 151.913C150.021 151.966 150.042 152.041 150.053 152.094C149.979 152.03 150.2 151.891 150.285 151.908C150.602 151.924 150.416 152.221 150.352 152.295L150.192 152.215C149.847 152.747 150.685 152.64 150.874 152.918L150.433 153.096L150.942 153.121C150.898 153.255 150.727 153.436 150.583 153.354C150.544 153.665 150.826 153.421 150.748 153.727C150.728 153.766 150.706 153.776 150.682 153.77L150.92 153.875C150.822 153.89 150.69 154.092 150.664 153.94C150.69 154.407 151.31 154.27 151.133 154.575L151.086 154.563C151.512 154.931 151.383 154.418 151.932 154.578L151.404 155.239L151.71 155.117C151.71 155.117 151.768 155.282 151.649 155.336C151.953 155.399 151.741 155.23 151.995 155.234C151.893 155.618 152.5 155.828 152.076 156.135C152.335 156.101 152.129 155.809 152.404 155.988C151.952 156.329 152.653 156.247 152.547 156.585C152.252 156.645 152.286 156.374 152.171 156.705C152.68 156.614 152.291 157.18 152.463 157.329C152.821 157.18 152.788 157.682 153.054 157.954C152.94 157.97 153.105 158.658 153.077 159.006L153.008 159.018C153.387 158.945 153.45 159.286 153.604 159.49C153.378 159.552 153.277 159.537 153.132 159.455C153.168 159.529 153.181 159.597 153.202 159.673C153.342 159.693 153.422 159.734 153.508 159.866L153.219 159.902C153.316 160.187 153.73 160.387 153.655 160.823C153.928 160.773 154.301 160.307 154.582 160.679C154.439 160.728 154.207 160.814 154.116 160.721C154.149 160.749 154.268 160.809 154.214 160.906L153.93 160.803C153.868 161.008 154.148 160.849 154.166 160.994C153.963 161.047 154.046 161.133 153.879 161.16C153.846 161.132 153.93 161.018 153.835 160.979C153.832 161.148 153.763 161.361 153.625 161.471C153.737 161.424 153.904 161.397 153.959 161.516C154.049 161.809 153.732 161.678 153.677 161.874C153.842 161.916 153.742 162.131 154.037 162.071C154.059 162.162 153.917 162.211 153.836 162.255C153.998 162.381 154.018 162.972 154.309 162.735L154.32 162.688L154.345 162.71C154.763 163.171 154.364 163.815 154.562 164.315L154.455 164.323C154.622 164.611 154.612 165.003 154.857 165.201C154.863 165.292 154.69 165.443 154.549 165.407C154.65 165.638 154.767 165.653 154.631 166.009C154.431 165.793 154.477 166.104 154.476 165.774C154.415 166.094 154.258 166.159 154.551 166.483C154.275 166.388 154.223 166.73 154.31 166.877L154.502 166.656C154.536 166.815 154.524 166.962 154.511 167.109L154.153 167.042C153.76 167.663 154.903 168.164 154.192 168.638C154.443 168.812 154.368 168.302 154.655 168.451C154.607 168.738 154.098 169.029 154.089 169.122C153.878 169.498 154.593 169.5 154.439 169.911C154.566 169.863 154.909 169.831 155.009 170.146C154.954 170.442 154.456 170.471 154.374 170.285C154.376 170.215 154.405 170.183 154.452 170.194C154.414 170.105 154.359 169.971 154.221 170.081L154.339 170.126C154.212 170.273 154.185 170.652 153.986 170.551C154.094 170.774 154.185 170.652 154.259 170.501C154.054 170.854 154.208 171.073 154.059 171.445C154.139 171.385 154.282 171.352 154.279 171.406C154.072 171.943 154.49 171.675 154.511 172.065C154.295 172.265 154.064 171.936 154.177 172.335C154.016 172.555 153.84 172.345 153.748 172.251C153.953 172.628 153.518 172.883 153.446 173.065L153.371 172.871C153.417 172.982 153.4 173.068 153.385 173.169L153.648 173.096C153.594 173.192 153.578 173.293 153.469 173.271C153.617 173.398 153.89 173.248 154.092 173.494C153.94 173.621 154.172 173.95 153.826 173.952C153.995 173.524 153.487 173.946 153.49 173.561C153.519 173.644 153.509 173.721 153.441 173.834C153.403 173.844 153.377 173.808 153.367 173.77C153.01 174.149 153.723 174.021 153.64 174.465C153.457 174.378 153.259 174.508 153.304 174.589C153.329 174.411 153.632 174.558 153.745 174.741C153.549 175.002 153.8 175.076 153.749 175.218L153.845 175.057C154.028 175.144 153.97 175.294 153.992 175.5C153.845 175.487 153.924 175.297 153.852 175.364C154.141 175.642 153.422 175.795 153.578 176.145C153.418 176.264 153.221 176.094 153.121 176.193C153.287 176.581 152.798 176.516 152.919 176.907C153.192 176.857 153.136 176.822 153.319 177.124L153.258 176.498L153.553 176.953C153.593 176.774 153.461 176.545 153.538 176.439C153.708 176.658 153.644 176.632 153.872 176.584C153.453 176.753 153.987 177.114 153.681 177.351L153.072 177.211C152.699 177.576 153.232 178.037 152.946 178.55L153.088 178.386C153.329 178.522 153.053 178.742 153.106 178.945C152.901 178.883 152.808 178.975 152.658 179.016C152.806 179.044 152.541 179.417 152.943 179.564L152.611 179.75C152.395 180.165 153.066 180.401 152.888 180.806C152.698 180.627 152.509 180.779 152.424 180.447C152.388 180.588 152.312 180.709 152.453 180.745C152.31 180.794 152.625 181.209 152.393 181.295C152.476 181.381 152.673 181.451 152.616 181.617C152.57 181.62 152.522 181.593 152.522 181.593C152.616 181.617 152.589 181.88 152.845 181.8C152.096 182.07 152.559 183.043 151.915 183.274C151.9 183.606 151.852 183.993 151.788 184.282C151.739 184.24 151.694 184.258 151.721 184.21C151.431 184.547 152.235 184.611 151.902 184.996C151.512 185.132 151.789 184.713 151.627 184.817C150.949 184.689 151.56 185.375 151.097 185.562L151.075 185.471C150.788 185.638 151.175 186.102 151.017 186.467C151.017 186.467 150.968 186.425 150.923 186.443C151.195 186.792 151.163 187.309 151.16 187.694C150.939 187.503 151.069 187.501 150.784 187.483C150.781 187.652 151.227 187.551 151.205 187.89C151.033 187.957 150.848 188.155 150.552 188.099L150.614 187.795C150.211 187.848 150.52 188.186 150.408 188.333L150.257 188.274C150.178 188.764 150.577 188.866 150.406 189.363L150.543 189.353C150.871 189.736 150.256 189.52 150.481 189.872L150.057 189.849C150.103 190.061 150.272 190.594 150.266 190.933C150.017 190.674 149.955 190.248 149.849 189.956C149.793 190.137 149.71 190.581 149.89 190.722C149.868 190.631 149.791 190.522 149.879 190.469C150.14 190.781 150.224 191.097 150.112 191.459C149.34 191.192 149.677 192.343 149.001 192.446C149.137 193.151 148.563 193.716 148.476 194.529C149.147 194.349 148.455 194.769 149.104 194.814C149.117 194.997 149.099 195.068 149.046 195.079C148.898 195.251 148.749 195.423 148.6 195.596C148.401 195.71 148.478 195.405 148.324 195.401C148.232 195.822 148.028 195.545 147.834 195.836C148.069 195.796 148.154 196.012 148.056 196.258L148.37 195.927C148.684 196.542 147.785 196.439 148.154 197.073L147.933 196.881C148.055 197.188 148.032 198.142 148.624 198.353C148.567 198.418 148.415 198.545 148.327 198.397C148.381 198.816 148.634 199.236 148.914 199.592C149.186 199.956 149.454 200.26 149.51 200.609L149.351 200.644C149.483 200.757 149.747 200.699 149.75 200.945C149.691 200.98 149.585 201.003 149.62 201.062C149.722 201.093 150.092 201.212 150.183 201.405L149.922 201.409C150.149 201.777 150.467 201.923 150.8 201.968C151.113 202.037 151.448 201.997 151.733 202.115C151.501 202.516 152.001 202.948 152.252 203.122L152.21 203.171C153.069 203.57 153.785 203.272 154.557 203.223C154.953 203.809 156.102 203.641 156.801 203.959C156.694 203.867 156.844 203.595 156.979 203.554C157.148 203.657 157.465 203.258 157.411 203.684L157.357 203.681C157.465 204.103 157.812 204.016 158.067 204.036L158.134 203.478C158.457 203.9 158.899 203.853 159.302 203.8C159.706 203.748 160.078 203.683 160.221 204.064C160.396 203.944 160.59 203.968 160.767 203.863L160.719 204.151C161.152 204.296 161.363 204.35 161.91 204.364L161.754 204.544C162.061 204.637 162.298 203.782 162.585 203.815L162.588 204.276C163.124 204.368 163.568 204.866 164.172 204.614C164.146 204.678 164.101 204.796 164.016 204.795C164.259 204.861 164.885 205.331 164.963 204.71C164.86 205.094 165.477 204.911 165.817 204.833L165.683 205.104C166.031 204.817 166.07 204.722 166.44 204.726C166.505 204.782 166.427 204.973 166.358 204.87C166.574 205.1 166.643 204.673 166.916 204.937L166.733 205.066C166.988 205.185 167.004 205.084 167.223 204.93C167.435 204.884 167.711 205.194 167.645 205.453C167.742 205.307 167.963 205.168 168.095 205.297C168.079 205.398 167.99 205.435 167.96 205.453C168.317 205.819 168.741 205.411 168.939 205.812C168.907 205.899 168.903 205.953 168.922 205.998C168.581 205.846 168.31 205.712 168.339 205.694C168.235 205.948 168.493 206.113 168.134 206.362C168.434 206.264 168.993 206.015 169.217 206.253C169.22 206.283 169.222 206.314 169.217 206.353L169.179 206.363C169.237 206.413 169.291 206.416 169.366 206.396C169.434 206.483 169.476 206.534 169.556 206.574C169.495 206.794 169.813 206.84 169.941 206.907C170.06 206.637 170.215 206.757 170.155 206.461C170.172 206.491 170.11 206.48 170.023 206.448C170 206.442 169.969 206.444 169.947 206.453L169.968 206.429C169.881 206.397 169.754 206.344 169.626 206.277C169.797 206.195 169.969 206.129 170.047 206.354C170.206 206.219 170.364 206.069 170.453 206.017C170.464 206.485 170.714 206.859 170.64 207.11C171.129 207.174 171.632 207.537 172.175 207.19C172.329 207.194 172.221 207.402 172.221 207.502C172.122 207.517 172.056 207.46 171.976 207.52C172.283 207.513 172.678 207.868 172.933 207.573C173.118 207.905 172.586 207.775 173.001 207.975L172.883 208.046C173.293 209.03 174.672 208.031 175.023 209.265C174.994 209.183 174.984 209.145 175.01 209.082C175.368 209.563 175.866 209.865 176.374 210.189C176.852 210.531 177.316 210.889 177.536 211.48C177.689 211.784 177.878 211.632 178.154 211.627L177.982 211.909L178.48 211.88C179.02 212.018 178.493 213.009 179.26 213.099L179.368 212.892C179.489 213.082 179.929 213.319 179.716 213.45C179.762 213.447 179.931 213.35 179.911 213.49L179.797 213.621L180.343 213.835C180.503 214.231 179.794 214.205 180.136 214.688C180.33 214.812 180.917 214.861 180.954 214.736C180.903 214.663 180.891 214.494 181.021 214.377L181.22 214.478C181.63 214.202 182.14 214.027 182.079 213.401L181.603 213.305L181.716 213.059L181.933 213.289C182.004 213.007 181.769 213.047 181.592 213.037C181.677 212.939 181.708 212.837 181.701 212.745L181.111 212.765C181.23 212.61 181.509 212.636 181.437 212.387C181.162 212.407 181.205 212.789 180.928 212.678C180.984 212.397 181.155 212.316 180.868 212.283C180.945 212.177 181.036 212.155 181.13 212.179C180.889 212.143 180.752 211.853 180.484 211.965C180.56 211.644 180.016 211.561 180.362 211.244C180.234 211.276 179.879 211.256 179.749 211.158C180.374 210.982 179.323 210.689 179.804 210.331C179.281 210.539 179.065 209.893 178.562 209.845C178.607 209.827 178.698 209.805 178.708 209.843C178.564 209.661 178.614 209.504 178.571 209.338C178.27 209.636 177.943 209.468 177.625 209.537C177.674 209.049 178.075 209.281 178.258 208.938C178.046 209.199 177.669 208.873 177.559 209.15C177.558 208.82 177.504 208.931 177.634 208.599C177.269 208.971 177.422 208.545 177.079 208.678C176.997 208.292 177.317 208.253 176.956 208.156C176.924 207.928 177.281 207.979 177.281 207.979L177.303 207.954L177.221 207.999ZM169.838 204.54C169.909 204.558 169.964 204.577 170.003 204.582C169.971 204.569 169.924 204.557 169.838 204.54ZM169.22 204.278C169.292 204.326 169.379 204.358 169.482 204.404C169.451 204.507 169.396 204.588 169.341 204.568C169.399 204.518 169.283 204.404 169.22 204.278ZM169.614 206.739C169.506 206.731 169.508 206.662 169.512 206.608C169.552 206.628 169.614 206.639 169.685 206.657L169.706 206.632C169.671 206.673 169.635 206.714 169.607 206.747L169.614 206.739Z" fill="white"/>
<path d="M116.737 164.947C116.701 165.403 117.094 165.198 117.325 165.312C117.366 165.877 117.003 165.535 116.785 165.704C116.856 166.053 117.171 166.368 117.105 166.626C117.037 166.639 117.01 166.687 116.935 166.608C117.188 167.028 116.752 167.682 117.035 168.199C116.999 168.225 116.961 168.235 116.922 168.23C117.128 168.208 117.323 168.247 117.464 168.283C117.41 168.495 117.597 168.742 117.329 168.754C117.375 168.635 117.271 168.589 117.212 168.509L117.26 168.751C116.853 168.858 117.213 168.424 116.947 168.352C116.956 168.804 117.121 169.376 116.913 169.683C116.541 169.649 117.025 168.907 116.588 169.231C116.685 169.085 116.765 168.926 116.854 168.773C116.21 169.005 116.979 168.48 116.294 168.676C116.023 169.287 116.273 169.446 115.964 170.052C116.102 170.257 116.26 170.108 116.405 170.304C116.419 171.349 115.297 170.708 115.503 171.531C115.667 171.788 116.054 172.036 115.627 172.398L115.327 172.081C115.024 172.664 115.724 172.667 115.177 173.183C115.079 172.998 115.277 172.654 115.19 172.721C114.702 172.987 115.272 173.107 115.117 173.418L114.765 173.329C114.513 173.985 114.387 174.793 114.056 175.524C113.989 175.437 113.953 175.263 113.761 175.369C113.438 176.322 112.655 177.179 111.96 177.867L112.025 178.339C111.968 178.404 111.821 178.392 111.814 178.285C111.509 178.538 111.961 178.412 111.977 178.626C111.876 178.826 111.672 178.764 111.668 178.603C111.519 179.305 111.084 180.505 110.397 180.886L110.4 180.716C109.974 181.093 110.571 181.595 110.036 181.849L110.051 181.733C109.248 182.629 108.701 183.875 107.797 184.341C108.058 184.752 106.942 185.164 107.397 185.599C106.738 185.947 106.768 185.73 106.021 186.33C105.841 186.504 106.09 186.863 105.942 187.15L105.696 186.937L105.675 187.492L105.238 187.401L105.111 187.664C105.198 187.596 105.382 187.583 105.441 187.663C105.258 188.106 104.529 188.321 104.405 188.199C104.228 188.52 104.042 188.817 103.858 189.131C103.78 189.021 103.884 188.867 103.919 188.711C103.75 189.338 103.622 188.541 103.447 189.091C103.548 189.107 103.56 189.26 103.595 189.319C103.282 189.349 102.846 189.704 102.57 190.024L102.499 189.79C101.874 190.182 101.287 190.762 100.551 191.116C100.857 191.093 100.984 191.461 100.763 191.6L100.528 191.325C100.478 191.582 100.821 191.334 100.625 191.71C100.31 191.809 100.283 191.443 100.385 191.258C100.292 191.35 100.19 191.434 100.097 191.525C100.045 191.437 100.1 191.356 100.068 191.228C100.002 191.486 99.3687 191.125 99.2917 191.545L99.2392 191.457C98.487 191.681 98.1465 191.859 97.4935 191.968C97.5229 192.266 97.2596 192.239 97.0552 192.492C96.5298 192.453 95.9594 192.218 95.3456 192.232C94.9019 192.364 95.2023 192.481 94.9994 192.649C94.9723 192.382 94.341 192.367 94.6815 192.188C93.928 192.182 93.7199 192.174 92.7202 192.269C92.8137 192.393 92.9334 192.454 92.8554 192.544C92.6719 192.557 92.4669 192.38 92.511 192.246L92.5628 192.219C91.406 192.48 90.14 191.028 89.1707 191.437L89.2307 191.417L88.2709 191.533C87.8693 191.401 88.5596 191.381 88.2818 191.155C87.2239 191.401 86.7856 190.765 85.9623 190.855C85.7749 190.393 85.2652 190.253 84.7321 190.107C84.2 189.977 83.6352 189.818 83.4064 189.42L83.3668 189.615C83.1031 189.688 83.1912 189.42 83.0906 189.305C83.0395 189.447 83.2083 189.55 83.0495 189.584C82.2371 189.297 81.5352 188.734 81.0254 188.064C80.5084 187.402 80.1918 186.641 79.9467 185.914C79.8432 185.652 79.6057 185.662 79.3883 185.632C79.1862 185.6 78.9655 185.524 79.0872 185.085L79.4794 185.195C79.0971 184.692 78.9963 184.046 78.9578 183.411C78.9334 182.76 78.9407 182.122 78.847 181.467C78.922 181.547 79.023 181.562 79.0166 181.686C79.2833 181.443 79.1453 180.708 78.9421 180.661C78.997 180.465 79.1326 180.64 79.2483 180.539C79.4538 180.301 79.0562 179.8 79.334 179.711C79.387 179.699 79.3947 179.806 79.4063 179.859C79.3225 179.658 79.6318 179.051 79.301 179.152C79.5533 178.711 79.4237 178.198 79.7154 177.877C79.4747 177.526 80.1453 177.131 79.7431 176.884C80.1807 177.09 80.4242 176.212 80.3505 175.833C80.4463 175.987 80.6053 175.637 80.735 175.836C80.8716 175.495 80.9306 175.145 80.6816 175.102C81.4767 174.729 80.8615 173.667 81.6822 173.646C81.8197 173.105 81.9817 172.586 82.146 172.098C82.3337 171.616 82.5297 171.14 82.742 170.679C83.1159 170.959 82.2207 171.647 82.6748 171.867C82.9701 170.962 82.9294 170.297 83.5367 169.561C83.7326 169.4 83.6299 169.784 83.6541 169.906C84.0198 169.018 84.7241 168.452 85.0413 167.638C85.0741 167.666 85.0584 167.767 85.0345 167.861C85.1163 167.717 85.3236 167.609 85.1372 167.477L85.0954 167.641C84.6815 167.656 84.9735 166.705 84.8799 166.581C85.1854 167.189 85.5394 166.034 85.8545 166.879C85.8926 166.769 85.8957 166.6 85.7749 166.524C85.914 166.429 86.0068 166.438 86.0246 166.682C86.309 166.154 86.0021 166.161 86.3576 165.767C86.4396 165.838 86.3863 165.949 86.4492 166.075C86.4788 165.742 86.5073 165.395 86.8788 165.114C86.9067 165.181 87.0078 165.197 86.9145 165.288C87.4178 164.706 87.4233 163.937 88.1965 163.473C88.3331 163.978 88.512 163.374 88.8236 163.643L89.071 163.241L88.8006 163.222C89.0957 162.947 89.1705 162.496 89.5143 162.363L89.399 162.679L89.9197 162.126L89.5017 162.295C89.6775 161.859 89.1386 161.952 89.6253 161.671C89.5709 161.767 89.9286 161.403 90.2552 161.456C90.3314 161.236 90.4064 161 90.7055 160.886C90.8476 160.937 90.9332 161.269 91.0201 161.301C90.9617 160.921 91.7176 160.643 91.7018 160.214C91.6872 160.33 91.8075 160.506 91.8545 160.518L91.8241 160.205C92.0288 160.167 92.0758 160.179 92.141 160.335C92.6266 160.039 91.6966 160.037 92.3641 159.812C92.3287 159.853 92.3686 159.873 92.3141 159.969C92.9314 159.686 93.2866 159.076 93.8859 158.864C94.2564 159.098 93.4823 159.231 93.8402 159.397C94.5466 158.862 95.1451 158.004 95.9435 157.676L95.7847 157.711C95.6212 157.154 96.4798 157.653 96.7473 157.211C96.6764 157.293 96.7647 157.555 96.7673 157.486C97.3301 157.299 97.7717 156.821 98.5263 156.313L98.4856 156.492C98.8454 156.474 99.3567 156.214 99.7285 156.148C99.7774 155.976 99.9893 155.93 99.8006 155.767C100.483 155.955 100.948 155.698 101.436 155.432C101.909 155.168 102.398 154.917 102.961 155.16C102.84 155.184 102.705 155.34 102.804 155.325C103.065 155.222 103.351 155.139 103.629 155.05C103.528 154.819 103.497 154.921 103.293 154.759C103.382 154.607 103.608 154.444 103.829 154.421C103.452 154.625 103.888 154.801 104.066 154.926C104.03 154.852 104.077 154.764 104.056 154.688C104.553 155.075 104.081 154.18 104.729 154.424L104.715 154.556C104.947 154.47 105.156 154.278 105.405 154.321C105.518 154.605 105.161 154.454 105.156 154.693C105.5 154.676 105.845 154.128 106.166 154.42C106.009 154.485 105.802 154.492 105.646 154.573C106 154.893 106.033 154.821 106.284 154.88L106.267 154.866C106.456 154.929 106.644 154.977 106.826 155.048L106.695 154.935C106.916 154.596 107.145 154.579 107.4 154.599C107.641 154.635 107.9 154.701 108.231 154.5C107.582 154.87 108.088 154.749 108.003 155.062C108.134 155.176 108.337 155.322 108.25 155.39C108.565 155.19 108.639 155.669 109.103 155.397C109.096 155.505 109.378 155.477 109.249 155.709C109.611 155.721 109.219 155.512 109.279 155.392C109.919 155.199 110.365 156.158 111.239 156.026C111.938 156.128 112.22 155.885 112.872 156.076C112.975 156.337 112.528 156.308 112.528 156.308C112.75 156.615 112.981 156.729 113.318 156.82C113.213 156.858 113.228 156.957 113.239 157.11C113.471 157.239 113.609 156.914 113.779 157.247C113.66 157.302 113.491 157.399 113.322 157.411C113.615 157.52 113.978 157.548 114.274 157.703C114.21 157.892 113.949 157.78 113.796 157.791C114.108 157.961 114.562 158.281 114.845 158.168L114.766 157.928C114.865 158.013 114.644 158.152 114.542 158.121C114.177 158.063 114.285 157.756 114.348 157.667L114.571 157.773C114.687 157.473 114.5 157.325 114.239 157.229C113.971 157.141 113.645 157.088 113.473 156.939L113.893 156.701C113.7 156.692 113.479 156.716 113.28 156.715C113.26 156.555 113.335 156.319 113.571 156.394C113.406 156.022 113.245 156.341 113.112 155.997C113.109 155.951 113.123 155.935 113.162 155.939L112.796 155.882C112.908 155.835 112.906 155.589 113.055 155.747C112.646 155.193 112.02 155.569 111.975 155.157L112.036 155.153C111.191 154.938 111.816 155.407 111.101 155.505C111.079 155.2 111.043 154.91 110.997 154.598L110.802 154.874C110.722 154.834 110.569 154.745 110.638 154.632C110.26 154.721 110.641 154.778 110.39 154.919C110.237 154.715 109.956 154.659 109.713 154.592C109.471 154.54 109.274 154.47 109.285 154.208C109.085 154.407 109.629 154.49 109.164 154.547C109.168 153.963 108.648 154.531 108.317 154.202C108.482 153.944 108.821 154.165 108.483 153.844C108.175 154.266 107.744 153.621 107.395 153.677C107.346 154.065 106.663 153.761 106.112 153.901C106.148 153.76 105.075 153.692 104.554 153.599L104.564 153.537C104.492 153.919 103.969 153.911 103.602 154.038C103.577 153.801 103.631 153.705 103.838 153.582C103.708 153.6 103.593 153.6 103.473 153.64C103.398 153.776 103.297 153.86 103.08 153.945L103.12 153.65C102.635 153.747 102.227 154.153 101.586 154.115C101.629 154.381 102.223 154.737 101.671 155.062C101.615 154.928 101.528 154.68 101.675 154.593C101.631 154.627 101.518 154.758 101.392 154.721L101.585 154.415C101.282 154.368 101.495 154.652 101.282 154.683C101.229 154.479 101.082 154.582 101.07 154.414C101.114 154.38 101.272 154.445 101.341 154.333C101.082 154.367 100.757 154.329 100.617 154.209C100.671 154.312 100.698 154.479 100.528 154.561C100.071 154.725 100.298 154.363 99.9899 154.354C99.9257 154.528 99.5849 154.491 99.6754 154.784C99.5482 154.832 99.4618 154.7 99.388 154.636C99.1955 154.842 98.315 155.099 98.6904 155.294L98.7598 155.297L98.7314 155.33C98.1129 155.912 97.1233 155.831 96.4665 156.309L96.421 156.212C96.0529 156.539 95.517 156.778 95.3356 157.137C95.2095 157.2 94.9512 157.134 94.9411 156.996C94.6603 157.255 94.6833 157.361 94.1549 157.492C94.368 157.146 93.9577 157.421 94.4019 157.189C93.945 157.353 93.7702 157.274 93.4929 157.793C93.493 157.478 93.0019 157.698 92.8541 157.886L93.2446 157.865C93.0569 158.032 92.8567 158.132 92.6575 158.246L92.5614 157.876C92.0308 157.977 91.7681 158.38 91.5174 158.736C91.2678 159.108 91.0443 159.416 90.5249 159.354C90.4659 159.704 91.05 159.178 91.0461 159.547C90.6549 159.767 89.9793 159.67 89.8707 159.763C89.2665 160.014 89.7418 160.525 89.1726 160.836C89.3136 160.872 89.5983 161.089 89.3122 161.486C88.9467 161.744 88.5564 161.449 88.6985 161.185C88.7694 161.103 88.8388 161.106 88.8645 161.142C88.9391 161.006 89.0503 160.845 88.8281 160.853L88.8687 160.988C88.6192 161.045 88.1578 161.463 88.1318 161.211C87.9553 161.531 88.1578 161.463 88.3946 161.338C87.8281 161.579 87.7314 161.94 87.2092 162.262C87.3233 162.246 87.4959 162.295 87.431 162.353C86.6978 162.837 87.3164 162.784 86.95 163.241C86.5805 163.337 86.7048 162.829 86.4063 163.373C86.0576 163.545 86.1167 163.194 86.1421 163.016C85.9364 163.569 85.3189 163.637 85.0805 163.846L85.1981 163.561C85.1257 163.728 85.0336 163.834 84.9414 163.941L85.2375 163.996C85.083 164.092 84.9909 164.199 84.9242 164.127C84.9338 164.364 85.3291 164.305 85.2745 164.716C85.0343 164.795 84.9334 165.309 84.6307 165.162C85.1734 164.7 84.3268 165 84.6757 164.513C84.6294 164.617 84.5302 164.732 84.3992 164.833C84.3534 164.837 84.356 164.767 84.3751 164.712C83.7153 165.044 84.4565 165.198 84.0111 165.73C83.9202 165.537 83.6271 165.627 83.5819 165.746C83.7662 165.533 83.9119 165.845 83.8636 166.133C83.4757 166.399 83.6502 166.578 83.4942 166.759L83.7124 166.589C83.8104 166.774 83.6534 166.939 83.5123 167.219C83.3845 167.151 83.6064 166.927 83.4804 166.99C83.5372 167.455 82.7344 167.406 82.6417 167.928C82.4109 168.029 82.3357 167.735 82.1518 167.848C82.033 168.433 81.592 168.181 81.4508 168.775C81.7506 168.776 81.7156 168.717 81.7042 169.195C81.8217 168.909 81.93 168.602 82.0782 168.314C82.0643 168.546 82.0586 168.785 82.0447 169.016C82.2044 168.782 82.2329 168.434 82.378 168.316C82.3882 168.668 82.3603 168.601 82.5919 168.615C82.053 168.708 82.3548 169.37 81.9024 169.595L81.3853 169.248C80.7699 169.662 81.0336 170.434 80.4442 171.1L80.6766 170.914C80.8238 171.141 80.4347 171.393 80.3947 171.687C80.2236 171.554 80.0714 171.68 79.8984 171.731C80.0487 171.79 79.5775 172.285 79.9115 172.545L79.4968 172.76C79.0935 173.342 79.6679 173.738 79.3328 174.308C79.2047 174.026 78.9439 174.244 78.9859 173.765C78.8851 173.964 78.7751 174.141 78.91 174.201C78.7381 174.267 78.9142 174.892 78.6446 174.989C78.6841 175.109 78.8775 175.233 78.7626 175.449C78.7096 175.46 78.6675 175.41 78.6675 175.41C78.7626 175.449 78.6517 175.826 78.9437 175.72C78.058 176.115 78.3072 177.534 77.6224 177.945C77.551 178.442 77.4721 179.047 77.388 179.476C77.3306 179.426 77.2788 179.453 77.3273 179.38C77.0239 179.963 77.8391 179.866 77.5107 180.527C77.125 180.824 77.3818 180.129 77.227 180.325C76.5275 180.322 77.1905 181.196 76.7536 181.635L76.7294 181.514C76.4563 181.88 76.936 182.452 76.903 183.054C76.903 183.054 76.8396 183.028 76.7959 183.061C77.1563 183.473 77.3272 184.237 77.5507 184.774C77.2573 184.649 77.3565 184.535 77.1148 184.698C77.2102 184.953 77.534 184.545 77.7001 185.032C77.5912 185.225 77.5731 185.61 77.3068 185.752L77.156 185.264C76.8583 185.608 77.3332 185.904 77.3603 186.171L77.1933 186.199C77.5241 186.943 77.9116 186.777 78.2577 187.52L78.3323 187.384C78.9136 187.557 78.3258 187.822 78.8257 188.04L78.5668 188.389C78.6958 188.472 78.9303 188.631 79.1965 188.804C79.4686 188.953 79.7418 189.118 79.9457 189.28C79.5236 189.287 78.9678 188.936 78.5902 188.71C78.7549 188.967 79.2924 189.489 79.5441 189.463C79.4326 189.409 79.2518 189.353 79.2194 189.225C79.7153 189.281 80.1448 189.48 80.5865 189.848C80.2914 190.123 80.5512 190.419 80.9098 190.7C81.2684 190.982 81.7105 191.249 81.7536 191.63C82.8155 191.861 83.5871 192.642 84.7555 192.964C84.5481 192.226 85.0926 193.055 85.2069 192.409C85.4784 192.443 85.5735 192.482 85.5768 192.528C85.8064 192.726 86.036 192.925 86.2727 193.115C86.4199 193.343 85.9785 193.19 85.9814 193.336C86.5567 193.533 86.1588 193.661 86.5163 193.927C86.4985 193.683 86.796 193.653 87.1069 193.808L86.7018 193.414C87.5818 193.258 87.2974 194.101 88.1845 193.937L87.8876 194.081C88.331 194.049 89.4383 194.376 89.9281 193.925C89.9807 194.013 90.0481 194.201 89.8646 194.214C90.8429 194.458 92.165 194.039 92.9169 194.445L92.8199 194.591C93.0105 194.569 93.1854 194.334 93.4068 194.525C93.3889 194.595 93.318 194.677 93.4038 194.694C93.5086 194.656 93.9408 194.471 94.1873 194.583L93.9526 194.739C94.9578 195.035 95.5424 194.408 96.3859 194.277C96.3898 194.754 97.2276 194.862 97.6601 194.892L97.6493 194.954C98.9112 194.87 99.725 194.227 100.698 193.664C101.122 193.787 101.723 193.589 102.308 193.293C102.91 193.011 103.512 192.614 104.049 192.39C103.859 192.427 103.857 192.082 103.992 191.926C104.262 191.845 104.356 191.223 104.597 191.59L104.516 191.634C104.939 191.842 105.282 191.394 105.608 191.117L105.283 190.664C105.955 190.599 106.42 190.028 106.789 189.501C107.158 188.975 107.452 188.469 107.929 188.481C107.993 188.192 108.19 187.947 108.231 187.667L108.461 187.866C108.954 187.361 109.205 187.105 109.665 186.356L109.731 186.628C110.034 186.245 109.397 185.623 109.646 185.251L110.088 185.404C110.576 184.723 111.388 184.264 111.536 183.346C111.586 183.389 111.67 183.49 111.609 183.61C111.848 183.3 112.745 182.528 112.159 182.294C112.491 182.524 112.685 181.603 112.796 181.126L113.005 181.349C112.905 180.818 112.831 180.754 113.04 180.247C113.141 180.163 113.296 180.283 113.15 180.385C113.507 180.121 113.103 179.959 113.516 179.613L113.574 179.878C113.833 179.529 113.731 179.498 113.677 179.179C113.725 178.891 114.183 178.527 114.442 178.608C114.332 178.47 114.271 178.16 114.473 177.976C114.582 177.999 114.583 178.114 114.579 178.168C115.133 177.644 114.845 177.065 115.346 176.768C115.433 176.8 115.494 176.795 115.539 176.777C115.245 177.282 114.989 177.677 114.986 177.631C115.226 177.768 115.507 177.394 115.636 177.907C115.666 177.474 115.593 176.68 115.929 176.341C115.967 176.33 115.998 176.328 116.036 176.333L116.041 176.394C116.112 176.312 116.136 176.218 116.136 176.118C116.244 176.011 116.316 175.944 116.398 175.815C116.633 175.875 116.767 175.388 116.882 175.173C116.612 175.054 116.786 174.803 116.443 174.951C116.48 174.925 116.455 175.004 116.396 175.154C116.383 175.186 116.371 175.233 116.374 175.263L116.349 175.242C116.298 175.384 116.195 175.553 116.095 175.768C116.047 175.525 116.038 175.303 116.288 175.147C116.174 174.947 116.059 174.748 116.013 174.636C116.536 174.545 117.002 174.073 117.272 174.091C117.442 173.364 117.869 172.473 117.507 171.83C117.522 171.614 117.749 171.667 117.854 171.628C117.864 171.766 117.803 171.886 117.856 171.974C117.886 171.542 118.224 170.802 117.885 170.581C118.215 170.15 118.144 170.977 118.293 170.275L118.379 170.407C118.89 169.816 118.812 169.176 118.721 168.553C118.621 167.922 118.546 167.313 119.063 166.599C118.993 166.696 118.966 166.745 118.891 166.765C119.206 165.92 119.206 164.975 119.178 164.062C119.149 163.135 119.077 162.256 119.265 161.343C119.32 160.832 119.048 160.798 118.821 160.53L119.117 160.371C118.967 160.212 118.818 160.07 118.653 159.912C118.437 159.582 118.588 159.226 118.638 158.853C118.703 158.48 118.749 158.061 118.331 157.7L118.168 157.888C118.105 157.547 117.676 156.933 117.919 156.9C117.872 156.888 117.672 156.887 117.714 156.722L117.863 156.65C117.662 156.434 117.469 156.21 117.248 156.019C117.048 155.388 117.908 155.802 117.453 154.936C117.202 154.646 116.503 154.328 116.485 154.514C116.548 154.64 116.588 154.876 116.458 154.977L116.22 154.772C115.781 154.98 115.26 155.103 115.324 155.874C115.499 155.954 115.667 156.042 115.843 156.136L115.707 156.392C115.644 156.266 115.567 156.156 115.498 156.054C115.436 156.358 115.653 156.388 115.859 156.466C115.774 156.564 115.719 156.66 115.727 156.767C115.94 156.836 116.167 156.904 116.358 156.983C116.205 157.109 115.932 156.944 115.949 157.289C116.235 157.406 116.26 156.913 116.534 157.193C116.426 157.5 116.226 157.499 116.509 157.686C116.407 157.77 116.313 157.747 116.216 157.677C116.466 157.835 116.496 158.248 116.79 158.273C116.62 158.585 117.107 159.049 116.654 159.159C116.78 159.196 117.13 159.47 117.2 159.688C116.565 159.411 117.338 160.523 116.731 160.529C117.268 160.736 117.129 161.56 117.443 162.075C117.402 162.04 117.314 161.993 117.341 161.945C117.333 162.253 117.194 162.347 117.101 162.554C117.517 162.57 117.636 163.045 117.894 163.311C117.491 163.693 117.401 163.085 117.018 163.213C117.37 163.187 117.35 163.857 117.633 163.745C117.385 164.032 117.505 163.992 117.162 164.125C117.681 164.187 117.243 164.395 117.538 164.651C117.26 165.055 117.044 164.725 117.17 165.192C117 165.389 116.839 164.978 116.839 164.978L116.815 164.957L116.737 164.947ZM114.138 175.595C114.178 175.5 114.211 175.428 114.238 175.38C114.218 175.42 114.192 175.484 114.138 175.595ZM113.676 176.428C113.754 176.338 113.822 176.21 113.897 176.074C113.998 176.089 114.074 176.184 114.025 176.257C113.989 176.182 113.824 176.34 113.676 176.428ZM116.492 175.624C116.45 175.788 116.375 175.809 116.313 175.798C116.346 175.727 116.371 175.648 116.409 175.537C116.401 175.53 116.384 175.516 116.376 175.509C116.417 175.545 116.458 175.58 116.478 175.64L116.492 175.624Z" fill="white"/>
<path d="M60.5607 197.884C60.7574 198.369 61.0048 197.966 61.2587 197.971C61.6045 198.499 61.109 198.343 60.9985 198.62C61.2441 198.933 61.6844 199.07 61.7809 199.339C61.7313 199.397 61.7275 199.451 61.6325 199.412C62.0806 199.656 62.15 200.504 62.692 200.772C62.6648 200.82 62.6517 200.851 62.6293 200.861C62.7793 200.704 62.9572 200.614 63.0844 200.566C63.1917 200.774 63.4888 200.844 63.2952 201.035C63.2394 200.901 63.1499 200.938 63.0406 200.915L63.2374 201.085C63.002 201.441 62.9892 200.842 62.7442 200.96C63.0483 201.337 63.5735 201.691 63.6308 202.056C63.3395 202.277 63.1493 201.353 63.0764 201.935L62.9435 201.376C62.6199 201.999 62.8273 201.046 62.4579 201.672C62.6936 202.378 62.9901 202.333 63.2187 203.046C63.4689 203.105 63.4593 202.867 63.7095 202.926C64.4952 203.691 63.278 204.072 64.072 204.529C64.3763 204.591 64.8107 204.437 64.8623 205.04L64.419 205.072C64.7196 205.719 65.1311 205.143 65.2572 205.926C65.0551 205.894 64.858 205.509 64.874 205.623C64.8317 206.203 65.2483 205.804 65.4257 206.129L65.1437 206.372C65.5667 207.01 66.2156 207.585 66.7183 208.263C66.6042 208.279 66.4305 208.215 66.4472 208.444C67.1445 209.262 67.6325 210.372 68.0341 211.349L68.5214 211.498C68.5657 211.579 68.5064 211.714 68.396 211.676C68.5249 212.074 68.5657 211.579 68.7794 211.664C68.9303 211.837 68.805 212.015 68.6465 211.95C69.262 212.382 70.2695 213.238 70.4579 214.031L70.2994 213.966C70.5464 214.509 71.2006 214.1 71.3052 214.692L71.2019 214.646C71.5477 215.174 71.9759 215.673 72.3643 216.152C72.7597 216.623 73.1022 217.105 73.24 217.625C73.6897 217.47 73.9163 218.683 74.4433 218.321C74.6966 219.056 74.4617 218.996 75.0013 219.864C75.1627 220.075 75.5632 219.877 75.8316 220.08L75.6026 220.312L76.1548 220.402L76.0412 220.849L76.3145 221.013C76.2455 220.911 76.2393 220.719 76.3124 220.668C76.7605 220.912 76.9843 221.664 76.878 221.787L77.883 222.398C77.7733 222.475 77.5974 222.38 77.44 222.33C78.1071 222.52 77.2717 222.657 77.8989 222.827C77.8993 222.727 78.0674 222.715 78.1111 222.681C78.1814 223.014 78.644 223.457 79.0321 223.72L78.8165 223.821C79.4076 224.446 80.2132 224.956 80.9207 225.596C80.7373 225.295 81.0499 225.049 81.2844 225.209L81.1396 225.542C81.4207 225.499 81.0032 225.252 81.4604 225.304C81.7026 225.57 81.3785 225.763 81.1518 225.71L81.5507 225.912C81.4962 226.008 81.3941 225.977 81.2773 226.062C81.5503 226.012 81.6093 226.822 82.0542 226.705L81.9997 226.801C82.7213 227.425 83.1344 227.61 83.7308 228.097C83.9222 227.876 84.1246 228.122 84.4598 228.082C84.8366 228.508 85.1727 229.114 85.7248 229.52C86.1919 229.708 85.9933 229.408 86.2625 229.411C86.1181 229.645 86.6702 230.05 86.266 229.987C86.9389 230.469 87.1182 230.609 88.0744 231.078C88.0551 230.918 87.985 230.8 88.098 230.769C88.2729 230.848 88.3693 231.118 88.2608 231.21L88.1985 231.199C89.3573 231.599 89.8327 233.486 90.9162 233.591L90.854 233.58L91.7942 233.935C92.1163 234.242 91.4557 233.929 91.6188 234.27C92.7217 234.536 92.8784 235.316 93.7437 235.591C93.7806 236.626 95.6344 236.967 96.0256 237.907L96.0968 237.725C96.3884 237.719 96.2534 237.975 96.3562 238.121C96.4308 237.985 96.2586 237.836 96.4432 237.838C98.1297 238.838 99.4572 240.501 100.901 241.864C101.436 242.355 101.833 241.365 102.261 242.279L101.838 242.387C103.241 242.969 104.143 244.279 105.467 244.936C105.344 244.945 105.281 245.018 105.174 244.926C105.241 245.313 106.019 245.656 106.153 245.5C106.303 245.659 106.067 245.684 106.11 245.849C106.232 246.156 106.889 246.108 106.856 246.395C106.852 246.449 106.734 246.403 106.686 246.376C106.911 246.414 107.353 246.996 107.405 246.654C107.708 247.116 108.255 247.246 108.446 247.654C108.88 247.6 109.022 248.381 109.386 248.109C109.033 248.434 109.807 249.031 110.204 249.102C110.022 249.131 110.311 249.409 110.077 249.465C110.364 249.713 110.67 249.906 110.792 249.682C110.889 250.597 112.147 250.351 111.891 251.162C112.874 251.797 113.736 252.441 114.501 253.131C114.123 253.435 113.696 252.321 113.355 252.7C114.158 253.279 114.852 253.421 115.396 254.234C115.512 254.464 115.144 254.26 115.029 254.261C115.826 254.864 116.218 255.719 116.962 256.218C116.933 256.251 116.83 256.205 116.742 256.157C116.866 256.279 116.944 256.504 117.095 256.362L116.943 256.273C117.013 255.861 117.889 256.389 118.037 256.317C117.372 256.473 118.432 257.102 117.534 257.214C117.631 257.284 117.811 257.324 117.896 257.226C117.961 257.383 117.93 257.485 117.704 257.447C118.172 257.851 118.219 257.548 118.551 257.993C118.463 258.045 118.366 257.991 118.23 258.016C118.567 258.107 118.891 258.229 119.091 258.661C119.023 258.673 118.992 258.775 118.914 258.65C119.406 259.291 120.171 259.45 120.472 260.312C119.944 260.343 120.512 260.647 120.207 260.9L120.576 261.219L120.62 260.97C120.852 261.314 121.271 261.476 121.353 261.862L121.063 261.683L121.524 262.311L121.43 261.856C121.825 262.112 121.83 261.558 122.031 262.089C121.94 262.011 122.249 262.45 122.148 262.749C122.364 262.864 122.572 262.987 122.634 263.313C122.56 263.449 122.215 263.467 122.168 263.555C122.553 263.573 122.711 264.368 123.139 264.437C123.021 264.407 122.835 264.49 122.808 264.538L123.132 264.56C123.148 264.774 123.113 264.815 122.962 264.857C123.163 265.404 123.333 264.461 123.439 265.184C123.398 265.148 123.37 265.181 123.287 265.095C123.474 265.773 124.037 266.216 124.161 266.868C123.87 267.204 123.85 266.399 123.636 266.729C124.048 267.529 124.84 268.271 125.042 269.148L125.029 268.979C125.6 268.9 124.997 269.696 125.405 270.02C125.322 269.934 125.064 269.984 125.126 269.994C125.254 270.592 125.639 271.125 126.099 271.952L125.925 271.888C125.921 272.257 126.1 272.813 126.136 273.202C126.303 273.275 126.342 273.495 126.506 273.322C126.27 273.992 126.493 274.514 126.722 275.027C126.952 275.541 127.226 276.036 126.946 276.625C126.922 276.503 126.78 276.352 126.787 276.444L127.057 277.308C127.288 277.207 127.185 277.161 127.347 276.957C127.507 277.053 127.656 277.295 127.695 277.515C127.467 277.132 127.306 277.567 127.198 277.759C127.272 277.723 127.36 277.77 127.435 277.749C127.073 278.268 127.944 277.774 127.708 278.444L127.577 278.431C127.663 278.663 127.855 278.872 127.843 279.134C127.569 279.269 127.695 278.891 127.449 278.893C127.498 279.251 128.052 279.572 127.8 279.913C127.704 279.759 127.68 279.538 127.593 279.39C127.29 279.773 127.377 279.806 127.343 280.077L127.357 280.061L127.217 280.67L127.298 280.511C128.059 280.939 127.465 281.428 127.963 282.045C127.496 281.441 127.702 281.949 127.368 281.904C127.28 282.057 127.174 282.295 127.085 282.232C127.337 282.521 126.866 282.701 127.226 283.113C127.119 283.121 127.209 283.414 126.951 283.348C127.016 283.72 127.13 283.274 127.256 283.311C127.607 283.915 126.736 284.624 127.146 285.494C127.284 286.229 127.565 286.401 127.647 287.102C127.446 287.301 127.306 286.85 127.306 286.85C127.1 287.188 127.081 287.458 127.138 287.823C127.063 287.744 126.975 287.796 126.835 287.876C126.801 288.147 127.161 288.128 126.923 288.453C126.824 288.368 126.662 288.242 126.582 288.101C126.607 288.438 126.716 288.776 126.734 289.135C126.538 289.18 126.515 288.875 126.428 288.727C126.417 289.105 126.377 289.715 126.612 289.89C126.669 289.824 126.726 289.759 126.774 289.686C126.754 289.826 126.513 289.689 126.497 289.575C126.355 289.209 126.697 289.146 126.805 289.153L126.815 289.406C127.47 289.312 126.945 288.444 127.088 287.98L127.47 288.267C127.395 288.073 127.313 287.902 127.214 287.702C127.346 287.615 127.598 287.589 127.624 287.841C127.893 287.53 127.523 287.51 127.804 287.252C127.847 287.218 127.872 287.239 127.882 287.277L127.81 286.913C127.892 286.984 128.132 286.905 128.031 287.105C128.382 286.533 127.879 286.07 128.227 285.884L128.246 285.944C128.175 285.065 127.938 285.82 127.62 285.144L128.455 284.791L128.139 284.676C128.156 284.59 128.205 284.418 128.33 284.455C128.136 284.115 128.188 284.503 127.996 284.294C128.343 283.893 127.903 283.125 128.435 283.041C128.192 282.874 128.233 283.44 128.069 282.983C128.63 282.865 127.993 282.458 128.25 282.078C128.528 282.204 128.37 282.569 128.634 282.181C128.163 281.946 128.724 281.414 128.623 281.083C128.223 281.081 128.44 280.366 128.286 279.832C128.419 279.86 128.394 278.779 128.493 278.249L128.556 278.26C128.16 278.204 128.175 277.673 128.025 277.299C128.254 277.283 128.366 277.336 128.495 277.534L128.446 277.176C128.31 277.102 128.234 277.007 128.148 276.775L128.451 276.823C128.363 276.345 127.978 275.912 128.03 275.255C127.754 275.275 127.383 275.87 127.078 275.278C127.221 275.229 127.461 275.15 127.557 275.305C127.53 275.253 127.398 275.124 127.436 275.014L127.728 275.223C127.776 274.935 127.498 275.124 127.473 274.888C127.677 274.85 127.582 274.696 127.758 274.69C127.785 274.742 127.712 274.909 127.817 274.971C127.806 274.718 127.866 274.383 127.995 274.251C127.883 274.297 127.715 274.309 127.656 274.129C127.537 273.654 127.862 273.907 127.91 273.604C127.742 273.516 127.802 273.181 127.5 273.249C127.474 273.113 127.6 273.05 127.664 272.976C127.472 272.767 127.336 271.847 127.078 272.212L127.076 272.281C127.076 272.281 127.051 272.26 127.05 272.244C126.538 271.544 126.721 270.57 126.344 269.829L126.449 269.791C126.165 269.373 126 268.801 125.674 268.548C125.626 268.406 125.738 268.159 125.87 268.173C125.67 267.857 125.524 267.86 125.491 267.301C125.811 267.578 125.593 267.117 125.759 267.605C125.655 267.128 125.766 266.951 125.301 266.593C125.621 266.654 125.467 266.12 125.308 265.939L125.267 266.334C125.135 266.105 125.059 265.896 124.981 265.671L125.355 265.636C125.306 264.548 123.938 264.325 124.212 263.345C123.873 263.223 124.314 263.906 123.94 263.825C123.771 263.407 123.984 262.746 123.928 262.612C123.804 261.96 123.202 262.342 122.98 261.721C122.913 261.864 122.661 262.09 122.312 261.731C122.121 261.322 122.48 260.973 122.717 261.179C122.785 261.266 122.783 261.335 122.738 261.354C122.853 261.453 123.001 261.596 123.023 261.372L122.886 261.382C122.882 261.121 122.543 260.584 122.799 260.604C122.52 260.363 122.543 260.584 122.624 260.84C122.487 260.235 122.144 260.052 121.918 259.485C121.911 259.608 121.838 259.759 121.787 259.686C121.442 258.858 121.381 259.493 121 259.021C120.964 258.632 121.457 258.857 120.967 258.463C120.863 258.086 121.187 258.208 121.361 258.273C120.839 257.965 120.893 257.338 120.75 257.057L121.001 257.231C120.854 257.118 120.769 257.002 120.684 256.885L120.581 257.169C120.523 257.004 120.438 256.887 120.518 256.828C120.284 256.783 120.259 257.177 119.865 257.037C119.83 256.778 119.332 256.576 119.558 256.313C119.904 256.942 119.785 256.051 120.194 256.49C120.096 256.42 120.004 256.312 119.931 256.148C119.951 256.108 119.998 256.12 120.046 256.147C119.87 255.422 119.552 256.122 119.135 255.56C119.339 255.523 119.317 255.217 119.212 255.14C119.382 255.373 119.049 255.444 118.771 255.318C118.593 254.878 118.38 255.008 118.235 254.811L118.361 255.063C118.149 255.11 118.036 254.926 117.783 254.721C117.882 254.607 118.04 254.872 118.015 254.75C117.535 254.693 117.785 253.907 117.3 253.688C117.244 253.439 117.559 253.439 117.49 253.236C116.941 252.977 117.292 252.621 116.762 252.306C116.683 252.596 116.751 252.583 116.294 252.432L117.053 253.03L116.383 252.81C116.568 253.027 116.9 253.156 116.974 253.32C116.63 253.238 116.69 253.218 116.623 253.461C116.652 252.913 115.953 253.025 115.847 252.518L116.332 252.106C116.074 251.411 115.284 251.43 114.799 250.681L114.912 250.965C114.656 251.045 114.516 250.594 114.245 250.46C114.412 250.333 114.338 250.154 114.348 249.976C114.249 250.091 113.906 249.493 113.554 249.734L113.481 249.255C113.054 248.672 112.487 249.113 112.049 248.591C112.348 248.577 112.232 248.247 112.677 248.446C112.512 248.288 112.398 248.105 112.299 248.219C112.293 248.028 111.651 247.975 111.638 247.691C111.508 247.693 111.333 247.829 111.15 247.642C111.154 247.588 111.221 247.56 111.221 247.56C111.15 247.642 110.84 247.388 110.833 247.711C110.778 246.747 109.371 246.419 109.304 245.602C108.891 245.317 108.397 244.976 108.054 244.694C108.121 244.666 108.125 244.612 108.176 244.685C107.837 244.133 107.5 244.888 107.108 244.263C107.057 243.775 107.516 244.372 107.429 244.124C107.809 243.536 106.725 243.645 106.62 243.038L106.73 243.076C106.6 242.663 105.88 242.7 105.466 242.285C105.466 242.285 105.533 242.257 105.537 242.202C104.999 242.211 104.333 241.821 103.836 241.535C104.151 241.435 104.132 241.59 104.211 241.3C103.979 241.171 103.993 241.685 103.552 241.432C103.513 241.212 103.305 240.889 103.447 240.625L103.829 240.913C103.873 240.464 103.34 240.533 103.179 240.322L103.317 240.212C102.71 239.788 102.442 240.115 101.843 239.597L101.831 239.744C101.235 239.803 101.686 239.347 101.154 239.317L101.308 238.906C101.017 238.812 100.273 238.613 99.8164 238.361C100.234 238.293 100.805 238.528 101.21 238.606C100.997 238.422 100.439 238.039 100.19 238.111C100.301 238.149 100.478 238.16 100.525 238.271C100.052 238.321 99.595 238.17 99.1473 237.826C99.727 237.238 98.11 236.772 98.179 236.029C97.207 235.662 96.6865 234.739 95.7463 234.07C95.6856 234.82 95.4709 233.875 95.1276 234.438C94.8871 234.301 94.8133 234.238 94.8171 234.183L94.4054 233.383C94.363 233.118 94.6932 233.432 94.7678 233.296C94.3321 232.905 94.7411 232.929 94.5369 232.552C94.4537 232.781 94.1707 232.694 93.959 232.425L94.1509 232.949C93.2818 232.727 93.9111 232.082 93.0491 231.853L93.3794 231.852C92.9675 231.682 92.1337 230.89 91.4922 231.052C91.4845 230.945 91.5088 230.751 91.6836 230.83C90.9422 230.147 89.5631 229.886 89.1476 229.14L89.3113 229.066C89.1365 228.987 88.868 229.099 88.7786 228.821C88.8211 228.772 88.9423 228.747 88.8756 228.675C88.7663 228.653 88.3081 228.586 88.168 228.35L88.4443 228.346C87.8115 227.569 86.9937 227.737 86.2854 227.296C86.5819 226.937 86.0837 226.32 85.831 226.015L85.8735 225.966C85.0419 225.204 84.1374 225.024 83.2203 224.461C83.0461 223.651 81.6881 222.836 81.1124 221.894C81.1705 222.059 80.8538 222.143 80.6779 222.048C80.5684 221.81 79.9535 221.809 80.2791 221.532L80.3447 221.588C80.4899 221.155 80.0407 220.896 79.7668 220.616L79.3244 220.979C79.1452 219.678 77.1788 219.267 77.3108 218.336C77.0431 218.248 76.8276 218.033 76.56 217.945L76.7841 217.752C76.3667 217.19 76.1621 216.913 75.5427 216.32L75.8179 216.3C75.5066 215.931 74.7663 216.423 74.4655 216.091L74.7211 215.696C74.1676 215.06 73.9256 214.163 73.0972 213.762C73.1644 213.735 73.2751 213.673 73.3746 213.773C73.129 213.46 72.6667 212.387 72.272 212.877C72.5846 212.632 71.7823 212.167 71.3708 211.898L71.6464 211.778C71.1095 211.686 71.014 211.747 70.6252 211.368C70.5929 211.24 70.7544 211.136 70.7912 211.325C70.6672 210.888 70.3684 211.218 70.2001 210.7L70.4655 210.757C70.2308 210.382 70.1681 210.471 69.8474 210.395C69.5906 210.244 69.426 209.672 69.6256 209.458C69.4596 209.501 69.1461 209.416 69.066 209.161C69.1369 209.079 69.232 209.118 69.28 209.145C69.0585 208.423 68.3824 208.427 68.3625 207.836C68.4427 207.777 68.4618 207.721 68.4655 207.667C68.7633 208.168 69.0144 208.557 68.9745 208.537C69.202 208.39 68.9874 207.975 69.5102 208.083C69.1195 207.889 68.413 207.579 68.2797 207.12C68.2927 207.088 68.2976 207.049 68.326 207.017L68.367 207.052C68.3428 206.931 68.269 206.867 68.181 206.82C68.1393 206.669 68.1244 206.57 68.0544 206.452C68.2196 206.294 67.8707 205.935 67.7716 205.735C67.5228 205.907 67.4171 205.615 67.345 205.997C67.3416 205.951 67.4001 206.016 67.4866 206.148C67.5112 206.169 67.5369 206.206 67.5686 206.219L67.538 206.221C67.6245 206.353 67.7355 206.506 67.8652 206.704C67.6445 206.628 67.4298 206.529 67.4299 206.213C67.2065 206.207 66.975 206.193 66.8504 206.171C67.0453 205.68 66.9363 205.027 67.1217 204.83C66.6148 204.305 66.2199 203.42 65.5033 203.287C65.3393 203.146 65.5362 203.001 65.5754 202.906C65.6738 202.991 65.7368 203.117 65.8378 203.132C65.5098 202.849 65.2319 202.093 64.846 202.175C64.7765 201.642 65.2911 202.273 64.9245 201.67L65.0725 201.697C65.0175 200.203 63.1875 200.082 63.2993 198.345C63.3 198.46 63.2963 198.514 63.2466 198.572C62.8965 196.822 61.5517 195.345 61.5182 193.51C61.4591 193.015 61.2074 193.041 60.9297 192.815L61.2068 192.611L60.6957 192.241C60.2198 191.615 61.0531 190.816 60.3226 190.07L60.1432 190.245C60.0881 189.91 59.7334 189.26 59.9862 189.249C59.9463 189.229 59.7372 189.206 59.8107 189.055L59.9684 189.005C59.7977 188.771 59.6341 188.529 59.4858 188.287C59.4544 187.643 60.1492 188.215 59.9684 187.314C59.8227 187.002 59.2628 186.489 59.1811 186.634C59.2064 186.77 59.1619 187.004 58.996 187.047L58.8291 186.759C58.3339 186.818 57.7783 186.682 57.6326 187.53L58.0575 187.983L57.859 188.213L57.7421 187.768C57.588 188.079 57.8191 188.193 57.9984 188.333C57.8887 188.411 57.8108 188.501 57.7962 188.617L58.3788 189.02C58.2102 189.133 57.9538 188.882 57.9357 189.268C58.2183 189.455 58.2875 188.927 58.5446 189.293C58.3987 189.611 58.2037 189.571 58.4684 189.828C58.3587 189.906 58.2636 189.866 58.1712 189.758C58.3948 189.98 58.4282 190.438 58.7254 190.509C58.5347 190.846 59.0498 191.377 58.5967 191.487C58.7235 191.539 59.0914 191.843 59.1845 192.066C58.519 191.792 59.4429 192.977 58.8325 193.037C59.3985 193.211 59.4428 194.138 59.9005 194.619C59.8453 194.6 59.7503 194.561 59.7693 194.506C59.8479 194.846 59.7274 194.986 59.7064 195.225C60.1065 195.127 60.3856 195.583 60.7211 195.759C60.498 196.282 60.1712 195.699 59.8668 195.951C60.1719 195.814 60.4453 196.509 60.6508 196.271C60.5329 196.656 60.6343 196.572 60.378 196.852C60.883 196.715 60.5651 197.099 60.9585 197.224C60.8963 197.744 60.5493 197.515 60.8944 197.928C60.838 198.209 60.4902 197.866 60.4902 197.866L60.4761 197.882L60.5607 197.884ZM66.8291 208.201C66.7695 208.121 66.7181 208.048 66.6841 208.004C66.7181 208.048 66.7531 208.107 66.8291 208.201ZM67.3676 209.054C67.3139 208.95 67.2275 208.818 67.141 208.686C67.2119 208.604 67.3178 208.581 67.3621 208.662C67.2693 208.654 67.3471 208.878 67.3676 209.054ZM68.0272 206.185C68.1503 206.292 68.1252 206.37 68.0827 206.42C68.0324 206.362 67.9892 206.296 67.9131 206.201C67.9131 206.201 67.8826 206.204 67.8673 206.205C67.9273 206.185 67.9732 206.182 68.0272 206.185Z" fill="white"/>
<path d="M48.9935 216.785C49.1675 217.064 49.4029 216.709 49.6207 216.639C49.9323 216.909 49.4819 216.949 49.3833 217.179C49.6096 217.332 50.006 217.288 50.1029 217.457C50.0604 217.506 50.0555 217.545 49.972 217.559C50.375 217.607 50.4102 218.196 50.905 218.237C50.8849 218.276 50.8636 218.301 50.8423 218.326C50.977 218.17 51.1456 218.058 51.2634 217.988C51.3488 218.104 51.624 218.084 51.4375 218.267C51.3931 218.186 51.3047 218.238 51.213 218.245L51.3867 218.309C51.1562 218.626 51.1638 218.202 50.9363 218.35C51.2036 218.538 51.651 218.666 51.6923 218.917C51.4255 219.159 51.2871 218.524 51.1959 218.961L51.1141 218.575C50.792 219.113 51.0302 218.373 50.6553 218.923C50.8262 219.372 51.103 219.267 51.2739 219.716C51.4951 219.692 51.5063 219.53 51.7274 219.506C52.3996 219.872 51.258 220.447 51.9369 220.59C52.2121 220.57 52.6187 220.348 52.6121 220.787L52.206 220.908C52.4277 221.315 52.8437 220.801 52.8767 221.359C52.6932 221.372 52.5684 221.136 52.5586 221.213C52.4604 221.658 52.8782 221.274 52.9997 221.465L52.733 221.708C53.0524 222.084 53.5661 222.385 53.9194 222.805C53.8217 222.835 53.6748 222.823 53.6482 222.986C54.1742 223.455 54.4144 224.221 54.602 224.899L55.004 224.931C55.0308 224.983 54.9469 225.097 54.8611 225.08C54.9046 225.361 55.0308 224.983 55.2023 225.017C55.303 225.133 55.1519 225.274 55.0273 225.252C55.4978 225.487 56.2128 226.019 56.201 226.596L56.0683 226.568C56.1725 226.944 56.8371 226.573 56.7766 227.008L56.6979 226.983C57.0287 227.727 57.7634 228.319 57.6967 229.093C58.1394 228.945 57.9686 229.872 58.5154 229.571C58.5096 230.125 58.3369 230.076 58.5306 230.73C58.5958 230.887 58.9997 230.735 59.179 230.875L58.9078 231.056L59.3578 231.116L59.1213 231.456L59.3066 231.573C59.2775 231.491 59.344 231.347 59.4182 231.311C59.7078 231.49 59.6502 232.071 59.5122 232.181L60.1533 232.649C60.0426 232.711 59.9289 232.627 59.8032 232.59C60.3058 232.738 59.5529 232.846 60.0156 232.974C60.0477 232.887 60.1864 232.892 60.2535 232.864C60.1878 233.123 60.4133 233.475 60.6511 233.681L60.4333 233.75C60.6922 234.246 61.1608 234.666 61.5055 235.179C61.4724 234.935 61.8211 234.764 61.9534 234.892L61.7031 235.149C61.9477 235.131 61.7017 234.918 62.0518 234.977C62.152 235.193 61.8082 235.326 61.6356 235.277L61.8935 235.442C61.8145 235.517 61.7276 235.485 61.6168 235.547C61.8614 235.529 61.5909 236.141 61.9932 236.073L61.9223 236.155C62.2518 236.669 62.5097 236.835 62.7937 237.252C63.0518 237.103 63.1039 237.291 63.3884 237.293C63.5151 237.661 63.5413 238.127 63.8056 238.485C64.0952 238.663 64.0621 238.42 64.2937 238.434C64.0755 238.603 64.3468 238.953 64.0567 238.874C64.3795 239.296 64.4801 239.412 65.0273 239.856C65.0796 239.729 65.0729 239.637 65.187 239.621C65.2854 239.706 65.2469 239.917 65.1279 239.972L65.0892 239.967C65.8493 240.38 65.3576 241.861 66.1562 242.064L66.1234 242.035L66.6968 242.416C66.8085 242.685 66.4324 242.374 66.3984 242.646C67.1448 242.976 66.8965 243.578 67.4266 243.893C66.952 244.657 68.2338 245.163 68.0579 245.914L68.21 245.787C68.4438 245.832 68.2021 245.996 68.2181 246.11C68.3349 246.024 68.2943 245.889 68.4199 245.926C69.2223 246.92 69.3482 248.333 69.69 249.545C69.814 249.982 70.6864 249.404 70.5 250.116L70.1145 250.098C70.8499 250.806 70.7879 251.855 71.3809 252.611C71.2787 252.58 71.181 252.611 71.1673 252.527C70.9863 252.786 71.362 253.197 71.5585 253.152C71.5767 253.296 71.3877 253.233 71.3038 253.347C71.2123 253.569 71.7466 253.73 71.5273 253.884C71.4989 253.917 71.4404 253.852 71.4076 253.824C71.5601 253.912 71.5099 254.385 71.7658 254.205C71.6996 254.563 72.0478 254.807 71.9161 255.108C72.2695 255.213 71.8748 255.703 72.3335 255.67C71.8617 255.735 72.0345 256.314 72.2936 256.495C72.1363 256.445 72.1705 256.704 71.9591 256.65C72.0074 256.892 72.1065 257.093 72.3478 257.029C71.8155 257.529 72.9027 257.895 72.1784 258.186C72.3345 258.536 72.459 258.873 72.5457 259.22C72.6395 259.559 72.7099 259.892 72.7485 260.212C72.2772 260.177 72.7268 259.491 72.2141 259.521C72.3962 260.122 72.8084 260.507 72.6449 261.111C72.5713 261.262 72.4454 261.01 72.3716 260.946C72.5253 261.581 72.2104 262.111 72.3821 262.675C72.3351 262.663 72.3001 262.604 72.2721 262.537C72.2646 262.645 72.1583 262.768 72.3675 262.791L72.3362 262.678C72.6812 262.561 72.9136 263.22 73.0638 263.278C72.4808 262.975 72.8008 263.782 72.0843 263.334C72.1133 263.417 72.1905 263.526 72.3374 263.539C72.2665 263.621 72.1759 263.643 72.0353 263.507C72.0643 263.904 72.3197 263.824 72.2219 264.169C72.1197 264.139 72.0989 264.063 71.9863 263.995C72.1406 264.214 72.3113 264.447 72.1221 264.699C72.0729 264.657 71.9741 264.672 71.9991 264.593C71.8807 265.078 72.2642 265.596 71.8673 266.055C71.4982 265.736 71.661 266.178 71.283 266.051C71.2908 266.158 71.275 266.259 71.2675 266.368L71.4958 266.336C71.3819 266.567 71.5369 266.901 71.3329 267.054L71.2681 266.798C71.2181 266.955 71.1833 267.111 71.118 267.27C71.2135 267.209 71.2937 267.15 71.381 267.082C71.4442 267.423 71.8492 267.286 71.5848 267.559C71.5863 267.474 71.4486 267.799 71.1805 267.811C71.2244 267.992 71.2683 268.173 71.0855 268.302C70.9539 268.289 70.7363 268.043 70.6352 268.027C70.8633 268.311 70.393 268.606 70.5938 268.937C70.5566 268.848 70.3795 268.738 70.3396 268.717L70.5032 268.959C70.3608 269.008 70.3149 269.011 70.1837 268.898C69.9356 269.185 70.665 269.07 70.2383 269.332C70.235 269.286 70.1962 269.281 70.2059 269.204C69.8672 269.513 69.8499 270.013 69.4996 270.269C69.1052 270.129 69.6351 269.914 69.2757 269.832C68.9914 270.36 68.9154 271.111 68.4834 271.511L68.586 271.443C68.977 271.852 68.0986 271.609 68.1204 272.014C68.1372 271.929 67.9322 271.751 67.9661 271.795C67.6464 272.049 67.5657 272.523 67.3246 273.117L67.2594 272.961C67.0062 273.071 66.8155 273.408 66.5973 273.578C66.6625 273.734 66.5539 273.827 66.7806 273.879C65.6313 274.032 66.2431 275.363 65.2746 275.572C65.3231 275.499 65.2874 275.325 65.2378 275.383L65.0201 275.982C65.2573 276.073 65.1894 275.985 65.4199 275.984C65.4992 276.124 65.5066 276.331 65.4309 276.452C65.4228 276.13 65.086 276.254 64.9119 276.29C64.9906 276.315 65.0349 276.396 65.1136 276.421C64.5796 276.476 65.5109 276.707 65.0515 276.941L64.953 276.856C64.9276 277.034 65.0114 277.236 64.8991 277.382C64.6173 277.31 64.853 277.17 64.6524 277.054C64.5539 277.284 64.9165 277.727 64.5682 277.798C64.5358 277.67 64.6105 277.534 64.5781 277.406C64.1757 277.473 64.2342 277.538 64.1067 277.686L64.1208 277.669C64.0134 277.777 63.9142 277.892 63.8067 278L63.9328 277.937C64.49 278.519 63.8031 278.584 64.1206 279.145C63.8359 278.612 63.8943 278.992 63.5998 278.852C63.4819 278.922 63.3298 279.049 63.2548 278.97C63.4359 279.241 62.9598 279.245 63.2262 279.633C63.1252 279.617 63.149 279.838 62.9178 279.724C62.9237 280.016 63.1013 279.711 63.228 279.763C63.4695 280.23 62.5591 280.603 62.9631 281.296C63.0937 281.825 63.4412 281.953 63.5887 282.396C63.4152 282.547 63.2248 282.253 63.2248 282.253C63.058 282.496 63.096 282.701 63.2126 282.93C63.1175 282.891 63.0515 282.934 62.9348 283.02C62.9645 283.217 63.3188 283.122 63.1919 283.385C63.0745 283.355 62.8865 283.308 62.7646 283.216C62.8813 283.446 63.0814 283.662 63.2275 283.874C63.0649 283.963 62.9281 283.773 62.8073 283.698C62.9191 283.966 63.0878 284.384 63.3805 284.394L63.4436 284.205C63.4738 284.302 63.2046 284.299 63.1543 284.241C62.8952 284.06 63.198 283.892 63.3039 283.869L63.3997 284.023C63.9651 283.767 63.2154 283.391 63.2204 283.037L63.6738 283.143C63.5355 283.037 63.4278 282.93 63.2965 282.817C63.4062 282.739 63.6568 282.698 63.7291 282.847C63.9428 282.616 63.5677 282.636 63.8083 282.457C63.8448 282.431 63.8683 282.437 63.8858 282.466C63.8415 282.385 63.8065 282.326 63.7692 282.237C63.8572 282.284 64.0832 282.221 64.0156 282.349C64.2887 281.984 63.715 281.703 64.0834 281.591L64.1162 281.62C64.0303 281.073 63.7956 281.543 63.4684 281.06C63.7414 281.009 64.0225 280.966 64.3048 280.937L63.9961 280.814C64.0152 280.759 64.0696 280.662 64.1882 280.708C64.0082 280.452 64.0424 280.711 63.8538 280.547C64.2085 280.353 63.9123 279.767 64.4268 279.868C64.23 279.698 64.1639 280.056 64.0946 279.738C64.655 279.836 64.0996 279.385 64.4271 279.238C64.6697 279.405 64.4515 279.574 64.7708 279.42C64.3723 279.119 65.0253 279.01 65.025 278.795C64.6682 278.644 65.0516 278.316 65.0861 277.945C65.1834 278.015 65.5572 277.45 65.8415 277.237L65.8907 277.279C65.5802 277.025 65.8234 276.777 65.8667 276.528C66.0602 276.652 66.121 276.748 66.1403 276.908L66.2492 276.715C66.1721 276.606 66.1501 276.515 66.1931 276.366L66.4145 276.557C66.5496 276.301 66.4491 275.871 66.825 275.651C66.6118 275.467 66.0215 275.487 66.1116 275.035C66.2394 275.102 66.4646 275.239 66.4429 275.364C66.4478 275.325 66.4154 275.197 66.5131 275.167L66.6178 275.443C66.811 275.353 66.5034 275.244 66.6037 275.145C66.7748 275.278 66.7883 275.147 66.9113 275.253C66.9065 275.292 66.7689 275.302 66.799 275.4C66.9217 275.291 67.1455 275.198 67.2946 275.241C67.1903 275.179 67.0673 275.073 67.1135 274.969C67.2874 274.719 67.379 275.027 67.5733 274.951C67.501 274.803 67.7423 274.739 67.4903 274.55C67.547 274.484 67.6749 274.552 67.7618 274.584C67.7462 274.37 68.1852 273.962 67.8127 273.912L67.768 273.93C67.768 273.93 67.7751 273.922 67.7811 273.899C67.86 273.294 68.5942 273.14 68.8197 272.647L68.9017 272.718C69.0088 272.395 69.2804 272.114 69.2428 271.81C69.3066 271.736 69.53 271.743 69.6 271.861C69.6822 271.616 69.5991 271.53 69.9631 271.358C69.9618 271.658 70.1346 271.391 69.9219 271.637C70.1849 271.449 70.3646 271.49 70.3394 271.038C70.4888 271.296 70.7544 271.039 70.781 270.876L70.4938 270.943C70.5662 270.776 70.6666 270.676 70.774 270.569L71.0163 270.835C71.7547 270.528 71.0843 269.447 71.9651 269.406C71.8451 269.131 71.635 269.622 71.4681 269.335C71.6665 269.105 72.2732 269.099 72.3206 269.011C72.7074 268.73 72.0774 268.414 72.3997 268.091C72.261 268.086 71.9452 267.971 71.9818 267.63C72.1486 267.387 72.6124 267.53 72.6209 267.752C72.5959 267.831 72.5429 267.842 72.5101 267.814C72.5026 267.922 72.4903 268.069 72.6786 268.017L72.5802 267.932C72.7816 267.848 72.9372 267.453 73.0882 267.626C73.0764 267.358 72.9443 267.444 72.8156 267.577C73.1484 267.291 73.0978 267.018 73.3496 266.677C73.2601 266.714 73.099 266.718 73.1251 266.655C73.4881 266.152 73.0007 266.318 73.0881 265.935C73.3462 265.786 73.4975 266.175 73.4723 265.723C73.6659 265.532 73.8071 265.783 73.8701 265.909C73.7461 265.473 74.2395 265.283 74.3555 265.082L74.3875 265.311C74.3622 265.174 74.4014 265.079 74.4253 264.985L74.1523 265.036C74.2292 264.93 74.2531 264.836 74.3481 264.875C74.2136 264.716 73.9238 264.853 73.7569 264.565C73.9255 264.453 73.7366 264.075 74.0774 264.111C73.8486 264.558 74.4171 264.133 74.3636 264.559C74.3416 264.469 74.3737 264.382 74.4424 264.269C74.4882 264.266 74.5068 264.311 74.5162 264.333C74.9257 263.942 74.2023 264.033 74.3065 263.564C74.4754 263.667 74.6876 263.521 74.6504 263.432C74.6026 263.62 74.3293 263.455 74.2231 263.263C74.4183 262.988 74.1752 262.921 74.217 262.756C74.1827 262.813 74.1565 262.876 74.114 262.925C73.9381 262.83 73.981 262.681 73.9501 262.468C74.097 262.481 74.0269 262.678 74.1059 262.603C73.8096 262.333 74.5241 262.119 74.3446 261.763C74.4803 261.623 74.6995 261.784 74.8058 261.661C74.5923 261.261 75.0931 261.279 74.9326 260.868C74.6711 260.971 74.7334 260.982 74.5053 260.699L74.6296 261.351L74.2975 260.906C74.2803 261.092 74.4204 261.328 74.3671 261.439C74.1751 261.23 74.2385 261.256 74.0207 261.326C74.419 261.097 73.8595 260.8 74.1157 260.52L74.741 260.559C75.038 260.099 74.4505 259.735 74.5917 259.14L74.4828 259.333C74.2315 259.259 74.4408 258.967 74.3428 258.782C74.5508 258.79 74.6266 258.669 74.7586 258.583C74.6057 258.594 74.7498 258.145 74.3326 258.114L74.5807 257.827C74.6767 257.351 73.9466 257.351 73.9744 256.887C74.2208 257 74.3428 256.776 74.5333 257.07C74.5221 256.917 74.5427 256.777 74.4051 256.787C74.5278 256.678 74.0775 256.404 74.2498 256.237C74.1466 256.191 73.9314 256.191 73.9192 256.023C73.9557 255.997 74.0262 256.015 74.0262 256.015C73.9192 256.023 73.8473 255.775 73.6373 255.951C74.2263 255.386 73.3686 254.688 73.8315 254.185C73.6788 253.881 73.5358 253.5 73.4382 253.215C73.5075 253.217 73.5441 253.192 73.5251 253.247C73.6069 252.788 72.8729 253.156 72.9667 252.65C73.2349 252.323 73.2034 252.84 73.2982 252.664C73.9482 252.409 73.0605 252.143 73.3374 251.724L73.403 251.78C73.55 251.478 72.9676 251.289 72.8869 250.919C72.8869 250.919 72.9562 250.921 72.9846 250.889C72.5666 250.742 72.2816 250.31 72.0595 250.003C72.3522 250.012 72.2518 250.112 72.4782 249.949C72.3754 249.803 72.0859 250.155 71.8954 249.861C71.9913 249.701 72.0254 249.429 72.2846 249.295L72.4209 249.585C72.722 249.286 72.2473 249.205 72.2493 249.021L72.407 248.971C72.1678 248.535 71.7874 248.693 71.5907 248.208L71.5057 248.307C71.0075 248.22 71.621 247.991 71.2195 247.859L71.5615 247.595C71.3904 247.462 70.9084 247.174 70.6885 246.898C71.0517 246.926 71.3655 247.225 71.6448 247.367C71.5632 247.196 71.3426 246.804 71.1121 246.806C71.1777 246.863 71.3187 246.898 71.2877 247.001C70.8917 246.945 70.6151 246.734 70.4601 246.4C71.2139 246.091 70.1984 245.443 70.6285 244.912C70.0508 244.47 70.1092 243.69 69.6781 243.045C69.2725 243.597 69.5495 242.862 69.0154 243.231C68.8902 243.094 68.8704 243.034 68.8917 243.01L68.9509 242.345C69.0434 242.138 69.1634 242.414 69.2801 242.328C69.1229 241.963 69.4283 242.041 69.4519 241.732C69.2795 241.898 69.0943 241.781 69.0541 241.546L68.9618 241.967C68.3799 241.679 69.181 241.283 68.599 240.995L68.8634 241.037C68.6125 240.863 68.3145 240.147 67.7265 240.197C67.7586 240.111 67.8791 239.971 67.9845 240.048C67.6861 239.432 66.7082 239.088 66.6943 238.474L66.8602 238.431C66.7618 238.346 66.49 238.412 66.5355 238.194C66.6027 238.166 66.6933 238.144 66.6747 238.099C66.596 238.074 66.2578 237.968 66.2445 237.785L66.4689 237.807C66.2824 237.144 65.5568 237.205 65.1669 236.81C65.5559 236.559 65.411 236.047 65.331 235.792L65.3981 235.764C65.027 235.099 64.3671 234.901 63.8318 234.41C64.0155 233.766 63.1955 233.058 63.0574 232.322C63.0369 232.462 62.7486 232.514 62.6349 232.43C62.6216 232.246 62.1137 232.237 62.4897 232.018L62.5165 232.07C62.8 231.741 62.5223 231.516 62.3833 231.295L61.8884 231.57C62.1912 230.556 60.6454 230.223 61.0469 229.51C60.8355 229.456 60.7222 229.272 60.5179 229.21L60.7749 229.046C60.5826 228.621 60.4906 228.413 60.1127 227.972L60.3573 227.954C60.1986 227.673 59.415 228.099 59.2361 227.859L59.5584 227.536C59.2476 227.066 59.2669 226.381 58.6119 226.144C58.679 226.116 58.7898 226.055 58.8565 226.127C58.7246 225.898 58.5515 225.104 58.083 225.53C58.4202 225.305 57.8005 225.028 57.4814 224.866L57.757 224.746C57.3032 224.741 57.2148 224.794 56.9278 224.546C56.9059 224.455 57.0909 224.357 57.0774 224.489C57.054 224.167 56.7142 224.461 56.664 224.088L56.8945 224.087C56.7532 223.836 56.6894 223.91 56.412 223.899C56.2137 223.814 56.1684 223.402 56.3702 223.218C56.2053 223.276 55.9432 223.265 55.9064 223.075C55.9772 222.993 56.0712 223.017 56.11 223.022C56.011 222.507 55.4263 222.603 55.4869 222.168C55.5671 222.109 55.5943 222.06 55.6074 222.029C55.8153 222.352 55.9658 222.625 55.9341 222.612C56.1617 222.465 56.0253 222.175 56.4791 222.181C56.1726 222.088 55.5652 221.978 55.5031 221.652C55.5244 221.628 55.5303 221.604 55.5587 221.571L55.5975 221.576C55.5848 221.508 55.5203 221.466 55.4499 221.449C55.4421 221.342 55.4294 221.273 55.3851 221.192C55.5585 221.041 55.289 220.822 55.2179 220.689C54.9691 220.861 54.9017 220.674 54.8076 220.965C54.8124 220.926 54.8535 220.962 54.9142 221.057C54.9388 221.078 54.9552 221.093 54.9787 221.099L54.9645 221.115C55.0159 221.188 55.0931 221.298 55.1784 221.414C54.9927 221.397 54.813 221.357 54.8422 221.124C54.6375 221.162 54.4245 221.193 54.3257 221.208C54.5649 220.798 54.5233 220.332 54.7016 220.143C54.3032 219.841 53.9928 219.272 53.3589 219.326C53.2228 219.251 53.4044 219.107 53.4518 219.02C53.5469 219.059 53.583 219.133 53.6748 219.126C53.4108 218.984 53.1825 218.486 52.8255 218.65C52.7824 218.269 53.2301 218.613 52.92 218.259L53.0494 218.242C53.0611 217.134 51.3852 217.548 51.514 216.256C51.5124 216.34 51.5158 216.386 51.4651 216.428C51.1266 215.262 49.8807 214.615 49.7119 213.351C49.6263 213.019 49.4036 213.128 49.13 213.063L49.359 212.831L48.8691 212.752C48.374 212.496 49.0712 211.623 48.3092 211.394L48.1603 211.566C48.0847 211.372 47.6862 211.07 47.9089 210.962C47.863 210.965 47.6829 211.024 47.7269 210.891L47.8661 210.796L47.33 210.505C47.2 210.091 47.9144 210.193 47.6145 209.662C47.434 209.506 46.8572 209.394 46.805 209.521C46.8493 209.602 46.8463 209.771 46.7072 209.866L46.5219 209.749C46.0859 209.988 45.5739 210.133 45.5643 210.741L46.0117 210.869L45.8744 211.095L45.6955 210.854C45.5992 211.115 45.8285 211.098 46.0071 211.123C45.9221 211.222 45.8665 211.303 45.8731 211.394L46.4597 211.429C46.3239 211.569 46.0502 211.504 46.0926 211.77C46.37 211.781 46.3657 211.405 46.6379 211.554C46.5415 211.815 46.3614 211.874 46.6351 211.938C46.55 212.037 46.4501 212.036 46.3632 212.004C46.591 212.072 46.6733 212.358 46.9452 212.292C46.8134 212.594 47.3395 212.748 46.927 212.993C47.0564 212.976 47.4076 213.05 47.5094 213.181C46.8837 213.242 47.8164 213.704 47.2745 213.967C47.8134 213.874 47.8977 214.505 48.3485 214.68C48.3026 214.683 48.2109 214.69 48.2158 214.651C48.2996 214.853 48.2096 214.99 48.2066 215.159C48.5684 214.956 48.839 215.19 49.1552 215.205C48.9723 215.649 48.6573 215.334 48.3787 215.623C48.6487 215.427 48.9163 215.83 49.1066 215.593C49.0136 215.9 49.0986 215.801 48.8729 216.079C49.3231 215.823 49.05 216.189 49.4169 216.162C49.3683 216.55 49.057 216.496 49.3619 216.674C49.3163 216.892 48.9983 216.746 48.9983 216.746L48.9491 216.704L48.9935 216.785ZM54.0018 222.776C53.9526 222.733 53.9187 222.69 53.9012 222.66C53.9258 222.681 53.9515 222.718 54.01 222.783L54.0018 222.776ZM54.364 223.318C54.3361 223.251 54.2753 223.155 54.2157 223.075C54.2866 222.993 54.3843 222.963 54.4193 223.022C54.3429 223.028 54.3775 223.186 54.3569 223.326L54.364 223.318ZM55.3341 221.019C55.4232 221.082 55.397 221.145 55.3616 221.186C55.3206 221.151 55.2867 221.107 55.2293 221.057C55.2293 221.057 55.2069 221.067 55.1916 221.068C55.2517 221.048 55.2964 221.029 55.3341 221.019Z" fill="white"/>
</g>
<path d="M178.615 152.022C183.196 139.999 198.167 109.012 204.196 109.875C210.225 110.738 205.076 143.115 200.486 155.128C195.896 167.141 188.127 184.035 182.085 183.183C176.043 182.332 174.024 164.035 178.615 152.022Z" fill="#10423E"/>
<path d="M227.688 158.249C243.582 123.947 301.564 116.782 336.759 131.789C371.955 146.796 372.08 202.682 356.186 236.984C340.292 271.287 305.188 268.364 269.992 253.357C234.79 238.312 211.794 192.551 227.649 158.256L227.688 158.249Z" fill="#2CB5A9"/>
<path d="M150.716 102.965C156.154 103.42 161.112 108.164 160.641 113.784C160.171 119.404 152.016 120.985 146.578 120.529C141.141 120.074 135.821 111.683 136.292 106.064C136.762 100.444 145.277 102.51 150.715 102.965L150.716 102.965Z" fill="#93D930"/>
</svg>
