<svg width="181" height="99" viewBox="0 0 181 99" fill="none" xmlns="http://www.w3.org/2000/svg">
<path d="M162.106 33.4327C169.517 37.7964 177.647 51.6116 175.112 56.0718C172.578 60.5321 162.485 60.9361 155.074 56.5724C147.662 52.2088 143.78 44.4943 146.32 40.042C148.86 35.5898 154.695 29.0691 162.106 33.4327Z" fill="white" stroke="#4F462B" stroke-miterlimit="10"/>
<path d="M70.8253 -51.5853C9.79624 -60.8393 47.4762 -24.1101 62.8661 -0.666358C76.2473 19.7074 104.059 49.9068 118.991 43.5838C133.922 37.2607 127.465 -1.75801 116.925 -23.5588C106.385 -45.3596 87.1859 -49.1105 70.8253 -51.5853Z" fill="#DA3B9B"/>
<path d="M88.344 65.769C78.8597 70.209 69.3357 77.3249 67.6294 73.6569C65.92 69.9883 72.4704 59.8414 81.9578 55.4021C91.4421 50.9621 105.513 54.053 107.219 57.7241C108.928 61.3926 97.8314 61.3297 88.344 65.769Z" fill="#2CB5A9"/>
</svg>
