<svg width="246" height="146" viewBox="0 0 246 146" fill="none" xmlns="http://www.w3.org/2000/svg">
<path d="M31.7299 80.1502C27.3824 55.1952 19.8847 30.8509 -5.14247 35.2248C-30.1697 39.5987 -63.2733 71.0127 -58.9259 95.9677C-54.5784 120.923 -41.7468 141.311 -16.7196 136.937C8.30758 132.563 36.0507 105.151 31.7299 80.1502Z" fill="#AF9F6E"/>
<path d="M58.2471 64.6865C63.0513 64.885 68.7787 70.9613 68.5457 75.4251C68.3127 79.8888 67.1343 84.985 62.3301 84.7865C57.526 84.588 50.8995 79.1835 51.1437 74.7193C51.3879 70.2551 53.4429 64.488 58.2582 64.686L58.2471 64.6865Z" fill="white" stroke="#4F462B" stroke-miterlimit="10"/>
<path d="M239.014 41.0479C241.01 52.4712 228.961 62.0473 217.696 63.9853C206.431 65.9234 191.41 52.3546 189.403 40.9343C187.406 29.511 199.187 24.5743 210.449 22.6248C221.711 20.6753 237.015 29.6131 239.011 41.0364L239.014 41.0479Z" fill="#62D9CF"/>
<path d="M125.741 93.2002C117.931 96.9421 108.535 93.7216 104.758 85.9949C100.982 78.2749 101.109 72.8364 108.918 69.0878C116.727 65.3393 127.289 67.0773 131.072 74.8036C134.855 82.53 133.557 89.4514 125.748 93.1999L125.741 93.2002Z" fill="#EF6343"/>
<mask id="mask0_9073_21451" style="mask-type:alpha" maskUnits="userSpaceOnUse" x="-4" y="-97" width="186" height="155">
<path d="M0.234508 1.84002C-17.3154 -37.0412 27.1527 -74.5906 65.5414 -91.8021C103.93 -109.014 159.754 -72.2552 177.304 -33.374C194.854 5.50719 158.883 34.7012 120.504 51.9288C82.1242 69.1565 17.7935 40.7374 0.243605 1.8562L0.234508 1.84002Z" fill="#93D930"/>
</mask>
<g mask="url(#mask0_9073_21451)">
<path d="M0.234508 1.84002C-17.3154 -37.0412 27.1527 -74.5906 65.5414 -91.8021C103.93 -109.014 159.754 -72.2552 177.304 -33.374C194.854 5.50719 158.883 34.7012 120.504 51.9288C82.1242 69.1565 17.7935 40.7374 0.243605 1.8562L0.234508 1.84002Z" fill="#93D930"/>
<path d="M130.655 24.5502L130.419 23.1117C130.496 23.7905 130.581 24.233 130.655 24.5502Z" fill="white"/>
<path d="M129.889 34.9848L130.219 35.288C130.073 34.7835 129.949 34.5632 129.889 34.9848Z" fill="white"/>
<path d="M168.717 1.62399C169.967 -0.795174 171.067 -3.95815 170.218 -3.62248L169.398 -2.80998C169.429 -0.936962 169.151 0.488045 168.722 1.63197L168.717 1.62399Z" fill="white"/>
<path d="M103.13 7.21345C103.239 7.01461 103.348 6.81577 103.459 6.60405C103.27 6.02778 103.1 5.48342 102.948 5.00473C103.007 5.67244 103.039 6.42238 103.138 7.20854L103.13 7.21345Z" fill="white"/>
<path d="M106.263 9.15886C105.981 10.0585 105.737 10.9674 105.473 11.8781C105.721 11.2632 105.964 10.3881 106.263 9.15886Z" fill="white"/>
<path d="M139.134 29.1315C139.056 28.1459 138.876 27.7286 138.701 27.7482C138.823 28.751 138.916 29.3316 139.134 29.1315Z" fill="white"/>
<path d="M53.1099 29.3486C52.8571 28.7233 52.4632 27.6898 52.2061 26.6821C52.276 27.189 52.5325 27.9991 53.1099 29.3486Z" fill="white"/>
<path d="M94.2892 55.452C94.3174 55.5336 94.3585 55.6183 94.3886 55.7208C94.7801 55.8208 94.9256 55.7533 94.8593 55.7171C94.8041 55.6631 94.5623 55.5919 94.2892 55.452Z" fill="white"/>
<path d="M126.764 -0.0690819C126.842 1.09327 126.943 2.24089 126.994 3.39711C124.77 -0.217053 124.167 -3.00266 124.205 0.240743C125.469 0.078775 126.516 3.17432 127.293 6.3484C127.656 7.93974 128.019 9.53107 128.404 10.7462C128.776 11.9583 129.24 12.7837 129.886 12.815C129.84 13.5803 129.718 14.3481 129.626 15.109C129.581 14.4653 129.423 14.3867 129.384 13.7509C128.606 18.1892 131.637 16.7864 131.492 22.5398C131.357 24.5368 130.93 25.8992 130.665 24.5558C130.819 26.0225 131.042 27.4917 131.143 28.9799C131.008 30.262 130.587 29.9164 130.719 28.6473L130.581 31.9987L130.301 35.3501L130.232 35.293C130.493 36.2879 130.764 38.5518 130.828 39.6565C130.113 41.284 130.74 38.7642 130.332 39.1367L130.18 42.9477C129.188 44.2843 129.266 41.1232 129.815 38.6187C128.263 40.1013 128.236 40.8439 128.28 42.148C128.308 42.8016 128.262 43.5669 128.06 44.6151C127.95 45.1336 127.801 45.7314 127.553 46.4009C127.287 47.0594 126.946 47.8087 126.497 48.6348C126.715 47.4884 127.008 46.3733 127.154 45.2165C126.212 46.1155 125.58 47.1974 125.027 48.5163C124.459 49.8449 123.842 51.2914 122.883 52.1456C123.049 52.0763 123.401 51.8265 123.845 51.4215C124.289 51.0164 124.801 50.4371 125.29 49.9272C126.249 48.8753 127.054 48.3248 126.752 50.3365C126.204 51.3227 125.704 52.5655 125.295 54.2249C124.901 53.9947 124.561 54.2476 124.183 54.6342C124.018 54.8128 123.813 55.0159 123.602 55.2448C123.416 55.4252 123.257 55.578 123.031 55.7284C122.867 55.3559 122.701 54.9962 122.522 54.6335C122.331 54.949 122.196 55.23 122.066 55.5191C121.936 55.8081 121.812 56.126 121.408 56.3635C120.719 56.172 120.483 55.6461 120.503 55.249C120.505 55.0385 120.567 54.8354 120.652 54.6513C120.749 54.4702 120.855 54.2843 120.899 54.0701C120.413 53.5116 120.151 53.2655 120.054 53.3582C119.952 53.4429 119.984 53.7976 120.005 54.1363C120.019 54.48 120.025 54.7948 119.843 54.874C119.651 54.9372 119.256 54.7954 118.419 53.7926C117.958 53.0089 117.476 52.1178 116.969 51.3298C116.446 50.5516 115.973 49.7648 115.414 48.9983C114.862 48.2268 114.319 47.4167 113.685 46.5643C113.098 45.6824 112.415 44.7501 111.747 43.6651C110.921 40.7856 112.624 43.84 112.509 42.7231C111.854 42.0701 111.234 41.3846 110.618 40.6862C110.401 40.0829 110.748 40.1657 110.929 40.2087C109.783 38.2743 109.725 40.4873 108.242 37.2536C107.471 37.002 107.358 35.1026 107.241 32.8209C107.148 30.5244 107.03 27.902 106.012 25.8553C106.193 24.7544 106.814 26.2641 107.229 25.8658C106.326 23.0225 106.084 21.7527 105.784 20.6395C105.625 20.0773 105.481 19.5391 105.285 18.8456C105.097 18.1472 104.806 17.2813 104.508 16.0459C104.762 14.6356 105.119 13.2499 105.453 11.8789C104.912 13.3775 104.447 13.1578 104.01 12.0734C103.613 10.9982 103.286 9.05458 103.111 7.21531C102.524 8.28067 102.022 9.21655 101.788 9.85541C101.763 7.902 101.834 5.9443 101.973 3.98905C102.288 3.32197 102.591 3.99337 102.921 5.01151C102.894 4.61015 102.864 4.22168 102.82 3.91851C103.679 1.97127 104.105 3.18273 104.515 4.72375C104.151 5.36566 103.79 5.99469 103.437 6.61881C103.969 8.12792 104.598 9.48974 105.342 9.2854C105.254 8.91043 105.222 8.21511 105.255 7.44676C105.402 7.8291 105.547 8.08133 105.685 7.93037C105.847 7.76467 105.625 7.15342 105.487 6.21507L107.014 5.20988L106.542 4.81833C107.273 2.52066 108.067 0.272093 109.04 -1.89976C109.125 -4.51473 109.148 -7.06956 109.612 -9.96191C110.073 -12.8414 110.943 -16.0933 112.975 -19.8516C112.693 -17.5557 114.095 -18.6382 115.021 -17.9208C114.451 -17.614 114.018 -17.0837 113.622 -16.4222C113.221 -15.7686 112.888 -14.9696 112.583 -14.0889C111.929 -12.3448 111.411 -10.3098 110.476 -8.41475C111.463 -10.3859 111.779 -9.71145 111.729 -9.13089C112.374 -11.5513 113.15 -13.9539 114.107 -16.3136C114.475 -16.0012 114.83 -16.2638 115.252 -16.7762C115.686 -17.2856 116.221 -18.0435 116.894 -18.7548C115.705 -18.6499 116.201 -19.9889 117.21 -21.7097C117.737 -22.5511 118.382 -23.4869 119.007 -24.3663C119.637 -25.2378 120.236 -26.0687 120.64 -26.7352C121.256 -26.432 121.185 -25.5636 118.817 -22.7094C120.598 -23.9263 121.004 -25.2322 121.443 -26.5915C121.885 -27.93 122.378 -29.3446 124.274 -30.2141C123.615 -29.6219 123.202 -29.3458 123.164 -28.8714C123.713 -29.803 125.052 -31.0229 126.23 -31.7366C127.403 -32.4583 128.335 -32.713 127.99 -32.1821C127.751 -32.0348 127.527 -31.8636 127.284 -31.7035C128.487 -32.4656 130.013 -33.3278 131.72 -34.0041C133.417 -34.6962 135.293 -35.1687 137.027 -35.389C138.77 -35.6142 140.361 -35.5484 141.609 -35.4692C142.858 -35.3691 143.783 -35.2783 144.141 -35.5538C144.13 -35.4477 143.753 -35.0948 143.352 -34.7272C142.951 -34.3596 142.532 -33.9693 142.338 -33.8723C145.733 -34.5755 149.995 -33.6014 153.909 -31.8523C153.054 -31.7768 152.691 -30.4537 151.982 -29.6215C151.272 -28.7556 150.307 -28.4476 148.388 -29.7966C149.207 -28.7164 150.163 -27.4129 152.336 -25.3293C151.931 -26.202 152.395 -28.4678 153.34 -27.487C153.885 -25.5459 154.057 -24.8923 154.355 -24.1742C154.628 -23.4623 155.023 -22.6602 155.633 -20.4177C155.119 -21.8066 157.831 -21.5831 158.925 -19.4296C158.468 -19.5996 157.156 -18.2642 156.555 -18.8841C158.083 -17.5805 159.537 -16.1653 160.894 -14.6027C159.984 -15.8136 159.18 -14.153 159.007 -12.8255C159.107 -13.1624 159.517 -12.0504 159.849 -10.6708C160.222 -9.29488 160.4 -7.6661 160.607 -6.99042C160.657 -7.74772 160.707 -8.52589 160.696 -9.31142C160.956 -7.79926 161.204 -6.69827 161.555 -5.77035C161.71 -5.30455 161.89 -4.88722 162.085 -4.47972C162.255 -4.07835 162.444 -3.69969 162.63 -3.30815C162.968 -2.52628 163.315 -1.6947 163.446 -0.642202C163.585 0.405384 163.512 1.68187 162.971 3.26888C162.909 2.81168 162.385 2.15561 161.753 2.00523C161.122 1.85485 160.406 2.17457 159.757 3.49768C159.997 4.3176 160.631 6.25937 160.391 8.87127C160.296 10.1834 159.891 11.5985 159.207 13.0425C158.472 14.4405 157.4 15.8262 155.965 16.8738C155.473 16.913 154.976 16.9105 154.498 16.9191C153.03 17.877 151.396 18.6183 149.698 19.1467C150.44 18.6017 151.484 17.8494 152.551 16.8847C153.614 15.912 154.649 14.681 155.496 13.4119C156.322 12.09 156.946 10.727 157.388 9.44312C157.794 8.13719 158.083 6.98038 158.241 6.00337C157.504 6.80852 157.223 6.76187 156.998 6.93308C156.751 7.08527 156.505 7.40132 155.521 8.50165C154.956 8.67347 155.085 8.22055 155.395 7.68848C155.686 7.1245 156.141 6.4157 156.352 6.0438C155.687 6.94776 154.921 7.70503 154.112 8.35675C153.313 9.02443 152.44 9.51782 151.553 9.89889C151.751 10.1505 151.636 10.4635 151.329 10.8397C151.001 11.184 150.479 11.5497 149.892 11.8664C148.728 12.4947 147.349 12.8813 147.528 13.387C150.213 12.6918 152.38 11.3694 153.962 9.56022C154.458 9.93705 154.249 11.3854 152.825 12.8778C151.467 14.4065 148.635 15.6866 145.613 15.5116C144.853 15.2421 145.175 14.6923 145.611 14.1492C146.054 13.6012 146.59 13.0409 146.529 12.8359C146.209 13.066 144.942 13.2955 143.649 13.2666C142.365 13.2537 141.085 12.9965 140.877 12.7835C141.705 12.7357 142.514 12.6559 143.293 12.5283C141.855 12.1042 140.572 12.2343 139.165 12.1649C138.467 12.1213 137.745 12.0378 137.011 11.7745C136.283 11.4854 135.526 11.0601 134.78 10.4193C134.19 10.1223 133.528 9.24283 132.946 8.60026C132.348 7.96752 131.898 7.39737 131.613 7.64959C131.856 8.25901 131.93 8.95065 131.902 9.6386C131.871 10.3395 131.709 11.0771 131.453 11.7516C130.949 13.0955 130.039 14.1726 129.01 14.2339C128.898 14.1596 128.444 13.7791 127.85 13.1881C127.255 12.5971 126.461 11.8974 125.74 11.0652C125.022 10.2202 124.31 9.34929 123.73 8.5846C123.195 7.76958 122.781 7.07854 122.609 6.65631C122.13 5.41171 123.28 5.58359 124.379 5.74319C125.491 5.90586 126.557 6.06423 126.206 5.04793C125.921 5.24553 124.737 4.69807 124.251 4.42557C123.836 3.8229 124.135 3.73761 124.241 3.55166C124.338 3.37062 124.269 3.06131 123.196 1.96152C121.788 2.49785 119.386 -3.1403 121.394 1.55274C120.322 0.419199 119.877 -0.285955 119.422 -1.06169C119.047 -1.88651 118.618 -2.74449 117.673 -4.29718C117.585 -3.58284 116.602 -3.94618 115.371 -4.89316C114.753 -5.36021 114.076 -5.97761 113.52 -6.70241C112.948 -7.4174 112.381 -8.17902 112.008 -8.92836C112.372 -8.85532 112.528 -9.71019 112.602 -10.1079C112.35 -10.91 112.112 -11.6544 111.91 -12.3767C111.757 -13.1077 111.611 -13.8097 111.476 -14.475C111.161 -15.8098 111.124 -17.0851 110.977 -18.3254C110.893 -18.9446 110.897 -19.5632 110.884 -20.1929C110.862 -20.8176 110.849 -21.4473 110.826 -22.0929C110.802 -22.7385 110.873 -23.4093 110.875 -24.1034C110.919 -24.8011 110.859 -25.5235 110.965 -26.2814C111.328 -26.8349 111.97 -29.6714 112.404 -28.3765C112.23 -29.2486 112.029 -30.093 112.312 -31.939C112.753 -32.7601 113.002 -32.8915 113.019 -32.7037C113.048 -32.5128 112.943 -31.9863 112.892 -31.4266C112.76 -30.3004 112.63 -29.0988 113.526 -30.2881C112.798 -30.6318 113.429 -35.1118 114.098 -37.7237C113.757 -37.6347 113.444 -37.2328 113.151 -36.635C113.005 -36.3362 112.855 -35.9907 112.737 -35.6102C112.637 -35.2186 112.544 -34.7982 112.46 -34.3619C112.051 -32.6141 112.08 -30.5643 112.071 -29.2388C111.292 -29.3425 110.698 -30.5939 110.393 -32.7707C110.32 -33.8367 110.328 -35.1285 110.461 -36.5744C110.575 -37.2826 110.706 -38.0344 110.873 -38.8187C110.96 -39.2133 111.042 -39.6158 111.145 -40.0203C111.274 -40.4186 111.411 -40.8218 111.543 -41.2329C112.493 -43.819 113.083 -44.1823 113.323 -44.0774C113.577 -43.9693 113.584 -43.3685 113.712 -43.8214C116.256 -48.159 117.174 -50.1535 117.923 -52.0995C118.753 -53.9516 119.581 -55.7153 123.166 -58.2185C124.82 -58.9279 125.147 -58.5572 125.229 -58.0135C125.297 -57.4728 125.12 -56.7591 125.641 -56.7167C122.704 -53.644 120.424 -52.648 118.615 -50.3142C119.455 -51.1832 120.383 -51.9632 121.308 -52.7303C120.994 -52.0969 120.348 -51.2703 119.753 -50.3768C119.146 -49.4863 118.463 -48.648 117.885 -48.1049C118.471 -48.5099 119.408 -49.5262 120.577 -50.8616C121.206 -51.5016 121.887 -52.2178 122.618 -52.9972C123.376 -53.7495 124.222 -54.5013 125.076 -55.3126C128.557 -58.4669 133.127 -61.3008 136.681 -62.4427C137.725 -63.2835 139.745 -64.4709 138.587 -64.4403L136.429 -63.3878C135.28 -63.2529 136.139 -64.0562 137.026 -64.6349C137.893 -65.2455 138.713 -65.772 137.195 -65.3437C137.905 -65.7806 138.628 -66.3028 139.419 -66.7342C140.222 -67.1626 141.062 -67.6026 141.964 -68.0143C142.87 -68.4181 143.863 -68.6992 144.914 -68.9937C145.944 -69.2864 147.118 -69.4699 148.434 -69.4766C148.793 -69.1255 149.144 -68.7695 149.468 -68.386C149.406 -68.5572 148.561 -68.6971 147.59 -68.6493C146.613 -68.6095 145.557 -68.3775 144.96 -68.0431C145.838 -68.5285 147.737 -68.553 149.7 -68.3307C150.673 -68.2147 151.747 -68.0066 152.628 -67.79C153.53 -67.5751 154.336 -67.356 155.084 -67.321C154.122 -68.2582 152.883 -68.948 151.5 -69.3727C152.609 -69.3948 153.815 -69.2573 155.041 -68.8565C156.242 -68.441 157.479 -67.772 158.49 -66.7551C159.511 -65.7559 160.327 -64.4653 160.847 -63.0139C160.987 -62.6604 161.088 -62.2823 161.169 -61.9362C161.258 -61.595 161.321 -61.2599 161.366 -60.9359C161.472 -60.2638 161.5 -59.6103 161.469 -58.964C161.981 -60.1699 161.9 -60.5161 161.819 -61.0052C161.776 -61.2537 161.747 -61.533 161.719 -62.0436C161.698 -62.5591 161.676 -63.3814 161.527 -64.6426C161.441 -62.3345 160.432 -66.7077 157.274 -68.9988C155.77 -70.1741 153.989 -70.7614 153.031 -70.8535C152.555 -70.9125 152.29 -70.8597 152.322 -70.7363C152.354 -70.613 152.689 -70.3902 153.338 -69.9974C152.413 -70.6602 151.334 -71.0193 150.308 -71.2022C149.384 -71.3814 148.508 -71.3925 147.649 -71.3588C145.892 -71.3006 144.368 -70.9895 142.106 -71.1264C142.222 -70.9558 142.637 -70.8705 142.552 -70.741C142.476 -70.5955 141.903 -70.4734 140.106 -69.9617C139.98 -69.8076 139.646 -69.5468 139.432 -69.3934C139.325 -69.3713 139.283 -69.3676 139.189 -69.3425C139.264 -69.3449 139.322 -69.3584 139.397 -69.3609C139.264 -69.2566 139.253 -69.2388 139.476 -69.3762C140.37 -69.4971 141.103 -69.5198 141.437 -69.4062C141.069 -69.0583 140.449 -68.6882 139.713 -68.3121C139.337 -68.1359 138.943 -67.9371 138.522 -67.7444C138.117 -67.5278 137.69 -67.3093 137.276 -67.0878C136.441 -66.6398 135.567 -66.2557 134.866 -65.8028C134.156 -65.3659 133.557 -64.9639 133.189 -64.6497C131.22 -63.8452 133.771 -65.4371 132.554 -65.2708C131.783 -64.6645 131.091 -63.9305 130.393 -63.2592C129.709 -63.9054 124.833 -61.3011 128.851 -64.532L127.861 -63.9233L126.902 -63.2667L125 -61.9424C123.788 -61.2845 122.403 -60.3886 121.181 -59.3723C120.008 -58.3101 118.863 -57.2754 118.246 -56.2579C117.452 -55.4939 116.645 -54.3377 116.257 -53.5381C115.857 -52.7415 115.719 -52.3929 116.055 -53.3478C115.389 -52.3217 114.662 -51.3576 114.062 -50.2953C113.475 -49.23 112.829 -48.2057 112.298 -47.1201L112.084 -47.1643C110.171 -44.1063 108.975 -40.5438 107.945 -36.8739C106.96 -33.166 106.284 -29.3298 105.372 -25.1824C105.422 -24.5644 105.472 -23.9464 105.516 -23.3027C105.541 -22.9768 105.566 -22.6509 105.587 -22.3122C105.629 -21.9752 105.677 -21.6303 105.721 -21.2725C105.809 -20.557 105.885 -19.7898 105.956 -18.9423C106.005 -18.093 106.181 -17.2 106.279 -16.1825L105.7 -15.265C105.861 -14.4844 106.134 -13.5411 106.335 -12.4991C106.435 -11.978 106.546 -11.441 106.656 -10.9041C106.78 -10.364 106.935 -9.84357 107.074 -9.31332C107.38 -8.28046 107.611 -7.27889 107.976 -6.52464C108.325 -5.76057 108.653 -5.19227 108.959 -4.96274C108.905 -4.47853 108.946 -3.87649 109.093 -3.20817C109.269 -2.54659 109.539 -1.82181 109.874 -1.02705C110.039 -0.633663 110.227 -0.221254 110.428 0.194227C110.636 0.604803 110.895 1.00679 111.147 1.43455C111.67 2.26736 112.198 3.1419 112.822 3.9784C115.256 7.3974 118.637 10.3543 120.612 12.3839L121.398 11.8015C122.129 12.4183 122.88 13.0124 123.646 13.5967C124.389 14.1957 125.274 14.6517 126.116 15.1789C126.546 15.4311 126.989 15.6864 127.432 15.9418C127.905 16.1566 128.383 16.3794 128.879 16.6132C129.872 17.0471 130.865 17.5694 132.017 17.9052L132.104 17.0269C133.104 17.2583 134.151 17.6917 135.315 18.1526C136.482 18.6006 137.761 19.0892 139.167 19.5329C141.945 20.4192 145.287 21.1128 148.772 20.6625C148.344 21.0577 146.543 21.0987 145.327 20.8569C149.369 21.9556 154.333 20.5841 157.887 17.7262C159.674 16.3406 161.132 14.7064 162.392 13.1065C163.667 11.4968 164.732 9.88463 165.87 8.39215C166.437 6.61367 166.938 5.42556 167.554 4.26508C167.502 4.42955 167.473 4.5793 167.455 4.71124C167.524 4.53696 167.627 4.27551 167.699 3.99997C168.051 3.26661 168.454 2.49091 168.751 1.61518C168.407 2.34362 168.058 3.00948 167.807 3.60353C168.205 2.24788 168.517 0.109141 168.463 -1.98051C168.78 -2.25237 169.104 -2.52913 169.427 -2.82677C169.42 -2.9986 169.42 -3.1416 169.409 -3.32141C169.751 -5.44603 168.988 -4.98762 168.306 -3.8971C168.189 -4.94653 167.912 -5.84315 167.662 -6.53603C167.981 -6.96376 168.076 -7.50628 168.057 -8.11016C168.003 -8.71527 167.861 -9.37562 167.672 -10.0403C167.289 -11.3775 166.855 -12.7271 167.262 -13.9784C166.73 -14.5203 165.787 -16.8217 164.562 -18.8838C163.356 -20.9686 161.873 -22.7723 160.945 -22.7956C161.091 -22.9515 160.897 -23.4811 161.42 -22.6146C160.542 -24.5054 159.538 -26.3515 158.104 -27.5918L158.524 -28.983C157.206 -29.9098 155.857 -30.796 154.47 -31.6031C153.811 -32.8698 153.306 -33.7799 153.29 -34.1991C153.282 -34.6231 153.816 -34.5777 155.141 -33.8197C152.232 -35.9015 150.958 -36.6134 149.841 -37.3014C149.266 -37.6292 148.71 -37.925 147.916 -38.2503C147.123 -38.5547 146.091 -38.9095 144.558 -39.1317L145.112 -39.7147C144.074 -40.132 142.58 -40.2904 141.258 -40.3463C139.921 -40.3924 138.755 -40.3568 138.103 -40.6484C136.889 -41.0123 134.692 -41.0793 132.059 -40.4602C129.432 -39.8668 126.385 -38.5088 123.589 -36.5463C120.775 -34.5948 118.199 -32.0965 115.933 -29.5584C113.654 -27.0232 111.644 -24.4446 109.798 -22.1537C111.322 -22.5194 110.384 -21.524 109.248 -20.242C108.691 -19.5915 108.082 -18.8649 107.692 -18.2291C107.321 -17.5823 107.168 -17.0263 107.484 -16.7262C106.72 -16.377 105.697 -15.0545 106.179 -16.9349C105.586 -15.5578 105.074 -14.3519 104.528 -13.2902C104.039 -12.2083 103.529 -11.2675 103.123 -10.3359C102.302 -8.48868 101.717 -6.77587 101.791 -4.59968C101.1 -4.09709 101.436 -6.05294 100.966 -5.56568C100.935 -5.06244 100.853 -3.60429 100.377 -3.09126C99.9084 -2.58313 100.212 -4.05661 100.276 -5.04221C99.8397 -3.55278 99.6248 -2.36466 99.5953 -1.41159C99.5401 -0.464652 99.6235 0.242944 99.8193 0.793439C100.201 1.87847 100.901 2.28355 101.585 2.64381C100.302 5.45697 100.198 7.03908 100.922 9.28832C100.348 10.2684 99.6427 12.0002 99.8595 8.25911C99.6895 9.28766 99.1886 12.4777 99.1369 15.4682C99.0515 18.4575 99.3939 21.1947 100 21.2505C99.8787 21.5893 99.8885 22.3202 99.9848 23.0309C100.094 23.7446 100.256 24.4369 100.358 24.6928C100.601 27.0181 100.763 28.2823 100.983 29.5331C101.182 30.7856 101.441 32.0118 102.045 34.2254C101.99 33.7971 101.969 33.3699 101.935 32.9397C103.759 34.3476 103.149 36.5379 104.516 39.9753L104.343 39.9274C105.274 44.0846 105.851 44.8622 106.298 45.6429C106.779 46.4247 107.134 47.1968 108.603 51.1761L109.169 50.3439C109.694 50.285 110.095 50.687 110.481 51.3848C110.89 52.0678 111.246 53.0584 111.684 54.1637C112.581 56.3178 113.6 59.1887 116.279 60.8617C116.051 60.5623 115.814 60.2677 115.623 59.9565C115.438 59.6742 115.282 59.3852 115.119 59.101C116.404 59.9381 117.813 62.3709 120.515 63.634C121.578 64.1458 122.776 64.4313 123.94 64.4632C125.095 64.5001 126.198 64.2724 127.039 63.887C127.926 63.5943 125.893 64.8671 124.623 65.2524C126.012 65.0248 127.052 64.6051 127.796 64.224C128.549 63.838 129.035 63.4839 129.338 63.209C129.949 62.6463 129.868 62.4431 129.713 62.2633C129.559 62.0835 129.326 61.919 129.448 61.4919C129.541 61.0715 130.063 60.3651 130.954 59.0248C131.558 58.7192 131.669 59.2562 131.951 59.4459C132.198 59.6343 132.807 59.425 133.897 57.4784C134.258 57.047 134.658 56.0528 134.963 54.8316C135.278 53.5925 135.472 52.2086 135.689 50.7217C135.805 49.9797 135.931 49.2199 136.071 48.4633C136.184 47.7004 136.306 46.9327 136.468 46.195C136.805 44.7228 137.141 43.3389 137.684 42.2017C136.986 43.1591 136.301 44.0649 136.426 41.623C136.59 40.7086 136.854 39.6548 137.171 38.525C137.5 37.3983 137.882 36.1955 138.145 34.9779C138.76 32.5642 138.998 30.1082 138.343 28.3996C138.487 27.9369 138.618 27.7571 138.743 27.7461C138.663 27.0256 138.598 26.0977 138.524 25.0654C138.455 24.0411 138.305 22.923 138.194 21.8478C137.95 19.6992 137.471 17.7059 137.03 16.8995C137.758 16.1876 137.878 14.7387 137.747 12.9712C137.673 12.082 137.471 11.1282 137.25 10.1426C137.135 9.65229 137.015 9.15396 136.896 8.65563C136.747 8.16405 136.599 7.67247 136.458 7.17599C135.322 3.25563 133.855 -0.164567 135.236 -0.530286C134.806 -1.92647 134.384 -3.32756 133.864 -4.6906L133.115 -6.74836L132.284 -8.7779L132.638 -8.66619C131.736 -11.3119 130.785 -13.0364 129.907 -14.2669C129.034 -15.4894 128.205 -16.2112 127.387 -16.8961C126.832 -18.1382 127.582 -17.4558 127.773 -17.4306C126.748 -19.3294 125.747 -20.7594 124.782 -21.8813C123.808 -22.9982 122.89 -23.8298 121.892 -24.5031C120.916 -25.1782 119.856 -25.703 118.574 -26.124C117.278 -26.5144 115.773 -26.8863 113.863 -26.8987C113.676 -27.2564 113.479 -27.6302 113.263 -27.9812C112.719 -27.8996 111.646 -28.1415 110.17 -28.2342C109.425 -28.3367 108.6 -28.3018 107.681 -28.33C106.777 -28.2797 105.777 -28.2589 104.762 -28.0853C102.711 -27.7908 100.492 -27.1955 98.4179 -26.2051C96.3466 -25.2276 94.403 -23.8996 92.8748 -22.3433C92.8797 -22.4783 92.8945 -22.7404 93.3787 -23.2583C92.4741 -22.4047 91.5247 -21.5345 90.563 -20.6127C90.107 -20.1562 89.6479 -19.6867 89.176 -19.2203L88.472 -18.5232L87.8006 -17.791C85.9521 -15.8616 84.2809 -13.7334 82.8969 -11.6389C80.1566 -7.42285 78.8438 -3.28227 80.0269 -1.21651C79.8937 -0.199617 79.7635 0.804396 79.7058 1.81884C79.6094 2.82407 79.5806 3.83177 79.5646 4.84253C79.9273 2.94744 80.2778 2.10484 80.4901 1.84219C80.7154 1.5826 80.8363 1.90418 80.9473 2.3528C81.1535 3.25986 81.351 4.68917 81.9083 3.23534C81.7254 4.6898 81.1914 6.50326 80.7839 7.55697C80.3586 8.59963 79.9805 8.84326 80.1045 7.00707L80.3378 6.45659C79.5658 5.66673 79.0489 8.00859 78.8267 10.5432C78.5916 13.0747 78.6602 15.7602 78.06 15.6786C78.3402 23.3376 79.7079 30.6903 81.5315 37.7296C82.4513 41.2442 83.4859 44.6773 84.5935 48.0325C84.8776 48.8696 85.1569 49.6987 85.4361 50.5278C85.7662 51.4576 86.0963 52.3873 86.4216 53.3091C86.8885 54.5506 87.3334 55.8278 87.8305 57.0288C88.3828 58.1408 88.9007 59.34 89.4745 60.3619C89.3696 59.3155 89.3776 58.1667 89.4083 57.1798C90.2294 59.1934 91.148 60.74 92.5079 61.949C93.0001 62.5701 93.4168 63.0506 93.1854 63.193C92.989 63.3028 92.0458 63.1463 90.7092 61.5819C91.2259 62.8149 92.6331 63.7969 94.1931 63.9368C95.7568 64.1185 97.029 63.3797 97.0529 63.222C98.0459 63.0839 98.6566 62.8072 99.0776 62.6691C99.4937 62.5231 99.6906 62.4678 99.7637 62.5329C99.9079 62.6421 99.493 63.1834 98.8302 63.6792C98.1772 64.191 97.2241 64.5905 96.5865 64.7519C95.947 64.8924 95.6813 64.9789 96.3686 64.952C97.6304 64.8575 98.7706 64.3868 99.7759 63.7683C99.5341 63.8401 99.2923 63.9119 99.0456 63.9757C100.258 63.0318 100.742 62.2279 101.398 61.2742C102.033 60.2678 102.881 59.2509 104.035 56.6047C104.907 55.0895 105.282 54.7704 105.524 54.6986C105.761 54.6188 105.856 54.7913 106.208 54.1125C106.249 54.1426 106.328 54.0389 106.498 53.7253C106.667 53.4455 106.942 52.7483 107.099 52.1457C107.861 50.2027 108.657 48.261 109.276 46.2634C108.676 46.9514 108.098 47.6374 107.496 48.3045C107.826 45.5165 109.288 42.7801 107.271 45.1323C108.861 43.4613 110.509 37.8822 111.37 32.381C111.847 29.6347 112.035 26.9013 112.254 24.7202C112.368 22.5275 112.491 20.868 112.67 20.2298C111.921 16.3677 111.941 12.6272 111.538 7.96923C111.428 9.14815 110.281 9.93058 110.041 5.96484C111.395 6.53931 111.4 4.68839 111.222 2.23543C111.168 1.00373 110.918 -0.349484 110.835 -1.62905C110.751 -2.90862 110.754 -4.12006 110.969 -5.0222C110.737 -3.44991 109.989 -6.25638 109.146 -8.80633C108.216 -11.336 107.301 -13.6104 107.175 -11.1685C106.788 -12.7998 106.958 -12.9158 107.249 -12.9624C107.531 -13.0041 107.904 -12.9697 107.733 -14.2837C106.799 -16.1064 106.038 -18.058 105.059 -20.1501C104.076 -22.2294 102.992 -24.4553 101.342 -26.6186C99.7147 -28.763 97.4067 -30.8515 94.4966 -32.0415C91.6092 -33.2126 88.4124 -33.4563 85.555 -32.952C85.4513 -32.6022 87.3323 -32.3517 85.0566 -31.5454C83.0781 -31.7578 81.0492 -31.7303 79.0417 -31.5069C78.0543 -31.0203 77.8045 -30.3716 77.3049 -29.7892C76.8152 -29.1909 76.056 -28.6908 74.1768 -28.2054C74.7789 -28.2459 75.6509 -28.2765 74.5383 -27.4929C70.0146 -25.2813 65.9868 -21.9779 62.6273 -18.1068C60.9524 -16.1632 59.469 -14.0515 58.1182 -11.8674C56.8256 -9.6422 55.6448 -7.34271 54.6867 -4.94932C52.7706 -0.162527 51.5357 4.90905 51.0488 10.0702C50.8849 11.359 50.856 12.6527 50.7596 13.9439C50.7516 15.2357 50.673 16.538 50.7245 17.8372C50.7361 20.4479 50.9483 23.0451 51.2189 25.6834C51.1895 22.7757 51.6344 24.6248 52.2388 26.6617C52.021 25.2888 53.0256 26.4745 53.3907 26.0848C53.7564 28.8956 54.3264 31.7346 55.2186 34.5073C55.647 34.7387 56.1471 35.3549 56.6669 36.1459C57.1628 36.9517 57.7519 37.9091 58.3312 38.8506C59.4978 40.7285 60.7877 42.4316 61.5346 42.412L60.6349 41.4147L59.7942 40.3702C61.3775 41.4417 61.2867 39.9357 61.11 38.2186C60.9745 36.4431 60.8217 34.4253 61.7398 34.2013C60.1663 33.0027 59.6454 30.5295 59.203 27.8979C58.7778 25.2228 58.4766 22.4274 56.9038 19.7105C57.064 18.38 57.6475 20.7047 57.9477 19.959C57.4567 19.3042 57.0769 18.526 56.9014 17.4901C56.6842 16.4578 56.6634 15.1727 56.804 13.5244L56.9881 13.895C56.8753 9.27878 57.5615 5.99674 58.6436 2.7681C59.7514 -0.454401 61.3122 -3.69161 64.128 -7.91008L62.9847 -7.71251C63.5782 -8.66066 64.0661 -9.13687 64.4361 -9.51858C64.824 -9.88924 65.1088 -10.1415 65.5163 -10.4802C65.7416 -11.8837 64.7541 -10.6821 63.8709 -9.34677C62.9552 -8.04637 62.1469 -6.62507 62.0782 -8.02369C63.5837 -8.88405 65.7078 -12.1709 68.3456 -14.927C68.6727 -15.2713 68.9998 -15.6155 69.319 -15.9549C69.6608 -16.2752 69.9996 -16.5827 70.3304 -16.8852C70.9742 -17.5014 71.6578 -17.999 72.2746 -18.4446C73.5051 -19.3227 74.6362 -19.7547 75.3057 -19.6498C78.0644 -21.5123 73.8967 -19.9376 76.6952 -21.8247L77.7526 -21.8044L78.1184 -22.8544C80.0927 -23.8823 81.3717 -23.5913 81.6202 -23.2053C81.1366 -23.0617 80.3879 -22.491 79.9301 -22.1983C81.2661 -22.5475 82.9219 -23.3243 84.3893 -23.8533C85.8499 -24.4111 87.1031 -24.6983 87.4977 -24.6111C86.6311 -24.6608 85.7044 -24.6296 84.7501 -24.4823C86.6852 -25.145 88.7539 -25.3401 90.5576 -24.9651C92.3692 -24.595 93.9145 -23.621 95.3155 -22.0413C98.1544 -18.8935 99.975 -13.7003 102.006 -9.50559L102.192 -10.3126C102.901 -8.65927 103.35 -7.4834 103.632 -6.52418C103.877 -5.5533 103.988 -4.8187 104.093 -4.05832C104.332 -2.54431 104.461 -0.940707 105.325 2.89433L105.184 2.62921C105.798 4.11009 106.409 6.17583 106.515 8.33237C105.833 6.42006 105.925 12.1275 105.138 9.59777C105.566 11.4904 105.683 12.6829 105.875 13.4776C106.034 14.2711 106.165 14.6633 106.302 14.9751C106.601 15.6047 106.911 15.876 107.687 18.4781L106.984 19.6588C107.277 20.5456 107.475 21.0286 107.627 21.7933C107.744 22.5568 107.904 23.6025 107.777 25.5946C107.512 22.3039 106.467 28.0064 106.047 24.3383C105.438 26.3518 105.231 28.107 105.021 29.6774C104.805 31.2399 104.811 32.644 104.698 33.8905C104.593 35.132 104.49 36.2514 104.238 37.2535C103.968 38.2446 103.481 39.1161 102.72 39.8813C103.18 41.952 103.872 40.3054 104.459 38.3821C105.005 36.4625 105.29 34.263 105.298 35.3474C106.275 33.7009 106.12 38.7571 105.184 41.2579C104.853 42.5614 103.874 43.4721 102.821 44.8351C102.296 45.5206 101.74 46.3141 101.116 47.3027C100.815 47.7961 100.506 48.3491 100.216 48.9677C100.015 49.4101 99.7924 49.8882 99.5524 50.4098C99.6917 50.0821 99.5677 50.0594 99.7114 49.6851C99.4659 50.0011 99.3474 50.184 99.2529 50.4951C99.1565 50.7854 99.0927 51.1107 99.0147 51.4666C98.8779 52.1558 98.5691 52.9947 97.9205 53.0309C97.9155 54.1669 97.4509 54.5737 97.0471 54.8112C96.6273 55.0585 96.2493 55.1592 96.0044 56.3878C96.6997 56.3559 97.3521 55.9325 97.8234 55.4114C98.3076 54.8935 98.6654 54.2774 98.9607 53.6667C98.7422 54.2411 98.5089 54.9346 98.1493 55.6729C97.7927 56.3983 97.2698 57.193 96.51 57.6385C95.7631 58.0871 94.7861 58.0723 94.1025 57.4261C93.3998 56.8025 92.9617 55.6972 92.6917 54.4005C93.028 54.4465 93.7221 55.1634 94.318 55.4346C94.078 54.6693 93.8283 54.3171 93.5681 53.8942C93.3177 53.4873 93.0679 52.9921 93.0262 52.2808C93.3386 52.0556 93.6 52.1587 93.8314 52.4453C94.0707 52.727 94.2689 53.21 94.5973 53.6899C94.9127 54.1668 95.4595 54.6442 96.0916 54.5632C96.7304 54.5111 97.2411 53.9109 97.4534 53.2193C97.2595 53.1186 97.041 53.2641 96.7587 53.4488C96.4813 53.6415 96.1217 53.8078 95.8167 53.8305C95.5166 53.8612 95.292 53.7464 95.2367 53.5494C95.1766 53.3444 95.2748 53.075 95.5534 52.5626C95.1766 53.2014 94.8237 53.2536 94.585 53.0265C94.3383 52.8043 94.2027 52.3158 94.0879 51.8255C93.9603 51.332 93.8585 50.8448 93.6559 50.4084C93.5522 50.1862 93.4246 49.9788 93.2405 49.7511C93.2 49.721 93.1294 49.5885 93.0509 49.4608L92.825 49.0938C92.6489 48.8612 92.4728 48.6286 92.2789 48.385L93.2185 48.3568C92.8306 47.7265 91.912 46.4659 91.4769 45.2048L93.3903 47.0631C91.175 43.9276 91.7925 40.1049 90.2504 36.9732C92.5356 43.9044 89.7189 38.8621 90.098 42.0166C88.0644 37.8893 88.2731 36.441 88.5192 34.8927C88.7893 33.3296 89.0453 31.6542 87.7904 26.9158C88.1709 28.1775 88.4039 31.9168 87.5099 29.9812C87.2301 28.0965 87.0896 25.5981 87.3622 24.3965C86.2019 18.06 86.5907 25.5202 85.6389 22.8831C86.4209 20.5431 84.759 19.7728 84.2418 16.9123L85.1439 16.8412C85.2717 13.1878 84.9096 12.7067 84.4438 12.2893C84.0167 11.8812 83.5067 11.5351 84.1684 8.21314C84.4654 9.1963 84.8538 10.1672 85.1889 11.1049C85.1681 9.96283 85.1166 8.80662 85.1712 7.66207L86.1089 8.47096C85.7973 4.74702 86.2067 3.57118 87.4305 0.233309C86.6118 0.869075 85.9018 -0.695885 87.0483 -3.76619C87.6983 -4.69408 87.786 -4.31911 87.9008 -4.25773C88.0106 -4.20433 88.1622 -4.4406 89.0436 -6.51181C89.1276 -5.32062 89.2969 -4.11592 87.8455 -2.59583C88.0302 -2.31353 88.0461 -1.46539 88.2646 -1.18185C88.5739 -1.68017 88.8857 -2.24599 89.1698 -2.83881C89.4362 -3.44268 89.7007 -4.06742 89.9622 -4.67927C90.4415 -5.92015 90.9626 -7.02172 91.3131 -7.72133C91.0007 -7.21013 90.6251 -6.60504 90.3293 -6.33502C90.8909 -8.40746 91.709 -10.3848 92.6799 -12.3461C93.5895 -12.9058 93.2752 -12.1295 93.0236 -11.3587C93.7349 -12.4013 93.9473 -13.3789 95.2201 -14.7781C95.3134 -14.3406 95.5147 -14.0134 95.5104 -13.5378C95.4932 -13.0653 95.2704 -12.4442 94.6223 -11.3525C94.8763 -11.7618 95.1126 -12.1822 95.3845 -12.5805L96.2229 -13.7563C96.7924 -14.5467 97.3632 -15.2279 98.0254 -15.9214C98.5053 -15.9637 100.843 -16.8301 100.394 -16.2017C101.74 -16.8209 103.152 -17.9758 104.867 -18.8884C106.557 -19.807 108.59 -20.4532 110.381 -20.0812C110.476 -20.1401 110.62 -20.2285 110.843 -20.2776C111.054 -20.3088 111.347 -20.3346 111.729 -20.3389C113.404 -19.9945 114.693 -19.2041 115.944 -18.2252C117.212 -17.2561 118.47 -16.0507 120.223 -14.4894C120.367 -13.5222 120.462 -12.5464 120.522 -11.5719C121.545 -10.0345 121.477 -11.0042 121.569 -11.7652C121.64 -12.4906 121.935 -13.1012 123.651 -10.2413C124.855 -8.17735 124.746 -7.60416 124.422 -7.41577C124.094 -7.21448 123.532 -7.34154 123.675 -6.48358C125.199 -4.56142 127.94 -0.946626 128.018 3.70215C127.45 2.31394 127.244 1.17552 126.788 -0.138424L126.764 -0.0690819ZM126.799 50.2525C126.934 49.2564 126.921 47.1969 127.648 46.6617C128.31 48.0248 127.592 48.7526 126.799 50.2525ZM106.369 -0.0912851C106.47 0.715735 106.035 1.79707 105.437 3.02322C105.496 2.54699 105.595 2.04621 105.733 1.52089C105.898 1.0017 106.102 0.457971 106.361 -0.0863752L106.369 -0.0912851ZM122.576 -59.2851C122.576 -59.2851 122.532 -59.2139 122.51 -59.1784C121.441 -58.4659 121.125 -58.194 121.222 -58.2867C121.333 -58.3554 121.833 -58.7948 122.576 -59.2851ZM126.962 -62.2037C127.317 -62.6094 127.221 -62.6935 126.963 -62.6665C126.802 -62.2485 125.812 -61.606 124.73 -60.8083C125.153 -60.8708 125.79 -61.1415 126.954 -62.1988L126.962 -62.2037ZM106.234 53.2607L105.445 54.3733C106.004 52.9404 106.191 52.4402 106.249 52.4267C106.321 52.3825 106.316 52.8035 106.234 53.2607Z" fill="white"/>
<path d="M105.903 8.9066C105.712 9.16741 105.541 9.22878 105.36 9.27418C105.472 9.68905 105.625 9.70501 105.903 8.9066Z" fill="white"/>
<path d="M125.273 3.48899C125.837 4.20888 126.085 4.68328 126.218 5.04168C126.404 4.91588 126.228 4.48567 125.273 3.48899Z" fill="white"/>
<path d="M127.375 9.53137L126.63 8.94527L125.568 10.5445C126.178 10.2132 126.788 9.88178 127.375 9.53137Z" fill="white"/>
<path d="M159.532 -2.99523C159.365 -2.12256 159.306 -1.64633 159.342 -1.33825C159.386 -1.03509 159.514 -0.916022 159.637 -0.804938C159.861 -0.601796 160.158 -0.388219 159.46 1.1411C159.557 1.6204 159.868 0.999965 160.13 0.354362C160.372 -0.289401 160.62 -0.958939 160.717 -0.479636C160.695 -1.07063 160.684 -1.57019 160.676 -1.99425C160.639 -2.41157 160.623 -2.74235 160.561 -2.96819C160.445 -3.42479 160.199 -3.44935 159.532 -2.99523Z" fill="white"/>
<path d="M160.719 -0.4807C160.718 -0.106343 160.724 0.296856 160.763 0.735039C160.778 0.0440132 160.753 -0.28186 160.719 -0.4807Z" fill="white"/>
<path d="M57.1455 40.1409C57.5965 41.1062 58.1083 42.0452 58.606 43.0149L57.974 40.951C57.6978 40.6809 57.4106 40.4287 57.1584 40.1439L57.1455 40.1409Z" fill="white"/>
<path d="M61.8096 44.19L61.3603 45.5334L63.4229 46.2221C62.9209 45.728 61.9446 44.7669 61.8096 44.19Z" fill="white"/>
<path d="M122.331 53.7268L122.488 53.9821C122.806 54.1055 122.975 54.0232 123.438 53.4525C123.237 53.5544 123.033 53.6354 122.832 53.6826C122.643 53.733 122.49 53.717 122.331 53.7268Z" fill="white"/>
<path d="M129.4 21.1555L129.384 21.7919C129.74 21.3863 130.116 20.9788 130.445 20.567L129.392 21.1604L129.4 21.1555Z" fill="white"/>
</g>
</svg>
