<svg width="144" height="123" viewBox="0 0 144 123" fill="none" xmlns="http://www.w3.org/2000/svg">
<path d="M119.222 49.1817C123.89 52.8066 128.219 62.9371 126.1 65.7548C123.981 68.5726 117.066 67.9621 112.397 64.3371C107.728 60.7122 105.759 55.113 107.881 52.3012C110.004 49.4893 114.553 45.5568 119.222 49.1817Z" fill="#F5F3ED" stroke="#4F462B" stroke-miterlimit="10"/>
<path d="M207.029 87.7238C226.035 39.7962 189.059 63.5557 167.086 71.6727C147.99 78.7322 118.183 95.6882 120.522 109.029C122.86 122.37 155.829 124.451 175.553 119.972C195.277 115.493 201.939 100.573 207.029 87.7238Z" fill="#DA3B9B"/>
<mask id="mask0_63_24" style="mask-type:alpha" maskUnits="userSpaceOnUse" x="10" y="-43" width="115" height="96">
<path d="M11.8319 10.479C4.1613 -14.6803 34.3121 -34.1413 59.1435 -41.6437C83.975 -49.146 115.219 -22.2709 122.889 2.88838C130.56 28.0477 106.263 43.0682 81.4363 50.5811C56.6092 58.0941 19.5067 35.6488 11.8361 10.4896L11.8319 10.479Z" fill="#93D930"/>
</mask>
<g mask="url(#mask0_63_24)">
<path d="M11.8319 10.479C4.1613 -14.6803 34.3121 -34.1413 59.1435 -41.6437C83.975 -49.146 115.219 -22.2709 122.889 2.88838C130.56 28.0477 106.263 43.0682 81.4363 50.5811C56.6092 58.0941 19.5067 35.6488 11.8361 10.4896L11.8319 10.479Z" fill="#93D930"/>
<path d="M75.6851 -0.784316C74.8574 -0.804921 73.9966 -0.864657 73.0981 -1.00781C73.3364 -0.821832 74.0346 -0.557541 74.5508 -0.388764C75.067 -0.219987 75.4028 -0.108856 74.974 -0.100854C76.2884 0.0400854 76.7733 -0.0318221 76.7941 -0.157004C76.8149 -0.282187 76.3599 -0.48631 75.6915 -0.78721L75.6851 -0.784316Z" fill="white"/>
<path d="M89.4172 0.242199C89.5425 0.0235495 88.651 -0.2926 88.4759 -0.561107C87.9391 -0.450328 87.4128 -0.367477 86.8701 -0.269531C87.6963 -0.132423 89.2847 -0.0687017 89.4107 0.245093L89.4172 0.242199Z" fill="white"/>
<path d="M92.7076 34.0822L92.6696 32.9875C92.6616 33.5007 92.6827 33.8387 92.7076 34.0822Z" fill="white"/>
<path d="M91.1358 41.7845L91.3523 42.042C91.2923 41.6521 91.2206 41.476 91.1358 41.7845Z" fill="white"/>
<path d="M123.273 20.6488C124.437 18.9659 125.56 16.7143 124.895 16.883L124.206 17.4098C124.049 18.8086 123.705 19.8439 123.276 20.6552L123.273 20.6488Z" fill="white"/>
<path d="M73.859 18.5219C73.959 18.3842 74.059 18.2464 74.1626 18.0993C74.0766 17.6517 74.0022 17.2297 73.9351 16.8584C73.915 17.3617 73.8672 17.9237 73.8654 18.519L73.859 18.5219Z" fill="white"/>
<path d="M76.0067 20.2699C75.71 20.9133 75.4411 21.5673 75.1566 22.2206C75.4009 21.7862 75.6655 21.1573 76.0067 20.2699Z" fill="white"/>
<path d="M81.7556 -0.968808L81.255 -0.743155L80.7648 -0.460383C82.1643 -0.319181 81.5985 -0.66637 81.7556 -0.968808Z" fill="white"/>
<path d="M98.5872 38.3107C98.6232 37.5687 98.5293 37.2404 98.3971 37.2383C98.3918 37.9973 98.4056 38.4389 98.5872 38.3107Z" fill="white"/>
<path d="M34.4575 30.2161C34.3291 29.7258 34.1347 28.9178 34.0398 28.1421C34.0433 28.5266 34.1567 29.1549 34.4575 30.2161Z" fill="white"/>
<path d="M82.5961 6.50769C82.5961 6.50769 82.6065 6.56518 82.6146 6.60039C82.6725 6.26339 82.6577 6.31671 82.5961 6.50769Z" fill="white"/>
<path d="M92.1704 15.3626C92.1164 16.2362 92.0817 17.1012 92.0091 17.9678C90.6986 15.061 90.5164 12.9271 90.2335 15.3479C91.1912 15.3485 91.6742 17.7559 91.9481 20.1958C92.0661 21.4166 92.1841 22.6374 92.3542 23.5799C92.515 24.5189 92.7815 25.1785 93.2601 25.2639C93.1524 25.8298 92.9881 26.3903 92.846 26.9485C92.8749 26.4645 92.7644 26.3908 92.7962 25.9132C91.7907 29.1461 94.1837 28.3915 93.524 32.6653C93.2317 34.1406 92.783 35.1149 92.7139 34.0883C92.6884 35.1962 92.7129 36.3124 92.646 37.4313C92.4223 38.3737 92.1413 38.0758 92.3614 37.1426L91.9373 39.627L91.4066 42.0977L91.3613 42.0486C91.4597 42.815 91.4445 44.5282 91.386 45.3575C90.6975 46.5019 91.4068 44.6842 91.0664 44.9226L90.5876 47.7482C89.7198 48.649 90.0817 46.3008 90.731 44.487C89.4325 45.443 89.3411 45.9938 89.2484 46.9699C89.2067 47.4596 89.0989 48.0255 88.8478 48.7873C88.7162 49.1632 88.5477 49.5944 88.2986 50.0695C88.0374 50.5348 87.7107 51.0604 87.2971 51.6329C87.57 50.7996 87.8952 49.9967 88.1151 49.1486C87.3263 49.7281 86.7513 50.4737 86.2131 51.4036C85.6621 52.3392 85.0636 53.3579 84.2667 53.9025C84.3973 53.8668 84.6838 53.7145 85.0534 53.4552C85.4229 53.1959 85.8604 52.8134 86.2739 52.4803C87.0892 51.7884 87.7421 51.4554 87.324 52.9257C86.8209 53.608 86.3289 54.4861 85.865 55.6836C85.593 55.4742 85.3158 55.63 84.997 55.8819C84.8568 55.9991 84.6846 56.1308 84.5053 56.2812C84.3494 56.3978 84.2162 56.4964 84.033 56.5867C83.9471 56.2934 83.8577 56.0095 83.759 55.722C83.5865 55.9387 83.4589 56.1352 83.3342 56.3381C83.2095 56.5411 83.087 56.7661 82.7633 56.9044C82.2676 56.6955 82.1425 56.2809 82.1952 55.9869C82.2173 55.8302 82.283 55.6848 82.3637 55.5557C82.4538 55.4302 82.5503 55.3017 82.6038 55.1463C82.2948 54.6834 82.1236 54.4749 82.0424 54.5347C81.9584 54.588 81.9476 54.8554 81.9311 55.1099C81.9082 55.3673 81.883 55.6026 81.7396 55.6441C81.5903 55.6728 81.3094 55.5292 80.7819 54.7015C80.5141 54.0733 80.2401 53.3629 79.938 52.727C79.623 52.0969 79.3459 51.4652 79.0024 50.8402C78.6653 50.2123 78.3388 49.5566 77.9477 48.8604C77.5951 48.1469 77.1751 47.3865 76.7817 46.5138C76.4425 44.2886 77.4189 46.7284 77.4401 45.885C77.0148 45.3355 76.6187 44.7651 76.2261 44.1855C76.1221 43.715 76.3735 43.8102 76.5038 43.8595C75.8352 42.3079 75.5802 43.9516 74.7847 41.3994C74.2345 41.1379 74.3326 39.7115 74.4643 37.9999C74.6152 36.2795 74.7791 34.3139 74.2173 32.691C74.4575 31.8878 74.7754 33.0725 75.1228 32.8155C74.723 30.6099 74.6642 29.6404 74.5474 28.782C74.4829 28.3478 74.4271 27.9328 74.3478 27.3972C74.2749 26.8588 74.1412 26.1855 74.0375 25.2362C74.3623 24.2096 74.7615 23.2112 75.1414 22.2215C74.5946 23.2864 74.269 23.078 74.048 22.228C73.8548 21.3886 73.7976 19.9087 73.8438 18.5213C73.3039 19.2589 72.8399 19.9081 72.6043 20.3618C72.7731 18.9036 73.0141 17.4515 73.3051 16.0077C73.6042 15.5408 73.7657 16.0703 73.9136 16.8607C73.932 16.559 73.9469 16.2666 73.9435 16.0365C74.7703 14.6677 74.9718 15.6115 75.129 16.7992C74.7961 17.2426 74.4668 17.6768 74.1439 18.108C74.396 19.2838 74.7341 20.359 75.3076 20.2781C75.2782 19.9902 75.3211 19.4689 75.4196 18.8995C75.4927 19.1986 75.5759 19.4004 75.6933 19.3012C75.83 19.1932 75.7231 18.7164 75.7107 18.0039L76.9446 17.4013L76.6305 17.0642C77.3958 15.422 78.2034 13.8225 79.1373 12.2974C79.4514 10.3567 79.7136 8.45496 80.337 6.344C80.9569 4.24235 81.9171 1.90232 83.7922 -0.703439C83.3623 0.98053 84.5108 0.308314 85.1316 0.931794C84.6773 1.10574 84.304 1.45936 83.9455 1.91439C83.5841 2.363 83.259 2.92648 82.9472 3.5535C82.2927 4.79055 81.7109 6.25735 80.8324 7.57993C81.7571 6.20564 81.9279 6.73861 81.8351 7.16649C82.5476 5.42456 83.3568 3.70855 84.2964 2.04188C84.5408 2.31002 84.8308 2.14838 85.1942 1.80696C85.5669 1.46907 86.038 0.955553 86.608 0.490108C85.7116 0.454146 86.2096 -0.496192 87.1267 -1.68175C87.6003 -2.25818 88.1709 -2.89372 88.7209 -3.48914C89.2738 -4.07813 89.8004 -4.63983 90.1653 -5.09775C90.5949 -4.81273 90.4589 -4.17236 88.42 -2.27255C89.8641 -3.00852 90.2922 -3.94276 90.7502 -4.91362C91.2075 -5.86874 91.711 -6.87557 93.2072 -7.34166C92.6596 -6.96353 92.3253 -6.79737 92.2514 -6.44749C92.7497 -7.08908 93.8648 -7.86975 94.811 -8.2886C95.7542 -8.71387 96.4734 -8.81418 96.1659 -8.45162C95.9734 -8.36484 95.7895 -8.25879 95.5935 -8.1627C96.5631 -8.61526 97.7833 -9.11133 99.1201 -9.4515C100.451 -9.8045 101.895 -9.97657 103.208 -9.97428C104.528 -9.97488 105.708 -9.77319 106.63 -9.59442C107.552 -9.39993 108.232 -9.24347 108.526 -9.41441C108.507 -9.33641 108.192 -9.10961 107.858 -8.87412C107.524 -8.63864 107.174 -8.38805 107.021 -8.33435C109.618 -8.53258 112.701 -7.39763 115.45 -5.71845C114.805 -5.74431 114.408 -4.79308 113.8 -4.24095C113.188 -3.66379 112.439 -3.52687 111.138 -4.71634C111.644 -3.83282 112.232 -2.76962 113.651 -1.00831C113.433 -1.69754 113.997 -3.34149 114.607 -2.51998C114.827 -1.021 114.892 -0.517488 115.046 0.0463023C115.181 0.603045 115.398 1.23868 115.637 2.9684C115.388 1.88411 117.387 2.31085 117.996 4.02073C117.672 3.85021 116.566 4.71946 116.177 4.1998C117.191 5.31791 118.138 6.51212 119 7.80684C118.438 6.81712 117.679 7.97754 117.423 8.95018C117.53 8.70876 117.729 9.57677 117.843 10.6368C117.99 11.698 117.966 12.9289 118.055 13.4523C118.166 12.8928 118.277 12.3176 118.345 11.7312C118.393 12.883 118.472 13.7273 118.645 14.4525C118.716 14.8145 118.809 15.1428 118.916 15.4653C119.004 15.7807 119.109 16.081 119.21 16.3906C119.387 17.0058 119.565 17.6588 119.562 18.4557C119.565 19.2497 119.388 20.194 118.832 21.3248C118.831 20.9782 118.502 20.4389 118.046 20.2662C117.59 20.0935 117.026 20.2631 116.415 21.1868C116.516 21.821 116.802 23.3289 116.372 25.2523C116.176 26.221 115.738 27.2368 115.089 28.2472C114.408 29.2186 113.476 30.1484 112.306 30.7914C111.935 30.7733 111.565 30.7239 111.208 30.6843C110.022 31.2574 108.734 31.653 107.417 31.8838C108.023 31.5489 108.873 31.0884 109.761 30.4719C110.646 29.849 111.536 29.0309 112.289 28.1664C113.031 27.2605 113.627 26.3046 114.079 25.3903C114.507 24.456 114.834 23.6217 115.045 22.9087C114.419 23.4381 114.214 23.3763 114.03 23.4823C113.831 23.572 113.618 23.784 112.779 24.5095C112.341 24.5834 112.48 24.2581 112.763 23.8914C113.034 23.499 113.44 23.0145 113.633 22.7576C113.051 23.3674 112.408 23.8583 111.743 24.2663C111.083 24.6872 110.385 24.9711 109.687 25.17C109.811 25.3766 109.695 25.5987 109.43 25.8496C109.153 26.0748 108.728 26.2971 108.261 26.4769C107.333 26.8334 106.268 26.9892 106.353 27.3833C108.421 27.1228 110.163 26.3452 111.515 25.1488C111.848 25.4772 111.554 26.5365 110.349 27.5121C109.19 28.5209 106.958 29.2032 104.722 28.7827C104.182 28.509 104.474 28.1301 104.851 27.7672C105.234 27.4014 105.687 27.0352 105.662 26.8767C105.401 27.0174 104.435 27.0669 103.473 26.9212C102.518 26.7883 101.588 26.4738 101.454 26.2952C102.076 26.339 102.686 26.3572 103.279 26.3369C102.249 25.8828 101.279 25.8565 100.238 25.6698C99.7219 25.5704 99.1916 25.4388 98.6699 25.1722C98.1552 24.8869 97.6321 24.4973 97.1375 23.9482C96.7265 23.6702 96.3174 22.9513 95.9451 22.4165C95.5599 21.8876 95.2794 21.4195 95.043 21.5802C95.1656 22.0576 95.1541 22.5801 95.0675 23.0902C94.9773 23.6095 94.7858 24.1437 94.5303 24.6218C94.0258 25.575 93.2442 26.2903 92.4713 26.2372C92.3952 26.1712 92.0933 25.844 91.7068 25.3465C91.3204 24.849 90.7962 24.2514 90.3387 23.5621C89.8847 22.8634 89.4378 22.146 89.0785 21.5204C88.7584 20.8618 88.516 20.307 88.4285 19.9759C88.1903 19.0023 89.0314 19.2408 89.8352 19.4652C90.6483 19.6932 91.427 19.9135 91.2634 19.1224C91.0318 19.2423 90.2021 18.7207 89.8656 18.4709C89.6143 17.982 89.8456 17.9472 89.9422 17.8187C90.0323 17.6932 90.0103 17.456 89.3164 16.5335C88.2157 16.798 86.9664 12.3657 88.0124 16.0558C87.3227 15.1083 87.0588 14.5401 86.7939 13.9183C86.5932 13.2675 86.3558 12.587 85.801 11.3392C85.6666 11.8631 84.9692 11.498 84.1422 10.6741C83.727 10.2668 83.2818 9.7417 82.937 9.1482C82.5794 8.56048 82.2294 7.93841 82.0233 7.34417C82.2875 7.43352 82.4857 6.8114 82.5792 6.52216C82.4687 5.90025 82.3627 5.32263 82.2811 4.76489C82.2374 4.20551 82.196 3.66828 82.1596 3.15961C82.0527 2.13459 82.1477 1.18068 82.157 0.242238C82.1538 -0.2273 82.2163 -0.687897 82.2667 -1.15844C82.3107 -1.62608 82.3611 -2.09662 82.4057 -2.57999C82.4503 -3.06336 82.5677 -3.55641 82.6357 -4.0735C82.7351 -4.58933 82.7601 -5.13334 82.9115 -5.68804C83.2354 -6.0657 83.9856 -8.11801 84.1847 -7.11135C84.139 -7.77791 84.0705 -8.4265 84.4585 -9.77505C84.8657 -10.3447 85.064 -10.4186 85.0583 -10.2771C85.062 -10.132 84.9332 -9.7497 84.8411 -9.33755C84.6346 -8.51098 84.4228 -7.62791 85.2047 -8.42825C84.6948 -8.75429 85.595 -12.0324 86.3447 -13.9146C86.0819 -13.881 85.8096 -13.6116 85.5345 -13.1942C85.397 -12.9855 85.2518 -12.7424 85.1274 -12.4702C85.0153 -12.188 84.9054 -11.8836 84.8013 -11.5665C84.3285 -10.3032 84.1537 -8.77285 84.0196 -7.78586C83.4492 -7.93791 83.1266 -8.92747 83.1078 -10.579C83.1557 -11.3805 83.2856 -12.3424 83.5237 -13.4072C83.6767 -13.924 83.8467 -14.4716 84.046 -15.0402C84.1488 -15.3259 84.2487 -15.618 84.3644 -15.9095C84.4987 -16.1939 84.6394 -16.4813 84.7772 -16.775C85.7329 -18.6112 86.2078 -18.8253 86.377 -18.724C86.5555 -18.6191 86.5029 -18.1707 86.6419 -18.496C88.9545 -21.4843 89.8297 -22.8826 90.5749 -24.2609C91.3706 -25.5616 92.1573 -26.7965 95.0695 -28.3179C96.3697 -28.6879 96.5778 -28.3802 96.5865 -27.9672C96.5858 -27.5577 96.3856 -27.0427 96.7698 -26.9612C94.2855 -24.9532 92.4908 -24.4298 90.919 -22.8641C91.6285 -23.4311 92.3949 -23.9233 93.1578 -24.4062C92.8628 -23.9644 92.3019 -23.4103 91.7734 -22.8015C91.2356 -22.1961 90.6461 -21.6369 90.1626 -21.2877C90.6388 -21.5333 91.4342 -22.2007 92.4337 -23.0837C92.9639 -23.5004 93.5403 -23.9687 94.1594 -24.4794C94.7964 -24.9674 95.4993 -25.4464 96.2133 -25.9691C99.1107 -27.9857 102.788 -29.659 105.546 -30.169C106.405 -30.6953 108.024 -31.3865 107.158 -31.4748L105.45 -30.8975C104.58 -30.9072 105.297 -31.4234 106.014 -31.7696C106.719 -32.1414 107.38 -32.4551 106.208 -32.2816C106.779 -32.5391 107.368 -32.8588 107.999 -33.1045C108.638 -33.3466 109.307 -33.5939 110.018 -33.8142C110.732 -34.0281 111.499 -34.1423 112.311 -34.261C113.106 -34.3803 113.999 -34.4043 114.98 -34.283C115.214 -33.987 115.441 -33.688 115.646 -33.3711C115.616 -33.5046 115 -33.69 114.272 -33.7475C113.54 -33.8115 112.731 -33.74 112.254 -33.5481C112.955 -33.8256 114.372 -33.6616 115.813 -33.3076C116.528 -33.1278 117.308 -32.8696 117.944 -32.6236C118.596 -32.3769 119.175 -32.1363 119.729 -32.0385C119.102 -32.8292 118.245 -33.4621 117.255 -33.9114C118.083 -33.8214 118.969 -33.6032 119.844 -33.1869C120.7 -32.7619 121.557 -32.1447 122.213 -31.2898C122.878 -30.4472 123.363 -29.407 123.61 -28.2755C123.681 -27.9986 123.72 -27.7072 123.747 -27.4415C123.781 -27.1787 123.796 -26.9229 123.798 -26.6771C123.812 -26.1661 123.771 -25.6763 123.685 -25.1978C124.183 -26.0473 124.155 -26.313 124.142 -26.6853C124.134 -26.8747 124.139 -27.0855 124.167 -27.4688C124.201 -27.8549 124.264 -28.4699 124.274 -29.424C123.988 -27.7122 123.656 -31.0681 121.522 -33.0786C120.514 -34.0988 119.244 -34.7074 118.538 -34.868C118.189 -34.9577 117.987 -34.9437 117.999 -34.8487C118.01 -34.7537 118.239 -34.5556 118.685 -34.2006C118.059 -34.7833 117.289 -35.1544 116.543 -35.3891C115.871 -35.6114 115.22 -35.7037 114.576 -35.761C113.261 -35.8862 112.095 -35.8007 110.422 -36.1198C110.493 -35.9816 110.794 -35.8781 110.718 -35.7898C110.648 -35.6886 110.208 -35.6527 108.82 -35.4438C108.712 -35.341 108.438 -35.1787 108.264 -35.0849C108.182 -35.0787 108.15 -35.08 108.077 -35.0703C108.134 -35.0649 108.178 -35.0694 108.235 -35.064C108.125 -34.9991 108.115 -34.9869 108.295 -35.0679C108.972 -35.0722 109.521 -35.0187 109.759 -34.902C109.451 -34.6781 108.954 -34.4618 108.369 -34.2521C108.072 -34.1569 107.759 -34.0466 107.427 -33.9433C107.104 -33.8208 106.765 -33.699 106.436 -33.5736C105.77 -33.3199 105.082 -33.1175 104.516 -32.8472C103.945 -32.5898 103.46 -32.3477 103.156 -32.1489C101.611 -31.7383 103.665 -32.6797 102.742 -32.6727C102.109 -32.2948 101.523 -31.8143 100.939 -31.3809C100.491 -31.9281 96.6075 -30.4552 99.9115 -32.4775L99.1158 -32.1188L98.3375 -31.7215L96.793 -30.9171C95.8266 -30.5432 94.7088 -30.0084 93.7002 -29.3683C92.7247 -28.6892 91.772 -28.028 91.2147 -27.3289C90.549 -26.8358 89.8371 -26.0516 89.4713 -25.4929C89.0962 -24.9377 88.9603 -24.6911 89.3026 -25.3705C88.7074 -24.6698 88.0733 -24.021 87.5241 -23.287C86.9841 -22.5494 86.4046 -21.848 85.9048 -21.09L85.7495 -21.1434C84.0303 -19.0481 82.7974 -16.5079 81.6773 -13.8719C80.5873 -11.2031 79.7159 -8.40901 78.6377 -5.40584C78.6159 -4.94045 78.5941 -4.47507 78.5652 -3.99107C78.5522 -3.74586 78.5393 -3.50065 78.5227 -3.24613C78.522 -2.99098 78.5241 -2.72941 78.5227 -2.45853C78.5198 -1.91678 78.5029 -1.33779 78.4741 -0.699409C78.4296 -0.0616638 78.4747 0.620632 78.4502 1.38835L77.9304 2.01647C77.9758 2.61372 78.0883 3.34282 78.1383 4.13873C78.1633 4.53668 78.194 4.94746 78.2248 5.35825C78.2649 5.77256 78.3306 6.1753 78.3836 6.58382C78.5122 7.38288 78.5885 8.15149 78.7882 8.74863C78.9751 9.35155 79.1648 9.80651 79.3709 10.007C79.2842 10.3626 79.2566 10.8152 79.3022 11.3274C79.37 11.8373 79.5016 12.4033 79.675 13.0278C79.7603 13.3368 79.8607 13.6622 79.9703 13.991C80.0864 14.317 80.2404 14.6414 80.3873 14.9844C80.6975 15.6553 81.0064 16.3576 81.3917 17.041C82.8773 19.8225 85.1135 22.3506 86.3905 24.0526L87.0318 23.694C87.5177 24.2239 88.02 24.7386 88.5352 25.2476C89.0311 25.7653 89.6473 26.1901 90.2237 26.6637C90.5201 26.893 90.8258 27.1258 91.1315 27.3586C91.4635 27.5641 91.7984 27.776 92.1455 27.9978C92.8438 28.4165 93.5332 28.901 94.3599 29.2618L94.5087 28.6156C95.232 28.8841 95.9711 29.3075 96.794 29.7627C97.6204 30.2085 98.5271 30.6954 99.5323 31.161C101.518 32.0881 103.941 32.9257 106.581 32.9245C106.225 33.178 104.879 33.0358 103.996 32.7389C106.903 33.9455 110.733 33.3998 113.656 31.6111C115.121 30.7499 116.365 29.672 117.457 28.6006C118.562 27.5233 119.51 26.4241 120.502 25.4211C121.094 24.1501 121.582 23.3127 122.153 22.5071C122.098 22.6246 122.062 22.7334 122.036 22.83C122.104 22.7067 122.206 22.5218 122.286 22.3234C122.619 21.8106 122.993 21.2712 123.299 20.647C122.972 21.1569 122.648 21.6196 122.405 22.0383C122.831 21.0662 123.269 19.5022 123.429 17.9398C123.691 17.7676 123.96 17.5925 124.229 17.4016C124.24 17.2729 124.254 17.1664 124.263 17.0313C124.722 15.4808 124.109 15.7492 123.497 16.4965C123.509 15.7031 123.389 15.0083 123.269 14.4679C123.548 14.1798 123.671 13.7847 123.715 13.3328C123.733 12.8767 123.69 12.3709 123.613 11.8575C123.456 10.8241 123.262 9.7767 123.685 8.88322C123.341 8.42836 122.859 6.62275 122.144 4.96847C121.446 3.29908 120.513 1.81248 119.824 1.70609C119.948 1.60394 119.854 1.19063 120.16 1.88655C119.688 0.393206 119.117 -1.07888 118.167 -2.14086L118.613 -3.13738C117.72 -3.95452 116.8 -4.74436 115.844 -5.47897C115.475 -6.48616 115.186 -7.21289 115.214 -7.52679C115.249 -7.84359 115.642 -7.7585 116.556 -7.06654C114.588 -8.89711 113.707 -9.54993 112.941 -10.1698C112.544 -10.4693 112.158 -10.7431 111.597 -11.0617C111.036 -11.3646 110.301 -11.728 109.179 -12.0408L109.648 -12.4221C108.915 -12.8327 107.816 -13.0942 106.837 -13.2626C105.845 -13.4253 104.973 -13.5107 104.514 -13.7906C103.645 -14.1783 102.014 -14.4391 99.9923 -14.2303C97.9779 -14.0402 95.5767 -13.3206 93.3047 -12.1264C91.0204 -10.9421 88.8606 -9.32752 86.9284 -7.65341C84.9869 -5.98283 83.2415 -4.25397 81.6459 -2.72389C82.8166 -2.85019 82.0218 -2.19844 81.0521 -1.35208C80.5749 -0.920722 80.0514 -0.437656 79.7 -0.00124828C79.3607 0.4451 79.1935 0.844791 79.4007 1.09883C78.7977 1.28572 77.9084 2.17311 78.4479 0.818029C77.8735 1.78736 77.3763 2.63692 76.8678 3.37577C76.3994 4.13512 75.929 4.78729 75.5373 5.44261C74.748 6.74041 74.1478 7.96074 73.9942 9.58963C73.4305 9.89781 73.8689 8.47252 73.4718 8.79053C73.4002 9.16255 73.1994 10.2414 72.7952 10.578C72.3975 10.9118 72.7648 9.84275 72.9075 9.11443C72.4393 10.1825 72.1652 11.0473 72.0518 11.7548C71.9197 12.4552 71.914 12.9905 72.007 13.4195C72.1873 14.2648 72.6703 14.6339 73.1452 14.968C71.9193 16.9413 71.6897 18.1104 72.0134 19.8561C71.4917 20.5314 70.8 21.7543 71.3206 18.9871C71.0951 19.7373 70.4157 22.0666 70.0902 24.2903C69.7397 26.5098 69.7322 28.5825 70.1787 28.6823C70.0556 28.9231 69.9927 29.4688 69.9963 30.0076C70.0092 30.55 70.0635 31.0815 70.1153 31.282C70.0732 33.0382 70.0726 33.9959 70.1163 34.9491C70.1442 35.9017 70.22 36.8404 70.4571 38.5479C70.4575 38.2235 70.4829 37.9031 70.4991 37.5793C71.7227 38.8035 71.0579 40.3772 71.7469 43.0701L71.623 43.0179C71.9172 46.2053 72.273 46.8402 72.5314 47.4649C72.815 48.0937 73.0047 48.703 73.7181 51.8096L74.2197 51.2438C74.6164 51.2502 74.8769 51.5883 75.0971 52.1453C75.3366 52.6936 75.5073 53.466 75.7277 54.3318C76.1891 56.0231 76.6727 58.2604 78.5089 59.7644C78.3676 59.5193 78.2197 59.2771 78.1069 59.0268C77.9964 58.7987 77.9079 58.5683 77.8131 58.3408C78.6904 59.088 79.507 61.0362 81.3995 62.2368C82.1425 62.7203 83.0083 63.048 83.8724 63.1835C84.73 63.3219 85.5737 63.258 86.2373 63.0515C86.9263 62.9185 85.2893 63.6719 84.3061 63.8373C85.3629 63.8009 86.178 63.5879 86.7693 63.3753C87.3671 63.1599 87.7633 62.9426 88.0161 62.7669C88.5252 62.4061 88.4843 62.247 88.3863 62.0981C88.2883 61.9493 88.1303 61.8043 88.2623 61.4977C88.3722 61.1934 88.8292 60.7171 89.6219 59.8038C90.1013 59.634 90.1321 60.0448 90.3238 60.2132C90.4905 60.3774 90.9638 60.2798 91.9629 58.9337C92.2737 58.6469 92.6674 57.9444 93.0114 57.0635C93.3655 56.1704 93.6424 55.1576 93.9475 54.0703C94.1047 53.5285 94.2718 52.9744 94.4483 52.4239C94.6061 51.8663 94.7704 51.3058 94.9619 50.7716C95.3543 49.7068 95.7378 48.7077 96.2517 47.9124C95.6398 48.5589 95.042 49.1681 95.3697 47.3603C95.5791 46.6946 95.8774 45.9347 96.2219 45.1231C96.5756 44.315 96.9755 43.4553 97.2882 42.5731C97.9786 40.8334 98.3914 39.0259 98.0669 37.6897C98.2188 37.3587 98.3339 37.2373 98.4283 37.2411C98.4375 36.6965 98.4781 35.9987 98.5219 35.2223C98.5685 34.4523 98.5647 33.6047 98.5847 32.7927C98.6089 31.1681 98.4435 29.6367 98.1921 28.9934C98.8029 28.5327 99.0316 27.4644 99.1038 26.1347C99.1339 25.4649 99.0749 24.7348 99.0044 23.979C98.966 23.6026 98.9246 23.2197 98.8833 22.8368C98.8198 22.4563 98.7563 22.0757 98.6992 21.6922C98.2285 18.6615 97.4638 15.9719 98.5279 15.8319C98.3414 14.7501 98.1612 13.6654 97.9047 12.5998L97.5438 10.9943L97.1193 9.40211L97.373 9.5194C96.9546 7.46116 96.4113 6.08469 95.8749 5.0834C95.3414 4.08853 94.7928 3.4711 94.2494 2.88222C93.9547 1.90323 94.4481 2.48379 94.5884 2.52093C94.0064 1.00744 93.3977 -0.154269 92.786 -1.08297C92.1679 -2.00878 91.563 -2.71668 90.8845 -3.31413C90.2216 -3.91094 89.4821 -4.40371 88.5672 -4.84052C87.6387 -5.25582 86.553 -5.67742 85.1304 -5.86996C85.0253 -6.15456 84.9143 -6.452 84.7871 -6.73434C84.374 -6.72571 83.5978 -7.00888 82.5067 -7.21962C81.9613 -7.36752 81.3428 -7.42068 80.6604 -7.52997C79.9819 -7.57924 79.2354 -7.6596 78.4622 -7.62761C76.905 -7.60502 75.1946 -7.37435 73.5536 -6.8353C71.9162 -6.30557 70.3403 -5.50243 69.0521 -4.48927C69.0687 -4.58942 69.1049 -4.7833 69.5154 -5.12282C68.7594 -4.57348 67.9683 -4.01609 67.1632 -3.42146C66.7795 -3.12496 66.3923 -2.81915 65.9959 -2.51687L65.4044 -2.06489L64.8337 -1.58372C63.271 -0.323245 61.8213 1.10243 60.5889 2.53053C58.1421 5.40949 56.7664 8.36923 57.4499 10.0223C57.253 10.7673 57.0597 11.503 56.9193 12.2535C56.751 12.9934 56.6328 13.7416 56.5239 14.4933C56.9761 13.1158 57.3181 12.5215 57.5016 12.3462C57.6943 12.1743 57.7536 12.4256 57.7933 12.7706C57.8599 13.4663 57.8699 14.5505 58.4248 13.5205C58.1489 14.5869 57.5769 15.8871 57.1721 16.6332C56.755 17.3695 56.4499 17.5147 56.7185 16.1582L56.9452 15.7704C56.4457 15.1077 55.8358 16.8033 55.4269 18.6708C55.0087 20.5349 54.8022 22.5428 54.3627 22.4244C53.8365 28.159 54.1501 33.7699 54.8337 39.1908C55.1819 41.8983 55.6234 44.5561 56.1269 47.1627C56.2583 47.8138 56.3868 48.4585 56.5153 49.1032C56.6721 49.8278 56.8289 50.5524 56.9828 51.2705C57.2117 52.2406 57.4206 53.2351 57.6758 54.1778C57.9807 55.0596 58.2516 56.0029 58.5811 56.8195C58.6033 56.0296 58.7196 55.1742 58.8372 54.4418C59.2558 56.0212 59.792 57.2619 60.6895 58.2934C60.9966 58.8035 61.261 59.2016 61.075 59.2855C60.9181 59.3485 60.2301 59.1413 59.3842 57.8472C59.6509 58.8157 60.6054 59.6825 61.7545 59.9365C62.9024 60.222 63.9214 59.7935 63.9544 59.6782C64.7077 59.6707 65.1893 59.523 65.5163 59.4605C65.8404 59.3916 65.9925 59.3694 66.0407 59.4248C66.1377 59.5201 65.7766 59.8837 65.235 60.1896C64.6993 60.5083 63.9506 60.7146 63.46 60.7737C62.9699 60.817 62.7636 60.856 63.2784 60.9018C64.2278 60.9525 65.1227 60.7112 65.9313 60.3467C65.7442 60.377 65.5571 60.4073 65.3671 60.4312C66.361 59.8441 66.799 59.2915 67.3794 58.6437C67.949 57.9546 68.6786 57.2781 69.7929 55.4169C70.5878 54.3713 70.8984 54.1695 71.0854 54.1392C71.2696 54.1025 71.324 54.2402 71.6516 53.7682C71.6789 53.7945 71.7479 53.7248 71.9047 53.5074C72.0573 53.315 72.3291 52.8219 72.5041 52.3878C73.2586 51.013 74.0382 49.6424 74.691 48.2131C74.1781 48.6682 73.6809 49.124 73.1687 49.5634C73.6824 47.5173 75.0345 45.6183 73.3054 47.1777C74.6503 46.0849 76.4143 42.0854 77.5836 38.0683C78.2026 36.0674 78.6049 34.0484 78.978 32.4441C79.2731 30.8208 79.5239 29.5959 79.7187 29.1375C79.5315 26.1875 79.9047 23.4018 80.0518 19.8919C79.8563 20.7598 78.9269 21.2329 79.1283 18.2544C80.0825 18.8125 80.2638 17.4336 80.3662 15.5884C80.4442 14.6653 80.388 13.6329 80.4486 12.6713C80.5092 11.7097 80.6273 10.8072 80.874 10.1555C80.5507 11.305 80.2626 9.14171 79.8789 7.16048C79.4289 5.18603 78.9648 3.40319 78.6371 5.21097C78.5047 3.9581 78.6429 3.88804 78.8637 3.88114C79.0781 3.87714 79.3529 3.93857 79.3519 2.94301C78.8303 1.49495 78.4505 -0.0324717 77.9214 -1.6856C77.3888 -3.32942 76.7948 -5.09227 75.7726 -6.86284C74.7656 -8.61706 73.2459 -10.395 71.1914 -11.5612C69.152 -12.711 66.793 -13.1994 64.6152 -13.0977C64.5043 -12.847 65.882 -12.4798 64.1088 -12.0973C62.6547 -12.4455 61.14 -12.6197 59.6226 -12.6459C58.84 -12.378 58.5916 -11.9186 58.1634 -11.5325C57.741 -11.1336 57.1272 -10.8337 55.6802 -10.6523C56.1328 -10.6247 56.7856 -10.5639 55.8812 -10.0866C52.2977 -8.87258 48.979 -6.79729 46.1039 -4.2348C44.6692 -2.94714 43.3611 -1.51578 42.1448 -0.0177306C40.968 1.51656 39.8673 3.11691 38.9236 4.80862C37.0363 8.19203 35.6292 11.8531 34.7711 15.6527C34.5253 16.5974 34.3796 17.5587 34.1839 18.5117C34.0539 19.4737 33.8704 20.4366 33.7841 21.4098C33.5422 23.3565 33.4511 25.3124 33.3995 27.3045C33.6567 25.1347 33.8108 26.5555 34.0657 28.1314C34.0352 27.0874 34.67 28.0675 34.9796 27.8121C34.9823 29.9419 35.1347 32.1123 35.5335 34.2643C35.8305 34.4778 36.1441 34.985 36.4556 35.6244C36.7478 36.2725 37.0949 37.0426 37.4363 37.7997C38.1254 39.3112 38.9233 40.7042 39.4818 40.7613L38.9071 39.9317L38.3807 39.0726C39.4579 40.0231 39.5347 38.8921 39.5679 37.5954C39.6372 36.2593 39.717 34.7408 40.4227 34.662C39.3651 33.6178 39.2142 31.7247 39.1371 29.7211C39.077 27.6866 39.1207 25.5745 38.2093 23.3988C38.4564 22.4226 38.6682 24.2111 38.9634 23.6842C38.6604 23.1491 38.452 22.5327 38.4207 21.7439C38.3578 20.9537 38.4656 19.9941 38.7286 18.7791L38.8302 19.073C39.1892 15.622 40.0156 13.2419 41.1318 10.9397C42.2667 8.64445 43.7405 6.38173 46.2438 3.50818L45.3727 3.5457C45.906 2.89606 46.3153 2.58799 46.6278 2.33904C46.9524 2.10003 47.1888 1.93939 47.525 1.72605C47.8276 0.70171 46.9764 1.50241 46.19 2.41284C45.3828 3.29407 44.6441 4.27571 44.7271 3.22681C45.9316 2.73011 47.83 0.484429 50.0603 -1.31634C50.3371 -1.54151 50.6139 -1.76668 50.8843 -1.98897C51.1698 -2.19489 51.4518 -2.3915 51.7273 -2.58522C52.2662 -2.98261 52.8235 -3.28789 53.3259 -3.56072C54.3272 -4.09708 55.2116 -4.31048 55.7005 -4.168C57.935 -5.29126 54.678 -4.51776 56.9447 -5.65548L57.7307 -5.53888L58.1041 -6.2863C59.6741 -6.86285 60.5993 -6.52329 60.7475 -6.21176C60.3733 -6.15116 59.7605 -5.7977 59.3913 -5.62349C60.4204 -5.75547 61.7289 -6.17554 62.8732 -6.42892C64.0153 -6.70444 64.9768 -6.79819 65.2625 -6.69536C64.6215 -6.81559 63.9279 -6.88122 63.2026 -6.86306C64.7082 -7.17125 66.2687 -7.11811 67.5768 -6.66553C68.8914 -6.21584 69.9495 -5.34168 70.842 -4.02997C72.6556 -1.41169 73.514 2.6332 74.6252 5.95419L74.8408 5.37056C75.2108 6.67077 75.4322 7.59011 75.5505 8.33205C75.6403 9.07915 75.6525 9.63726 75.6578 10.214C75.6903 11.3652 75.6324 12.5726 75.9083 15.5136L75.8285 15.3024C76.1442 16.465 76.4014 18.0631 76.2735 19.6804C75.949 18.1899 75.4692 22.452 75.1257 20.4913C75.2628 21.9428 75.2362 22.8428 75.3031 23.4535C75.3449 24.06 75.4051 24.3649 75.4772 24.6104C75.6399 25.1083 75.8448 25.3402 76.1736 27.3539L75.5361 28.1664C75.6692 28.8553 75.7705 29.2343 75.8101 29.8187C75.8246 30.399 75.8431 31.1936 75.5572 32.666C75.6756 30.1882 74.3497 34.3376 74.3886 31.5637C73.7416 33.0058 73.419 34.294 73.1114 35.4442C72.8008 36.5879 72.6706 37.6349 72.4668 38.5529C72.2694 39.4681 72.0851 40.2924 71.801 41.0151C71.5046 41.7278 71.0583 42.3305 70.4177 42.8277C70.5619 44.415 71.2354 43.2543 71.8577 41.8774C72.4486 40.4992 72.8724 38.8874 72.7738 39.6963C73.6604 38.563 73.0593 42.3162 72.1218 44.0901C71.7502 45.0298 70.9328 45.6144 70.0172 46.5291C69.5608 46.9897 69.0698 47.5276 68.5102 48.2046C68.2383 48.5433 67.9552 48.9258 67.6795 49.3589C67.4874 49.6694 67.2755 50.0043 67.0466 50.37C67.1819 50.1392 67.0917 50.1103 67.2347 49.8451C67.0214 50.0571 66.9156 50.182 66.8153 50.4048C66.7156 50.6119 66.6368 50.8482 66.5445 51.106C66.3764 51.6064 66.0658 52.202 65.5789 52.1667C65.4662 53.0128 65.081 53.2714 64.7572 53.4097C64.4206 53.5537 64.1293 53.5924 63.8288 54.4845C64.3501 54.5275 64.8769 54.2745 65.2781 53.9315C65.6887 53.592 66.0145 53.1671 66.2931 52.7404C66.0751 53.1475 65.8348 53.6419 65.4959 54.1576C65.1606 54.6639 64.6946 55.206 64.0856 55.4651C63.486 55.7278 62.7593 55.623 62.3118 55.0758C61.848 54.5437 61.6276 53.6779 61.5508 52.6856C61.797 52.7522 62.2455 53.353 62.6635 53.6124C62.5582 53.019 62.4058 52.7325 62.2525 52.3924C62.105 52.0652 61.9664 51.6721 62.0035 51.138C62.258 51.0002 62.4429 51.1021 62.5878 51.3379C62.7391 51.5708 62.8405 51.9497 63.0391 52.3389C63.2284 52.7246 63.5901 53.1329 64.0689 53.1332C64.55 53.1556 64.9882 52.7573 65.2128 52.2623C65.0779 52.1687 64.9012 52.2561 64.673 52.3667C64.4478 52.4836 64.1638 52.5731 63.9344 52.5607C63.7078 52.5548 63.5514 52.4477 63.5291 52.2956C63.504 52.137 63.603 51.9457 63.8599 51.5905C63.5177 52.0305 63.2497 52.0355 63.0936 51.8433C62.9311 51.6541 62.8769 51.277 62.8385 50.9006C62.7907 50.5206 62.7616 50.1477 62.6525 49.8031C62.5966 49.6276 62.5213 49.4607 62.406 49.2734C62.3787 49.2471 62.3388 49.1415 62.2925 49.0388L62.1594 48.7437C62.0505 48.5534 61.9416 48.3632 61.8205 48.163L62.5234 48.2322C62.2948 47.7252 61.7312 46.6976 61.528 45.716L62.7756 47.2846C61.4255 44.7353 62.2526 41.9457 61.4039 39.4638C62.4417 44.8485 60.8265 40.8205 60.8063 43.2077C59.6869 39.9368 59.9814 38.8775 60.3134 37.7472C60.6647 36.6082 61.0162 35.3842 60.5358 31.7326C60.6982 32.7094 60.5131 35.5184 60.0325 33.9901C60.0049 32.5587 60.14 30.6834 60.4584 29.814C60.2018 24.9805 59.7756 30.5774 59.3194 28.5208C60.1267 26.8519 58.9622 26.1184 58.8512 23.9371L59.5303 23.9706C59.9762 21.2602 59.7525 20.8669 59.4454 20.5112C59.1663 20.1661 58.8195 19.8592 59.6314 17.447C59.7584 18.2082 59.9547 18.969 60.1144 19.7C60.2084 18.8469 60.281 17.9803 60.4316 17.1326L61.0528 17.8254C61.1779 15.0203 61.5958 14.1833 62.8282 11.8132C62.1571 12.2084 61.7781 10.974 62.9272 8.79596C63.5006 8.16683 63.53 8.45469 63.6096 8.51145C63.6864 8.56178 63.822 8.40025 64.6776 6.94129C64.6259 7.83708 64.6365 8.75112 63.409 9.74465C63.5195 9.97276 63.45 10.6064 63.5856 10.8386C63.8639 10.4969 64.1506 10.1052 64.4192 9.69067C64.6757 9.2662 64.9328 8.82601 65.1864 8.39513C65.6627 7.51637 66.1567 6.74544 66.485 6.2577C66.2031 6.60869 65.8652 7.02358 65.6188 7.19642C66.2362 5.70585 67.0357 4.31079 67.9475 2.9423C68.679 2.6125 68.3703 3.16089 68.1088 3.71117C68.739 3.0024 68.9911 2.29423 70.0739 1.37365C70.1014 1.70869 70.22 1.97178 70.1712 2.32582C70.113 2.67633 69.8874 3.11779 69.2996 3.8692C69.5283 3.58854 69.7447 3.29793 69.9855 3.02721L70.7231 2.2314C71.2234 1.697 71.7142 1.24413 72.2742 0.790886C72.6359 0.805397 74.4612 0.384007 74.0661 0.809211C75.1285 0.476936 76.2917 -0.248244 77.6576 -0.76367C79.0049 -1.28614 80.5821 -1.57256 81.881 -1.12351C81.958 -1.15822 82.0735 -1.2103 82.2442 -1.2255C82.405 -1.2285 82.6252 -1.21966 82.9105 -1.18616C84.1256 -0.768823 85.0106 -0.0559844 85.8492 0.793609C86.7006 1.63742 87.5229 2.65648 88.6792 3.98823C88.6939 4.72286 88.6706 5.45912 88.6224 6.19123C89.2372 7.43509 89.279 6.70588 89.4211 6.14766C89.5434 5.61385 89.822 5.18712 90.8262 7.48309C91.5254 9.13674 91.389 9.55342 91.1294 9.66272C90.8663 9.78134 90.4596 9.6327 90.4838 10.2858C91.4349 11.8645 93.1309 14.8215 92.7427 18.2934C92.4525 17.2043 92.4085 16.3362 92.1944 15.3132L92.1704 15.3626ZM87.3673 52.8675C87.5635 52.1382 87.7512 50.6021 88.344 50.273C88.7071 51.3524 88.1022 51.8259 87.3673 52.8675ZM76.9733 13.3888C76.9708 13.9999 76.5432 14.764 75.9796 15.6204C76.0692 15.2711 76.1909 14.9074 76.3447 14.5292C76.5171 14.1581 76.7216 13.7725 76.9669 13.3917L76.9733 13.3888ZM94.7319 -29.1694C94.7319 -29.1694 94.6921 -29.1206 94.6722 -29.0962C93.8076 -28.6678 93.5455 -28.4956 93.6266 -28.5553C93.7165 -28.5959 94.1309 -28.8754 94.7319 -29.1694ZM98.2803 -30.9236C98.584 -31.1918 98.5207 -31.2637 98.3256 -31.2684C98.1657 -30.9723 97.3658 -30.5886 96.4829 -30.0979C96.8045 -30.1039 97.3048 -30.2445 98.2739 -30.9207L98.2803 -30.9236ZM71.7526 53.1358L71.0577 53.8892C71.6119 52.875 71.7994 52.5202 71.8437 52.5157C71.9014 52.4897 71.8573 52.8029 71.7526 53.1358Z" fill="white"/>
<path d="M75.7631 20.0482C75.5953 20.2242 75.4618 20.2535 75.3225 20.27C75.3664 20.5899 75.4788 20.6165 75.7631 20.0482Z" fill="white"/>
<path d="M90.7183 17.8702C91.0695 18.4608 91.2088 18.8381 91.2732 19.1179C91.4243 19.0421 91.3338 18.7045 90.7183 17.8702Z" fill="white"/>
<path d="M91.7047 22.5738L91.2053 22.0654L90.2605 23.1554C90.7469 22.967 91.2333 22.7785 91.7047 22.5738Z" fill="white"/>
<path d="M116.871 16.3257C116.663 16.9601 116.573 17.3093 116.57 17.5423C116.574 17.7724 116.658 17.8735 116.739 17.9681C116.887 18.141 117.087 18.3286 116.42 19.4013C116.446 19.7678 116.738 19.3353 116.996 18.8794C117.238 18.4228 117.487 17.9477 117.513 18.3142C117.553 17.8716 117.593 17.4983 117.628 17.1815C117.64 16.8669 117.66 16.6188 117.635 16.4446C117.593 16.0932 117.412 16.0513 116.871 16.3257Z" fill="white"/>
<path d="M117.515 18.3129C117.478 18.5918 117.444 18.8929 117.431 19.2231C117.508 18.7096 117.521 18.4644 117.515 18.3129Z" fill="white"/>
<path d="M36.4287 38.6456C36.6722 39.4083 36.9635 40.1572 37.2413 40.9275L36.9684 39.3288C36.7885 39.1011 36.5986 38.8855 36.438 38.6491L36.4287 38.6456Z" fill="white"/>
<path d="M39.5163 42.1117L39.0526 43.0697L40.5236 43.7808C40.197 43.3645 39.5616 42.5546 39.5163 42.1117Z" fill="white"/>
<path d="M92.0978 31.432L92.0253 31.9048C92.329 31.6366 92.6485 31.3691 92.9336 31.0938L92.0914 31.4349L92.0978 31.432Z" fill="white"/>
<path d="M88.8597 8.97962C89.0907 9.81744 89.5256 10.8336 89.7192 11.7423C89.1064 9.81808 89.7724 8.45232 88.8597 8.97962Z" fill="white"/>
</g>
<path d="M115.89 83.395C109.035 85.589 101.919 89.6034 101.078 86.9534C100.235 84.3028 105.59 77.9613 112.447 75.768C119.301 73.5741 128.621 76.9161 129.462 79.5681C130.305 82.2187 122.747 81.2018 115.89 83.395Z" fill="#2CB5A9"/>
</svg>
