<svg width="249" height="111" viewBox="0 0 249 111" fill="none" xmlns="http://www.w3.org/2000/svg">
<mask id="mask0_412_371" style="mask-type:alpha" maskUnits="userSpaceOnUse" x="214" y="-5" width="73" height="94">
<path d="M214.253 45.8756C211.39 21.7489 238.232 -1.15524 262.335 -3.96112C286.445 -6.75876 283.451 18.7082 286.321 42.8431C289.184 66.9698 283.499 85.5015 259.389 88.2991C235.279 91.0968 217.116 70.0022 214.253 45.8756Z" fill="#DA3B9B"/>
</mask>
<g mask="url(#mask0_412_371)">
<path d="M214.253 45.8756C211.39 21.7489 238.232 -1.15524 262.335 -3.96112C286.445 -6.75876 283.451 18.7082 286.321 42.8431C289.184 66.9698 283.499 85.5015 259.389 88.2991C235.279 91.0968 217.116 70.0022 214.253 45.8756Z" fill="#DA3B9B"/>
<path d="M226.305 12.9845C226.339 13.4419 226.618 13.1696 226.79 13.2525C226.936 13.7735 226.601 13.5247 226.48 13.7249C226.6 14.051 226.9 14.2784 226.924 14.5311C226.877 14.5601 226.865 14.6105 226.795 14.5594C227.054 14.8809 226.964 15.6045 227.342 15.9564C227.321 15.9912 227.298 16.0179 227.274 16.0202C227.405 15.9259 227.55 15.888 227.664 15.8857C227.707 16.0791 227.917 16.2161 227.746 16.3223C227.734 16.2 227.653 16.2074 227.582 16.1563L227.698 16.3431C227.466 16.5864 227.551 16.0852 227.349 16.1202C227.516 16.5078 227.817 16.9242 227.831 17.2518C227.572 17.3825 227.578 16.5515 227.431 17.0171L227.443 16.5145C227.09 16.9744 227.415 16.2128 227.028 16.6512C227.063 17.3058 227.328 17.3308 227.404 17.9734C227.585 18.0719 227.608 17.8725 227.791 17.9791C228.292 18.78 227.289 18.872 227.856 19.4038C228.088 19.5141 228.429 19.4745 228.41 19.9779L228.067 19.9189C228.238 20.5281 228.595 20.1171 228.601 20.8073C228.447 20.7392 228.347 20.3701 228.34 20.4776C228.244 20.9551 228.592 20.7095 228.71 21.0111L228.477 21.164C228.771 21.762 229.198 22.3888 229.561 23.0298C229.471 23.0298 229.34 22.9513 229.332 23.133C229.599 23.5279 229.804 23.9777 229.97 24.4394C230.16 24.8989 230.334 25.3598 230.481 25.7986L230.851 25.9784C230.891 26.0488 230.827 26.1616 230.748 26.1112C230.846 26.464 230.891 26.0488 231.048 26.1495C231.161 26.3118 231.075 26.4431 230.937 26.3735C231.46 26.786 232.228 27.6283 232.419 28.2849L232.282 28.2235C232.514 28.6874 233.013 28.3949 233.117 28.8952L233.03 28.8456C233.175 29.079 233.328 29.3117 233.512 29.525C233.695 29.7302 233.88 29.9517 234.062 30.1488C234.42 30.5599 234.714 30.9771 234.892 31.3965C235.242 31.2739 235.557 32.2811 235.933 31.9917C236.212 32.6075 236.032 32.5335 236.583 33.2477C236.747 33.4218 237.036 33.2555 237.288 33.4051L237.133 33.6002L237.599 33.6561L237.566 34.0209L237.816 34.146C237.743 34.0623 237.713 33.917 237.766 33.871C238.162 34.0568 238.447 34.6555 238.382 34.7601L239.287 35.2116C239.211 35.2761 239.056 35.1999 238.914 35.1718C239.484 35.3004 238.823 35.4351 239.352 35.5592C239.336 35.4784 239.475 35.4657 239.513 35.4294C239.611 35.6917 240.037 36.0309 240.401 36.236L240.235 36.3169C240.781 36.8013 241.484 37.1973 242.098 37.7084C241.928 37.469 242.157 37.2754 242.366 37.4042L242.275 37.6674C242.495 37.6473 242.147 37.4407 242.513 37.4812C242.722 37.7005 242.48 37.8378 242.295 37.7972L242.63 37.9555C242.596 38.0327 242.504 38.0083 242.427 38.0647C242.647 38.0445 242.736 38.6612 243.076 38.5972L243.041 38.6661C243.64 39.1868 243.952 39.3637 244.42 39.8059C244.587 39.659 244.729 39.8598 244.994 39.8767C245.268 40.2627 245.503 40.7673 245.862 41.1866C246.196 41.4191 246.082 41.1583 246.3 41.2041C246.165 41.348 246.517 41.7844 246.224 41.6385C246.641 42.1512 246.753 42.2972 247.338 42.9342C247.368 42.8163 247.342 42.7037 247.433 42.7118C247.543 42.8333 247.531 43.0646 247.434 43.0898L247.391 43.0691C247.768 43.4046 247.886 43.9776 247.959 44.5053C248.048 45.0316 248.077 45.5223 248.391 45.8142L248.364 45.7838C248.5 46.0098 248.644 46.235 248.772 46.4699C248.805 46.8287 248.583 46.2899 248.511 46.5761C248.758 46.9399 248.813 47.272 248.808 47.5767C248.827 47.8791 248.788 48.1623 248.917 48.4958C248.781 48.6234 248.681 48.797 248.642 48.9898C248.618 49.0906 248.611 49.1899 248.605 49.3056C248.59 49.4138 248.584 49.5295 248.569 49.6377L248.544 49.9854C248.522 50.1026 248.499 50.2116 248.475 50.3124C248.429 50.5304 248.339 50.7113 248.186 50.8323L248.335 50.8433C248.411 51.0501 248.185 51.005 248.112 51.1103C248.222 51.1414 248.298 50.9864 248.335 51.1146C248.146 51.8309 247.696 52.4888 247.126 52.9933C246.556 53.506 245.876 53.8891 245.2 54.2306C244.704 54.4734 245.3 55.0519 244.48 55.0778L244.549 54.7508C244.109 55.1529 243.537 55.378 242.97 55.5534C242.395 55.7377 241.813 55.8567 241.261 56.1048C241.32 56.0336 241.304 55.9528 241.418 55.9342C241.142 55.795 240.519 56.0905 240.533 56.2373C240.345 56.2545 240.471 56.1032 240.35 56.0403C240.097 55.9648 239.754 56.358 239.599 56.1832C239.571 56.1528 239.666 56.1112 239.705 56.0912C239.551 56.204 238.945 56.1363 239.12 56.3422C238.661 56.2692 238.262 56.4948 237.889 56.3728C237.658 56.6325 237.099 56.2726 237.033 56.6241C237.057 56.26 236.226 56.3445 235.929 56.5115C236.026 56.4039 235.671 56.3953 235.789 56.2447C235.453 56.2509 235.146 56.312 235.204 56.5039C234.581 56.0678 233.945 56.8496 233.59 56.2984C232.573 56.4986 231.625 56.6594 230.711 56.8173C230.718 56.4467 231.729 56.7157 231.67 56.3429C230.792 56.5385 230.315 56.8947 229.437 56.9176C229.205 56.8978 229.545 56.7434 229.612 56.6714C228.747 56.9234 227.906 56.9018 227.175 57.2649C227.172 57.2323 227.241 57.1766 227.32 57.1365C227.168 57.1833 226.953 57.1702 227.008 57.3213L227.148 57.2427C227.436 57.4218 226.671 57.862 226.675 58.0014C226.808 57.4794 225.902 58.0887 226.144 57.4088C226.051 57.4667 225.954 57.5742 226.004 57.6765C225.849 57.6907 225.787 57.6388 225.903 57.472C225.39 57.6999 225.632 57.8339 225.151 57.9685C225.127 57.8884 225.213 57.8313 225.235 57.7223C225.043 57.9537 224.849 58.1689 224.42 58.2493C224.423 58.1915 224.362 58.1559 224.482 58.1121C223.808 58.3876 223.471 58.9283 222.69 59.1069C222.768 58.6969 222.394 59.1093 222.231 58.8529L221.878 59.1238L222.096 59.1777C221.758 59.3404 221.558 59.6711 221.226 59.7344C221.285 59.6551 221.352 59.5749 221.418 59.4948C221.215 59.6121 221.023 59.7531 220.828 59.8778L221.231 59.7833C220.972 60.0949 221.44 60.0931 220.97 60.2595C221.046 60.1868 220.649 60.4287 220.389 60.3704C220.281 60.5447 220.166 60.7279 219.903 60.8096C219.792 60.7704 219.776 60.5006 219.707 60.4658C219.676 60.7646 218.998 60.9912 218.956 61.3404C218.981 61.2477 218.903 61.1151 218.861 61.1025L218.843 61.359C218.666 61.3999 218.624 61.3874 218.58 61.2681C218.127 61.5316 218.928 61.4828 218.332 61.7019C218.361 61.6582 218.326 61.6448 218.385 61.5655C217.837 61.8706 217.497 62.3705 217.005 62.6622C216.681 62.5357 217.342 62.2943 217.038 62.2152C216.424 62.7813 215.964 63.5882 215.36 64.0876L215.484 64.0022C215.708 64.3846 214.916 64.2681 214.782 64.6915C214.831 64.5965 214.701 64.4276 214.714 64.484C214.295 64.8431 214.023 65.3778 213.62 66.0972L213.607 65.9504C213.311 66.1337 213.031 66.5788 212.782 66.8236C212.804 66.9696 212.678 67.1209 212.875 67.1193C212.306 67.3688 212.095 67.8486 211.907 68.3099C211.737 68.7859 211.564 69.2294 211.131 69.524C211.187 69.4202 211.179 69.24 211.137 69.3179L210.836 70.0773C211.028 70.109 210.989 70.0386 211.195 69.9539C211.249 70.097 211.205 70.3312 211.122 70.5033C211.178 70.1281 210.854 70.3634 210.69 70.4606C210.756 70.4547 210.779 70.5347 210.847 70.5532C210.367 70.7863 211.155 70.7798 210.7 71.1916L210.62 71.1249C210.574 71.3429 210.603 71.5705 210.489 71.7618C210.25 71.759 210.491 71.5149 210.326 71.4232C210.207 71.7302 210.452 72.1681 210.14 72.3529C210.135 72.2054 210.217 72.0252 210.212 71.8777C209.852 72.0751 209.898 72.1285 209.769 72.3376L209.784 72.3198L209.482 72.7915L209.595 72.6825C209.976 73.256 209.39 73.4907 209.58 74.131C209.409 73.5218 209.418 73.9814 209.194 73.8704C209.089 73.9787 208.95 74.1641 208.901 74.0863C209.012 74.3969 208.615 74.458 208.803 74.893C208.72 74.8923 208.72 75.1555 208.546 75.0481C208.512 75.3966 208.698 75.0094 208.785 75.059C208.903 75.6238 208.164 76.1767 208.379 76.9957C208.424 77.6658 208.635 77.8191 208.698 78.4136C208.55 78.5916 208.441 78.2151 208.441 78.2151C208.288 78.5169 208.278 78.7645 208.332 79.0803C208.268 79.0121 208.207 79.067 208.109 79.1583C208.107 79.4052 208.381 79.3471 208.237 79.6645C208.157 79.5979 208.018 79.5201 207.94 79.3875C207.993 79.687 208.111 79.9886 208.163 80.288C208.021 80.3586 207.964 80.0925 207.888 79.9843C207.92 80.3268 207.97 80.8731 208.185 80.9767L208.264 80.7639C208.275 80.8862 208.08 80.8218 208.039 80.727C207.88 80.4291 208.124 80.3081 208.205 80.3006L208.25 80.5185C208.709 80.3284 208.238 79.6727 208.296 79.2315L208.62 79.4403C208.531 79.284 208.46 79.1343 208.388 78.9765C208.487 78.8934 208.681 78.851 208.7 79.063C208.904 78.7811 208.617 78.7828 208.833 78.541C208.863 78.5135 208.882 78.5365 208.892 78.5602L208.831 78.2533C208.895 78.3215 209.068 78.2316 209.002 78.4104C209.253 77.9187 208.897 77.532 209.17 77.3753L209.175 77.4243C209.205 76.6814 208.951 77.3133 208.78 76.704L209.449 76.47L209.223 76.3427C209.25 76.2744 209.303 76.1298 209.389 76.1794C209.287 75.8682 209.276 76.1981 209.159 76.0032C209.453 75.7049 209.323 75.0015 209.711 75.0235C209.563 74.8397 209.483 75.3157 209.462 74.9065C209.89 74.9166 209.519 74.4573 209.807 74.1924C209.987 74.3568 209.781 74.6224 210.062 74.3664C209.779 74.0634 210.328 73.7746 210.361 73.5003C210.096 73.393 210.453 72.8916 210.541 72.423C210.63 72.4889 211.023 71.6717 211.313 71.3327L211.358 71.3697C211.125 71.169 211.37 70.7848 211.464 70.4719C211.613 70.5652 211.645 70.6526 211.646 70.8417C211.696 70.7549 211.728 70.6615 211.786 70.5739C211.735 70.4635 211.741 70.356 211.807 70.1692L211.962 70.344C212.143 69.9821 212.123 69.4988 212.534 69.1322C212.374 68.9989 211.824 69.1973 212.003 68.6382C212.106 68.6781 212.278 68.761 212.242 68.9123C212.254 68.8619 212.249 68.7144 212.343 68.6646L212.386 68.9567C212.585 68.7904 212.319 68.7655 212.436 68.6067C212.568 68.6933 212.604 68.5502 212.694 68.6406C212.674 68.6918 212.556 68.7438 212.565 68.8416C212.696 68.6651 212.928 68.504 213.068 68.5076C212.983 68.4743 212.893 68.3921 212.962 68.246C213.186 67.9048 213.199 68.2325 213.4 68.0908C213.362 67.9462 213.604 67.8007 213.418 67.6615C213.493 67.5725 213.595 67.6124 213.669 67.6139C213.714 67.3877 214.229 66.8143 213.886 66.8457L213.84 66.8746C213.84 66.8746 213.846 66.8494 213.853 66.8405C214.102 66.1435 214.869 65.8101 215.261 65.2478L215.323 65.2997C215.528 64.9274 215.927 64.6194 216.011 64.2828C216.093 64.193 216.323 64.1884 216.349 64.2929C216.54 64.037 216.507 63.9495 216.932 63.7461C216.789 64.0635 217.098 63.7637 216.761 64.0331C217.111 63.8119 217.245 63.8407 217.452 63.4025C217.475 63.6552 217.847 63.4073 217.955 63.2412L217.641 63.3111C217.79 63.1494 217.944 63.0366 218.108 62.9394L218.191 63.2114C218.615 63.0902 218.824 62.7668 219.044 62.4753C219.265 62.1919 219.496 61.9405 219.896 61.9943C219.977 61.7155 219.457 62.1332 219.496 61.8419C219.831 61.6466 220.378 61.7774 220.471 61.7195C220.985 61.5901 220.68 61.1248 221.215 60.9524C221.112 60.9043 220.921 60.708 221.249 60.4312C221.605 60.2753 221.853 60.5568 221.673 60.746C221.595 60.7942 221.545 60.7905 221.534 60.7587C221.444 60.8492 221.322 60.959 221.497 60.9841L221.488 60.8781C221.708 60.866 222.163 60.6188 222.124 60.8197C222.335 60.6194 222.163 60.627 221.946 60.6716C222.439 60.5852 222.63 60.3375 223.121 60.2185C223.029 60.2023 222.915 60.1304 222.987 60.0992C223.71 59.9178 223.215 59.807 223.662 59.5687C223.985 59.5966 223.694 59.9193 224.119 59.6254C224.438 59.6126 224.27 59.8336 224.19 59.9478C224.546 59.6191 225.019 59.7566 225.27 59.7172C225.209 59.7639 225.139 59.8114 225.078 59.8663C225.193 59.7736 225.306 59.7468 225.417 59.7037L225.224 59.5652C225.37 59.5518 225.474 59.5176 225.497 59.5895C225.597 59.4241 225.292 59.3205 225.515 59.0698C225.724 59.1082 226.032 58.7921 226.168 59.0181C225.584 59.1046 226.303 59.236 225.844 59.4261C225.921 59.3697 226.033 59.3348 226.18 59.3213C226.206 59.3435 226.177 59.3792 226.146 59.3985C226.744 59.4669 226.311 59.0544 226.881 58.9034C226.847 59.0628 227.075 59.1323 227.16 59.0752C226.936 59.1369 226.993 58.8685 227.176 58.7119C227.565 58.742 227.556 58.5456 227.75 58.5113L227.519 58.5078C227.563 58.3558 227.75 58.3304 227.995 58.2257C228.037 58.3287 227.776 58.3527 227.878 58.3845C228.12 58.0662 228.573 58.5181 228.946 58.2865C229.141 58.3508 229.012 58.5518 229.179 58.5858C229.6 58.3334 229.685 58.7203 230.133 58.4983C229.977 58.3235 229.957 58.3747 230.266 58.1491L229.505 58.375L229.967 58.0366C229.731 58.0583 229.482 58.2127 229.341 58.2009C229.563 58.0162 229.543 58.0673 229.406 57.9236C229.766 58.1702 230.033 57.677 230.434 57.8294L230.477 58.3024C231.043 58.4643 231.443 57.9836 232.191 58.0794L231.954 58.0024C232.044 57.8133 232.411 57.9606 232.65 57.8811C232.632 58.039 232.785 58.0907 232.884 58.1885C232.873 58.0744 233.427 58.1881 233.497 57.8774L233.836 58.0847C234.436 58.1695 234.527 57.635 235.107 57.6886C234.934 57.8607 235.2 57.9762 234.808 58.0943C235.006 58.1009 235.172 58.1267 235.179 58.0192C235.287 58.1244 235.727 57.8045 235.905 57.9526C235.988 57.8792 236.015 57.7205 236.229 57.7255C236.257 57.7559 236.237 57.8071 236.237 57.8071C236.229 57.7255 236.58 57.7015 236.391 57.5216C236.996 58.017 238.079 57.4572 238.625 57.8512C239.054 57.7708 239.572 57.6821 239.962 57.6299C239.942 57.6811 239.969 57.7115 239.894 57.7019C240.452 57.7823 240.17 57.2161 240.803 57.2979C241.151 57.5045 240.499 57.482 240.71 57.5449C240.872 58.0562 241.442 57.3627 241.913 57.5661L241.819 57.6159C242.174 57.7231 242.549 57.2447 243.066 57.1397C243.066 57.1397 243.055 57.1983 243.081 57.2205C243.353 56.8667 243.968 56.5719 244.395 56.3025C244.335 56.5464 244.223 56.4909 244.394 56.6479C244.589 56.5314 244.203 56.3612 244.602 56.1355C244.779 56.185 245.111 56.1299 245.251 56.3063C245.125 56.3753 244.992 56.4451 244.858 56.5067C245.177 56.6747 245.369 56.2543 245.594 56.1926L245.63 56.3208C246.205 55.9556 246.057 55.6814 246.655 55.3059L246.537 55.2756C246.666 54.7951 246.912 55.233 247.07 54.8074L247.357 54.9784C247.518 54.7581 247.849 54.1522 248.085 53.7687C248.093 54.1216 247.79 54.5933 247.616 54.93C247.822 54.763 248.265 54.2949 248.229 54.0844C248.181 54.1875 248.154 54.338 248.033 54.3737C248.086 53.9659 248.266 53.5959 248.566 53.1901C248.792 53.4079 249.024 53.1646 249.248 52.8234C249.48 52.4896 249.664 52.0699 249.978 51.9918C250.128 51.0324 250.677 50.2091 250.722 49.0786C250.22 49.437 250.725 48.7576 250.228 48.8032C250.214 48.5578 250.213 48.4674 250.244 48.4399C250.336 48.193 250.42 47.9387 250.503 47.6762C250.633 47.4833 250.622 47.9037 250.735 47.8769C250.74 47.309 250.926 47.6291 251.021 47.2339C250.849 47.3319 250.751 47.0614 250.778 46.7382C250.727 46.8991 250.668 47.0608 250.608 47.2143C250.443 46.843 250.501 46.6732 250.574 46.4856C250.64 46.2987 250.721 46.1103 250.507 45.7517C250.579 45.8191 250.651 45.8865 250.715 45.9547C250.632 45.765 250.525 45.4048 250.395 45.0631C250.248 44.723 250.046 44.4044 249.805 44.2867C249.831 44.2022 249.917 44.0709 250.021 44.2176C249.739 43.2897 248.777 42.4898 248.612 41.7649L248.751 41.7522C248.625 41.6322 248.393 41.6205 248.387 41.3744C248.435 41.3618 248.526 41.3617 248.487 41.2995C248.407 41.2328 248.059 41.0263 247.981 40.8032L248.21 40.8808C248.007 40.4555 247.73 40.2177 247.426 40.0401C247.137 39.8446 246.821 39.7173 246.543 39.4633C246.809 39.2251 246.409 38.6287 246.202 38.3434L246.248 38.3145C245.536 37.5411 244.766 37.3074 243.963 36.7973C243.769 36.1162 242.537 35.4151 241.935 34.6728C242.005 34.8143 241.747 34.8709 241.601 34.802C241.477 34.6079 240.976 34.6209 241.202 34.3946L241.264 34.4465C241.331 34.095 240.925 33.8856 240.658 33.6634L240.357 33.9624C240.023 32.9241 238.37 32.6481 238.359 31.909C238.132 31.8477 237.927 31.6773 237.699 31.6078L237.865 31.4446C237.462 31.0046 237.277 30.7749 236.732 30.2987L236.952 30.2785C236.679 29.9911 236.122 30.3792 235.843 30.117L236.004 29.8063C235.527 29.2662 235.279 28.5325 234.597 28.1757C234.644 28.1549 234.73 28.1059 234.812 28.1971C234.614 27.9192 234.219 27.0181 233.916 27.3912C234.154 27.2049 233.491 26.7888 233.179 26.5215L233.394 26.4442C232.98 26.3259 232.909 26.3571 232.59 26.0164C232.555 25.9045 232.689 25.8428 232.719 25.9962C232.62 25.6271 232.379 25.8712 232.248 25.431C232.316 25.4576 232.384 25.4761 232.46 25.502C232.282 25.173 232.238 25.2346 231.991 25.1339C231.795 24.971 231.692 24.4788 231.843 24.3334C231.713 24.3454 231.465 24.2448 231.404 24.0283C231.456 23.966 231.535 24.0164 231.578 24.0371C231.407 23.4279 230.936 23.3148 230.932 22.83C230.995 22.7914 231.015 22.7484 231.02 22.7069C231.226 23.1567 231.391 23.528 231.364 23.4976C231.545 23.407 231.411 23.0246 231.796 23.1866C231.521 22.9734 230.979 22.6202 230.893 22.2251C230.899 22.1999 230.913 22.174 230.936 22.1554L230.972 22.185C230.956 22.0961 230.9 22.0272 230.838 21.9753C230.826 21.8449 230.818 21.7633 230.767 21.6529C230.905 21.5416 230.684 21.1919 230.617 21.0088C230.413 21.1098 230.348 20.8526 230.268 21.1477C230.265 21.1151 230.311 21.1685 230.364 21.2952C230.383 21.3182 230.394 21.35 230.42 21.3641L230.395 21.3663C230.447 21.4767 230.519 21.6427 230.593 21.8169C230.427 21.7169 230.277 21.5992 230.311 21.3412C230.142 21.2991 229.957 21.2503 229.872 21.217C230.067 20.8373 230.025 20.2902 230.178 20.1611C229.874 19.6217 229.653 18.8279 229.128 18.58C229.024 18.4251 229.189 18.3442 229.239 18.2656C229.305 18.35 229.332 18.4708 229.409 18.5049C229.209 18.2026 229.105 17.5132 228.801 17.5164C228.816 17.0546 229.129 17.6919 228.928 17.1101L229.032 17.1745C229.099 16.5518 228.846 16.1227 228.572 15.6544C228.308 15.1935 228.049 14.6993 228.281 13.9956C228.256 14.0883 228.244 14.1387 228.198 14.1676C228.22 13.7792 228.185 13.4041 228.133 13.0142C228.09 12.6317 228.046 12.2411 228.002 11.8586C227.891 11.0877 227.885 10.3071 228.105 9.57156C228.198 9.1519 227.996 9.10461 227.881 8.83561L228.129 8.75535L227.882 8.30111C227.731 7.64887 228.527 7.27166 228.279 6.44751L228.106 6.52919C228.179 6.25114 228.138 5.6218 228.317 5.69579C228.289 5.65726 228.158 5.57878 228.264 5.47862L228.389 5.49187C228.342 5.2495 228.328 5.00413 228.305 4.75951C228.513 4.2471 228.783 4.94595 228.976 4.18002C228.982 3.89164 228.795 3.28391 228.687 3.36776C228.657 3.48566 228.548 3.64364 228.423 3.62224L228.421 3.33461C228.072 3.20219 227.747 2.88665 227.343 3.50744L227.465 4.03072L227.254 4.14875L227.332 3.7469C227.119 3.93091 227.234 4.10948 227.3 4.29253C227.203 4.30966 227.118 4.36681 227.059 4.44617L227.313 4.97379C227.16 5.00431 227.067 4.70859 226.93 5.00893C227.059 5.25198 227.278 4.86188 227.337 5.23472C227.134 5.43429 227.011 5.34691 227.119 5.63297C227.023 5.65826 226.967 5.58936 226.94 5.4767C227.021 5.73239 226.901 6.12167 227.078 6.26164C226.842 6.47236 227.012 7.06528 226.669 7.00625C226.751 7.08921 226.917 7.46048 226.912 7.67472C226.518 7.23395 226.822 8.49691 226.383 8.36456C226.562 8.52084 226.579 8.79882 226.589 9.09386C226.609 9.3963 226.605 9.71729 226.712 9.98704C226.685 9.95667 226.622 9.89667 226.643 9.85366C226.613 10.1524 226.497 10.237 226.424 10.4328C226.748 10.4689 226.791 10.9336 227.011 11.1766C226.733 11.5557 226.63 10.9731 226.345 11.0897C226.598 11.0665 226.641 11.7203 226.842 11.5785C226.671 11.8656 226.766 11.824 226.517 11.9784C226.913 11.9996 226.598 12.2341 226.856 12.4488C226.689 12.8671 226.49 12.5811 226.645 13.0191C226.55 13.2416 226.367 12.8555 226.375 12.8547L226.316 12.8355L226.305 12.9845ZM229.64 22.9978C229.592 22.92 229.553 22.8496 229.533 22.8103C229.561 22.8489 229.583 22.9045 229.64 22.9978ZM230.018 23.7937C229.984 23.6981 229.923 23.5721 229.862 23.4461C229.922 23.3831 230.004 23.3756 230.037 23.463C229.969 23.4446 230.012 23.6462 230.018 23.7937ZM230.696 21.5032C230.78 21.6107 230.752 21.6707 230.714 21.7071C230.685 21.6522 230.653 21.5811 230.605 21.5033C230.597 21.5041 230.581 21.5055 230.573 21.5063C230.613 21.5026 230.662 21.4981 230.696 21.5114L230.696 21.5032Z" fill="white"/>
<path d="M215.108 21.7078C215.132 21.9769 215.412 21.7951 215.587 21.8283C215.713 22.121 215.39 22.0027 215.253 22.1303C215.353 22.3185 215.641 22.4154 215.663 22.5614C215.615 22.5822 215.601 22.6082 215.534 22.5897C215.804 22.754 215.654 23.1871 216 23.3692C215.978 23.3959 215.954 23.4063 215.93 23.4167C216.072 23.3461 216.216 23.3082 216.322 23.2985C216.349 23.4112 216.552 23.4666 216.37 23.549C216.363 23.4756 216.283 23.4913 216.215 23.4728L216.323 23.5698C216.075 23.7405 216.195 23.4335 215.993 23.4685C216.128 23.6864 216.427 23.8974 216.387 24.0902C216.133 24.1875 216.194 23.6967 216.016 23.9926L216.046 23.6938C215.68 23.9988 216.03 23.5144 215.63 23.8142C215.64 24.1997 215.861 24.1877 215.88 24.5724C216.048 24.6145 216.094 24.487 216.255 24.538C216.64 24.9714 215.7 25.1234 216.162 25.4017C216.363 25.449 216.711 25.3843 216.616 25.6972L216.296 25.7019C216.378 26.0561 216.779 25.7645 216.694 26.1834C216.552 26.1553 216.508 25.9456 216.488 26.0049C216.328 26.3156 216.712 26.1159 216.77 26.2916L216.526 26.4126C216.705 26.7579 217.016 27.0994 217.223 27.4669C217.141 27.4744 217.031 27.4434 216.993 27.562C217.33 28.008 217.396 28.6351 217.494 29.1688L217.788 29.2405C217.808 29.2797 217.725 29.3614 217.666 29.3421C217.678 29.563 217.809 29.2879 217.928 29.3345C217.994 29.4271 217.873 29.5369 217.779 29.4962C218.105 29.7376 218.639 30.182 218.591 30.6387L218.498 30.6143C218.551 30.9219 219.085 30.6509 219.034 30.9927L218.975 30.9735C219.1 31.2662 219.298 31.5359 219.463 31.8086C219.634 32.0642 219.782 32.3302 219.776 32.6267C220.094 32.5071 220.02 33.2292 220.433 32.9776C220.472 33.4016 220.338 33.3728 220.532 33.873C220.601 33.9983 220.883 33.849 221.031 33.9423L220.841 34.1078L221.187 34.1172L221.041 34.4019L221.196 34.4782C221.166 34.4233 221.188 34.3062 221.25 34.2594C221.498 34.3682 221.515 34.8271 221.425 34.9176C221.608 35.0242 221.788 35.1063 221.969 35.1966C221.892 35.2612 221.798 35.2123 221.697 35.1968C222.088 35.2432 221.545 35.4164 221.903 35.4658C221.921 35.3983 222.027 35.3804 222.065 35.3522C222.051 35.5591 222.261 35.7783 222.462 35.9079L222.305 35.9963C222.549 36.3193 222.941 36.5629 223.211 36.9081C223.171 36.7391 223.419 36.5766 223.525 36.6573L223.355 36.862C223.532 36.8211 223.34 36.6989 223.612 36.7069C223.691 36.8558 223.448 36.9769 223.322 36.9555L223.512 37.0532C223.46 37.1155 223.402 37.1044 223.316 37.1534C223.502 37.1199 223.296 37.5663 223.593 37.4897L223.533 37.5446C223.76 37.8773 223.918 37.9862 224.074 38.2514C224.28 38.1586 224.291 38.2891 224.49 38.3037C224.501 38.426 224.481 38.5677 224.477 38.6996C224.456 38.8331 224.468 38.9554 224.487 39.0769C224.625 39.2369 224.678 39.0924 224.824 39.1612C224.63 39.2036 224.67 39.4549 224.511 39.3379C224.555 39.6381 224.577 39.7018 224.673 40.1206C224.761 40.096 224.807 40.0508 224.876 40.0937C224.892 40.1745 224.759 40.2524 224.665 40.2117L224.663 40.1873C224.744 40.443 224.51 40.67 224.277 40.8229C224.036 40.9765 223.816 41.0872 223.866 41.3622L223.863 41.3295C223.844 41.4793 223.809 41.6306 223.773 41.7818C223.619 41.8946 223.731 41.5884 223.551 41.6048C223.488 42.1697 223.009 42.0574 222.866 42.4653C222.271 42.1663 222.023 43.1428 221.439 43.0483L221.531 43.155C221.506 43.33 221.367 43.1618 221.286 43.1774C221.352 43.2619 221.455 43.2196 221.44 43.3278C220.727 43.9852 219.653 44.1906 218.742 44.5783C218.41 44.7239 218.942 45.3165 218.377 45.2532L218.35 44.9596C217.891 45.602 217.061 45.7027 216.581 46.2976C216.583 46.2235 216.543 46.1531 216.606 46.1145C216.375 46.0205 216.113 46.3899 216.192 46.5307C216.089 46.573 216.1 46.424 215.997 46.3841C215.806 46.3605 215.796 46.789 215.628 46.6646C215.602 46.6424 215.63 46.5905 215.652 46.5637C215.615 46.6987 215.244 46.782 215.438 46.9205C215.155 46.9711 215.042 47.2692 214.796 47.2672C214.797 47.5548 214.339 47.3995 214.476 47.7241C214.306 47.4025 213.916 47.7179 213.855 47.9536C213.844 47.8313 213.672 47.9293 213.641 47.7677C213.47 47.8739 213.36 48.0237 213.489 48.1682C212.955 47.9951 213.058 48.849 212.588 48.481C212.196 48.9609 211.814 49.366 211.428 49.7303C211.243 49.4183 211.889 49.3755 211.664 49.0755C211.332 49.4842 211.262 49.8935 210.804 50.0999C210.676 50.1363 210.772 49.9302 210.782 49.8553C210.458 50.2633 209.967 50.3823 209.726 50.8072C209.707 50.7761 209.719 50.7257 209.747 50.6738C209.678 50.7294 209.548 50.7496 209.659 50.8792L209.7 50.7932C209.949 50.902 209.715 51.4003 209.782 51.5092C209.624 51.0386 209.362 51.6793 209.191 51.0619C209.163 51.122 209.148 51.2302 209.23 51.3132C209.143 51.3459 209.081 51.3022 209.076 51.1547C208.878 51.4195 209.073 51.4838 208.851 51.6604C208.803 51.5908 208.831 51.5389 208.798 51.4433C208.777 51.659 208.763 51.8659 208.525 51.9617C208.504 51.9142 208.444 51.8869 208.505 51.8401C208.194 52.1235 208.222 52.6061 207.778 52.7866C207.655 52.4279 207.591 52.8038 207.374 52.5934L207.247 52.8271L207.416 52.8692C207.248 53.0079 207.257 53.2948 207.048 53.3469L207.088 53.1459C206.999 53.2528 206.917 53.3507 206.828 53.4575C206.908 53.4337 206.988 53.4018 207.077 53.3854C207.018 53.6456 207.347 53.6484 207.088 53.779C207.107 53.7197 206.937 53.9244 206.735 53.869C206.723 54.0099 206.72 54.1581 206.552 54.2146C206.458 54.1739 206.339 53.9546 206.279 53.9272C206.376 54.1732 205.971 54.3337 206.071 54.6123C206.056 54.5397 205.947 54.4263 205.913 54.413L205.997 54.6191C205.885 54.6458 205.851 54.6325 205.768 54.5414C205.531 54.7276 206.107 54.7324 205.741 54.8728C205.746 54.8394 205.713 54.8343 205.731 54.7668C205.42 54.9598 205.366 55.3594 205.078 55.5338C204.788 55.4125 205.21 55.2668 204.947 55.184C204.662 55.5719 204.593 56.1621 204.252 56.473L204.329 56.4247C204.629 56.7344 203.947 56.5585 203.975 56.8683C203.986 56.8016 203.826 56.6683 203.862 56.706C203.627 56.9249 203.561 57.2845 203.415 57.7502L203.356 57.6405C203.176 57.7392 203.045 58.0225 202.893 58.1516C202.952 58.2613 202.878 58.3503 203.045 58.3761C202.192 58.5859 202.74 59.5388 202.047 59.7832C202.075 59.7231 202.031 59.6038 202.01 59.6468L201.888 60.1102C202.074 60.159 202.019 60.0983 202.19 60.0826C202.265 60.1826 202.278 60.3294 202.222 60.4332C202.2 60.1967 201.947 60.3022 201.819 60.3468C201.878 60.3578 201.924 60.4112 201.975 60.4312C201.58 60.5167 202.297 60.6237 201.97 60.8263L201.891 60.7678C201.887 60.8997 201.958 61.0494 201.886 61.1629C201.669 61.1253 201.847 61.0021 201.684 60.9266C201.618 61.1053 201.909 61.4157 201.662 61.4959C201.628 61.4003 201.668 61.2898 201.651 61.2009C201.338 61.279 201.407 61.3219 201.319 61.4369L201.318 61.4287L201.112 61.6861L201.206 61.6364C201.655 62.0475 201.127 62.1205 201.387 62.5325C201.137 62.1361 201.212 62.4252 200.99 62.3304C200.905 62.3876 200.799 62.4878 200.745 62.4352C200.895 62.6352 200.525 62.6362 200.741 62.9289C200.666 62.9193 200.689 63.0816 200.509 62.9995C200.512 63.213 200.655 62.986 200.742 63.0356C200.914 63.3898 200.265 63.6632 200.525 64.1656C200.603 64.5614 200.867 64.6687 200.949 65.0229C200.81 65.1179 200.682 64.8912 200.682 64.8912C200.541 65.0603 200.539 65.2086 200.613 65.3909C200.543 65.348 200.488 65.3776 200.394 65.4274C200.408 65.5742 200.677 65.5495 200.545 65.726C200.459 65.6846 200.322 65.6313 200.242 65.5565C200.299 65.7321 200.438 65.9085 200.504 66.0834C200.359 66.1213 200.304 65.9701 200.215 65.896C200.267 66.1051 200.304 66.4142 200.524 66.4844C200.545 66.4495 200.574 66.3976 200.595 66.3628C200.602 66.4362 200.409 66.3963 200.371 66.3422C200.207 66.1681 200.464 66.1034 200.538 66.0967L200.582 66.2242C201.049 66.1156 200.538 65.7349 200.58 65.4843L200.913 65.6182L200.649 65.3382C200.743 65.2885 200.932 65.2794 200.967 65.3995C201.151 65.2511 200.87 65.2358 201.072 65.1103C201.104 65.0992 201.121 65.1058 201.131 65.1214L201.057 64.9391C201.118 64.9828 201.295 64.9419 201.23 65.0383C201.46 64.7705 201.051 64.5202 201.307 64.4474L201.327 64.4785C201.288 64.0545 201.089 64.4016 200.874 64.0267L201.508 63.9439L201.277 63.8499C201.277 63.8499 201.332 63.7298 201.426 63.7623C201.293 63.5689 201.32 63.772 201.184 63.6365C201.441 63.4814 201.22 63.0493 201.612 63.1039C201.453 62.9869 201.412 63.2538 201.357 63.0122C201.781 63.0637 201.357 62.7408 201.591 62.6124C201.784 62.7346 201.623 62.8644 201.858 62.7442C201.534 62.5272 202.043 62.423 202.027 62.2518C201.754 62.1453 202.035 61.8893 202.033 61.6017C202.104 61.6527 202.374 61.1922 202.572 61.0178L202.615 61.0467C202.371 60.8882 202.515 60.6694 202.539 60.4782C202.694 60.5626 202.741 60.624 202.777 60.7441C202.796 60.6848 202.825 60.641 202.853 60.5891C202.788 60.5047 202.765 60.4409 202.788 60.3238L202.964 60.4556C203.06 60.2494 202.94 59.9233 203.21 59.7259C203.035 59.6104 202.588 59.6679 202.63 59.3187C202.733 59.3668 202.904 59.4415 202.905 59.5401C202.902 59.5075 202.868 59.4119 202.948 59.3881L203.049 59.5926C203.19 59.5139 202.954 59.4533 203.02 59.3651C203.159 59.4428 203.159 59.3524 203.264 59.4249C203.267 59.4575 203.162 59.4754 203.193 59.5466C203.284 59.456 203.433 59.3766 203.565 59.3891C203.48 59.3558 203.375 59.2832 203.407 59.1898C203.512 58.9829 203.616 59.22 203.748 59.1421C203.681 59.0332 203.847 58.9686 203.655 58.8464C203.691 58.7856 203.794 58.8337 203.861 58.8522C203.839 58.698 204.137 58.3664 203.856 58.3429L203.825 58.3622L203.822 58.3377C203.837 57.8677 204.391 57.7264 204.546 57.3505L204.608 57.4023C204.668 57.1584 204.879 56.9499 204.849 56.7142C204.894 56.6608 205.067 56.6695 205.125 56.7629C205.191 56.5842 205.135 56.5153 205.395 56.3927C205.391 56.6151 205.53 56.4216 205.357 56.6018C205.558 56.4601 205.677 56.5067 205.688 56.1768C205.788 56.3732 205.996 56.2144 206.025 56.0883L205.805 56.1085C205.87 56.0039 205.953 55.9305 206.037 55.857L206.197 56.0808C206.736 55.9491 206.377 55.0776 207.012 55.192C206.967 54.966 206.741 55.2827 206.662 55.0515C206.839 54.9201 207.268 55.0287 207.322 54.9827C207.634 54.8883 207.246 54.5128 207.545 54.3702C207.451 54.3295 207.247 54.1673 207.358 53.9434C207.543 53.8113 207.829 54.0564 207.776 54.201C207.739 54.2374 207.706 54.2404 207.687 54.2093C207.66 54.2775 207.62 54.3798 207.753 54.3923L207.712 54.3056C207.859 54.2922 208.071 54.1 208.127 54.2593C208.185 54.0814 208.071 54.1 207.952 54.1438C208.248 54.0591 208.279 53.8589 208.556 53.7349C208.481 53.7253 208.385 53.6683 208.416 53.6408C208.81 53.4567 208.441 53.3836 208.635 53.1603C208.857 53.1646 208.811 53.4648 208.958 53.1882C209.16 53.1532 209.146 53.36 209.147 53.4586C209.234 53.1465 209.604 53.2359 209.738 53.1743L209.677 53.3196C209.71 53.2343 209.764 53.1965 209.826 53.1497L209.644 53.0513C209.724 53.0275 209.786 52.9807 209.833 53.0504C209.82 52.9036 209.592 52.8423 209.611 52.6021C209.76 52.6131 209.807 52.3128 209.996 52.4928C209.68 52.6368 210.177 52.6735 209.974 52.8812C210.001 52.8212 210.047 52.7841 210.144 52.7588C210.17 52.7729 210.164 52.8062 210.15 52.8322C210.543 52.8126 210.088 52.509 210.366 52.3109C210.42 52.4539 210.596 52.4871 210.614 52.4196C210.507 52.5035 210.419 52.2649 210.454 52.1055C210.697 52.0667 210.599 51.8948 210.701 51.8443L210.565 51.8815C210.511 51.7385 210.621 51.6872 210.717 51.5633C210.79 51.6471 210.648 51.7094 210.722 51.7109C210.71 51.4077 211.181 51.7016 211.28 51.4295C211.43 51.4486 211.448 51.6443 211.554 51.6428C211.667 51.3447 211.899 51.6358 212.038 51.3599C211.863 51.2444 211.876 51.2926 211.934 51.0324L211.639 51.4047L211.718 51.0029C211.601 51.0793 211.553 51.2728 211.456 51.29C211.478 51.0824 211.499 51.1298 211.351 51.0365C211.667 51.1638 211.565 50.6879 211.856 50.7188L212.114 51.1145C212.509 51.1112 212.46 50.5812 212.884 50.4519L212.721 50.4669C212.661 50.2667 212.927 50.2917 213.005 50.1531C213.083 50.2938 213.182 50.293 213.286 50.3493C213.22 50.2567 213.559 50.1926 213.417 49.9014L213.695 49.9746C214.03 49.8617 213.789 49.3822 214.098 49.2552C214.108 49.4516 214.29 49.4678 214.163 49.6933C214.256 49.6354 214.361 49.6093 214.303 49.516C214.406 49.5641 214.452 49.1734 214.624 49.2481C214.624 49.1577 214.553 49.0161 214.671 48.956C214.698 48.9782 214.709 49.0182 214.709 49.0182C214.671 48.956 214.824 48.8269 214.643 48.7366C215.191 48.9823 215.449 48.2104 215.921 48.422C216.103 48.2491 216.332 48.0636 216.518 47.9397C216.523 47.9886 216.557 48.0019 216.517 48.0138C216.851 47.9832 216.447 47.5268 216.831 47.4917C217.114 47.6219 216.743 47.7053 216.886 47.7333C217.188 48.1579 217.215 47.4647 217.565 47.6053L217.529 47.6661C217.773 47.7259 217.805 47.2708 218.082 47.1549C218.082 47.1549 218.087 47.2038 218.121 47.2171C218.156 46.885 218.445 46.6201 218.648 46.4124C218.668 46.6325 218.596 46.5651 218.742 46.7244C218.832 46.6339 218.536 46.4555 218.726 46.2819C218.854 46.3359 219.059 46.3253 219.191 46.5106L218.998 46.6434C219.245 46.8263 219.254 46.4801 219.392 46.4593L219.443 46.5697C219.743 46.3448 219.579 46.0803 219.933 45.8999L219.852 45.8332C219.875 45.4529 220.096 45.8931 220.158 45.5832L220.377 45.818C220.463 45.6785 220.65 45.2996 220.831 45.1186C220.831 45.3899 220.642 45.6539 220.546 45.8683C220.672 45.7992 220.949 45.6011 220.926 45.4306C220.89 45.4914 220.875 45.5915 220.799 45.5738C220.82 45.2676 220.94 45.051 221.191 44.9129C221.471 45.4628 221.891 44.6596 222.313 44.958C222.608 44.5034 223.216 44.4969 223.69 44.1C223.231 43.8461 223.827 43.9805 223.497 43.616C223.586 43.5092 223.633 43.4803 223.668 43.5017C223.839 43.486 224.01 43.4703 224.181 43.4546C224.35 43.4968 224.147 43.6222 224.229 43.7052C224.5 43.5241 224.466 43.7821 224.724 43.7255C224.575 43.6241 224.642 43.4617 224.824 43.3793L224.48 43.3944C224.632 42.8953 225.066 43.4228 225.198 42.8845L225.218 43.1047C225.312 42.874 225.825 42.3666 225.613 41.942C225.678 41.936 225.827 41.947 225.798 42.073C225.988 41.8171 226.07 41.4561 226.105 41.1158C226.147 40.7747 226.161 40.4693 226.313 40.2497L226.418 40.3142C226.406 40.1837 226.231 40.0763 226.359 39.9413C226.409 39.9531 226.479 39.9961 226.491 39.9457C226.451 39.8753 226.313 39.6167 226.364 39.4639L226.508 39.5987C226.578 39.2799 226.481 39.0339 226.323 38.8346C226.19 38.633 225.986 38.479 225.893 38.2656C226.229 38.1689 226.184 37.6715 226.138 37.4455L226.187 37.441C225.929 36.774 225.383 36.5609 224.937 36.1825C225.029 35.6561 224.316 35.1459 224.102 34.6064C224.111 34.7124 223.888 34.7822 223.793 34.7334C223.755 34.5888 223.373 34.6403 223.626 34.4362L223.653 34.4666C223.816 34.1803 223.582 34.0456 223.453 33.9011L223.124 34.1697C223.17 33.7709 222.904 33.565 222.657 33.3821C222.41 33.1992 222.174 33.04 222.296 32.7574C222.137 32.7309 222.045 32.6161 221.893 32.5806L222.07 32.4492C221.911 32.1432 221.824 32.0032 221.534 31.7091L221.713 31.6926C221.595 31.4815 221.018 31.8222 220.879 31.654L221.119 31.4018C220.875 31.0706 220.895 30.5672 220.434 30.3874C220.482 30.3666 220.568 30.3258 220.614 30.371C220.516 30.2072 220.422 29.6239 220.054 29.9207C220.311 29.7656 219.88 29.542 219.654 29.4065L219.868 29.3293C219.529 29.3029 219.458 29.3341 219.259 29.1385C219.253 29.0733 219.395 29.0109 219.379 29.1028C219.382 28.8641 219.12 29.0608 219.11 28.7739L219.277 28.7997C219.201 28.6011 219.14 28.6478 218.94 28.6169C218.8 28.531 218.813 28.2174 218.984 28.1113C218.855 28.1395 218.662 28.0996 218.658 27.9603C218.719 27.9135 218.787 27.9402 218.812 27.9461C218.81 27.5599 218.366 27.5595 218.468 27.2376C218.531 27.2072 218.561 27.1798 218.575 27.1456C218.681 27.4072 218.758 27.6222 218.733 27.6163C218.923 27.5331 218.869 27.3078 219.195 27.3601C218.979 27.2565 218.546 27.099 218.548 26.8521C218.562 26.8343 218.577 26.8165 218.6 26.7979L218.626 26.812C218.621 26.7549 218.594 26.7246 218.542 26.6964C218.55 26.6134 218.554 26.5637 218.532 26.5C218.68 26.4124 218.531 26.2205 218.497 26.1168C218.291 26.2014 218.269 26.0554 218.147 26.2475C218.153 26.2223 218.181 26.2608 218.211 26.3238C218.221 26.3394 218.239 26.3542 218.256 26.3608L218.231 26.3631C218.262 26.4261 218.304 26.5209 218.338 26.6247C218.202 26.5796 218.074 26.5256 218.149 26.3624C217.992 26.3521 217.827 26.3508 217.752 26.3331C217.991 26.0727 218.051 25.7383 218.223 25.6403C217.991 25.3491 217.907 24.8881 217.43 24.7921C217.348 24.7092 217.516 24.6527 217.568 24.5985C217.63 24.6422 217.636 24.7074 217.711 24.717C217.54 24.56 217.511 24.1597 217.218 24.1866C217.291 23.9086 217.512 24.2583 217.392 23.9322L217.493 23.9559C217.786 23.2054 216.511 23.0263 216.967 22.1704C216.94 22.2305 216.926 22.2565 216.878 22.2773C216.936 21.828 216.823 21.4026 216.716 20.9601C216.635 20.5235 216.57 20.0854 216.761 19.6486C216.837 19.4032 216.654 19.387 216.502 19.2448L216.742 19.1816L216.457 18.9365C216.235 18.5786 217.041 18.3155 216.671 17.8644L216.504 17.9208C216.538 17.7533 216.422 17.3938 216.607 17.4345C216.58 17.4122 216.437 17.376 216.522 17.3107L216.652 17.2988L216.467 16.8964C216.588 16.5975 216.96 16.9827 217.027 16.5408C216.986 16.3719 216.693 16.037 216.607 16.086C216.596 16.1527 216.515 16.2506 216.383 16.2463L216.327 16.087C215.959 16.022 215.59 15.8503 215.295 16.2227L215.504 16.5242L215.313 16.5993L215.316 16.3606C215.129 16.4764 215.279 16.5778 215.37 16.6763C215.272 16.6853 215.202 16.7246 215.157 16.778L215.489 17.0765C215.343 17.0982 215.205 16.9381 215.114 17.1109C215.274 17.2442 215.45 17.0143 215.543 17.2196C215.365 17.3428 215.229 17.2977 215.368 17.4658C215.271 17.4829 215.21 17.4474 215.172 17.3852C215.284 17.5311 215.206 17.7603 215.411 17.8402C215.201 17.9745 215.453 18.3049 215.099 18.2963C215.186 18.3459 215.368 18.543 215.388 18.6645C214.955 18.4328 215.374 19.1427 214.925 19.0852C215.318 19.2465 215.097 19.7107 215.346 20.0004C215.312 19.9871 215.251 19.9515 215.265 19.9256C215.248 20.0998 215.138 20.1592 215.075 20.2719C215.395 20.2672 215.485 20.5303 215.694 20.6592C215.412 20.8988 215.315 20.5623 215.036 20.6537C215.288 20.6224 215.322 20.9975 215.527 20.9047C215.355 21.0849 215.442 21.0523 215.198 21.1651C215.591 21.1537 215.285 21.3052 215.541 21.4132C215.383 21.6661 215.189 21.5195 215.335 21.761C215.232 21.902 215.065 21.6871 215.065 21.6871L215.04 21.6894L215.108 21.7078ZM217.312 27.4587C217.283 27.412 217.263 27.3728 217.245 27.3498C217.255 27.3735 217.275 27.4046 217.312 27.4587ZM217.511 27.9256C217.497 27.8611 217.467 27.7981 217.435 27.7188C217.505 27.6795 217.578 27.6646 217.598 27.7039C217.54 27.701 217.543 27.824 217.511 27.9256ZM218.587 26.3799C218.642 26.4406 218.604 26.477 218.573 26.5044C218.562 26.4725 218.534 26.434 218.505 26.3873L218.481 26.3896C218.521 26.3858 218.562 26.3821 218.595 26.3791L218.587 26.3799Z" fill="white"/>
<path d="M225.457 76.8274C225.716 76.5982 225.395 76.5043 225.329 76.3212C225.603 75.9918 225.621 76.3684 225.828 76.3905C225.972 76.1635 225.966 75.827 226.137 75.7208C226.181 75.7497 226.221 75.7378 226.22 75.8201C226.302 75.459 226.882 75.3318 226.999 74.9017C227.032 74.9069 227.058 74.921 227.077 74.9439C226.953 74.8484 226.868 74.7247 226.81 74.6313C226.95 74.5445 226.978 74.3117 227.13 74.4457C227.043 74.4866 227.075 74.5659 227.066 74.6408L227.166 74.4835C227.444 74.639 227.02 74.686 227.127 74.8653C227.359 74.6138 227.569 74.2163 227.844 74.1583C228.028 74.3716 227.375 74.5219 227.783 74.575C227.654 74.6032 227.527 74.6478 227.399 74.6842C227.87 74.8959 227.177 74.7786 227.652 75.031C228.12 74.8401 228.067 74.6229 228.553 74.455C228.586 74.2711 228.421 74.2698 228.446 74.0867C228.985 73.511 229.26 74.4478 229.579 73.8923C229.624 73.6661 229.544 73.3282 229.965 73.3553L229.963 73.6844C230.433 73.5261 230.054 73.158 230.622 73.1635C230.578 73.3155 230.29 73.3995 230.373 73.4083C230.778 73.5192 230.531 73.1554 230.778 73.067L230.922 73.3004C231.403 73.0754 231.895 72.7014 232.458 72.4771C232.45 72.5601 232.378 72.6736 232.538 72.7165C233.213 72.3668 234.088 72.3112 234.827 72.301L235.039 72.0102C235.104 72.0043 235.177 72.088 235.125 72.1503C235.424 72.1723 235.112 72.0035 235.216 71.8789C235.375 71.8232 235.454 71.964 235.372 72.0537C235.821 71.7494 236.686 71.3247 237.259 71.4777L237.169 71.5682C237.598 71.5864 237.536 71.0001 237.96 71.1421L237.891 71.1977C238.798 71.1311 239.749 70.7396 240.484 70.96C240.558 70.5996 241.381 70.96 241.362 70.4848C241.902 70.6408 241.772 70.7432 242.493 70.8086C242.682 70.8078 242.735 70.4823 242.966 70.4035L242.988 70.6481L243.29 70.3573L243.48 70.6359L243.687 70.5594C243.604 70.5505 243.497 70.4617 243.507 70.3868C243.839 70.2412 244.348 70.507 244.352 70.6382C244.616 70.5564 244.873 70.4917 245.138 70.4181C245.122 70.5182 244.985 70.5472 244.884 70.614C245.305 70.3617 244.957 70.8623 245.34 70.6544C245.294 70.593 245.368 70.5039 245.38 70.4535C245.566 70.6009 245.988 70.6361 246.306 70.607L246.223 70.7709C246.768 70.8854 247.392 70.8774 247.977 71.0705C247.799 70.9224 247.922 70.6561 248.115 70.696L248.099 70.9688C248.261 70.8553 247.945 70.8103 248.248 70.7085C248.472 70.8195 248.294 71.0332 248.142 71.08C248.241 71.0792 248.34 71.0865 248.439 71.0857C248.421 71.1613 248.348 71.1762 248.299 71.263C248.47 71.1568 248.625 71.6853 248.888 71.4968L248.87 71.5724C249.396 71.8448 249.675 71.9261 250.088 72.209C250.227 72.0317 250.357 72.1843 250.6 72.1537C250.866 72.45 251.053 72.8769 251.394 73.1909C251.705 73.3515 251.603 73.1307 251.801 73.1454C251.676 73.3049 252.012 73.6441 251.733 73.5628C252.139 73.9613 252.248 74.0746 252.843 74.5464C252.857 74.43 252.823 74.3344 252.913 74.3262C253.02 74.415 253.038 74.6189 252.944 74.6686L252.902 74.6561C253.668 75.1203 253.596 76.574 254.337 76.8596L254.294 76.8389L254.877 77.2788C255.027 77.5611 254.641 77.21 254.674 77.4783C255.378 77.8989 255.283 78.4749 255.779 78.8571C255.638 79.2071 255.842 79.5502 256.056 79.9088C256.277 80.2585 256.501 80.6409 256.417 80.9775L256.541 80.8921C256.723 80.9906 256.534 81.0901 256.528 81.2057C256.631 81.1552 256.593 81.0107 256.697 81.0751C256.989 81.6568 257.076 82.3313 257.002 82.963C256.937 83.5939 256.71 84.1738 256.462 84.6981C256.382 84.8946 256.516 85.0139 256.618 85.1443C256.712 85.2672 256.792 85.4243 256.496 85.5995L256.34 85.3343C256.284 85.808 256.001 86.2122 255.689 86.5779C255.361 86.9452 255.022 87.2887 254.731 87.6936C254.731 87.6114 254.685 87.5499 254.753 87.4861C254.481 87.4781 254.17 87.9506 254.257 88.0825C254.124 88.1604 254.142 87.9943 254.026 87.9885C253.789 88.0102 253.743 88.4913 253.545 88.3944C253.51 88.3729 253.562 88.3106 253.584 88.2757C253.524 88.4292 253.037 88.5972 253.27 88.7156C252.902 88.8234 252.704 89.1705 252.377 89.1922C252.324 89.5095 251.752 89.3728 251.841 89.7182C251.711 89.3766 251.118 89.7269 250.96 89.9717C250.989 89.8375 250.719 89.9445 250.752 89.7687C250.499 89.8824 250.284 90.0419 250.397 90.196C249.769 89.9823 249.547 90.8824 249.089 90.4639C248.731 90.6859 248.371 90.8833 248.026 91.063C247.671 91.2271 247.315 91.3831 246.958 91.5227C246.901 91.1743 247.749 91.2693 247.617 90.9113C246.982 91.2491 246.656 91.6327 245.94 91.7148C245.749 91.6994 246.006 91.5442 246.057 91.4656C245.393 91.7567 244.713 91.6957 244.113 91.9727C244.11 91.9401 244.172 91.8933 244.234 91.8547C244.114 91.8904 243.945 91.8401 243.977 92.0099L244.086 91.9423C244.319 92.1512 243.661 92.5157 243.647 92.6321C243.8 92.1412 243.002 92.5844 243.273 91.9593C243.195 91.9994 243.104 92.0899 243.13 92.1944C243.005 92.173 242.959 92.1196 243.078 91.9772C242.646 92.1154 242.817 92.2725 242.417 92.3009C242.409 92.2194 242.497 92.1867 242.528 92.0851C242.338 92.2506 242.14 92.425 241.791 92.383C241.811 92.3318 241.764 92.2703 241.863 92.2695C241.284 92.3226 240.878 92.7381 240.214 92.5851C240.405 92.2388 239.99 92.4741 239.962 92.1642L239.617 92.2535L239.754 92.4053C239.449 92.4004 239.172 92.6067 238.915 92.4987L239.144 92.3873L238.571 92.4152L238.887 92.5424C238.563 92.6872 238.905 92.919 238.492 92.817C238.572 92.7932 238.187 92.8039 238.037 92.6039C237.88 92.6841 237.716 92.7731 237.493 92.6784C237.443 92.5762 237.57 92.3507 237.539 92.2877C237.372 92.5251 236.815 92.2801 236.599 92.522C236.668 92.4663 236.694 92.3077 236.675 92.2765L236.528 92.4627C236.396 92.3761 236.377 92.345 236.424 92.2256C236.004 92.1325 236.509 92.6206 236.028 92.3934C236.069 92.3897 236.058 92.3578 236.138 92.334C235.653 92.1647 235.141 92.3104 234.703 92.112C234.624 91.7904 235.115 92.1236 235.007 91.8457C234.342 91.7669 233.567 91.9202 232.961 91.6797L233.066 91.7441C232.863 92.1328 232.657 91.4116 232.28 91.512C232.361 91.5045 232.451 91.3154 232.413 91.3518C232.009 91.1586 231.518 91.1871 230.841 91.0683L230.958 90.9919C230.752 90.8134 230.338 90.6869 230.101 90.5277C229.984 90.596 229.845 90.5102 229.862 90.6977C229.589 90.2376 229.202 90.1333 228.797 90.0225C228.401 89.919 228.003 89.7992 227.824 89.3716C227.903 89.4219 228.058 89.4077 227.996 89.3641C227.8 89.2834 227.601 89.1783 227.403 89.0813C227.337 89.26 227.408 89.2207 227.434 89.4156C227.306 89.4521 227.097 89.4218 226.964 89.3189C227.277 89.4054 227.132 89.0815 227.101 88.92C227.081 88.9793 227.009 89.0023 226.981 89.0542C226.913 88.5836 226.701 89.3184 226.477 88.8456L226.553 88.781C226.382 88.7063 226.168 88.7013 226.055 88.5472C226.142 88.3336 226.257 88.6026 226.386 88.4757C226.189 88.3046 225.715 88.4221 225.693 88.0952C225.812 88.1418 225.929 88.2463 226.056 88.284C226.031 87.9245 225.975 87.946 225.87 87.783L225.871 87.7993C225.802 87.6659 225.724 87.5415 225.663 87.4073L225.675 87.5378C225.377 87.6062 225.243 87.4951 225.115 87.3507C225.003 87.2047 224.897 87.0336 224.611 86.9693C225.158 87.1082 224.819 86.9091 225.03 86.7829C225.018 86.6524 224.984 86.4664 225.067 86.4752C224.791 86.4183 225.002 86.1194 224.607 86.0241C224.667 85.9692 224.499 85.8366 224.691 85.7779C224.5 85.5816 224.604 85.9011 224.508 85.9345C224.059 85.7043 224.319 84.9487 223.774 84.5629C223.447 84.1406 223.166 84.1252 222.912 83.6799C222.992 83.4834 223.221 83.7338 223.221 83.7338C223.261 83.4506 223.195 83.2675 223.059 83.0415C223.136 83.0756 223.18 83.014 223.254 82.925C223.195 82.733 222.95 82.8378 223.032 82.5671C223.125 82.5997 223.268 82.6359 223.366 82.7173C223.264 82.5047 223.081 82.2995 223.002 82.0601C223.135 81.9903 223.219 82.1881 223.308 82.2622C223.227 82.0065 223.148 81.5944 222.934 81.5071L222.852 81.6792C222.843 81.5813 223.035 81.6212 223.075 81.6916C223.243 81.9146 223.023 82.0252 222.942 82.0408L222.877 81.8659C222.656 81.9684 222.681 82.1471 222.772 82.336C222.872 82.5242 223.021 82.7243 223.037 82.8955L222.683 82.8046C222.784 82.9105 222.916 83.0135 223.025 83.1187C222.951 83.2158 222.787 83.3049 222.698 83.1404C222.593 83.4296 222.848 83.3404 222.74 83.597C222.717 83.6237 222.701 83.6252 222.683 83.6023L222.851 83.8253C222.766 83.792 222.638 83.927 222.64 83.7624C222.572 84.2784 223.109 84.4018 222.918 84.6496L222.883 84.6199C223.23 85.1801 223.136 84.5968 223.576 84.9181C223.428 85.0962 223.296 85.2727 223.158 85.4663L223.408 85.4187C223.431 85.4824 223.467 85.6106 223.371 85.6359C223.623 85.7854 223.445 85.555 223.656 85.6097C223.632 85.801 223.756 85.9788 223.853 86.1426C223.958 86.2974 224.028 86.439 223.884 86.5755C224.098 86.5723 223.846 86.2419 224.128 86.4545C223.82 86.7705 224.4 86.7337 224.408 87.0866C224.183 87.1401 224.114 86.8422 224.13 87.1943C224.519 87.1258 224.415 87.7026 224.635 87.8551C224.864 87.6696 225.077 88.1928 225.45 88.4053C225.357 88.4632 225.905 89.0625 226.14 89.3863L226.102 89.4145C226.341 89.2445 226.621 89.523 226.888 89.6466C226.777 89.7883 226.697 89.8121 226.521 89.7707C226.6 89.8292 226.663 89.8892 226.749 89.9306C226.861 89.8957 226.96 89.9031 227.123 89.9704L226.947 90.1099C227.261 90.3113 227.696 90.3043 228.025 90.6606C228.141 90.4937 228.004 89.9882 228.475 90.1013C228.435 90.2036 228.353 90.3838 228.227 90.3543C228.269 90.3587 228.399 90.3467 228.448 90.4327L228.183 90.4981C228.323 90.6826 228.356 90.4164 228.488 90.5112C228.41 90.6499 228.544 90.6706 228.462 90.7685C228.421 90.7641 228.369 90.6455 228.272 90.6708C228.431 90.7878 228.589 90.9789 228.601 91.1175C228.626 91.033 228.699 90.9277 228.835 90.9728C229.169 91.123 228.856 91.2011 229.019 91.367C229.145 91.3061 229.311 91.5047 229.415 91.2978C229.509 91.3385 229.487 91.4556 229.494 91.529C229.707 91.5177 230.32 91.8397 230.218 91.5366L230.182 91.4988L230.215 91.4958C230.857 91.5027 231.352 92.0657 231.96 92.1498L231.934 92.2261C232.306 92.2414 232.722 92.3923 233.009 92.292C233.111 92.3238 233.217 92.495 233.15 92.5751C233.439 92.5815 233.482 92.5118 233.838 92.7176C233.54 92.7942 233.908 92.8592 233.545 92.7527C233.879 92.9029 233.933 93.0378 234.356 92.9003C234.191 93.0717 234.573 93.2093 234.752 93.1847L234.529 92.9914C234.719 92.9986 234.879 93.0497 235.048 93.0918L234.906 93.3432C235.248 93.5668 235.602 93.485 235.925 93.4225C236.256 93.351 236.539 93.3004 236.789 93.6064C237.004 93.4468 236.411 93.4273 236.606 93.2284C236.935 93.3134 237.251 93.7202 237.359 93.7268C237.819 93.9065 237.829 93.3795 238.301 93.5088C238.243 93.4155 238.202 93.1479 238.566 93.0816C238.9 93.1332 238.958 93.4979 238.742 93.567C238.661 93.5745 238.624 93.5367 238.629 93.5034C238.517 93.5383 238.372 93.5681 238.498 93.6799L238.546 93.585C238.712 93.6849 239.182 93.6994 239.064 93.85C239.328 93.7682 239.182 93.6994 238.988 93.6432C239.422 93.8089 239.664 93.6634 240.117 93.7617C240.046 93.7106 239.978 93.5935 240.044 93.5957C240.696 93.7167 240.332 93.4212 240.771 93.3645C241.022 93.5059 240.688 93.7175 241.136 93.5778C241.415 93.6672 241.2 93.8268 241.092 93.9106C241.494 93.7176 241.866 94.0042 242.105 94.0151L241.892 94.1087C242.018 94.056 242.124 94.0462 242.23 94.0365L242.098 93.8513C242.232 93.8801 242.338 93.8704 242.337 93.9445C242.456 93.8102 242.21 93.6355 242.455 93.4403C242.627 93.5232 242.952 93.2961 243.04 93.5348C242.502 93.5018 243.12 93.7823 242.675 93.8642C242.754 93.8322 242.868 93.8218 242.993 93.835C243.02 93.8572 242.982 93.8936 242.943 93.9136C243.476 94.0785 243.153 93.6066 243.674 93.5506C243.622 93.7033 243.829 93.8077 243.916 93.7668C243.704 93.7863 243.788 93.5401 243.965 93.4087C244.316 93.467 244.315 93.278 244.494 93.2615L244.287 93.2395C244.331 93.0875 244.503 93.0799 244.726 93.0019C244.76 93.1057 244.522 93.111 244.623 93.1428C244.836 92.8602 245.247 93.3077 245.571 93.0724C245.749 93.1382 245.636 93.3377 245.796 93.3725C246.167 93.1164 246.275 93.4848 246.663 93.2354C246.5 93.0776 246.489 93.128 246.745 92.8743C246.531 92.9679 246.311 93.0785 246.08 93.1573C246.209 93.0385 246.337 92.9117 246.466 92.793C246.256 92.8369 246.058 93.0112 245.918 92.9995C246.097 92.8022 246.077 92.8533 245.958 92.7244C246.3 92.9562 246.483 92.4379 246.847 92.5525L246.947 93.012C247.498 93.1094 247.759 92.551 248.429 92.4979L248.205 92.4773C248.244 92.2764 248.587 92.3435 248.764 92.204C248.787 92.3664 248.936 92.3774 249.057 92.4403C249.005 92.3299 249.521 92.3072 249.476 91.9907L249.814 92.0913C250.339 91.9856 250.234 91.469 250.715 91.3344C250.636 91.5554 250.893 91.573 250.619 91.8119C250.778 91.7562 250.931 91.7175 250.889 91.6145C251.017 91.6685 251.249 91.2362 251.446 91.325C251.487 91.2389 251.447 91.0699 251.623 91.0127C251.658 91.0342 251.654 91.0839 251.654 91.0839C251.623 91.0127 251.881 90.8657 251.666 90.7703C252.355 91.0196 252.963 90.1169 253.551 90.2521C253.85 90.0191 254.21 89.7312 254.481 89.5419C254.486 89.599 254.528 89.6116 254.464 89.6257C254.934 89.4675 254.44 89.0935 254.965 88.9055C255.331 88.946 254.827 89.1895 255.014 89.1642C255.393 89.5323 255.49 88.7094 255.958 88.6994L255.907 88.778C256.247 88.7221 256.286 88.1595 256.62 87.8493C256.62 87.8493 256.64 87.8967 256.682 87.9012C256.702 87.4882 257.009 86.9832 257.169 86.5738C257.263 86.7954 257.149 86.8059 257.366 86.8435C257.448 86.6552 257.058 86.7073 257.223 86.3551C257.383 86.3075 257.595 86.1072 257.814 86.1693L257.64 86.5141C257.983 86.4827 257.879 86.0729 258.004 85.9134L258.11 85.986C258.32 85.4076 258.022 85.2951 258.223 84.7093L258.111 84.7443C257.885 84.3456 258.344 84.5091 258.186 84.1289L258.51 84.0745C258.483 83.9619 258.439 83.7521 258.385 83.5186C258.315 83.2948 258.253 83.0621 258.227 82.8672C258.46 83.0842 258.579 83.5667 258.666 83.8876C258.711 83.6615 258.692 83.0959 258.541 82.9781C258.574 83.0656 258.643 83.1908 258.593 83.2776C258.353 82.9872 258.224 82.6537 258.176 82.2223C258.48 82.2272 258.494 81.9299 258.447 81.5889C258.399 81.248 258.298 80.8707 258.475 80.6408C258.018 79.9591 258.007 79.1296 257.54 78.342C257.266 78.8522 257.404 78.116 257.004 78.4076C256.874 78.2468 256.843 78.1757 256.865 78.149C256.844 77.9207 256.823 77.6924 256.794 77.4648C256.833 77.2639 256.993 77.5781 257.068 77.4972C256.858 77.0889 257.142 77.2273 257.087 76.8953C256.968 77.0377 256.791 76.8977 256.703 76.6509L256.717 77.0772C256.156 76.701 256.753 76.3914 256.184 76.016L256.421 76.0929C256.163 75.8782 255.732 75.1201 255.229 75.1087C255.247 75.033 255.308 74.8958 255.415 74.9847C255.011 74.3394 254.072 73.8745 253.876 73.2594L254.005 73.2311C253.89 73.143 253.671 73.1795 253.651 72.9593C253.698 72.9304 253.779 72.9229 253.741 72.8688C253.664 72.8348 253.332 72.709 253.257 72.5186L253.466 72.557C253.074 71.8693 252.428 71.9039 251.9 71.5329C252.148 71.2718 251.748 70.774 251.529 70.531L251.567 70.5028C250.837 69.8873 250.057 69.8108 249.232 69.6069C249.066 69.3179 248.636 69.1107 248.162 68.965C247.687 68.803 247.151 68.7041 246.742 68.5443C246.864 68.6235 246.684 68.8127 246.53 68.8269C246.34 68.7292 245.963 69.0186 246.024 68.6924L246.091 68.7109C245.97 68.3766 245.548 68.44 245.226 68.4202L245.165 68.8369C244.766 68.5199 244.213 68.5871 243.737 68.6801C243.26 68.7731 242.836 68.8943 242.582 68.638C242.396 68.7619 242.16 68.7918 241.991 68.9224L241.97 68.6941C241.437 68.7101 241.167 68.7184 240.524 68.8843L240.631 68.7018C240.265 68.7518 240.286 69.4241 239.955 69.4955L239.795 69.1813C239.172 69.296 238.49 69.1201 237.929 69.5416C237.924 69.4927 237.931 69.3933 238.027 69.3599C237.735 69.4031 236.842 69.3534 237.038 69.7877C236.978 69.489 236.39 69.8883 236.079 70.0894L236.083 69.8589C235.859 70.2 235.866 70.2734 235.487 70.4398C235.387 70.4324 235.366 70.2864 235.499 70.3071C235.166 70.2636 235.301 70.5637 234.895 70.5351L235.003 70.3608C234.679 70.4152 234.718 70.4856 234.58 70.6873C234.403 70.8187 233.964 70.7768 233.865 70.5967C233.852 70.7294 233.723 70.9304 233.517 70.9247C233.469 70.855 233.529 70.792 233.559 70.7645C232.983 70.7598 232.837 71.2254 232.408 71.1249C232.378 71.062 232.342 71.0323 232.308 71.019C232.733 70.8979 233.079 70.8168 233.057 70.8435C232.997 70.6434 232.649 70.7 232.847 70.3529C232.605 70.5725 232.228 71.0428 231.867 71.0512C231.841 71.0372 231.824 71.0224 231.805 70.9994L231.835 70.9638C231.753 70.9713 231.691 71.0099 231.638 71.064C231.523 71.0663 231.449 71.0649 231.337 71.0917C231.24 70.9361 230.913 71.1306 230.737 71.1878C230.822 71.3938 230.595 71.4392 230.859 71.5383C230.826 71.5332 230.881 71.5035 230.991 71.4522C231.015 71.4418 231.046 71.4225 231.061 71.4047L231.063 71.4292C231.166 71.3787 231.31 71.3408 231.477 71.2762C231.376 71.4334 231.264 71.5588 231.046 71.513C231.004 71.6813 230.962 71.8496 230.929 71.9349C230.596 71.7105 230.095 71.7235 229.958 71.5717C229.485 71.8782 228.785 72.1397 228.645 72.6787C228.524 72.7885 228.428 72.6411 228.351 72.6071C228.418 72.5269 228.513 72.4935 228.531 72.4179C228.288 72.6375 227.717 72.8626 227.785 73.1605C227.38 73.2224 227.851 72.8091 227.402 73.1134L227.425 72.9962C226.838 73.0501 226.544 73.4387 226.267 73.8259C225.991 74.2213 225.713 74.5921 225.057 74.7098C225.146 74.6934 225.186 74.6815 225.238 74.7096C224.624 75.0044 224.128 75.5186 223.666 76.0297C223.195 76.5497 222.774 77.0653 222.194 77.4638C221.896 77.7131 222.026 77.8739 222.009 78.1385L221.764 78.0705C221.763 78.2351 221.769 78.3908 221.776 78.5628C221.721 78.8556 221.452 78.9707 221.23 79.1473C220.999 79.3166 220.754 79.5199 220.792 79.9357L220.98 79.9185C220.835 80.1373 220.747 80.6963 220.597 80.5867C220.616 80.6179 220.725 80.723 220.616 80.7906L220.497 80.7521C220.493 80.9745 220.48 81.1977 220.501 81.4178C220.279 81.8658 220.028 81.1899 219.821 81.8995C219.807 82.1886 220.021 82.7281 220.127 82.6361C220.159 82.5345 220.26 82.3854 220.385 82.3987L220.407 82.6351C220.754 82.7513 221.102 82.9578 221.472 82.5046C221.418 82.3697 221.373 82.2341 221.327 82.0903L221.535 82.0219C221.503 82.1235 221.487 82.2236 221.471 82.3155C221.664 82.1827 221.562 82.0523 221.491 81.9026C221.589 81.8936 221.669 81.8699 221.72 81.8075C221.641 81.6586 221.553 81.5023 221.49 81.36C221.639 81.371 221.702 81.6037 221.873 81.4071C221.779 81.1937 221.507 81.4489 221.504 81.1531C221.724 81.0425 221.833 81.1477 221.777 80.8979C221.876 80.9052 221.915 80.9675 221.931 81.0564C221.878 80.8393 222.078 80.5989 221.931 80.4315C222.187 80.3505 222.165 79.8427 222.469 80.0204C222.42 79.9344 222.373 79.6016 222.45 79.4466C222.65 79.9298 222.812 78.92 223.145 79.2348C222.961 78.8406 223.47 78.4651 223.569 78.0202C223.572 78.061 223.595 78.1329 223.555 78.1447C223.721 77.9815 223.847 78.0029 224.005 77.939C223.787 77.7124 223.971 77.3912 223.97 77.1118C224.39 77.1144 224.12 77.4927 224.396 77.6237C224.191 77.4533 224.553 77.0995 224.339 77.0121C224.625 76.986 224.539 76.9445 224.795 77.0526C224.545 76.7466 224.893 76.8627 224.866 76.5692C225.229 76.4947 225.174 76.7876 225.35 76.4672C225.546 76.4493 225.418 76.757 225.418 76.757L225.42 76.7815L225.457 76.8274ZM232.451 72.3955C232.38 72.4267 232.324 72.4483 232.284 72.4602C232.316 72.449 232.364 72.4282 232.451 72.3955ZM233.139 72.1845C233.049 72.1927 232.945 72.2269 232.833 72.2618C232.787 72.2003 232.795 72.1091 232.859 72.095C232.84 72.1543 233.013 72.1549 233.139 72.1845ZM231.185 71.1467C231.294 71.0791 231.346 71.1073 231.374 71.1458C231.319 71.1673 231.264 71.197 231.185 71.2371C231.186 71.2453 231.188 71.2616 231.188 71.2697C231.185 71.229 231.181 71.1882 231.202 71.1452L231.185 71.1467Z" fill="white"/>
<path d="M260.842 2.53241C260.67 2.90172 261.033 2.8273 261.154 2.97251C261.032 3.44408 260.868 3.08912 260.655 3.18269C260.601 3.49186 260.77 3.81346 260.673 4.01147C260.615 4.00855 260.586 4.04415 260.554 3.96486C260.647 4.35101 260.199 4.84434 260.348 5.30754C260.308 5.31944 260.284 5.32983 260.267 5.32317C260.431 5.31637 260.576 5.36889 260.671 5.41775C260.612 5.58755 260.721 5.79133 260.516 5.79371C260.564 5.69063 260.495 5.65585 260.456 5.58545L260.474 5.7893C260.143 5.85257 260.466 5.51873 260.278 5.44548C260.222 5.82063 260.3 6.30687 260.124 6.54497C259.85 6.51257 260.261 5.88287 259.908 6.16188L260.162 5.7851C259.642 5.94785 260.287 5.54333 259.74 5.67571C259.468 6.20226 259.645 6.33408 259.372 6.86062C259.478 7.03179 259.598 6.89751 259.704 7.06867C259.709 7.93156 258.844 7.46818 259.007 8.16859C259.132 8.37087 259.451 8.53075 259.156 8.89497L258.904 8.66313C258.715 9.19851 259.232 9.09358 258.892 9.60165C258.798 9.47051 258.907 9.1398 258.848 9.21916C258.515 9.52929 258.951 9.53044 258.879 9.81664L258.598 9.80945C258.48 10.4041 258.536 11.0979 258.456 11.7548C258.386 11.7037 258.324 11.5695 258.214 11.7112C258.194 12.5682 257.875 13.4855 257.636 14.2885L257.839 14.6234C257.829 14.6901 257.719 14.7495 257.678 14.6628C257.559 14.978 257.829 14.6901 257.901 14.848C257.901 15.0289 257.749 15.0757 257.688 14.9497C257.841 15.536 258.025 16.5551 257.775 17.1454L257.706 17.0283C257.61 17.4977 258.189 17.5432 257.982 17.9733L257.934 17.8955C257.853 18.8978 258.156 19.9636 257.901 20.7681C258.257 20.8835 257.875 21.7326 258.343 21.7308C258.254 22.0103 258.18 22.0993 258.117 22.2202C258.054 22.3411 258.001 22.4857 257.914 22.7897C257.879 22.9491 258.193 23.0519 258.205 23.2728L257.963 23.2374C258.03 23.3382 258.098 23.4471 258.156 23.5486C258.051 23.5665 257.937 23.577 257.831 23.5867L257.831 23.7676C257.866 23.7067 257.987 23.6711 258.047 23.7066C258.062 23.8697 257.927 24.0136 257.804 24.0989C257.663 24.1776 257.534 24.2059 257.481 24.1615C257.409 24.3654 257.322 24.5871 257.176 24.7896C257.119 24.7044 257.193 24.6072 257.199 24.4997C257.107 24.9275 256.988 24.3464 256.892 24.7335C256.959 24.752 256.961 24.8587 256.982 24.9061C256.758 24.8937 256.432 25.0964 256.186 25.2834L256.169 25.104C255.684 25.28 255.127 25.5777 254.507 25.6264C254.734 25.6878 254.729 25.9843 254.535 26.0267L254.438 25.7725C254.323 25.9476 254.643 25.8524 254.408 26.0713C254.151 26.0537 254.233 25.7831 254.357 25.6977L254.078 25.7973C254.063 25.7165 254.125 25.6779 254.141 25.5778C254.025 25.7528 253.656 25.3098 253.466 25.5739L253.459 25.4923C252.828 25.435 252.518 25.4553 251.997 25.3304C251.926 25.5506 251.735 25.4366 251.524 25.5628C251.153 25.3666 250.802 25.037 250.349 24.8483C249.991 24.7989 250.172 24.9797 249.97 25.0228C250.035 24.8278 249.596 24.6132 249.891 24.6026C249.357 24.3391 249.211 24.2703 248.493 23.9743C248.503 24.0885 248.569 24.1811 248.489 24.2048C248.352 24.1434 248.276 23.9448 248.361 23.8795L248.401 23.8758C247.963 23.7516 247.659 23.3107 247.391 22.8995C247.122 22.4801 246.889 22.0822 246.493 21.9869L246.536 21.9995C246.311 21.8803 246.094 21.7522 245.877 21.6323C245.68 21.3626 246.128 21.6751 246.053 21.4024C245.272 21.0464 245.275 20.4459 244.682 20.0809C244.834 19.3106 243.534 18.6815 243.446 17.8921L243.357 18.007C243.138 17.9449 243.296 17.7906 243.244 17.6639C243.169 17.7447 243.256 17.8929 243.13 17.8552C242.106 16.7322 241.537 15.1892 240.917 13.8153C240.683 13.3188 240.11 13.8893 240.088 13.1102L240.414 13.1708C239.613 12.3233 239.429 11.1233 238.81 10.2016C238.888 10.2438 238.967 10.2118 239.001 10.3156C239.091 10.036 238.739 9.51738 238.578 9.5568C238.538 9.38781 238.703 9.47961 238.749 9.35206C238.791 9.10147 238.343 8.87942 238.5 8.70064C238.522 8.67394 238.578 8.74283 238.606 8.78136C238.48 8.66137 238.445 8.10541 238.274 8.30199C238.277 7.8824 237.993 7.57127 238.06 7.22799C237.774 7.06512 238.054 6.52968 237.7 6.52106C238.058 6.48816 237.887 5.78034 237.692 5.54327C237.806 5.61509 237.786 5.31264 237.95 5.39628C237.924 5.1109 237.835 4.85596 237.651 4.91392C238.053 4.36726 237.273 3.83857 237.829 3.54087C237.652 2.68552 237.618 1.8664 237.686 1.07907C237.863 1.1286 237.824 1.33768 237.802 1.54526C237.78 1.75285 237.766 1.95153 237.964 1.95805C237.913 1.2227 237.703 0.732117 237.978 0.049149C238.078 -0.116243 238.098 0.194353 238.146 0.272153C238.193 -0.472165 238.6 -1.05219 238.688 -1.70981C238.715 -1.68759 238.721 -1.61421 238.719 -1.54823C238.758 -1.66687 238.895 -1.78633 238.74 -1.85441L238.728 -1.7217C238.423 -1.63621 238.501 -2.39983 238.403 -2.48945C238.712 -2.07382 238.823 -3.01315 239.174 -2.41222C239.191 -2.496 239.171 -2.63387 239.061 -2.66492C239.151 -2.75543 239.225 -2.76216 239.274 -2.58576C239.422 -3.02696 239.197 -2.97341 239.428 -3.3235C239.49 -3.27165 239.473 -3.18787 239.53 -3.10266C239.507 -3.36359 239.506 -3.63491 239.78 -3.88198C239.809 -3.8353 239.883 -3.83388 239.817 -3.74561C240.15 -4.23662 240.145 -4.82819 240.734 -5.21933C240.835 -4.83392 240.982 -5.29143 241.214 -5.09887C241.278 -5.20344 241.343 -5.30802 241.408 -5.40444C241.334 -5.40587 241.275 -5.41694 241.201 -5.41836C241.437 -5.62093 241.512 -5.97311 241.783 -6.06377C241.741 -5.9859 241.715 -5.90952 241.674 -5.82349C241.809 -5.96742 241.962 -6.08837 242.106 -6.22488L241.771 -6.11194C241.939 -6.43158 241.515 -6.3927 241.908 -6.58501C241.849 -6.5138 242.179 -6.77426 242.414 -6.71365C242.498 -6.87755 242.58 -7.05776 242.83 -7.11355C242.934 -7.05729 242.949 -6.80377 243.018 -6.76899C243.021 -6.91725 243.175 -7.0219 243.33 -7.1347C243.493 -7.23194 243.664 -7.33808 243.691 -7.49675C243.658 -7.41147 243.712 -7.26844 243.755 -7.24771L243.79 -7.48941C243.954 -7.49621 243.982 -7.46584 244.009 -7.34503C244.434 -7.46619 243.735 -7.64875 244.291 -7.68329C244.252 -7.65509 244.288 -7.62546 244.218 -7.57796C244.726 -7.6903 245.147 -8.02496 245.657 -8.03055C245.854 -7.76087 245.26 -7.87086 245.477 -7.65234C246.107 -7.86633 246.828 -8.25313 247.517 -8.18472L247.391 -8.21428C247.484 -8.63394 247.895 -8.01378 248.248 -8.19419C248.161 -8.16151 248.13 -7.96133 248.15 -8.00434C248.603 -7.91425 249.093 -8.0414 249.83 -8.06793L249.723 -7.97592C249.983 -7.83528 250.431 -7.79411 250.72 -7.68907C250.827 -7.77293 250.996 -7.72265 250.922 -7.90495C251.687 -7.0953 252.75 -7.79297 253.417 -7.05662C253.324 -7.08917 253.165 -7.03344 253.241 -7.00756L253.958 -6.90063C253.956 -7.09782 253.904 -7.03551 253.798 -7.21482C253.914 -7.29127 254.134 -7.31146 254.303 -7.26118C253.953 -7.22903 254.223 -6.97423 254.318 -6.83493C254.312 -6.89201 254.374 -6.93876 254.384 -7.00549C254.645 -6.57721 254.551 -7.34144 254.978 -6.98594L254.92 -6.89842C255.118 -6.8919 255.326 -6.96027 255.514 -6.87887C255.535 -6.65056 255.295 -6.84237 255.229 -6.67182C255.507 -6.59865 255.899 -6.8977 256.081 -6.61837C255.943 -6.5975 255.782 -6.64853 255.636 -6.62692C255.838 -6.30016 255.883 -6.35357 256.081 -6.25661L256.065 -6.25511L256.498 -6.01527L256.397 -6.1212C256.909 -6.54637 257.131 -6.00761 257.713 -6.21712C257.155 -6.01801 257.58 -6.04873 257.477 -5.82552C257.576 -5.72774 257.737 -5.59443 257.667 -5.54693C257.943 -5.67095 257.987 -5.28846 258.39 -5.46521C258.381 -5.38218 258.619 -5.38755 258.512 -5.21326C258.819 -5.18385 258.481 -5.36669 258.539 -5.45421C259.062 -5.5762 259.485 -4.82557 260.227 -4.98406C260.82 -4.96451 260.997 -5.1863 261.551 -5.15486C261.682 -4.98594 261.325 -4.92858 261.325 -4.92858C261.565 -4.73676 261.783 -4.69097 262.07 -4.69268C262.001 -4.64518 262.032 -4.57404 262.091 -4.46437C262.301 -4.41784 262.309 -4.6899 262.556 -4.50699C262.481 -4.43429 262.375 -4.32597 262.257 -4.27399C262.529 -4.26604 262.811 -4.33298 263.091 -4.32579C263.121 -4.17236 262.874 -4.17439 262.765 -4.115C263.064 -4.08484 263.548 -4.0059 263.696 -4.18393L263.536 -4.31724C263.645 -4.29435 263.537 -4.12005 263.448 -4.11183C263.151 -4.02709 263.119 -4.28726 263.12 -4.36955L263.318 -4.36303C263.264 -4.85967 262.564 -4.5159 262.197 -4.65498L262.443 -4.93242L261.988 -4.7838C261.937 -4.89422 261.936 -5.08325 262.125 -5.08414C261.906 -5.31897 261.857 -5.04316 261.679 -5.28172C261.659 -5.321 261.675 -5.33065 261.707 -5.33364L261.422 -5.30747C261.491 -5.36312 261.449 -5.55657 261.589 -5.46253C261.181 -5.78691 260.775 -5.45374 260.675 -5.74055L260.716 -5.74429C260.042 -5.83049 260.587 -5.53514 260.016 -5.40051L259.871 -6.07796L259.735 -5.85991C259.675 -5.88729 259.547 -5.9413 259.604 -6.02882C259.308 -5.94408 259.615 -5.91467 259.427 -5.80703C259.177 -6.12115 258.524 -5.97905 258.562 -6.36901C258.395 -6.2221 258.822 -6.13792 258.445 -6.11984C258.471 -6.54982 258.03 -6.16399 257.799 -6.43884C257.947 -6.61687 258.195 -6.4258 257.956 -6.6999C257.671 -6.40241 257.415 -6.95449 257.151 -6.95503C257.054 -6.67473 256.588 -7.00203 256.149 -7.03579C256.207 -7.12331 255.422 -7.4296 255.066 -7.64356L255.086 -7.68657C254.929 -7.4255 254.543 -7.60386 254.244 -7.63402C254.303 -7.80382 254.38 -7.85207 254.559 -7.87667L254.288 -7.95875C254.197 -7.88454 254.1 -7.86742 253.917 -7.88358L254.047 -8.07643C253.677 -8.17399 253.245 -8.04392 252.809 -8.31638C252.727 -8.12802 253.025 -7.66197 252.498 -7.66304C252.512 -7.77944 252.537 -7.96256 252.684 -7.96787C252.635 -7.96338 252.516 -7.91955 252.436 -7.9862L252.68 -8.10723C252.494 -8.24645 252.526 -7.98628 252.364 -8.05361C252.408 -8.20561 252.261 -8.19215 252.324 -8.31304C252.373 -8.31752 252.456 -8.2101 252.535 -8.25019C252.347 -8.33159 252.135 -8.48487 252.09 -8.6205C252.082 -8.52931 252.043 -8.41067 251.886 -8.42908C251.516 -8.51033 251.808 -8.644 251.607 -8.77357C251.492 -8.68897 251.279 -8.85857 251.218 -8.62278C251.108 -8.65383 251.115 -8.76133 251.084 -8.83247C250.867 -8.77966 250.165 -8.98668 250.34 -8.69845L250.383 -8.66957L250.351 -8.66658C249.679 -8.54744 249.037 -9.00655 248.376 -8.94599L248.369 -9.02753C247.989 -8.95977 247.508 -9.0061 247.236 -8.825C247.122 -8.81453 246.961 -8.96415 247.001 -9.05833C246.703 -8.9899 246.689 -8.88165 246.236 -8.97989C246.524 -9.15433 246.118 -9.09248 246.536 -9.10615C246.138 -9.14365 246.023 -9.23993 245.645 -8.96683C245.755 -9.19894 245.298 -9.15707 245.127 -9.05093L245.439 -8.97259C245.232 -8.89608 245.052 -8.87963 244.866 -8.84612L244.897 -9.13674C244.45 -9.16975 244.118 -8.93375 243.844 -8.70299C243.552 -8.47888 243.316 -8.26816 242.903 -8.37829C242.795 -8.12171 243.366 -8.44537 243.283 -8.17473C242.932 -8.06029 242.41 -8.19332 242.3 -8.14208C241.761 -8.01045 242.09 -7.55554 241.591 -7.35351C241.701 -7.3143 241.89 -7.14247 241.638 -6.83981C241.334 -6.65573 241.034 -6.88307 241.18 -7.08557C241.248 -7.14937 241.298 -7.14571 241.316 -7.12274C241.389 -7.21991 241.493 -7.34453 241.32 -7.34514L241.33 -7.23914C241.126 -7.22045 240.722 -6.87912 240.72 -7.07631C240.554 -6.82265 240.73 -6.87987 240.918 -6.97936C240.46 -6.77291 240.337 -6.49853 239.919 -6.21353C240.017 -6.23066 240.143 -6.20111 240.09 -6.14695C239.496 -5.72245 239.999 -5.79327 239.696 -5.42015C239.402 -5.31094 239.495 -5.7306 239.266 -5.27377C239.002 -5.10158 239.033 -5.38405 239.044 -5.53306C238.89 -5.06665 238.408 -4.94025 238.23 -4.73476L238.306 -4.9802C238.253 -4.8356 238.18 -4.73843 238.115 -4.64201L238.354 -4.63923C238.248 -4.53907 238.174 -4.4419 238.112 -4.49374C238.13 -4.29805 238.432 -4.408 238.422 -4.06995C238.242 -3.97122 238.207 -3.54864 237.962 -3.61665C238.349 -4.06322 237.709 -3.69206 237.947 -4.14149C237.923 -4.04065 237.85 -3.94348 237.753 -3.83591C237.712 -3.83217 237.716 -3.88185 237.729 -3.91596C237.246 -3.53454 237.846 -3.5402 237.555 -3.03662C237.461 -3.16776 237.25 -3.04157 237.235 -2.94148C237.347 -3.15729 237.49 -2.93204 237.496 -2.69408C237.234 -2.40699 237.384 -2.29739 237.31 -2.12609C237.361 -2.1884 237.397 -2.24922 237.441 -2.30263C237.535 -2.17964 237.451 -2.01575 237.392 -1.76365C237.283 -1.78655 237.411 -2.00385 237.335 -1.9393C237.449 -1.588 236.855 -1.43483 236.886 -1.00192C236.735 -0.856506 236.625 -1.06844 236.514 -0.934912C236.567 -0.446426 236.174 -0.517285 236.213 -0.0109956C236.427 -0.096415 236.391 -0.12604 236.49 0.234904C236.508 -0.0216054 236.524 -0.286268 236.558 -0.544273C236.6 -0.358976 236.642 -0.17368 236.7 0.0101206C236.745 -0.216016 236.719 -0.493248 236.782 -0.614132C236.865 -0.342134 236.828 -0.379913 237.012 -0.43788C236.638 -0.21445 237.013 0.203358 236.744 0.499354L236.282 0.385555C235.958 0.892128 236.326 1.40112 236.125 2.08552C236.16 2.01655 236.202 1.93867 236.236 1.86155C236.403 1.97781 236.219 2.29894 236.273 2.53241C236.122 2.49695 236.044 2.63564 235.946 2.7269C236.06 2.71643 235.912 3.25622 236.223 3.3264C236.15 3.43173 236.077 3.53705 236.013 3.64163C235.919 4.22586 236.467 4.29066 236.435 4.8363C236.256 4.68002 236.156 4.93585 236.016 4.57049C236.025 4.75878 235.998 4.91744 236.106 4.92403C236.018 5.039 236.365 5.41829 236.225 5.59557C236.305 5.66223 236.471 5.67173 236.481 5.87633C236.451 5.90378 236.4 5.8838 236.4 5.8838C236.481 5.87633 236.543 6.19134 236.697 5.9881C236.269 6.61114 236.968 7.50907 236.665 8.06307C236.799 8.44548 236.979 8.88939 237.084 9.22512C237.026 9.21405 237.004 9.24891 237.006 9.17477C237.012 9.69221 237.522 9.34116 237.542 9.91493C237.393 10.2657 237.315 9.68085 237.283 9.87288C236.82 10.1127 237.563 10.4968 237.424 10.9536L237.359 10.8773C237.291 11.2124 237.8 11.47 237.948 11.9169C237.948 11.9169 237.899 11.9214 237.877 11.9481C238.247 12.1361 238.583 12.6562 238.847 13.0267C238.605 12.9913 238.662 12.8875 238.513 13.0573C238.627 13.2278 238.782 12.8599 239.01 13.1926C238.968 13.3609 239.012 13.6611 238.836 13.8006L238.649 13.4642C238.479 13.7676 238.878 13.9036 238.929 14.1045L238.809 14.1402C239.127 14.6455 239.401 14.497 239.698 15.0454L239.746 14.9423C240.186 15.0746 239.735 15.2722 240.114 15.4513L239.898 15.7013C240.085 15.8568 240.57 16.2152 240.845 16.5189C240.518 16.4584 240.167 16.1207 239.895 15.94C240.012 16.1349 240.315 16.5757 240.522 16.5896C240.443 16.5311 240.315 16.4771 240.314 16.3785C240.676 16.4768 240.969 16.7131 241.209 17.0858C240.659 17.3664 241.733 18.1314 241.543 18.6667C242.19 19.1748 242.389 19.9953 242.987 20.6968C243.159 20.1466 243.162 20.9028 243.517 20.5496C243.678 20.6992 243.718 20.7696 243.704 20.8037L243.891 21.4938C243.885 21.6998 243.677 21.4064 243.603 21.4873C243.876 21.8733 243.572 21.7779 243.676 22.1055C243.767 21.9409 243.977 22.0778 244.107 22.3209L244.025 21.8843C244.656 22.213 244.091 22.6019 244.746 22.9283L244.487 22.8781C244.784 23.0728 245.387 23.8233 245.916 23.7665C245.924 23.8481 245.889 24.0075 245.759 23.929C246.335 24.5668 247.437 24.8358 247.842 25.3989L247.717 25.4679C247.87 25.5278 248.068 25.4358 248.177 25.6477C248.14 25.684 248.06 25.716 248.114 25.7604C248.214 25.7759 248.587 25.8075 248.726 25.9757L248.505 25.9959C249.166 26.5602 249.802 26.3292 250.452 26.5081C250.31 26.8418 250.901 27.1905 251.217 27.3259L251.189 27.3696C252.156 27.6921 252.942 27.4802 253.845 27.3727C254.118 27.5779 254.647 27.6034 255.2 27.5362C255.753 27.4691 256.33 27.3011 256.831 27.214C256.667 27.2126 256.75 26.9501 256.896 26.8462C257.141 26.8238 257.336 26.3537 257.463 26.6545L257.383 26.6865C257.689 26.8805 258.086 26.548 258.392 26.298L258.169 25.9319C258.738 25.8633 259.195 25.2788 259.412 24.6915C259.646 24.1027 259.686 23.5563 259.994 23.3226C259.92 23.058 259.943 22.7681 259.84 22.5391L260.063 22.5515C260.119 21.9051 260.107 21.5937 259.969 20.8992L260.145 21.0229C260.109 20.6315 259.434 20.6276 259.378 20.2792L259.701 20.1344C259.625 19.4836 259.876 18.811 259.539 18.1841C259.589 18.1878 259.689 18.2114 259.707 18.3167C259.696 18.0135 259.912 17.1386 259.445 17.2472C259.74 17.2365 259.474 16.5785 259.35 16.2116L259.569 16.2737C259.294 15.9618 259.211 15.953 259.155 15.5223C259.187 15.4207 259.346 15.4473 259.275 15.5771C259.41 15.2523 259.078 15.3074 259.222 14.9077L259.352 15.0685C259.395 14.7275 259.323 14.7505 259.173 14.5505C259.095 14.3274 259.295 13.9143 259.506 13.8786C259.385 13.8156 259.251 13.6141 259.333 13.4258C259.414 13.4101 259.454 13.4887 259.466 13.5287C259.688 12.9903 259.328 12.6533 259.624 12.2972C259.698 12.2987 259.738 12.2868 259.769 12.2593C259.678 12.7034 259.611 13.0549 259.6 13.023C259.8 13.054 259.891 12.7003 260.135 13.0315C260.025 12.721 259.786 12.1755 259.937 11.8492C259.96 11.8388 259.983 11.8203 260.016 11.8173L260.02 11.8581C260.062 11.7802 260.055 11.7068 260.04 11.6342C260.096 11.5303 260.139 11.4606 260.163 11.3598C260.343 11.3515 260.341 10.9734 260.383 10.8051C260.158 10.7682 260.245 10.5465 260.014 10.7239C260.036 10.6972 260.034 10.7631 260.021 10.8877C260.023 10.9121 260.018 10.9455 260.029 10.9692L260.011 10.9544C259.989 11.0716 259.962 11.2302 259.929 11.4059C259.848 11.2407 259.783 11.0739 259.948 10.9026C259.83 10.7818 259.703 10.6455 259.646 10.5685C260.009 10.3955 260.299 9.97417 260.503 9.95547C260.508 9.38762 260.781 8.68019 260.475 8.21489C260.476 8.05031 260.651 8.07538 260.73 8.04344C260.739 8.14129 260.7 8.24362 260.747 8.31327C260.742 7.98487 261.001 7.41014 260.747 7.23613C261.004 6.90012 260.922 7.53252 261.071 7.00088L261.129 7.1024C261.94 6.25518 261.034 5.16245 262.071 4.27798C262.011 4.34104 261.972 4.36924 261.914 4.36632C262.696 3.2011 262.841 1.65016 263.832 0.61376C264.083 0.302952 263.932 0.1852 263.915 -0.0927799L264.173 -0.0588814L264.103 -0.545872C264.187 -1.15382 265.083 -1.16193 265.082 -1.98405L264.894 -1.96685C265.038 -2.19381 265.191 -2.75881 265.335 -2.63216C265.323 -2.67218 265.222 -2.78627 265.348 -2.839L265.469 -2.78424L265.579 -3.4604C265.896 -3.85948 265.986 -3.15233 266.347 -3.7857C266.43 -4.04819 266.384 -4.63602 266.265 -4.59219C266.207 -4.50467 266.062 -4.38446 265.951 -4.43182L266.01 -4.68391C265.703 -4.89421 265.456 -5.24984 264.936 -4.83207L264.939 -4.34726L264.72 -4.31076L264.88 -4.62965C264.634 -4.53309 264.709 -4.34263 264.725 -4.1714C264.625 -4.18689 264.536 -4.16235 264.468 -4.1067L264.583 -3.56637C264.432 -3.59368 264.415 -3.87166 264.213 -3.65578C264.269 -3.406 264.59 -3.66571 264.53 -3.33133C264.285 -3.22661 264.192 -3.3496 264.209 -3.07162C264.109 -3.08711 264.078 -3.15825 264.084 -3.26575C264.081 -3.02704 263.861 -2.74368 263.985 -2.54956C263.706 -2.45816 263.701 -1.8903 263.396 -2.06798C263.446 -1.97387 263.472 -1.6062 263.398 -1.42674C263.186 -1.94179 263.045 -0.78597 262.682 -1.07332C262.9 -0.665763 262.406 -0.135333 262.387 0.37619C262.375 0.336168 262.336 0.265774 262.375 0.237573C262.23 0.456375 262.093 0.485394 261.956 0.604853C262.227 0.777367 262.107 1.17481 262.191 1.46311C261.779 1.63246 261.938 1.12453 261.639 1.09437C261.87 1.18834 261.631 1.72005 261.868 1.70652C261.594 1.855 261.693 1.86233 261.405 1.86404C261.745 2.07134 261.37 2.10574 261.503 2.38956C261.181 2.64112 261.135 2.32461 261.074 2.73312C260.888 2.85707 260.903 2.4775 260.903 2.4775L260.921 2.50047L260.842 2.53241ZM258.506 11.7666C258.507 11.6843 258.517 11.6176 258.529 11.5672C258.533 11.6079 258.522 11.6665 258.506 11.7666ZM258.373 12.5518C258.397 12.4591 258.419 12.3419 258.441 12.2166C258.522 12.2091 258.591 12.2439 258.582 12.3188C258.544 12.2647 258.462 12.4449 258.381 12.551L258.373 12.5518ZM260.217 11.2315C260.228 11.3538 260.173 11.3835 260.124 11.388C260.136 11.3294 260.138 11.2634 260.146 11.1723C260.146 11.1723 260.128 11.1574 260.119 11.15C260.162 11.1708 260.197 11.1922 260.216 11.2233L260.217 11.2315Z" fill="white"/>
</g>
<path d="M187.149 22.6627C178.356 26.804 153.973 35.819 151.144 32.1903C148.316 28.5616 168.084 13.6428 176.877 9.51173C185.669 5.3807 198.749 0.25976 201.59 3.889C204.432 7.51824 195.942 18.5317 187.149 22.6627Z" fill="#10423E"/>
<path d="M101.929 44.1685C75.3055 54.5038 40.0028 28.0188 28.7165 1.41031C17.4303 -25.1982 46.6473 -55.6723 73.2704 -66.0076C99.8936 -76.3428 117.462 -56.3573 128.749 -29.7488C140.019 -3.11634 128.552 33.8333 101.953 44.1854L101.929 44.1685Z" fill="#2CB5A9"/>
<path d="M176.622 63.9742C173.902 60.8772 173.691 55.6982 176.892 52.8869C180.093 50.0757 185.358 53.4887 188.078 56.5857C190.798 59.6827 189.296 67.0358 186.095 69.847C182.894 72.6582 179.343 67.0724 176.623 63.9753L176.622 63.9742Z" fill="#93D930"/>
</svg>
