<svg width="65" height="67" viewBox="0 0 65 67" fill="none" xmlns="http://www.w3.org/2000/svg">
<path d="M7.37135 23.2294C-13.9138 18.6955 -35.722 16.8684 -40.258 38.2195C-44.794 59.5707 -30.3653 96.0273 -9.08014 100.561C12.205 105.095 32.5698 101.403 37.1059 80.0515C41.6419 58.7003 28.6847 27.7994 7.37135 23.2294Z" fill="#AF9F6E"/>
<path d="M26.3861 14.4328C27.7445 11.4204 33.0876 9.32657 35.8741 10.6197C38.6606 11.9129 41.6079 13.971 40.2494 16.9834C38.891 19.9958 33.7458 22.8352 30.9619 21.5348C28.1779 20.2344 25.0276 17.4453 26.3886 14.4256L26.3861 14.4328Z" fill="#F5F3ED" stroke="#4F462B" stroke-miterlimit="10"/>
<path d="M59.2867 37.1101C59.6702 43.0492 55.2071 48.2152 49.312 48.6419C43.4212 49.0701 39.9859 47.5947 39.5982 41.6541C39.2105 35.7135 43.0268 29.4248 48.9234 28.9938C54.82 28.5627 58.9005 31.1652 59.2882 37.1058L59.2867 37.1101Z" fill="#EF6343"/>
</svg>
