
	<svg width="66" height="81" viewBox="0 0 66 81" fill="none" xmlns="http://www.w3.org/2000/svg">
<path d="M42.2328 26.6466C37.7273 5.35536 30.5361 -15.3139 9.18368 -10.7836C-12.1687 -6.25319 -39.618 21.7434 -35.1125 43.0346C-30.6071 64.3259 -18.9587 81.4336 2.39365 76.9033C23.746 72.3729 46.7168 47.9782 42.2328 26.6466Z" fill="#AF9F6E"/>
<path d="M57.9969 40.4467C61.3014 40.464 65.3855 44.4955 65.3361 47.567C65.2866 50.6385 64.6036 54.1678 61.2991 54.1505C57.9946 54.1332 53.3096 50.5855 53.3667 47.5133C53.4238 44.4412 54.6924 40.4294 58.0045 40.4461L57.9969 40.4467Z" fill="#F5F3ED" stroke="#4F462B" stroke-miterlimit="10"/>
<path d="M50.6436 79.7237C45.3726 82.4871 38.8389 80.508 36.0538 75.2948C33.2691 70.0861 33.2214 66.3477 38.492 63.5798C43.7627 60.8118 51.0595 61.7438 53.8491 66.9566C56.6388 72.1694 55.9187 76.9553 50.6481 79.7233L50.6436 79.7237Z" fill="#EF6343"/>
</svg>