<svg width="164" height="132" viewBox="0 0 164 132" fill="none" xmlns="http://www.w3.org/2000/svg">
<path d="M49.9746 11.3223C54.6574 7.71572 65.551 6.07442 67.7451 8.83437C69.9391 11.5943 67.6087 18.1335 62.9259 21.7401C58.2432 25.3468 52.3286 25.8441 50.1411 23.0828C47.9535 20.3215 45.2919 14.929 49.9746 11.3223Z" fill="#F5F3ED" stroke="#4F462B" stroke-miterlimit="10"/>
<path d="M109.366 -63.9664C67.7602 -94.4174 81.4542 -52.6537 83.7828 -29.3455C85.8114 -9.08705 94.7243 24.0262 108.224 25.1188C121.724 26.2114 132.032 -5.17364 132.659 -25.39C133.286 -45.6063 120.521 -55.8076 109.366 -63.9664Z" fill="#DA3B9B"/>
<mask id="mask0_412_369" style="mask-type:alpha" maskUnits="userSpaceOnUse" x="-54" y="-4" width="96" height="110">
<path d="M-14.4981 105.523C-40.7779 106.618 -52.0285 72.5413 -53.0432 46.6211C-54.0578 20.7009 -20.1875 -2.77742 6.09234 -3.87239C32.3721 -4.96735 40.7978 22.326 41.8238 48.2447C42.8498 74.1634 11.793 104.427 -14.4868 105.522L-14.4981 105.523Z" fill="#93D930"/>
</mask>
<g mask="url(#mask0_412_369)">
<path d="M-14.4981 105.523C-40.7779 106.618 -52.0285 72.5413 -53.0432 46.6211C-54.0578 20.7009 -20.1875 -2.77742 6.09234 -3.87239C32.3721 -4.96735 40.7978 22.326 41.8238 48.2447C42.8498 74.1634 11.793 104.427 -14.4868 105.522L-14.4981 105.523Z" fill="#93D930"/>
<path d="M28.6915 33.1857L27.6224 32.9471C28.1171 33.0839 28.4495 33.1485 28.6915 33.1857Z" fill="white"/>
<path d="M35.7511 36.6444L36.0549 36.4997C35.6624 36.4597 35.4739 36.4847 35.7511 36.6444Z" fill="white"/>
<path d="M23.3791 0.224429C22.0431 -1.32533 20.1466 -2.97925 20.1425 -2.29302L20.479 -1.49363C21.7934 -0.989879 22.7088 -0.396536 23.386 0.223243L23.3791 0.224429Z" fill="white"/>
<path d="M8.88877 47.5135C8.78061 47.382 8.67245 47.2505 8.55617 47.1133C8.10127 47.0839 7.67413 47.0498 7.29793 47.0213C7.77992 47.1674 8.31184 47.355 8.88759 47.5065L8.88877 47.5135Z" fill="white"/>
<path d="M11.1231 45.8755C11.6711 46.3246 12.2364 46.7492 12.7971 47.189C12.4381 46.8433 11.896 46.4289 11.1231 45.8755Z" fill="white"/>
<path d="M34.2624 28.5591C33.5533 28.3375 33.212 28.3459 33.1766 28.4733C33.9099 28.6693 34.3408 28.767 34.2624 28.5591Z" fill="white"/>
<path d="M10.2971 88.5901C9.79022 88.591 8.9593 88.5759 8.18471 88.4726C8.55771 88.566 9.19437 88.6143 10.2971 88.5901Z" fill="white"/>
<path d="M40.0393 67.2006C40.1041 67.2038 40.1747 67.1988 40.2545 67.2066C40.434 66.9617 40.4278 66.8414 40.3839 66.8774C40.3308 66.9008 40.2134 67.0494 40.0393 67.2006Z" fill="white"/>
<path d="M10.4375 28.9966C11.2695 29.2686 12.0979 29.5197 12.9184 29.808C9.77537 30.3451 7.66433 29.9847 9.93606 30.8675C10.1776 29.9408 12.6291 30.0788 15.0594 30.4275C16.2706 30.6204 17.4819 30.8133 18.4368 30.8857C19.3861 30.9663 20.0916 30.8743 20.2946 30.4326C20.8152 30.6792 21.3163 30.9792 21.8208 31.2572C21.3596 31.1075 21.2605 31.1958 20.8062 31.0449C23.6823 32.8314 23.5539 30.3254 27.5243 32.0391C28.8786 32.6931 29.7088 33.3724 28.6978 33.181C29.7637 33.4844 30.8502 33.7415 31.9162 34.0877C32.7721 34.5413 32.413 34.7383 31.5652 34.2905L33.8631 35.326L36.1208 36.4612L36.0619 36.4927C36.8283 36.5902 38.4826 37.0358 39.2706 37.301C40.2049 38.2554 38.6241 37.1116 38.7692 37.501L41.3835 38.6752C42.0371 39.7417 39.8554 38.8007 38.2633 37.716C38.8619 39.2132 39.372 39.4403 40.2934 39.7755C40.7569 39.9391 41.2775 40.1858 41.9516 40.6204C42.2823 40.8424 42.6572 41.1139 43.0545 41.4745C43.439 41.8444 43.8655 42.2928 44.3156 42.8371C43.5777 42.3634 42.8824 41.8467 42.1169 41.4205C42.4794 42.3297 43.0564 43.0737 43.8209 43.8285C44.5879 44.5972 45.4233 45.4327 45.7499 46.3409C45.7482 46.2056 45.6728 45.89 45.5149 45.4671C45.3569 45.0442 45.0967 44.5245 44.8783 44.0406C44.4138 43.0774 44.2558 42.3617 45.5735 43.1363C46.1074 43.7948 46.8335 44.4919 47.8758 45.2421C47.6047 45.4527 47.6858 45.7602 47.8493 46.1321C47.9275 46.2973 48.0117 46.4971 48.1121 46.7085C48.1857 46.8887 48.2477 47.0423 48.289 47.2423C47.9836 47.2517 47.6862 47.2668 47.3831 47.29C47.5495 47.5115 47.7076 47.6845 47.8726 47.8562C48.0377 48.028 48.2247 48.2031 48.277 48.5512C47.9502 48.9784 47.5174 48.9952 47.2461 48.8702C47.1001 48.8094 46.9759 48.7093 46.8713 48.5986C46.7724 48.4798 46.6724 48.3541 46.5354 48.2633C46.0097 48.4459 45.7648 48.5592 45.8022 48.6528C45.8327 48.7475 46.0888 48.8252 46.331 48.9052C46.5743 48.9921 46.7957 49.0757 46.7998 49.225C46.79 49.3766 46.5804 49.6124 45.6466 49.9148C44.9712 50.0159 44.2148 50.1023 43.5233 50.2348C42.8342 50.3811 42.1531 50.4904 41.4618 50.6656C40.7694 50.834 40.0525 50.985 39.2804 51.1884C38.5011 51.3502 37.6595 51.5654 36.7159 51.7266C34.477 51.4952 37.0839 51.1639 36.2729 50.9312C35.6341 51.2046 34.9825 51.4445 34.3227 51.6786C33.8412 51.661 33.9965 51.4416 34.0771 51.3279C32.4071 51.5847 33.9339 52.245 31.2636 52.3728C30.8721 52.8396 29.5163 52.3858 27.8928 51.8278C26.2657 51.2489 24.4046 50.5958 22.6925 50.7313C21.9756 50.2969 23.2022 50.2872 23.0408 49.8863C20.8056 49.7185 19.8525 49.5315 18.9922 49.4285C18.5558 49.3817 18.1402 49.3314 17.6018 49.2734C17.0623 49.2085 16.3771 49.1685 15.4323 49.0301C14.5204 48.4576 13.6545 47.82 12.7921 47.2033C13.6853 48.0004 13.4017 48.2631 12.5234 48.2633C11.6624 48.239 10.2157 47.9221 8.88449 47.5284C9.46253 48.2365 9.97422 48.8489 10.354 49.191C8.9852 48.6609 7.6404 48.0624 6.31624 47.4175C5.93963 47.0105 6.49267 46.9874 7.29483 47.0431C7.00747 46.9494 6.72822 46.8615 6.50466 46.8069C5.38789 45.6624 6.352 45.7047 7.54104 45.8514C7.88651 46.2851 8.22385 46.713 8.56001 47.134C9.76139 47.1857 10.8871 47.129 10.953 46.5536C10.667 46.5097 10.1733 46.337 9.64698 46.0984C9.95481 46.103 10.1711 46.0731 10.1046 45.9346C10.0345 45.7752 9.54606 45.7586 8.85338 45.5914L8.58052 44.2455L8.17526 44.4648C6.77841 43.311 5.43351 42.127 4.19234 40.8395C2.39312 40.0473 0.61845 39.3152 -1.26781 38.1808C-3.14594 37.0521 -5.16917 35.5342 -7.21946 33.0639C-5.69777 33.9035 -6.05946 32.6229 -5.29986 32.1788C-5.24579 32.6623 -4.99746 33.1126 -4.64724 33.574C-4.30397 34.0367 -3.84037 34.493 -3.31196 34.9525C-2.27933 35.8972 -1.00606 36.8293 0.0530072 38.0122C-1.04449 36.7716 -0.485696 36.7403 -0.0949108 36.9378C-1.60158 35.8099 -3.05885 34.5951 -4.43559 33.2665C-4.11459 33.0974 -4.19807 32.776 -4.43709 32.3385C-4.67037 31.8927 -5.04886 31.3076 -5.35596 30.6389C-5.61626 31.4974 -6.41074 30.7763 -7.32749 29.5905C-7.76623 28.9871 -8.23783 28.275 -8.67574 27.5929C-9.10671 26.9096 -9.51788 26.2587 -9.86928 25.7903C-9.48535 25.4462 -8.89977 25.7389 -7.57395 28.1901C-7.923 26.6074 -8.7195 25.958 -9.54393 25.2706C-10.3533 24.5877 -11.2011 23.8471 -11.2758 22.2817C-11.0476 22.9068 -10.9709 23.2722 -10.6508 23.4317C-11.1464 22.788 -11.6215 21.5125 -11.7889 20.4914C-11.9632 19.4714 -11.8794 18.7502 -11.6058 19.139C-11.5703 19.3472 -11.5139 19.5517 -11.4702 19.7656C-11.6643 18.7134 -11.8374 17.4077 -11.8304 16.0283C-11.8372 14.6512 -11.6406 13.2109 -11.308 11.9401C-10.9765 10.6623 -10.4846 9.57139 -10.0796 8.72382C-9.6595 7.88081 -9.33688 7.26155 -9.42849 6.93444C-9.35774 6.97234 -9.21739 7.33396 -9.07348 7.7164C-8.92958 8.09883 -8.77517 8.5009 -8.76177 8.66285C-8.3002 6.09894 -6.42625 3.40076 -4.10952 1.16248C-4.29675 1.78003 -3.47605 2.40385 -3.09466 3.13131C-2.69007 3.86909 -2.74597 4.62843 -4.22437 5.58804C-3.24187 5.32015 -2.06509 5.01907 -0.00334077 4.08831C-0.72527 4.12599 -2.17455 3.16686 -1.22608 2.7834C0.2801 2.94731 0.783741 3.01119 1.36809 3.00416C1.94094 3.01337 2.61074 2.96317 4.34504 3.16664C3.23286 3.13535 4.14877 1.30785 5.9568 1.14881C5.71027 1.41945 6.27335 2.70855 5.67262 2.95404C7.00976 2.25422 8.40395 1.63748 9.8738 1.12921C8.77453 1.42419 9.70682 2.45025 10.5837 2.94308C10.377 2.77845 11.267 2.80487 12.3218 2.96022C13.3858 3.08544 14.571 3.41846 15.1 3.46373C14.5864 3.21589 14.0576 2.96349 13.5071 2.75052C14.634 2.99352 15.4712 3.12893 16.2165 3.14438C16.5846 3.16716 16.926 3.15881 17.2649 3.13659C17.5924 3.13061 17.9093 3.10501 18.2344 3.08516C18.8743 3.06863 19.5512 3.06006 20.3216 3.26403C21.0908 3.46105 21.9603 3.86943 22.9149 4.69173C22.579 4.60632 21.9745 4.78818 21.6926 5.18625C21.4108 5.58433 21.4329 6.17325 22.1734 6.99643C22.8124 7.0586 24.3438 7.16107 26.0972 8.06109C26.9854 8.49485 27.8584 9.17399 28.6732 10.0559C29.4418 10.96 30.1072 12.0959 30.4354 13.3894C30.3246 13.744 30.1837 14.0894 30.0555 14.4255C30.3119 15.717 30.3707 17.0638 30.2628 18.3961C30.0911 17.7257 29.8592 16.787 29.4859 15.7725C29.1057 14.7592 28.5377 13.6923 27.8904 12.7461C27.2003 11.8 26.4251 10.9828 25.654 10.3148C24.8575 9.66543 24.1321 9.13958 23.4952 8.7557C23.85 9.49484 23.7385 9.67813 23.7949 9.88272C23.8317 10.0978 23.9832 10.3576 24.4745 11.3519C24.4358 11.7941 24.156 11.5777 23.8721 11.212C23.5605 10.8511 23.1939 10.3353 22.9938 10.0839C23.4377 10.8007 23.7509 11.5469 23.9784 12.2935C24.2199 13.0378 24.319 13.7849 24.3359 14.5104C24.567 14.4423 24.7529 14.6105 24.9289 14.9303C25.0772 15.2549 25.1856 15.722 25.242 16.2193C25.3537 17.2071 25.2366 18.2768 25.6394 18.2937C25.9074 16.227 25.5931 14.3455 24.7752 12.7358C25.177 12.4957 26.1281 13.0473 26.7692 14.4587C27.4541 15.8341 27.5529 18.1666 26.5835 20.2246C26.1827 20.6787 25.8895 20.3004 25.6331 19.8443C25.3754 19.3814 25.1348 18.8512 24.9751 18.8357C25.0457 19.1235 24.8506 20.0709 24.4677 20.9647C24.0988 21.856 23.5606 22.6764 23.3538 22.7617C23.5528 22.1707 23.7239 21.5845 23.8534 21.0054C23.1547 21.8889 22.8854 22.8203 22.4427 23.7815C22.2167 24.2557 21.956 24.7358 21.5667 25.1737C21.1611 25.6001 20.6524 26.0083 19.9966 26.3489C19.6241 26.6768 18.8254 26.8919 18.2142 27.1177C17.6053 27.3574 17.0818 27.5112 17.1778 27.7804C17.6707 27.7818 18.1735 27.9244 18.6454 28.1366C19.1253 28.3545 19.5942 28.6742 19.9926 29.0417C20.7883 29.7698 21.2839 30.7062 21.0382 31.4409C20.9551 31.4979 20.5625 31.7079 19.9838 31.9567C19.405 32.2056 18.6948 32.5626 17.9125 32.832C17.1221 33.0956 16.3154 33.3477 15.6196 33.538C14.9016 33.6822 14.3037 33.7772 13.9612 33.7786C12.959 33.7642 13.4014 33.0102 13.8208 32.2887C14.246 31.5591 14.655 30.8608 13.8483 30.8202C13.9061 31.0745 13.1925 31.7463 12.8661 32.0092C12.3297 32.1294 12.3542 31.8967 12.2542 31.771C12.1553 31.6522 11.9202 31.6138 10.8528 32.0533C10.832 33.1851 6.22794 33.2793 10.0625 33.1953C8.9719 33.6244 8.35558 33.7369 7.68714 33.8369C7.00684 33.8674 6.28846 33.9259 4.94126 34.149C5.41447 34.4109 4.88573 34.994 3.88026 35.5872C3.38159 35.8866 2.76141 36.1854 2.10025 36.3698C1.44147 36.5681 0.751381 36.7503 0.124392 36.8003C0.277337 36.5671 -0.274916 36.2187 -0.531327 36.0555C-1.16104 36.006 -1.74675 35.9633 -2.30708 35.9019C-2.85947 35.8035 -3.38985 35.7085 -3.8913 35.6157C-4.91026 35.4613 -5.8096 35.1295 -6.71553 34.8844C-7.17078 34.7694 -7.60082 34.593 -8.04355 34.4258C-8.4851 34.2656 -8.92784 34.0985 -9.38445 33.9338C-9.84106 33.769 -10.2887 33.5313 -10.7721 33.3354C-11.2463 33.1094 -11.7665 32.9484 -12.2653 32.6623C-12.5493 32.2538 -14.3469 31.0115 -13.3226 31.072C-13.9792 30.9486 -14.6241 30.8518 -15.8317 30.137C-16.2806 29.5996 -16.3023 29.389 -16.1667 29.4301C-16.0254 29.4631 -15.6878 29.6839 -15.3121 29.8768C-14.564 30.2845 -13.7626 30.7117 -14.3405 29.7536C-14.7844 30.165 -17.7306 28.4692 -19.3637 27.2701C-19.3973 27.5329 -19.205 27.8642 -18.8702 28.2355C-18.7028 28.4211 -18.5041 28.6228 -18.2719 28.8116C-18.027 28.9911 -17.7601 29.174 -17.4793 29.3545C-16.3756 30.1299 -14.9384 30.6841 -14.0169 31.0622C-14.3076 31.576 -15.3465 31.6393 -16.9496 31.242C-17.7133 30.9941 -18.6116 30.6263 -19.5822 30.1281C-20.0439 29.85 -20.5312 29.5476 -21.0313 29.2118C-21.282 29.0404 -21.5396 28.8702 -21.7926 28.6849C-22.0341 28.4834 -22.2768 28.275 -22.5265 28.0677C-24.0631 26.6808 -24.1509 26.1673 -24.0103 26.0291C-23.8639 25.8826 -23.4432 26.0464 -23.723 25.83C-26.0334 22.8401 -27.1666 21.6413 -28.3132 20.5733C-29.3719 19.476 -30.3692 18.4039 -31.1091 15.2027C-31.1401 13.8512 -30.79 13.7271 -30.388 13.8227C-29.9918 13.9264 -29.5438 14.2497 -29.3682 13.8983C-28.0498 16.8079 -27.9947 18.6765 -26.8747 20.5917C-27.245 19.7623 -27.5286 18.8967 -27.804 18.0369C-27.4506 18.4336 -27.0555 19.1158 -26.5992 19.7805C-26.1486 20.4533 -25.7557 21.1645 -25.5393 21.7202C-25.6572 21.1976 -26.1031 20.2598 -26.7062 19.0704C-26.9761 18.4524 -27.2844 17.7767 -27.623 17.0491C-27.935 16.3098 -28.2218 15.509 -28.548 14.6865C-29.7709 11.375 -30.4654 7.39482 -30.2652 4.59708C-30.5584 3.63319 -30.8202 1.8927 -31.1235 2.70861L-30.9946 4.5075C-31.2225 5.34625 -31.5419 4.52248 -31.6967 3.74202C-31.8792 2.9663 -32.0164 2.24709 -32.1435 3.42563C-32.249 2.80812 -32.4102 2.1573 -32.4894 1.4853C-32.5628 0.805177 -32.6339 0.0961149 -32.6683 -0.647815C-32.6956 -1.39293 -32.6132 -2.16397 -32.5239 -2.97899C-32.4393 -3.77896 -32.2381 -4.64883 -31.8738 -5.56798C-31.5285 -5.71984 -31.1819 -5.86475 -30.8237 -5.9831C-30.9602 -5.98832 -31.2947 -5.43844 -31.5337 -4.74777C-31.7797 -4.05592 -31.9141 -3.2546 -31.8483 -2.74455C-31.9405 -3.49287 -31.4253 -4.82344 -30.7201 -6.12934C-30.3664 -6.77535 -29.9202 -7.46571 -29.5221 -8.01933C-29.1194 -8.58801 -28.7408 -9.08831 -28.5068 -9.5996C-29.4297 -9.19194 -30.2578 -8.52199 -30.9417 -7.67674C-30.6464 -8.45559 -30.2123 -9.25814 -29.5893 -10.0002C-28.9628 -10.7213 -28.1497 -11.3959 -27.1574 -11.8154C-26.1744 -12.2476 -25.0459 -12.4547 -23.8885 -12.4097C-23.6027 -12.4086 -23.3109 -12.3728 -23.0469 -12.3322C-22.7841 -12.2986 -22.5328 -12.2487 -22.2941 -12.1895C-21.7961 -12.0747 -21.3325 -11.9111 -20.8908 -11.7081C-21.588 -12.403 -21.852 -12.4436 -22.2157 -12.5242C-22.401 -12.564 -22.6037 -12.6222 -22.9676 -12.7457C-23.3327 -12.8761 -23.9121 -13.0912 -24.8331 -13.3409C-23.2483 -12.6334 -26.5797 -13.1566 -29.0624 -11.5969C-30.3034 -10.8778 -31.212 -9.80138 -31.5449 -9.15893C-31.7195 -8.84346 -31.7569 -8.64426 -31.662 -8.63192C-31.567 -8.61959 -31.3178 -8.79072 -30.8621 -9.13281C-31.5835 -8.67391 -32.1362 -8.02245 -32.5512 -7.35883C-32.9353 -6.76477 -33.1885 -6.15736 -33.4059 -5.54894C-33.8579 -4.30774 -34.0684 -3.15778 -34.798 -1.61919C-34.6466 -1.65222 -34.4706 -1.91794 -34.4042 -1.82217C-34.324 -1.72876 -34.3998 -1.2945 -34.5468 0.101669C-34.4745 0.232134 -34.3864 0.538432 -34.3393 0.730331C-34.3541 0.811394 -34.3632 0.841519 -34.3721 0.914459C-34.3527 0.861148 -34.3459 0.817138 -34.3265 0.763828C-34.2913 0.886345 -34.2819 0.899045 -34.3151 0.704774C-34.1489 0.0479642 -33.9589 -0.470083 -33.7862 -0.670987C-33.647 -0.316304 -33.5627 0.219121 -33.5069 0.837987C-33.4894 1.1492 -33.4614 1.48005 -33.4449 1.82713C-33.4077 2.17066 -33.3749 2.52926 -33.3365 2.87973C-33.2583 3.5876 -33.2357 4.30496 -33.1163 4.92009C-33.0108 5.53759 -32.8987 6.0683 -32.7827 6.41266C-32.7738 8.0107 -33.1683 5.78589 -33.3937 6.68133C-33.1871 7.38867 -32.8696 8.07705 -32.5972 8.75172C-33.2393 9.04714 -32.7907 13.1765 -33.9169 9.46999L-33.7698 10.3303L-33.5812 11.1836L-33.1911 12.8807C-33.0723 13.9101 -32.8359 15.1265 -32.4702 16.2637C-32.0583 17.3787 -31.658 18.4671 -31.1216 19.1823C-30.8118 19.9506 -30.2319 20.8369 -29.7832 21.3315C-29.3402 21.8342 -29.1357 22.0278 -29.7071 21.5256C-29.1787 22.2779 -28.7103 23.0548 -28.138 23.771C-27.56 24.4791 -27.0269 25.2164 -26.419 25.8908L-26.5098 26.0278C-24.9143 28.2187 -22.7659 30.0509 -20.4965 31.7982C-18.1877 33.5245 -15.7026 35.0707 -13.0673 36.8697C-12.6223 37.0078 -12.1774 37.146 -11.7162 37.2957C-11.4822 37.37 -11.2481 37.4442 -11.0059 37.5242C-10.7592 37.5892 -10.5055 37.6529 -10.2437 37.7225C-9.72006 37.8615 -9.16394 38.0235 -8.55333 38.2119C-7.94728 38.4154 -7.27559 38.5434 -6.53872 38.7602L-6.06156 39.4213C-5.47211 39.5277 -4.73815 39.6022 -3.95526 39.754C-3.56382 39.83 -3.1585 39.9035 -2.75318 39.9771C-2.34211 40.0425 -1.93578 40.0802 -1.52709 40.1317C-0.721368 40.2082 0.0417112 40.3278 0.669886 40.2847C1.30043 40.2555 1.78848 40.1863 2.03435 40.0372C2.35676 40.2106 2.78781 40.3512 3.29501 40.4359C3.80559 40.4986 4.38656 40.5135 5.03454 40.5028C5.35506 40.498 5.69521 40.4827 6.04111 40.4593C6.38583 40.4289 6.73849 40.3615 7.10741 40.3056C7.83474 40.1742 8.59219 40.0519 9.35048 39.8509C12.4163 39.1127 15.4256 37.5844 17.3942 36.7766L17.2084 36.0657C17.8435 35.7287 18.468 35.372 19.0902 35.0015C19.716 34.6518 20.2821 34.1622 20.8856 33.7235C21.182 33.4943 21.4842 33.257 21.7864 33.0197C22.0688 32.7501 22.3582 32.4792 22.6602 32.1991C23.2411 31.6286 23.8834 31.0832 24.4405 30.3739L23.8526 30.0673C24.2943 29.4348 24.8901 28.826 25.5376 28.1441C26.177 27.4564 26.8763 26.7013 27.5798 25.8456C28.9766 24.1573 30.3969 22.0222 31.0599 19.4667C31.2155 19.8757 30.7393 21.1425 30.2299 21.9222C32.1289 19.4126 32.5644 15.5677 31.5684 12.2889C31.1034 10.6546 30.373 9.17984 29.6107 7.85338C28.8461 6.51303 28.0207 5.31874 27.2994 4.10666C26.2184 3.21313 25.5305 2.53091 24.8944 1.77557C24.9943 1.85847 25.0906 1.92057 25.1776 1.96997C25.0754 1.87319 24.922 1.72801 24.7502 1.60027C24.3376 1.14951 23.9097 0.651364 23.3824 0.19876C23.7939 0.642583 24.1602 1.07271 24.5041 1.41382C23.6706 0.756497 22.267 -0.060485 20.7951 -0.608718C20.6944 -0.9057 20.5925 -1.20962 20.4755 -1.51811C20.3538 -1.56158 20.2541 -1.60167 20.1255 -1.64396C18.7404 -2.47837 18.8461 -1.81805 19.4151 -1.03698C18.6505 -1.24907 17.9479 -1.30751 17.3947 -1.32722C17.1861 -1.67004 16.8346 -1.88846 16.4081 -2.04408C15.9713 -2.17652 15.471 -2.2624 14.9547 -2.31698C13.9151 -2.42494 12.8525 -2.50042 12.0942 -3.13491C11.5675 -2.91635 9.69866 -2.90403 7.91772 -2.62823C6.12629 -2.37206 4.45286 -1.84328 4.17662 -1.20337C4.1089 -1.3489 3.68531 -1.3622 4.43583 -1.48332C2.87165 -1.40166 1.30326 -1.21932 0.0365054 -0.567235L-0.815679 -1.24993C-1.83129 -0.590781 -2.8271 0.100694 -3.77872 0.84174C-4.84638 0.945654 -5.62245 1.04258 -5.91913 0.936181C-6.21699 0.822846 -6.03564 0.463365 -5.13596 -0.24738C-7.40273 1.19686 -8.25621 1.88544 -9.04879 2.47077C-9.43865 2.78019 -9.80075 3.08485 -10.2501 3.54727C-10.6845 4.01424 -11.2212 4.63439 -11.806 5.64124L-12.0571 5.09145C-12.639 5.6979 -13.1683 6.69526 -13.5777 7.60071C-13.9847 8.52003 -14.2869 9.34288 -14.673 9.71593C-15.267 10.4601 -15.9297 11.973 -16.2361 13.982C-16.5589 15.9794 -16.4664 18.4844 -15.8821 20.9838C-15.3106 23.4926 -14.2912 25.989 -13.157 28.2802C-12.0285 30.5795 -10.7943 32.7037 -9.71484 34.6329C-9.54258 33.4681 -9.11174 34.4013 -8.53651 35.5526C-8.23908 36.1231 -7.90322 36.7512 -7.56925 37.2011C-7.2226 37.6417 -6.87783 37.9042 -6.57984 37.7675C-6.55063 38.3981 -5.9155 39.4821 -7.09128 38.619C-6.29763 39.4188 -5.60046 40.1138 -5.01329 40.7918C-4.39617 41.4361 -3.8833 42.0554 -3.3476 42.5994C-2.29007 43.6897 -1.25998 44.5777 0.277902 45.136C0.434373 45.7591 -0.834813 44.9763 -0.626922 45.4406C-0.284881 45.6036 0.708747 46.0693 0.932886 46.5451C1.15584 47.014 0.213632 46.3896 -0.455388 46.0683C0.460604 46.7901 1.22865 47.2729 1.8848 47.5607C2.52945 47.8647 3.04613 48.0049 3.48478 48.0228C4.3482 48.0609 4.82689 47.6863 5.2697 47.3107C6.87124 48.9936 7.94492 49.5099 9.71593 49.6357C10.2383 50.3105 11.2479 51.2876 8.70063 50.0877C9.37 50.4946 11.4534 51.7381 13.5238 52.6125C15.5838 53.5101 17.5879 54.0388 17.7968 53.6317C17.9989 53.8114 18.5112 54.0095 19.0336 54.1416C19.5618 54.2656 20.0898 54.3467 20.297 54.347C21.9861 54.8295 22.9129 55.071 23.8464 55.2686C24.7753 55.4811 25.7029 55.6439 27.4152 55.844C27.1013 55.762 26.7977 55.6568 26.4883 55.5597C27.9809 54.6834 29.3368 55.7227 32.1164 55.7333L32.0347 55.84C35.1936 56.357 35.8976 56.1725 36.5672 56.0794C37.2472 55.9632 37.8846 55.9328 41.0708 56.0239L40.6493 55.3961C40.7553 55.0138 41.1481 54.8467 41.7426 54.7737C42.3335 54.6798 43.124 54.709 44.0173 54.7134C45.7704 54.6923 48.0574 54.787 49.9749 53.3882C49.7021 53.4634 49.4305 53.5455 49.1599 53.5917C48.9113 53.6413 48.6661 53.669 48.4221 53.7035C49.3659 53.0424 51.4569 52.7421 53.095 51.2125C53.7498 50.6151 54.2848 49.8595 54.6332 49.0573C54.9829 48.262 55.1334 47.4294 55.1004 46.7352C55.145 46.0349 55.4624 47.8088 55.3751 48.802C55.6058 47.77 55.6046 46.9276 55.5477 46.3018C55.4895 45.669 55.3789 45.2309 55.2724 44.942C55.0513 44.3586 54.887 44.3581 54.7183 44.4155C54.5496 44.4729 54.3695 44.5893 54.106 44.3844C53.8391 44.2016 53.4931 43.6394 52.8086 42.6424C52.7648 42.1358 53.1701 42.2093 53.3813 42.0661C53.5822 41.9461 53.6068 41.4634 52.5553 40.1578C52.3559 39.7849 51.775 39.2272 51.009 38.6726C50.2337 38.1053 49.3231 37.5825 48.3476 37.0137C47.8627 36.7253 47.3685 36.4241 46.88 36.1148C46.3801 35.8218 45.8789 35.5219 45.4101 35.2021C44.4782 34.5544 43.6078 33.932 42.9673 33.2345C43.4391 33.9894 43.8783 34.7212 42.2111 33.9493C41.6194 33.5791 40.959 33.0993 40.2602 32.5618C39.5671 32.0161 38.8356 31.4128 38.0604 30.8883C36.5504 29.7824 34.9048 28.9283 33.53 28.9061C33.2478 28.6759 33.1593 28.5339 33.1867 28.4435C32.6619 28.2976 31.9968 28.0828 31.2564 27.8451C30.5229 27.6063 29.7016 27.3967 28.9207 27.1731C27.3544 26.741 25.8306 26.5158 25.1447 26.5974C24.8525 25.8904 23.8762 25.4003 22.6074 24.9958C21.9666 24.7983 21.2452 24.6717 20.496 24.5498C20.122 24.4923 19.741 24.436 19.3601 24.3797C18.9758 24.3454 18.5914 24.3111 18.2059 24.2699C15.1543 23.9631 12.3588 24.0267 12.491 22.9615C11.3971 22.87 10.302 22.7715 9.20602 22.7517L7.56143 22.6971L5.91364 22.7074L6.09095 22.4914C3.99367 22.3785 2.52478 22.5582 1.42076 22.8254C0.323687 23.0914 -0.411892 23.4671 -1.11853 23.8449C-2.14017 23.8838 -1.45417 23.5524 -1.38294 23.426C-2.99415 23.6085 -4.27162 23.9054 -5.32434 24.2638C-6.37588 24.6292 -7.21316 25.0365 -7.96209 25.5429C-8.70646 26.0343 -9.3694 26.6261 -10.0223 27.4017C-10.6578 28.1959 -11.339 29.1406 -11.8832 30.469C-12.1851 30.4992 -12.5009 30.5317 -12.8062 30.5839C-12.9017 30.9858 -13.371 31.6659 -13.8495 32.6688C-14.1298 33.1595 -14.3368 33.7447 -14.6143 34.3777C-14.8326 35.022 -15.0982 35.7243 -15.2617 36.4806C-15.6316 37.9934 -15.8386 39.7069 -15.7297 41.4307C-15.6289 43.1487 -15.248 44.876 -14.5915 46.3776C-14.6842 46.3363 -14.8628 46.2526 -15.0881 45.7698C-14.7466 46.6398 -14.4061 47.5456 -14.0332 48.4744C-13.8427 48.9203 -13.6441 49.372 -13.4513 49.8317L-13.1627 50.5179L-12.8405 51.1912C-12.0137 53.0208 -10.9985 54.7825 -9.92636 56.3345C-7.75547 59.4268 -5.23699 61.5029 -3.46519 61.2572C-2.79362 61.6351 -2.13018 62.0073 -1.43916 62.332C-0.765394 62.681 -0.0709938 62.9836 0.62916 63.2781C-0.590272 62.494 -1.07943 62.0134 -1.203 61.7918C-1.32082 61.562 -1.06274 61.5678 -0.718861 61.6162C-0.0287224 61.7267 1.02309 61.9897 0.165805 61.1936C1.12847 61.7289 2.243 62.6096 2.86332 63.1891C3.47096 63.7779 3.53481 64.1098 2.28952 63.5085L1.97114 63.1916C1.20407 63.5084 2.69177 64.5252 4.3964 65.3907C6.09528 66.2643 7.98671 66.9694 7.76153 67.3649C13.1794 69.3168 18.6887 70.4246 24.1072 71.1267C26.8153 71.4708 29.4987 71.7121 32.1482 71.8805C32.8114 71.9171 33.4677 71.9549 34.124 71.9927C34.8647 72.0232 35.6054 72.0537 36.3392 72.0854C37.3356 72.108 38.3507 72.1558 39.3273 72.146C40.2574 72.0728 41.2386 72.0479 42.1118 71.9344C41.3529 71.7142 40.5543 71.3865 39.8749 71.0884C41.5088 71.0805 42.8445 70.8737 44.0686 70.2646C44.6396 70.0956 45.0914 69.9399 45.1258 70.1411C45.1473 70.3088 44.7738 70.9225 43.3085 71.4157C44.3129 71.4011 45.3919 70.6954 45.9269 69.6471C46.4919 68.6079 46.3335 67.5139 46.2303 67.453C46.4124 66.7221 46.3907 66.2188 46.4124 65.8866C46.4273 65.5556 46.444 65.4027 46.5098 65.3701C46.6264 65.3002 46.8874 65.7411 47.0473 66.3422C47.221 66.9409 47.2323 67.7173 47.1661 68.2071C47.0848 68.6923 47.0706 68.9018 47.2445 68.4151C47.5323 67.509 47.5239 66.5821 47.3745 65.7079C47.3568 65.8966 47.339 66.0853 47.3143 66.2751C46.9962 65.1656 46.5715 64.6026 46.0906 63.8779C45.5669 63.1533 45.0957 62.2769 43.5746 60.7303C42.7627 59.6979 42.6455 59.3466 42.6632 59.1579C42.674 58.9704 42.8209 58.9525 42.4465 58.5166C42.4788 58.4968 42.4287 58.4125 42.2578 58.2061C42.11 58.01 41.7011 57.6228 41.325 57.3443C40.1842 56.2682 39.0537 55.1689 37.8346 54.1776C38.1461 54.7885 38.4621 55.3843 38.7586 55.9906C36.9075 54.9787 35.4097 53.1924 36.484 55.2582C35.7647 53.6816 32.3375 50.9682 28.7437 48.826C26.9629 47.7236 25.11 46.8263 23.6511 46.0616C22.1543 45.3677 21.0319 44.8169 20.6372 44.513C17.735 43.9521 15.1327 42.8901 11.7727 41.8648C12.5635 42.2723 12.7876 43.2909 9.95555 42.3467C10.7357 41.5636 9.44679 41.0412 7.68671 40.478C6.81292 40.1703 5.79954 39.965 4.88413 39.6644C3.96871 39.3638 3.12487 39.0225 2.55619 38.6198C3.58741 39.2219 1.42122 38.9566 -0.592809 38.8295C-2.61698 38.7684 -4.45922 38.769 -2.79201 39.541C-4.03791 39.354 -4.07094 39.2025 -4.02207 38.9871C-3.97201 38.7786 -3.84343 38.5281 -4.80724 38.2787C-6.33994 38.4192 -7.91378 38.4025 -9.64685 38.4988C-11.3718 38.6008 -13.2274 38.7322 -15.1981 39.2761C-17.1493 39.8095 -19.2523 40.833 -20.8978 42.5281C-22.5236 44.2128 -23.5898 46.373 -24.0392 48.5064C-23.8245 48.6768 -23.1225 47.4357 -23.1984 49.2481C-23.9012 50.5679 -24.4507 51.99 -24.8578 53.4521C-24.7954 54.2769 -24.4133 54.6329 -24.1473 55.1444C-23.8675 55.6536 -23.7317 56.3231 -23.9201 57.7692C-23.7795 57.3381 -23.5564 56.7216 -23.3221 57.7169C-23.0485 61.4906 -21.8747 65.2246 -20.1179 68.6519C-19.2326 70.3644 -18.1763 71.9905 -17.0324 73.5445C-15.8435 75.0694 -14.5715 76.5373 -13.1715 77.8762C-10.3717 80.554 -7.18233 82.8367 -3.72078 84.623C-2.86829 85.0986 -1.97452 85.4814 -1.10139 85.9106C-0.203054 86.2784 0.682766 86.6982 1.60292 87.0266C3.42616 87.7504 5.29625 88.3305 7.21135 88.8816C5.17606 88.0869 6.58984 88.2951 8.17927 88.4448C7.16115 88.2118 8.26937 87.8439 8.10008 87.48C10.1621 88.0131 12.301 88.4116 14.4841 88.567C14.7655 88.3332 15.3353 88.1573 16.0325 88.0167C16.7333 87.897 17.5658 87.7547 18.3846 87.6148C20.0208 87.328 21.5697 86.9062 21.7654 86.38L20.8179 86.7276L19.8541 87.0209C21.045 86.2175 19.9696 85.8586 18.723 85.5003C17.4473 85.0971 15.9978 84.6379 16.099 83.935C14.8223 84.6959 12.9521 84.3657 10.9935 83.9364C9.00938 83.4828 6.97615 82.9092 4.64117 83.2439C3.75855 82.7592 5.54279 83.0042 5.10712 82.5859C4.51298 82.7446 3.86399 82.7912 3.09261 82.6231C2.3121 82.4852 1.41038 82.1394 0.300648 81.5793L0.610676 81.5548C-2.63908 80.3393 -4.73472 78.9408 -6.68216 77.2813C-8.61809 75.6055 -10.4373 73.6099 -12.5887 70.4643L-12.7715 71.3167C-13.2661 70.6372 -13.4613 70.1636 -13.6237 69.7986C-13.7733 69.4242 -13.8693 69.155 -13.9913 68.776C-14.9065 68.2254 -14.3457 69.2507 -13.6624 70.2408C-13.0125 71.2437 -12.2483 72.2056 -13.2426 71.8614C-13.4203 70.5707 -15.1162 68.1684 -16.2981 65.5569C-16.4464 65.2323 -16.5946 64.9078 -16.7418 64.5902C-16.8692 64.262 -16.9886 63.9397 -17.1068 63.6243C-17.3558 63.0027 -17.5111 62.3866 -17.6488 61.8317C-17.916 60.7277 -17.9001 59.8181 -17.6392 59.3807C-18.1642 56.9354 -18.2349 60.2823 -18.7659 57.8023L-18.4553 57.0709L-19.0847 56.5215C-19.2478 54.857 -18.6864 54.0469 -18.3476 53.9819C-18.3831 54.3593 -18.1952 55.0413 -18.1194 55.4425C-17.9883 54.4132 -18.0657 53.0411 -18.0231 51.8699C-18.0024 50.6952 -17.8513 49.7411 -17.6799 49.4904C-17.9575 50.0806 -18.1955 50.7354 -18.3604 51.4419C-18.2799 49.9072 -17.836 48.4102 -17.0689 47.258C-16.3029 46.0988 -15.1907 45.2946 -13.6967 44.7608C-10.7064 43.6642 -6.57562 43.8509 -3.08191 43.6108L-3.59253 43.2554C-2.24107 43.2243 -1.29557 43.2413 -0.547735 43.3134C0.19791 43.4145 0.74116 43.543 1.30066 43.683C2.42303 43.9411 3.57708 44.3009 6.49282 44.7737L6.26843 44.7978C7.473 44.7847 9.08444 44.9378 10.6176 45.4684C9.09332 45.4076 13.0977 46.944 11.1136 46.7832C12.553 47.0157 13.4173 47.2679 14.0252 47.3568C14.6227 47.4689 14.9329 47.4873 15.1886 47.4793C15.7116 47.4471 15.9876 47.3071 18.0192 47.4954L18.6451 48.3168C19.3454 48.3613 19.7377 48.3585 20.3133 48.4673C20.8785 48.5992 21.6523 48.7811 23.0054 49.4282C20.637 48.6904 24.3195 51.0174 21.6446 50.282C22.8776 51.271 24.0432 51.9073 25.079 52.4943C26.1078 53.0826 27.0884 53.472 27.9256 53.9002C28.7617 54.3214 29.5131 54.7071 30.1411 55.1639C30.7563 55.6301 31.2273 56.2137 31.5475 56.9587C33.12 57.2184 32.1661 56.2746 30.9899 55.3259C29.8047 54.4074 28.3514 53.5918 29.1094 53.8907C28.2356 52.7475 31.717 54.2734 33.1979 55.627C34.0139 56.223 34.3742 57.1612 35.0291 58.2775C35.36 58.835 35.7572 59.4456 36.2716 60.1574C36.5311 60.5058 36.83 60.8761 37.1798 61.2519C37.432 61.5158 37.7028 61.8052 37.9992 62.1187C37.8098 61.9297 37.7592 62.0097 37.5385 61.8047C37.69 62.0644 37.7843 62.1983 37.9747 62.3514C38.1501 62.4999 38.3589 62.6356 38.5852 62.7898C39.0273 63.0784 39.5256 63.5288 39.3689 63.9912C40.1595 64.3131 40.3129 64.751 40.3652 65.0991C40.4199 65.4611 40.3841 65.7529 41.172 66.268C41.3447 65.7744 41.2324 65.2009 41.0013 64.7262C40.776 64.2434 40.4467 63.8213 40.1038 63.4443C40.443 63.7576 40.8611 64.1146 41.2749 64.5723C41.6806 65.0243 42.0881 65.6116 42.1856 66.2662C42.289 66.9126 42.0048 67.5896 41.3626 67.885C40.7309 68.2 39.8375 68.1956 38.8578 68.0203C38.9842 67.7987 39.6785 67.5158 40.0347 67.1765C39.4339 67.1292 39.1183 67.2046 38.7506 67.2674C38.3968 67.3279 37.9815 67.3631 37.4739 67.1928C37.4045 66.9119 37.5497 66.7586 37.8143 66.6776C38.0778 66.5897 38.4701 66.587 38.8967 66.4926C39.3176 66.4064 39.8037 66.1591 39.9245 65.6957C40.0672 65.2357 39.792 64.7115 39.3693 64.3696C39.2448 64.4765 39.2849 64.6696 39.3346 64.9182C39.3911 65.1656 39.4062 65.463 39.3366 65.682C39.2738 65.8998 39.1308 66.0242 38.978 66.0074C38.8183 65.9919 38.658 65.8479 38.3789 65.51C38.7186 65.9518 38.656 66.2124 38.4308 66.3152C38.2067 66.4249 37.8282 66.3825 37.4541 66.325C37.0744 66.2756 36.7061 66.21 36.3452 66.2289C36.1612 66.2389 35.9808 66.2697 35.7705 66.3342C35.7382 66.3541 35.626 66.3661 35.5149 66.3851L35.1958 66.4396C34.9843 66.4972 34.7727 66.5547 34.5485 66.6216L34.7923 65.9587C34.2441 66.0524 33.1078 66.3394 32.1066 66.2892L33.9386 65.4762C31.1317 66.1416 28.6399 64.6394 26.0243 64.8365C31.4969 65.1866 27.1921 65.7366 29.4975 66.3566C26.0501 66.6173 25.0989 66.0657 24.0885 65.4601C23.0746 64.8336 21.9784 64.1854 18.3233 63.7318C19.3096 63.8203 21.9817 64.7061 20.3816 64.7868C18.9893 64.4535 17.2082 63.851 16.4469 63.3241C11.7043 62.3566 17.014 64.1769 14.9088 64.1011C13.4967 62.9 12.4938 63.8426 10.3547 63.4013L10.558 62.7524C8.04693 61.6391 7.61 61.7566 7.18848 61.9643C6.78422 62.1477 6.39994 62.4062 4.26961 61.0136C5.03826 61.0822 5.824 61.0836 6.57166 61.1129C5.76963 60.8072 4.94915 60.519 4.16657 60.16L4.99336 59.7331C2.30991 58.9063 1.60497 58.2913 -0.378875 56.5023C-0.165183 57.2513 -1.45521 57.3075 -3.2742 55.6475C-3.73886 54.9343 -3.45285 54.9782 -3.37789 54.9154C-3.30987 54.8538 -3.43209 54.6819 -4.62891 53.4868C-3.77493 53.7622 -2.88762 53.9819 -2.23483 55.4199C-1.98624 55.3703 -1.39051 55.597 -1.1316 55.5241C-1.39227 55.1688 -1.69932 54.7928 -2.03293 54.4285C-2.37924 54.0735 -2.7406 53.714 -3.09384 53.3602C-3.82452 52.6781 -4.44638 52.006 -4.83585 51.5656C-4.56706 51.9267 -4.25053 52.3582 -4.14522 52.6401C-5.43254 51.6676 -6.58163 50.5429 -7.67675 49.3162C-7.81193 48.5252 -7.35883 48.9619 -6.89203 49.3534C-7.41948 48.5652 -8.04147 48.1431 -8.66004 46.8635C-8.32885 46.9211 -8.04439 46.8725 -7.71403 47.0089C-7.38942 47.1533 -7.01892 47.4828 -6.43952 48.2407C-6.65364 47.9488 -6.88046 47.6662 -7.08189 47.365L-7.66656 46.4509C-8.05793 45.8323 -8.37279 45.2434 -8.67057 44.5874C-8.56554 44.2409 -8.51423 42.3684 -8.20209 42.8577C-8.25643 41.7459 -8.66567 40.4377 -8.82092 38.986C-8.98768 37.5506 -8.86813 35.9521 -8.10678 34.808C-8.12101 34.7247 -8.14236 34.5998 -8.11412 34.4307C-8.07658 34.2744 -8.01264 34.0635 -7.90844 33.7958C-7.19887 32.7248 -6.28632 32.0475 -5.2531 31.4496C-4.22225 30.8379 -3.0291 30.2983 -1.44929 29.5142C-0.734606 29.6848 -0.0278667 29.8925 0.668553 30.1234C2.02709 29.8412 1.33185 29.6173 0.827329 29.3393C0.341428 29.0868 -0.00149255 28.7098 2.47326 28.3154C4.24963 28.0547 4.61859 28.2915 4.65908 28.5702C4.7077 28.8547 4.46153 29.211 5.09972 29.3518C6.8669 28.8285 10.1554 27.9308 13.418 29.1799C12.291 29.1868 11.4397 29.011 10.3957 28.9609L10.4375 28.9966ZM45.5282 43.0797C44.8717 42.7064 43.4321 42.1383 43.2628 41.4817C44.3988 41.4018 44.7049 42.1065 45.5282 43.0797ZM4.7043 43.2085C5.29511 43.3646 5.92712 43.9706 6.61415 44.7316C6.29868 44.557 5.97727 44.3477 5.64994 44.1037C5.33412 43.8435 5.01236 43.5486 4.70549 43.2154L4.7043 43.2085ZM-32.0182 15.3152C-32.0182 15.3152 -31.9809 15.366 -31.9623 15.3914C-31.7652 16.336 -31.6644 16.633 -31.7018 16.5394C-31.7184 16.4422 -31.8847 15.9708 -32.0182 15.3152ZM-32.8233 11.4396C-33.0065 11.0782 -33.0919 11.1214 -33.1455 11.3091C-32.8993 11.5383 -32.7291 12.409 -32.4762 13.3869C-32.4011 13.0742 -32.4114 12.5546 -32.8221 11.4466L-32.8233 11.4396ZM41.8599 58.2598L42.4143 59.1219C41.5721 58.3304 41.2759 58.0597 41.2826 58.0157C41.272 57.9532 41.5641 58.0747 41.8599 58.2598Z" fill="white"/>
<path d="M10.8467 46.0546C10.9749 46.2612 10.9697 46.3977 10.9506 46.5367C11.2713 46.5747 11.3252 46.4727 10.8467 46.0546Z" fill="white"/>
<path d="M12.5003 31.0331C13.1602 30.8418 13.5605 30.8019 13.8475 30.81C13.8121 30.6447 13.4626 30.6473 12.5003 31.0331Z" fill="white"/>
<path d="M17.3019 31.2612L16.6842 31.6167L17.5015 32.8053C17.4415 32.2871 17.3815 31.7689 17.3019 31.2612Z" fill="white"/>
<path d="M17.5839 5.33217C18.1455 5.69321 18.4609 5.86781 18.6857 5.92937C18.9092 5.984 19.0282 5.92796 19.1402 5.87311C19.3446 5.77391 19.5766 5.62715 20.4471 6.54237C20.8084 6.60916 20.4631 6.21829 20.0867 5.85417C19.7057 5.50511 19.3085 5.14455 19.6698 5.21134C19.2514 5.06147 18.9003 4.92868 18.6024 4.81534C18.3012 4.72401 18.0659 4.64282 17.8911 4.62271C17.5403 4.57555 17.4542 4.74022 17.5839 5.33217Z" fill="white"/>
<path d="M19.6697 5.20927C19.9305 5.31466 20.2133 5.42343 20.5296 5.51933C20.052 5.31532 19.818 5.24106 19.6697 5.20927Z" fill="white"/>
<path d="M18.9517 88.8028C19.7511 88.759 20.5492 88.6655 21.3647 88.5904L19.7487 88.4524C19.483 88.5692 19.2266 88.6987 18.9574 88.7947L18.9517 88.8028Z" fill="white"/>
<path d="M23.0822 86.6864L23.8927 87.3762L24.9511 86.1313C24.4659 86.3428 23.5222 86.754 23.0822 86.6864Z" fill="white"/>
<path d="M25.9727 33.1085L26.4121 33.2976C26.2289 32.9362 26.0503 32.5597 25.8556 32.2145L25.9739 33.1155L25.9727 33.1085Z" fill="white"/>
<path d="M3.42737 30.5951C4.29637 30.5823 5.38923 30.417 6.31747 30.4583C4.30094 30.5672 3.14662 29.5791 3.42737 30.5951Z" fill="white"/>
</g>
<path d="M82.25 23.1534C82.6491 30.3394 84.7443 38.2369 81.9679 38.3843C79.1904 38.5336 74.4001 31.755 74.0022 24.5672C73.6031 17.3812 79.182 9.20161 81.9602 9.05531C84.7377 8.90606 81.8521 15.9656 82.25 23.1534Z" fill="#2CB5A9"/>
</svg>
